<svg width="350" height="274" viewBox="0 0 350 274" fill="none" xmlns="http://www.w3.org/2000/svg">
<g filter="url(#filter0_dddd_2111_4020)">
<rect x="60" width="230" height="154" rx="4" fill="#FF5A30"/>
<g clip-path="url(#clip0_2111_4020)">
<g clip-path="url(#clip1_2111_4020)">
<path d="M179.922 53.0938C177.964 53.0938 176.265 53.9855 175 55.6748C173.734 53.9855 172.035 53.0938 170.078 53.0938C166.423 53.0938 163.75 56.0978 163.75 59.7841C163.75 64.5499 168.369 67.5437 174.085 72.4425C174.348 72.6681 174.674 72.7813 175 72.7809C175.326 72.7809 175.652 72.6681 175.915 72.4425C181.638 67.5375 186.25 64.5481 186.25 59.7841C186.25 56.1007 183.58 53.0938 179.922 53.0938ZM175 69.5286C169.85 65.178 166.562 62.832 166.562 59.7841C166.562 57.5732 168.074 55.9063 170.078 55.9063C172.684 55.9063 173.607 58.9652 173.647 59.1036C173.819 59.7075 174.371 60.125 175 60.125C175.631 60.125 176.184 59.705 176.354 59.0978C176.363 59.0659 177.278 55.9063 179.922 55.9063C181.926 55.9063 183.438 57.5732 183.438 59.7841C183.438 62.8346 180.146 65.1816 175 69.5286Z" fill="white"/>
<path d="M197.593 77.188H193.375V55.3447C193.383 55.3505 193.391 55.356 193.399 55.3619C194.02 55.8075 194.884 55.6746 195.343 55.063L198.719 50.5641C198.945 50.262 199.041 49.8819 198.984 49.5087C198.927 49.1355 198.723 48.8008 198.417 48.58C198.192 48.4178 175.944 32.3543 175.83 32.2719C175.337 31.9115 174.668 31.9108 174.174 32.269C174.106 32.318 169.857 35.3858 165.062 38.8479V36.2196C165.062 35.4429 164.433 34.8134 163.656 34.8134H158.031C157.255 34.8134 156.625 35.4429 156.625 36.2196V44.9399C153.741 47.0218 151.651 48.5309 151.583 48.58C151.277 48.8008 151.073 49.1355 151.016 49.5087C150.959 49.8819 151.055 50.2624 151.282 50.5641L154.657 55.063C155.116 55.6746 155.98 55.8075 156.601 55.3619C156.609 55.356 156.617 55.3505 156.625 55.3447V77.1884H152.406C151.63 77.1884 151 77.8179 151 78.5947C151 79.371 151.63 80.0009 152.406 80.0009H197.593C198.37 80.0009 199 79.371 199 78.5947C199 77.8179 198.37 77.188 197.593 77.188ZM159.438 37.6259H162.25V40.8786C161.297 41.5663 160.351 42.2497 159.438 42.9089V37.6259ZM156.081 52.2743L154.391 50.0218C168.571 39.7836 173.372 36.3171 175 35.1415C177.267 36.7788 184.171 41.7637 195.609 50.0218L193.92 52.2743C193.779 52.174 175.98 39.4108 175.823 39.2976C175.331 38.9432 174.668 38.9439 174.177 39.298C173.858 39.5273 156.483 51.9861 156.081 52.2743ZM159.438 53.3279C169.768 45.9209 173.586 43.1828 175 42.1687C176.91 43.5387 182.12 47.2745 190.562 53.3279V77.1884H159.438V53.3279Z" fill="white"/>
</g>
<path d="M139.227 115C139.11 114.616 138.977 114.221 138.827 113.816C138.689 113.411 138.55 113.005 138.411 112.6H134.091C133.953 113.005 133.809 113.411 133.659 113.816C133.521 114.221 133.393 114.616 133.275 115H130.683C131.099 113.805 131.494 112.701 131.867 111.688C132.241 110.675 132.603 109.72 132.955 108.824C133.318 107.928 133.67 107.08 134.011 106.28C134.363 105.469 134.726 104.68 135.099 103.912H137.483C137.846 104.68 138.203 105.469 138.555 106.28C138.907 107.08 139.259 107.928 139.611 108.824C139.974 109.72 140.342 110.675 140.715 111.688C141.089 112.701 141.483 113.805 141.899 115H139.227ZM136.235 106.424C136.182 106.584 136.102 106.803 135.995 107.08C135.889 107.357 135.766 107.677 135.627 108.04C135.489 108.403 135.334 108.803 135.163 109.24C135.003 109.677 134.838 110.136 134.667 110.616H137.819C137.649 110.136 137.483 109.677 137.323 109.24C137.163 108.803 137.009 108.403 136.859 108.04C136.721 107.677 136.598 107.357 136.491 107.08C136.385 106.803 136.299 106.584 136.235 106.424ZM146.535 115.16C145.841 115.149 145.276 115.075 144.839 114.936C144.412 114.797 144.071 114.605 143.815 114.36C143.569 114.104 143.399 113.8 143.303 113.448C143.217 113.085 143.175 112.68 143.175 112.232V102.968L145.559 102.584V111.752C145.559 111.965 145.575 112.157 145.607 112.328C145.639 112.499 145.697 112.643 145.783 112.76C145.879 112.877 146.012 112.973 146.183 113.048C146.353 113.123 146.583 113.171 146.871 113.192L146.535 115.16ZM151.597 115.16C150.904 115.149 150.339 115.075 149.901 114.936C149.475 114.797 149.133 114.605 148.877 114.36C148.632 114.104 148.461 113.8 148.365 113.448C148.28 113.085 148.237 112.68 148.237 112.232V102.968L150.621 102.584V111.752C150.621 111.965 150.637 112.157 150.669 112.328C150.701 112.499 150.76 112.643 150.845 112.76C150.941 112.877 151.075 112.973 151.245 113.048C151.416 113.123 151.645 113.171 151.933 113.192L151.597 115.16ZM160.631 103.784C162.285 103.784 163.554 104.077 164.439 104.664C165.325 105.24 165.767 106.189 165.767 107.512C165.767 108.845 165.319 109.811 164.423 110.408C163.527 110.995 162.247 111.288 160.583 111.288H159.799V115H157.303V104.072C157.847 103.965 158.423 103.891 159.031 103.848C159.639 103.805 160.173 103.784 160.631 103.784ZM160.791 105.912C160.61 105.912 160.429 105.917 160.247 105.928C160.077 105.939 159.927 105.949 159.799 105.96V109.16H160.583C161.447 109.16 162.098 109.043 162.535 108.808C162.973 108.573 163.191 108.136 163.191 107.496C163.191 107.187 163.133 106.931 163.015 106.728C162.909 106.525 162.749 106.365 162.535 106.248C162.333 106.12 162.082 106.035 161.783 105.992C161.485 105.939 161.154 105.912 160.791 105.912ZM172.512 108.696C172.299 108.643 172.048 108.589 171.76 108.536C171.472 108.472 171.163 108.44 170.832 108.44C170.683 108.44 170.502 108.456 170.288 108.488C170.086 108.509 169.931 108.536 169.824 108.568V115H167.44V107.032C167.867 106.883 168.368 106.744 168.944 106.616C169.531 106.477 170.182 106.408 170.896 106.408C171.024 106.408 171.179 106.419 171.36 106.44C171.542 106.451 171.723 106.472 171.904 106.504C172.086 106.525 172.267 106.557 172.448 106.6C172.63 106.632 172.784 106.675 172.912 106.728L172.512 108.696ZM181.906 110.776C181.906 111.437 181.81 112.045 181.618 112.6C181.426 113.144 181.149 113.613 180.786 114.008C180.423 114.392 179.986 114.691 179.474 114.904C178.973 115.117 178.407 115.224 177.778 115.224C177.159 115.224 176.594 115.117 176.082 114.904C175.581 114.691 175.149 114.392 174.786 114.008C174.423 113.613 174.141 113.144 173.938 112.6C173.735 112.045 173.634 111.437 173.634 110.776C173.634 110.115 173.735 109.512 173.938 108.968C174.151 108.424 174.439 107.96 174.802 107.576C175.175 107.192 175.613 106.893 176.114 106.68C176.626 106.467 177.181 106.36 177.778 106.36C178.386 106.36 178.941 106.467 179.442 106.68C179.954 106.893 180.391 107.192 180.754 107.576C181.117 107.96 181.399 108.424 181.602 108.968C181.805 109.512 181.906 110.115 181.906 110.776ZM179.474 110.776C179.474 110.04 179.325 109.464 179.026 109.048C178.738 108.621 178.322 108.408 177.778 108.408C177.234 108.408 176.813 108.621 176.514 109.048C176.215 109.464 176.066 110.04 176.066 110.776C176.066 111.512 176.215 112.099 176.514 112.536C176.813 112.963 177.234 113.176 177.778 113.176C178.322 113.176 178.738 112.963 179.026 112.536C179.325 112.099 179.474 111.512 179.474 110.776ZM182.969 117.96C182.819 117.96 182.601 117.944 182.313 117.912C182.014 117.88 181.737 117.821 181.481 117.736L181.801 115.8C181.961 115.853 182.11 115.891 182.249 115.912C182.377 115.933 182.542 115.944 182.745 115.944C183.118 115.944 183.379 115.832 183.529 115.608C183.678 115.384 183.753 115.059 183.753 114.632V106.584H186.137V114.696C186.137 115.805 185.865 116.627 185.321 117.16C184.777 117.693 183.993 117.96 182.969 117.96ZM186.361 104.152C186.361 104.589 186.217 104.936 185.929 105.192C185.651 105.437 185.321 105.56 184.937 105.56C184.553 105.56 184.217 105.437 183.929 105.192C183.651 104.936 183.513 104.589 183.513 104.152C183.513 103.715 183.651 103.373 183.929 103.128C184.217 102.872 184.553 102.744 184.937 102.744C185.321 102.744 185.651 102.872 185.929 103.128C186.217 103.373 186.361 103.715 186.361 104.152ZM187.978 110.856C187.978 110.109 188.09 109.459 188.314 108.904C188.548 108.339 188.852 107.869 189.226 107.496C189.599 107.123 190.026 106.84 190.506 106.648C190.996 106.456 191.498 106.36 192.01 106.36C193.204 106.36 194.148 106.728 194.842 107.464C195.535 108.189 195.882 109.261 195.882 110.68C195.882 110.819 195.876 110.973 195.866 111.144C195.855 111.304 195.844 111.448 195.834 111.576H190.426C190.479 112.067 190.708 112.456 191.114 112.744C191.519 113.032 192.063 113.176 192.746 113.176C193.183 113.176 193.61 113.139 194.026 113.064C194.452 112.979 194.799 112.877 195.066 112.76L195.386 114.696C195.258 114.76 195.087 114.824 194.874 114.888C194.66 114.952 194.42 115.005 194.154 115.048C193.898 115.101 193.62 115.144 193.322 115.176C193.023 115.208 192.724 115.224 192.426 115.224C191.668 115.224 191.007 115.112 190.442 114.888C189.887 114.664 189.423 114.36 189.05 113.976C188.687 113.581 188.415 113.117 188.234 112.584C188.063 112.051 187.978 111.475 187.978 110.856ZM193.578 109.944C193.567 109.741 193.53 109.544 193.466 109.352C193.412 109.16 193.322 108.989 193.194 108.84C193.076 108.691 192.922 108.568 192.73 108.472C192.548 108.376 192.319 108.328 192.042 108.328C191.775 108.328 191.546 108.376 191.354 108.472C191.162 108.557 191.002 108.675 190.874 108.824C190.746 108.973 190.644 109.149 190.57 109.352C190.506 109.544 190.458 109.741 190.426 109.944H193.578ZM197.322 110.792C197.322 110.184 197.418 109.613 197.61 109.08C197.812 108.536 198.1 108.067 198.474 107.672C198.847 107.267 199.3 106.947 199.834 106.712C200.367 106.477 200.975 106.36 201.658 106.36C202.106 106.36 202.516 106.403 202.89 106.488C203.263 106.563 203.626 106.675 203.978 106.824L203.482 108.728C203.258 108.643 203.012 108.568 202.746 108.504C202.479 108.44 202.18 108.408 201.85 108.408C201.146 108.408 200.618 108.627 200.266 109.064C199.924 109.501 199.754 110.077 199.754 110.792C199.754 111.549 199.914 112.136 200.234 112.552C200.564 112.968 201.135 113.176 201.946 113.176C202.234 113.176 202.543 113.149 202.874 113.096C203.204 113.043 203.508 112.957 203.786 112.84L204.122 114.792C203.844 114.909 203.498 115.011 203.082 115.096C202.666 115.181 202.207 115.224 201.706 115.224C200.938 115.224 200.276 115.112 199.722 114.888C199.167 114.653 198.708 114.339 198.346 113.944C197.994 113.549 197.732 113.085 197.562 112.552C197.402 112.008 197.322 111.421 197.322 110.792ZM205.642 104.488L208.026 104.104V106.584H210.89V108.568H208.026V111.528C208.026 112.029 208.111 112.429 208.282 112.728C208.463 113.027 208.82 113.176 209.354 113.176C209.61 113.176 209.871 113.155 210.138 113.112C210.415 113.059 210.666 112.989 210.89 112.904L211.226 114.76C210.938 114.877 210.618 114.979 210.266 115.064C209.914 115.149 209.482 115.192 208.97 115.192C208.319 115.192 207.78 115.107 207.354 114.936C206.927 114.755 206.586 114.509 206.33 114.2C206.074 113.88 205.892 113.496 205.786 113.048C205.69 112.6 205.642 112.104 205.642 111.56V104.488ZM215.247 113.288C215.684 113.288 215.994 113.245 216.175 113.16C216.356 113.075 216.447 112.909 216.447 112.664C216.447 112.472 216.33 112.307 216.095 112.168C215.86 112.019 215.503 111.853 215.023 111.672C214.65 111.533 214.308 111.389 213.999 111.24C213.7 111.091 213.444 110.915 213.231 110.712C213.018 110.499 212.852 110.248 212.735 109.96C212.618 109.672 212.559 109.325 212.559 108.92C212.559 108.131 212.852 107.507 213.439 107.048C214.026 106.589 214.831 106.36 215.855 106.36C216.367 106.36 216.858 106.408 217.327 106.504C217.796 106.589 218.17 106.685 218.447 106.792L218.031 108.648C217.754 108.552 217.45 108.467 217.119 108.392C216.799 108.317 216.436 108.28 216.031 108.28C215.284 108.28 214.911 108.488 214.911 108.904C214.911 109 214.927 109.085 214.959 109.16C214.991 109.235 215.055 109.309 215.151 109.384C215.247 109.448 215.375 109.523 215.535 109.608C215.706 109.683 215.919 109.768 216.175 109.864C216.698 110.056 217.13 110.248 217.471 110.44C217.812 110.621 218.079 110.824 218.271 111.048C218.474 111.261 218.612 111.501 218.687 111.768C218.772 112.035 218.815 112.344 218.815 112.696C218.815 113.528 218.5 114.157 217.871 114.584C217.252 115.011 216.372 115.224 215.231 115.224C214.484 115.224 213.86 115.16 213.359 115.032C212.868 114.904 212.527 114.797 212.335 114.712L212.735 112.776C213.14 112.936 213.556 113.064 213.983 113.16C214.41 113.245 214.831 113.288 215.247 113.288Z" fill="white"/>
</g>
</g>
<defs>
<filter id="filter0_dddd_2111_4020" x="0" y="0" width="350" height="274" filterUnits="userSpaceOnUse" color-interpolation-filters="sRGB">
<feFlood flood-opacity="0" result="BackgroundImageFix"/>
<feColorMatrix in="SourceAlpha" type="matrix" values="0 0 0 0 0 0 0 0 0 0 0 0 0 0 0 0 0 0 127 0" result="hardAlpha"/>
<feMorphology radius="4" operator="erode" in="SourceAlpha" result="effect1_dropShadow_2111_4020"/>
<feOffset dy="4"/>
<feGaussianBlur stdDeviation="2"/>
<feColorMatrix type="matrix" values="0 0 0 0 0.117647 0 0 0 0 0.129412 0 0 0 0 0.172549 0 0 0 0.05 0"/>
<feBlend mode="normal" in2="BackgroundImageFix" result="effect1_dropShadow_2111_4020"/>
<feColorMatrix in="SourceAlpha" type="matrix" values="0 0 0 0 0 0 0 0 0 0 0 0 0 0 0 0 0 0 127 0" result="hardAlpha"/>
<feMorphology radius="6" operator="erode" in="SourceAlpha" result="effect2_dropShadow_2111_4020"/>
<feOffset dy="12"/>
<feGaussianBlur stdDeviation="5"/>
<feColorMatrix type="matrix" values="0 0 0 0 1 0 0 0 0 0.352941 0 0 0 0 0.188235 0 0 0 0.08 0"/>
<feBlend mode="normal" in2="effect1_dropShadow_2111_4020" result="effect2_dropShadow_2111_4020"/>
<feColorMatrix in="SourceAlpha" type="matrix" values="0 0 0 0 0 0 0 0 0 0 0 0 0 0 0 0 0 0 127 0" result="hardAlpha"/>
<feMorphology radius="10" operator="erode" in="SourceAlpha" result="effect3_dropShadow_2111_4020"/>
<feOffset dy="26"/>
<feGaussianBlur stdDeviation="12"/>
<feColorMatrix type="matrix" values="0 0 0 0 1 0 0 0 0 0.352941 0 0 0 0 0.188235 0 0 0 0.1 0"/>
<feBlend mode="normal" in2="effect2_dropShadow_2111_4020" result="effect3_dropShadow_2111_4020"/>
<feColorMatrix in="SourceAlpha" type="matrix" values="0 0 0 0 0 0 0 0 0 0 0 0 0 0 0 0 0 0 127 0" result="hardAlpha"/>
<feMorphology radius="20" operator="erode" in="SourceAlpha" result="effect4_dropShadow_2111_4020"/>
<feOffset dy="60"/>
<feGaussianBlur stdDeviation="40"/>
<feColorMatrix type="matrix" values="0 0 0 0 1 0 0 0 0 0.352941 0 0 0 0 0.188235 0 0 0 0.16 0"/>
<feBlend mode="normal" in2="effect3_dropShadow_2111_4020" result="effect4_dropShadow_2111_4020"/>
<feBlend mode="normal" in="SourceGraphic" in2="effect4_dropShadow_2111_4020" result="shape"/>
</filter>
<clipPath id="clip0_2111_4020">
<rect width="89" height="90" fill="white" transform="translate(130.5 32)"/>
</clipPath>
<clipPath id="clip1_2111_4020">
<rect width="48" height="48" fill="white" transform="translate(151 32)"/>
</clipPath>
</defs>
</svg>
