<svg width="350" height="294" viewBox="0 0 350 294" fill="none" xmlns="http://www.w3.org/2000/svg">
<g filter="url(#filter0_dddd_2111_4021)">
<rect x="60" width="230" height="154" rx="4" fill="white"/>
<g clip-path="url(#clip0_2111_4021)">
<path d="M197.594 57.4062C198.37 57.4062 199 56.7766 199 56V45.5C199 44.7234 198.37 44.0938 197.594 44.0938C196.613 44.0938 177.463 44.0938 176.406 44.0938V35C176.406 34.2234 175.777 33.5938 175 33.5938H160C159.223 33.5938 158.594 34.2234 158.594 35V44.0938H152.406C151.63 44.0938 151 44.7234 151 45.5V56C151 56.7766 151.63 57.4062 152.406 57.4062H158.594V65.0938H152.406C151.63 65.0938 151 65.7234 151 66.5V77C151 77.7766 151.63 78.4062 152.406 78.4062H197.594C198.37 78.4062 199 77.7766 199 77V66.5C199 65.7234 198.37 65.0938 197.594 65.0938H191.406V57.4062H197.594ZM196.188 54.5938C194.683 54.5938 185.394 54.5938 183.906 54.5938V46.9062H196.188V54.5938ZM181.094 54.5938C179.621 54.5938 170.389 54.5938 168.906 54.5938V46.9062H181.094V54.5938ZM161.406 36.4062H173.594V44.0938C172.121 44.0938 162.889 44.0938 161.406 44.0938V36.4062ZM153.812 54.5938V46.9062H166.094V54.5938C164.606 54.5938 155.317 54.5938 153.812 54.5938ZM161.406 57.4062H173.594V65.0938C172.121 65.0938 162.889 65.0938 161.406 65.0938V57.4062ZM153.812 67.9062H166.094V75.5938H153.812V67.9062ZM168.906 67.9062H181.094V75.5938H168.906V67.9062ZM196.188 67.9062V75.5938H183.906V67.9062H196.188ZM188.594 65.0938C187.121 65.0938 177.889 65.0938 176.406 65.0938V57.4062H188.594V65.0938Z" fill="#FF5A30"/>
<path d="M131.711 115.224C129.908 115.224 128.532 114.723 127.583 113.72C126.644 112.717 126.175 111.293 126.175 109.448C126.175 108.531 126.319 107.715 126.607 107C126.895 106.275 127.29 105.667 127.791 105.176C128.292 104.675 128.89 104.296 129.583 104.04C130.276 103.784 131.028 103.656 131.839 103.656C132.308 103.656 132.735 103.693 133.119 103.768C133.503 103.832 133.839 103.912 134.127 104.008C134.415 104.093 134.655 104.184 134.847 104.28C135.039 104.376 135.178 104.451 135.263 104.504L134.543 106.52C134.202 106.339 133.802 106.184 133.343 106.056C132.895 105.928 132.383 105.864 131.807 105.864C131.423 105.864 131.044 105.928 130.671 106.056C130.308 106.184 129.983 106.392 129.695 106.68C129.418 106.957 129.194 107.32 129.023 107.768C128.852 108.216 128.767 108.76 128.767 109.4C128.767 109.912 128.82 110.392 128.927 110.84C129.044 111.277 129.226 111.656 129.471 111.976C129.727 112.296 130.058 112.552 130.463 112.744C130.868 112.925 131.359 113.016 131.935 113.016C132.298 113.016 132.623 112.995 132.911 112.952C133.199 112.909 133.455 112.861 133.679 112.808C133.903 112.744 134.1 112.675 134.271 112.6C134.442 112.525 134.596 112.456 134.735 112.392L135.423 114.392C135.071 114.605 134.575 114.797 133.935 114.968C133.295 115.139 132.554 115.224 131.711 115.224ZM144.555 110.776C144.555 111.437 144.459 112.045 144.267 112.6C144.075 113.144 143.797 113.613 143.435 114.008C143.072 114.392 142.635 114.691 142.123 114.904C141.621 115.117 141.056 115.224 140.427 115.224C139.808 115.224 139.243 115.117 138.731 114.904C138.229 114.691 137.797 114.392 137.435 114.008C137.072 113.613 136.789 113.144 136.587 112.6C136.384 112.045 136.283 111.437 136.283 110.776C136.283 110.115 136.384 109.512 136.587 108.968C136.8 108.424 137.088 107.96 137.451 107.576C137.824 107.192 138.261 106.893 138.763 106.68C139.275 106.467 139.829 106.36 140.427 106.36C141.035 106.36 141.589 106.467 142.091 106.68C142.603 106.893 143.04 107.192 143.403 107.576C143.765 107.96 144.048 108.424 144.251 108.968C144.453 109.512 144.555 110.115 144.555 110.776ZM142.123 110.776C142.123 110.04 141.973 109.464 141.675 109.048C141.387 108.621 140.971 108.408 140.427 108.408C139.883 108.408 139.461 108.621 139.163 109.048C138.864 109.464 138.715 110.04 138.715 110.776C138.715 111.512 138.864 112.099 139.163 112.536C139.461 112.963 139.883 113.176 140.427 113.176C140.971 113.176 141.387 112.963 141.675 112.536C141.973 112.099 142.123 111.512 142.123 110.776ZM146.401 106.872C146.807 106.755 147.329 106.648 147.969 106.552C148.609 106.445 149.281 106.392 149.985 106.392C150.7 106.392 151.292 106.488 151.761 106.68C152.241 106.861 152.62 107.123 152.897 107.464C153.175 107.805 153.372 108.211 153.489 108.68C153.607 109.149 153.665 109.672 153.665 110.248V115H151.281V110.536C151.281 109.768 151.18 109.224 150.977 108.904C150.775 108.584 150.396 108.424 149.841 108.424C149.671 108.424 149.489 108.435 149.297 108.456C149.105 108.467 148.935 108.483 148.785 108.504V115H146.401V106.872ZM158.239 113.288C158.676 113.288 158.986 113.245 159.167 113.16C159.348 113.075 159.439 112.909 159.439 112.664C159.439 112.472 159.322 112.307 159.087 112.168C158.852 112.019 158.495 111.853 158.015 111.672C157.642 111.533 157.3 111.389 156.991 111.24C156.692 111.091 156.436 110.915 156.223 110.712C156.01 110.499 155.844 110.248 155.727 109.96C155.61 109.672 155.551 109.325 155.551 108.92C155.551 108.131 155.844 107.507 156.431 107.048C157.018 106.589 157.823 106.36 158.847 106.36C159.359 106.36 159.85 106.408 160.319 106.504C160.788 106.589 161.162 106.685 161.439 106.792L161.023 108.648C160.746 108.552 160.442 108.467 160.111 108.392C159.791 108.317 159.428 108.28 159.023 108.28C158.276 108.28 157.903 108.488 157.903 108.904C157.903 109 157.919 109.085 157.951 109.16C157.983 109.235 158.047 109.309 158.143 109.384C158.239 109.448 158.367 109.523 158.527 109.608C158.698 109.683 158.911 109.768 159.167 109.864C159.69 110.056 160.122 110.248 160.463 110.44C160.804 110.621 161.071 110.824 161.263 111.048C161.466 111.261 161.604 111.501 161.679 111.768C161.764 112.035 161.807 112.344 161.807 112.696C161.807 113.528 161.492 114.157 160.863 114.584C160.244 115.011 159.364 115.224 158.223 115.224C157.476 115.224 156.852 115.16 156.351 115.032C155.86 114.904 155.519 114.797 155.327 114.712L155.727 112.776C156.132 112.936 156.548 113.064 156.975 113.16C157.402 113.245 157.823 113.288 158.239 113.288ZM163.509 104.488L165.893 104.104V106.584H168.757V108.568H165.893V111.528C165.893 112.029 165.978 112.429 166.149 112.728C166.33 113.027 166.687 113.176 167.221 113.176C167.477 113.176 167.738 113.155 168.005 113.112C168.282 113.059 168.533 112.989 168.757 112.904L169.093 114.76C168.805 114.877 168.485 114.979 168.133 115.064C167.781 115.149 167.349 115.192 166.837 115.192C166.186 115.192 165.647 115.107 165.221 114.936C164.794 114.755 164.453 114.509 164.197 114.2C163.941 113.88 163.759 113.496 163.653 113.048C163.557 112.6 163.509 112.104 163.509 111.56V104.488ZM175.77 108.696C175.557 108.643 175.306 108.589 175.018 108.536C174.73 108.472 174.421 108.44 174.09 108.44C173.941 108.44 173.759 108.456 173.546 108.488C173.343 108.509 173.189 108.536 173.082 108.568V115H170.698V107.032C171.125 106.883 171.626 106.744 172.202 106.616C172.789 106.477 173.439 106.408 174.154 106.408C174.282 106.408 174.437 106.419 174.618 106.44C174.799 106.451 174.981 106.472 175.162 106.504C175.343 106.525 175.525 106.557 175.706 106.6C175.887 106.632 176.042 106.675 176.17 106.728L175.77 108.696ZM184.632 114.712C184.227 114.829 183.704 114.936 183.064 115.032C182.424 115.139 181.752 115.192 181.048 115.192C180.333 115.192 179.736 115.096 179.256 114.904C178.787 114.712 178.413 114.445 178.136 114.104C177.859 113.752 177.661 113.336 177.544 112.856C177.427 112.376 177.368 111.848 177.368 111.272V106.584H179.752V110.984C179.752 111.752 179.853 112.307 180.056 112.648C180.259 112.989 180.637 113.16 181.192 113.16C181.363 113.16 181.544 113.155 181.736 113.144C181.928 113.123 182.099 113.101 182.248 113.08V106.584H184.632V114.712ZM186.47 110.792C186.47 110.184 186.566 109.613 186.758 109.08C186.961 108.536 187.249 108.067 187.622 107.672C187.995 107.267 188.449 106.947 188.982 106.712C189.515 106.477 190.123 106.36 190.806 106.36C191.254 106.36 191.665 106.403 192.038 106.488C192.411 106.563 192.774 106.675 193.126 106.824L192.63 108.728C192.406 108.643 192.161 108.568 191.894 108.504C191.627 108.44 191.329 108.408 190.998 108.408C190.294 108.408 189.766 108.627 189.414 109.064C189.073 109.501 188.902 110.077 188.902 110.792C188.902 111.549 189.062 112.136 189.382 112.552C189.713 112.968 190.283 113.176 191.094 113.176C191.382 113.176 191.691 113.149 192.022 113.096C192.353 113.043 192.657 112.957 192.934 112.84L193.27 114.792C192.993 114.909 192.646 115.011 192.23 115.096C191.814 115.181 191.355 115.224 190.854 115.224C190.086 115.224 189.425 115.112 188.87 114.888C188.315 114.653 187.857 114.339 187.494 113.944C187.142 113.549 186.881 113.085 186.71 112.552C186.55 112.008 186.47 111.421 186.47 110.792ZM194.79 104.488L197.174 104.104V106.584H200.038V108.568H197.174V111.528C197.174 112.029 197.259 112.429 197.43 112.728C197.611 113.027 197.969 113.176 198.502 113.176C198.758 113.176 199.019 113.155 199.286 113.112C199.563 113.059 199.814 112.989 200.038 112.904L200.374 114.76C200.086 114.877 199.766 114.979 199.414 115.064C199.062 115.149 198.63 115.192 198.118 115.192C197.467 115.192 196.929 115.107 196.502 114.936C196.075 114.755 195.734 114.509 195.478 114.2C195.222 113.88 195.041 113.496 194.934 113.048C194.838 112.6 194.79 112.104 194.79 111.56V104.488ZM204.363 115H201.979V106.584H204.363V115ZM204.587 104.152C204.587 104.589 204.443 104.936 204.155 105.192C203.878 105.437 203.547 105.56 203.163 105.56C202.779 105.56 202.443 105.437 202.155 105.192C201.878 104.936 201.739 104.589 201.739 104.152C201.739 103.715 201.878 103.373 202.155 103.128C202.443 102.872 202.779 102.744 203.163 102.744C203.547 102.744 203.878 102.872 204.155 103.128C204.443 103.373 204.587 103.715 204.587 104.152ZM214.476 110.776C214.476 111.437 214.38 112.045 214.188 112.6C213.996 113.144 213.719 113.613 213.356 114.008C212.994 114.392 212.556 114.691 212.044 114.904C211.543 115.117 210.978 115.224 210.348 115.224C209.73 115.224 209.164 115.117 208.652 114.904C208.151 114.691 207.719 114.392 207.356 114.008C206.994 113.613 206.711 113.144 206.508 112.6C206.306 112.045 206.204 111.437 206.204 110.776C206.204 110.115 206.306 109.512 206.508 108.968C206.722 108.424 207.01 107.96 207.372 107.576C207.746 107.192 208.183 106.893 208.684 106.68C209.196 106.467 209.751 106.36 210.348 106.36C210.956 106.36 211.511 106.467 212.012 106.68C212.524 106.893 212.962 107.192 213.324 107.576C213.687 107.96 213.97 108.424 214.172 108.968C214.375 109.512 214.476 110.115 214.476 110.776ZM212.044 110.776C212.044 110.04 211.895 109.464 211.596 109.048C211.308 108.621 210.892 108.408 210.348 108.408C209.804 108.408 209.383 108.621 209.084 109.048C208.786 109.464 208.636 110.04 208.636 110.776C208.636 111.512 208.786 112.099 209.084 112.536C209.383 112.963 209.804 113.176 210.348 113.176C210.892 113.176 211.308 112.963 211.596 112.536C211.895 112.099 212.044 111.512 212.044 110.776ZM216.323 106.872C216.728 106.755 217.251 106.648 217.891 106.552C218.531 106.445 219.203 106.392 219.907 106.392C220.622 106.392 221.214 106.488 221.683 106.68C222.163 106.861 222.542 107.123 222.819 107.464C223.096 107.805 223.294 108.211 223.411 108.68C223.528 109.149 223.587 109.672 223.587 110.248V115H221.203V110.536C221.203 109.768 221.102 109.224 220.899 108.904C220.696 108.584 220.318 108.424 219.763 108.424C219.592 108.424 219.411 108.435 219.219 108.456C219.027 108.467 218.856 108.483 218.707 108.504V115H216.323V106.872Z" fill="#9A9CA5"/>
</g>
</g>
<defs>
<filter id="filter0_dddd_2111_4021" x="0" y="0" width="350" height="294" filterUnits="userSpaceOnUse" color-interpolation-filters="sRGB">
<feFlood flood-opacity="0" result="BackgroundImageFix"/>
<feColorMatrix in="SourceAlpha" type="matrix" values="0 0 0 0 0 0 0 0 0 0 0 0 0 0 0 0 0 0 127 0" result="hardAlpha"/>
<feMorphology radius="4" operator="erode" in="SourceAlpha" result="effect1_dropShadow_2111_4021"/>
<feOffset dy="4"/>
<feGaussianBlur stdDeviation="2"/>
<feColorMatrix type="matrix" values="0 0 0 0 0.117647 0 0 0 0 0.129412 0 0 0 0 0.172549 0 0 0 0.03 0"/>
<feBlend mode="normal" in2="BackgroundImageFix" result="effect1_dropShadow_2111_4021"/>
<feColorMatrix in="SourceAlpha" type="matrix" values="0 0 0 0 0 0 0 0 0 0 0 0 0 0 0 0 0 0 127 0" result="hardAlpha"/>
<feMorphology radius="6" operator="erode" in="SourceAlpha" result="effect2_dropShadow_2111_4021"/>
<feOffset dy="12"/>
<feGaussianBlur stdDeviation="5"/>
<feColorMatrix type="matrix" values="0 0 0 0 0.603922 0 0 0 0 0.611765 0 0 0 0 0.647059 0 0 0 0.04 0"/>
<feBlend mode="normal" in2="effect1_dropShadow_2111_4021" result="effect2_dropShadow_2111_4021"/>
<feColorMatrix in="SourceAlpha" type="matrix" values="0 0 0 0 0 0 0 0 0 0 0 0 0 0 0 0 0 0 127 0" result="hardAlpha"/>
<feMorphology radius="10" operator="erode" in="SourceAlpha" result="effect3_dropShadow_2111_4021"/>
<feOffset dy="30"/>
<feGaussianBlur stdDeviation="12"/>
<feColorMatrix type="matrix" values="0 0 0 0 0.603922 0 0 0 0 0.611765 0 0 0 0 0.647059 0 0 0 0.05 0"/>
<feBlend mode="normal" in2="effect2_dropShadow_2111_4021" result="effect3_dropShadow_2111_4021"/>
<feColorMatrix in="SourceAlpha" type="matrix" values="0 0 0 0 0 0 0 0 0 0 0 0 0 0 0 0 0 0 127 0" result="hardAlpha"/>
<feMorphology radius="20" operator="erode" in="SourceAlpha" result="effect4_dropShadow_2111_4021"/>
<feOffset dy="80"/>
<feGaussianBlur stdDeviation="40"/>
<feColorMatrix type="matrix" values="0 0 0 0 0.603922 0 0 0 0 0.611765 0 0 0 0 0.647059 0 0 0 0.08 0"/>
<feBlend mode="normal" in2="effect3_dropShadow_2111_4021" result="effect4_dropShadow_2111_4021"/>
<feBlend mode="normal" in="SourceGraphic" in2="effect4_dropShadow_2111_4021" result="shape"/>
</filter>
<clipPath id="clip0_2111_4021">
<rect width="100" height="90" fill="white" transform="translate(125 32)"/>
</clipPath>
</defs>
</svg>
