<svg width="350" height="294" viewBox="0 0 350 294" fill="none" xmlns="http://www.w3.org/2000/svg">
<g filter="url(#filter0_dddd_2111_4036)">
<rect x="60" width="230" height="154" rx="4" fill="white"/>
<g clip-path="url(#clip0_2111_4036)">
<g clip-path="url(#clip1_2111_4036)">
<path d="M160.938 65.8438C158.611 65.8438 156.719 67.7363 156.719 70.0625C156.719 72.3887 158.611 74.2812 160.938 74.2812C163.264 74.2812 165.156 72.3887 165.156 70.0625C165.156 67.7363 163.264 65.8438 160.938 65.8438ZM160.938 71.4688C160.162 71.4688 159.531 70.8379 159.531 70.0625C159.531 69.2871 160.162 68.6562 160.938 68.6562C161.713 68.6562 162.344 69.2871 162.344 70.0625C162.344 70.8379 161.713 71.4688 160.938 71.4688Z" fill="#FF5A30"/>
<path d="M196.462 60.569C197.421 59.2708 197.598 57.4603 196.726 55.9496L191.104 46.118C190.131 44.4335 188.08 43.6648 186.251 44.1538C186.64 42.4029 185.876 40.5244 184.242 39.5812L174.5 33.9566C173.109 33.1531 171.445 33.2354 170.166 34.0268C169.424 32.8124 168.087 32 166.562 32H155.219C152.893 32 151 33.8925 151 36.2188C151 37.1942 151 74.6583 151 75.7812C151 78.1075 152.893 80 155.219 80C156.311 80 189.435 80 194.781 80C197.107 80 199 78.1075 199 75.7812V64.4375C199 62.7085 197.954 61.2197 196.462 60.569ZM167.969 75.7812C167.969 76.5567 167.338 77.1875 166.562 77.1875H155.219C154.443 77.1875 153.812 76.5567 153.812 75.7812C153.812 75.1388 153.812 63.6483 153.812 63.0312H167.969V75.7812ZM167.969 60.2188H153.812V48.875H167.969V60.2188ZM167.969 46.0625H153.812V36.2188C153.812 35.4433 154.443 34.8125 155.219 34.8125H166.562C167.338 34.8125 167.969 35.4433 167.969 36.2188V46.0625ZM170.781 37.5845L171.172 36.9072C171.56 36.2354 172.422 36.0044 173.094 36.3923L182.836 42.0169C183.508 42.4047 183.739 43.2667 183.35 43.9403L181.725 46.7647C181.684 46.8248 181.648 46.8872 181.617 46.9524L170.781 65.787V37.5845ZM170.781 71.427L183.927 48.5767L186.645 47.0074C187.334 46.6096 188.279 46.8512 188.665 47.5192L194.287 57.3507C194.676 58.0242 194.449 58.8877 193.769 59.2805C192.764 59.8618 171.77 72.0161 170.781 72.5886V71.427ZM196.188 75.7812C196.188 76.5567 195.557 77.1875 194.781 77.1875H170.539C170.689 76.7647 170.773 76.3113 170.78 75.8393L192.903 63.0312H194.781C195.557 63.0312 196.188 63.6621 196.188 64.4375V75.7812Z" fill="#FF5A30"/>
</g>
<path d="M118.897 103.912H121.393V115H118.897V103.912ZM123.8 106.872C124.205 106.755 124.728 106.648 125.368 106.552C126.008 106.445 126.68 106.392 127.384 106.392C128.098 106.392 128.69 106.488 129.16 106.68C129.64 106.861 130.018 107.123 130.296 107.464C130.573 107.805 130.77 108.211 130.888 108.68C131.005 109.149 131.064 109.672 131.064 110.248V115H128.68V110.536C128.68 109.768 128.578 109.224 128.376 108.904C128.173 108.584 127.794 108.424 127.24 108.424C127.069 108.424 126.888 108.435 126.696 108.456C126.504 108.467 126.333 108.483 126.184 108.504V115H123.8V106.872ZM133.142 104.488L135.526 104.104V106.584H138.39V108.568H135.526V111.528C135.526 112.029 135.611 112.429 135.782 112.728C135.963 113.027 136.32 113.176 136.854 113.176C137.11 113.176 137.371 113.155 137.638 113.112C137.915 113.059 138.166 112.989 138.39 112.904L138.726 114.76C138.438 114.877 138.118 114.979 137.766 115.064C137.414 115.149 136.982 115.192 136.47 115.192C135.819 115.192 135.28 115.107 134.854 114.936C134.427 114.755 134.086 114.509 133.83 114.2C133.574 113.88 133.392 113.496 133.286 113.048C133.19 112.6 133.142 112.104 133.142 111.56V104.488ZM139.618 110.856C139.618 110.109 139.73 109.459 139.954 108.904C140.189 108.339 140.493 107.869 140.866 107.496C141.24 107.123 141.666 106.84 142.146 106.648C142.637 106.456 143.138 106.36 143.65 106.36C144.845 106.36 145.789 106.728 146.482 107.464C147.176 108.189 147.522 109.261 147.522 110.68C147.522 110.819 147.517 110.973 147.506 111.144C147.496 111.304 147.485 111.448 147.474 111.576H142.066C142.12 112.067 142.349 112.456 142.754 112.744C143.16 113.032 143.704 113.176 144.386 113.176C144.824 113.176 145.25 113.139 145.666 113.064C146.093 112.979 146.44 112.877 146.706 112.76L147.026 114.696C146.898 114.76 146.728 114.824 146.514 114.888C146.301 114.952 146.061 115.005 145.794 115.048C145.538 115.101 145.261 115.144 144.962 115.176C144.664 115.208 144.365 115.224 144.066 115.224C143.309 115.224 142.648 115.112 142.082 114.888C141.528 114.664 141.064 114.36 140.69 113.976C140.328 113.581 140.056 113.117 139.874 112.584C139.704 112.051 139.618 111.475 139.618 110.856ZM145.218 109.944C145.208 109.741 145.17 109.544 145.106 109.352C145.053 109.16 144.962 108.989 144.834 108.84C144.717 108.691 144.562 108.568 144.37 108.472C144.189 108.376 143.96 108.328 143.682 108.328C143.416 108.328 143.186 108.376 142.994 108.472C142.802 108.557 142.642 108.675 142.514 108.824C142.386 108.973 142.285 109.149 142.21 109.352C142.146 109.544 142.098 109.741 142.066 109.944H145.218ZM154.434 108.696C154.221 108.643 153.97 108.589 153.682 108.536C153.394 108.472 153.085 108.44 152.754 108.44C152.605 108.44 152.424 108.456 152.21 108.488C152.008 108.509 151.853 108.536 151.746 108.568V115H149.362V107.032C149.789 106.883 150.29 106.744 150.866 106.616C151.453 106.477 152.104 106.408 152.818 106.408C152.946 106.408 153.101 106.419 153.282 106.44C153.464 106.451 153.645 106.472 153.826 106.504C154.008 106.525 154.189 106.557 154.37 106.6C154.552 106.632 154.706 106.675 154.834 106.728L154.434 108.696ZM158.496 115H156.112V106.584H158.496V115ZM158.72 104.152C158.72 104.589 158.576 104.936 158.288 105.192C158.011 105.437 157.68 105.56 157.296 105.56C156.912 105.56 156.576 105.437 156.288 105.192C156.011 104.936 155.872 104.589 155.872 104.152C155.872 103.715 156.011 103.373 156.288 103.128C156.576 102.872 156.912 102.744 157.296 102.744C157.68 102.744 158.011 102.872 158.288 103.128C158.576 103.373 158.72 103.715 158.72 104.152ZM168.609 110.776C168.609 111.437 168.513 112.045 168.321 112.6C168.129 113.144 167.852 113.613 167.489 114.008C167.127 114.392 166.689 114.691 166.177 114.904C165.676 115.117 165.111 115.224 164.481 115.224C163.863 115.224 163.297 115.117 162.785 114.904C162.284 114.691 161.852 114.392 161.489 114.008C161.127 113.613 160.844 113.144 160.641 112.6C160.439 112.045 160.337 111.437 160.337 110.776C160.337 110.115 160.439 109.512 160.641 108.968C160.855 108.424 161.143 107.96 161.505 107.576C161.879 107.192 162.316 106.893 162.817 106.68C163.329 106.467 163.884 106.36 164.481 106.36C165.089 106.36 165.644 106.467 166.145 106.68C166.657 106.893 167.095 107.192 167.457 107.576C167.82 107.96 168.103 108.424 168.305 108.968C168.508 109.512 168.609 110.115 168.609 110.776ZM166.177 110.776C166.177 110.04 166.028 109.464 165.729 109.048C165.441 108.621 165.025 108.408 164.481 108.408C163.937 108.408 163.516 108.621 163.217 109.048C162.919 109.464 162.769 110.04 162.769 110.776C162.769 111.512 162.919 112.099 163.217 112.536C163.516 112.963 163.937 113.176 164.481 113.176C165.025 113.176 165.441 112.963 165.729 112.536C166.028 112.099 166.177 111.512 166.177 110.776ZM175.528 108.696C175.315 108.643 175.064 108.589 174.776 108.536C174.488 108.472 174.179 108.44 173.848 108.44C173.699 108.44 173.517 108.456 173.304 108.488C173.101 108.509 172.947 108.536 172.84 108.568V115H170.456V107.032C170.883 106.883 171.384 106.744 171.96 106.616C172.547 106.477 173.197 106.408 173.912 106.408C174.04 106.408 174.195 106.419 174.376 106.44C174.557 106.451 174.739 106.472 174.92 106.504C175.101 106.525 175.283 106.557 175.464 106.6C175.645 106.632 175.8 106.675 175.928 106.728L175.528 108.696ZM183.706 112.968C183.823 112.979 183.956 112.989 184.106 113C184.266 113 184.452 113 184.666 113C185.914 113 186.836 112.685 187.434 112.056C188.042 111.427 188.346 110.557 188.346 109.448C188.346 108.285 188.058 107.405 187.482 106.808C186.906 106.211 185.994 105.912 184.746 105.912C184.575 105.912 184.399 105.917 184.218 105.928C184.036 105.928 183.866 105.939 183.706 105.96V112.968ZM190.922 109.448C190.922 110.408 190.772 111.245 190.474 111.96C190.175 112.675 189.748 113.267 189.194 113.736C188.65 114.205 187.983 114.557 187.194 114.792C186.404 115.027 185.519 115.144 184.538 115.144C184.09 115.144 183.567 115.123 182.97 115.08C182.372 115.048 181.786 114.973 181.21 114.856V104.056C181.786 103.949 182.383 103.88 183.002 103.848C183.631 103.805 184.17 103.784 184.618 103.784C185.567 103.784 186.426 103.891 187.194 104.104C187.972 104.317 188.639 104.653 189.194 105.112C189.748 105.571 190.175 106.157 190.474 106.872C190.772 107.587 190.922 108.445 190.922 109.448ZM192.447 110.856C192.447 110.109 192.559 109.459 192.783 108.904C193.017 108.339 193.321 107.869 193.695 107.496C194.068 107.123 194.495 106.84 194.975 106.648C195.465 106.456 195.967 106.36 196.479 106.36C197.673 106.36 198.617 106.728 199.311 107.464C200.004 108.189 200.351 109.261 200.351 110.68C200.351 110.819 200.345 110.973 200.335 111.144C200.324 111.304 200.313 111.448 200.303 111.576H194.895C194.948 112.067 195.177 112.456 195.583 112.744C195.988 113.032 196.532 113.176 197.215 113.176C197.652 113.176 198.079 113.139 198.495 113.064C198.921 112.979 199.268 112.877 199.535 112.76L199.855 114.696C199.727 114.76 199.556 114.824 199.343 114.888C199.129 114.952 198.889 115.005 198.623 115.048C198.367 115.101 198.089 115.144 197.791 115.176C197.492 115.208 197.193 115.224 196.895 115.224C196.137 115.224 195.476 115.112 194.911 114.888C194.356 114.664 193.892 114.36 193.519 113.976C193.156 113.581 192.884 113.117 192.703 112.584C192.532 112.051 192.447 111.475 192.447 110.856ZM198.047 109.944C198.036 109.741 197.999 109.544 197.935 109.352C197.881 109.16 197.791 108.989 197.663 108.84C197.545 108.691 197.391 108.568 197.199 108.472C197.017 108.376 196.788 108.328 196.511 108.328C196.244 108.328 196.015 108.376 195.823 108.472C195.631 108.557 195.471 108.675 195.343 108.824C195.215 108.973 195.113 109.149 195.039 109.352C194.975 109.544 194.927 109.741 194.895 109.944H198.047ZM204.606 113.288C205.044 113.288 205.353 113.245 205.534 113.16C205.716 113.075 205.806 112.909 205.806 112.664C205.806 112.472 205.689 112.307 205.454 112.168C205.22 112.019 204.862 111.853 204.382 111.672C204.009 111.533 203.668 111.389 203.358 111.24C203.06 111.091 202.804 110.915 202.59 110.712C202.377 110.499 202.212 110.248 202.094 109.96C201.977 109.672 201.918 109.325 201.918 108.92C201.918 108.131 202.212 107.507 202.798 107.048C203.385 106.589 204.19 106.36 205.214 106.36C205.726 106.36 206.217 106.408 206.686 106.504C207.156 106.589 207.529 106.685 207.806 106.792L207.39 108.648C207.113 108.552 206.809 108.467 206.478 108.392C206.158 108.317 205.796 108.28 205.39 108.28C204.644 108.28 204.27 108.488 204.27 108.904C204.27 109 204.286 109.085 204.318 109.16C204.35 109.235 204.414 109.309 204.51 109.384C204.606 109.448 204.734 109.523 204.894 109.608C205.065 109.683 205.278 109.768 205.534 109.864C206.057 110.056 206.489 110.248 206.83 110.44C207.172 110.621 207.438 110.824 207.63 111.048C207.833 111.261 207.972 111.501 208.046 111.768C208.132 112.035 208.174 112.344 208.174 112.696C208.174 113.528 207.86 114.157 207.23 114.584C206.612 115.011 205.732 115.224 204.59 115.224C203.844 115.224 203.22 115.16 202.718 115.032C202.228 114.904 201.886 114.797 201.694 114.712L202.094 112.776C202.5 112.936 202.916 113.064 203.342 113.16C203.769 113.245 204.19 113.288 204.606 113.288ZM212.34 115H209.956V106.584H212.34V115ZM212.564 104.152C212.564 104.589 212.42 104.936 212.132 105.192C211.855 105.437 211.524 105.56 211.14 105.56C210.756 105.56 210.42 105.437 210.132 105.192C209.855 104.936 209.716 104.589 209.716 104.152C209.716 103.715 209.855 103.373 210.132 103.128C210.42 102.872 210.756 102.744 211.14 102.744C211.524 102.744 211.855 102.872 212.132 103.128C212.42 103.373 212.564 103.715 212.564 104.152ZM216.613 110.52C216.613 111.853 217.152 112.52 218.229 112.52C218.474 112.52 218.704 112.488 218.917 112.424C219.13 112.36 219.312 112.285 219.461 112.2V108.392C219.344 108.371 219.205 108.355 219.045 108.344C218.885 108.323 218.698 108.312 218.485 108.312C217.856 108.312 217.386 108.52 217.077 108.936C216.768 109.352 216.613 109.88 216.613 110.52ZM221.845 113.944C221.845 115.32 221.493 116.339 220.789 117C220.096 117.672 219.018 118.008 217.557 118.008C217.045 118.008 216.533 117.96 216.021 117.864C215.509 117.779 215.034 117.661 214.597 117.512L215.013 115.512C215.386 115.661 215.776 115.779 216.181 115.864C216.597 115.949 217.066 115.992 217.589 115.992C218.272 115.992 218.752 115.843 219.029 115.544C219.317 115.245 219.461 114.861 219.461 114.392V114.088C219.205 114.205 218.938 114.296 218.661 114.36C218.394 114.413 218.101 114.44 217.781 114.44C216.618 114.44 215.728 114.099 215.109 113.416C214.49 112.723 214.181 111.757 214.181 110.52C214.181 109.901 214.277 109.341 214.469 108.84C214.661 108.328 214.938 107.891 215.301 107.528C215.674 107.165 216.128 106.888 216.661 106.696C217.194 106.493 217.797 106.392 218.469 106.392C218.757 106.392 219.05 106.408 219.349 106.44C219.658 106.461 219.962 106.493 220.261 106.536C220.56 106.579 220.842 106.632 221.109 106.696C221.386 106.749 221.632 106.808 221.845 106.872V113.944ZM224.081 106.872C224.486 106.755 225.009 106.648 225.649 106.552C226.289 106.445 226.961 106.392 227.665 106.392C228.38 106.392 228.972 106.488 229.441 106.68C229.921 106.861 230.3 107.123 230.577 107.464C230.854 107.805 231.052 108.211 231.169 108.68C231.286 109.149 231.345 109.672 231.345 110.248V115H228.961V110.536C228.961 109.768 228.86 109.224 228.657 108.904C228.454 108.584 228.076 108.424 227.521 108.424C227.35 108.424 227.169 108.435 226.977 108.456C226.785 108.467 226.614 108.483 226.465 108.504V115H224.081V106.872Z" fill="#9A9CA5"/>
</g>
</g>
<defs>
<filter id="filter0_dddd_2111_4036" x="0" y="0" width="350" height="294" filterUnits="userSpaceOnUse" color-interpolation-filters="sRGB">
<feFlood flood-opacity="0" result="BackgroundImageFix"/>
<feColorMatrix in="SourceAlpha" type="matrix" values="0 0 0 0 0 0 0 0 0 0 0 0 0 0 0 0 0 0 127 0" result="hardAlpha"/>
<feMorphology radius="4" operator="erode" in="SourceAlpha" result="effect1_dropShadow_2111_4036"/>
<feOffset dy="4"/>
<feGaussianBlur stdDeviation="2"/>
<feColorMatrix type="matrix" values="0 0 0 0 0.117647 0 0 0 0 0.129412 0 0 0 0 0.172549 0 0 0 0.03 0"/>
<feBlend mode="normal" in2="BackgroundImageFix" result="effect1_dropShadow_2111_4036"/>
<feColorMatrix in="SourceAlpha" type="matrix" values="0 0 0 0 0 0 0 0 0 0 0 0 0 0 0 0 0 0 127 0" result="hardAlpha"/>
<feMorphology radius="6" operator="erode" in="SourceAlpha" result="effect2_dropShadow_2111_4036"/>
<feOffset dy="12"/>
<feGaussianBlur stdDeviation="5"/>
<feColorMatrix type="matrix" values="0 0 0 0 0.603922 0 0 0 0 0.611765 0 0 0 0 0.647059 0 0 0 0.04 0"/>
<feBlend mode="normal" in2="effect1_dropShadow_2111_4036" result="effect2_dropShadow_2111_4036"/>
<feColorMatrix in="SourceAlpha" type="matrix" values="0 0 0 0 0 0 0 0 0 0 0 0 0 0 0 0 0 0 127 0" result="hardAlpha"/>
<feMorphology radius="10" operator="erode" in="SourceAlpha" result="effect3_dropShadow_2111_4036"/>
<feOffset dy="30"/>
<feGaussianBlur stdDeviation="12"/>
<feColorMatrix type="matrix" values="0 0 0 0 0.603922 0 0 0 0 0.611765 0 0 0 0 0.647059 0 0 0 0.05 0"/>
<feBlend mode="normal" in2="effect2_dropShadow_2111_4036" result="effect3_dropShadow_2111_4036"/>
<feColorMatrix in="SourceAlpha" type="matrix" values="0 0 0 0 0 0 0 0 0 0 0 0 0 0 0 0 0 0 127 0" result="hardAlpha"/>
<feMorphology radius="20" operator="erode" in="SourceAlpha" result="effect4_dropShadow_2111_4036"/>
<feOffset dy="80"/>
<feGaussianBlur stdDeviation="40"/>
<feColorMatrix type="matrix" values="0 0 0 0 0.603922 0 0 0 0 0.611765 0 0 0 0 0.647059 0 0 0 0.08 0"/>
<feBlend mode="normal" in2="effect3_dropShadow_2111_4036" result="effect4_dropShadow_2111_4036"/>
<feBlend mode="normal" in="SourceGraphic" in2="effect4_dropShadow_2111_4036" result="shape"/>
</filter>
<clipPath id="clip0_2111_4036">
<rect width="115" height="90" fill="white" transform="translate(117.5 32)"/>
</clipPath>
<clipPath id="clip1_2111_4036">
<rect width="48" height="48" fill="white" transform="translate(151 32)"/>
</clipPath>
</defs>
</svg>
