<svg width="350" height="294" viewBox="0 0 350 294" fill="none" xmlns="http://www.w3.org/2000/svg">
<g filter="url(#filter0_dddd_2111_4031)">
<rect x="60" width="230" height="154" rx="4" fill="white"/>
<g clip-path="url(#clip0_2111_4031)">
<path d="M193.375 34.9062C191.297 34.9062 189.479 36.0387 188.505 37.7188H152.406C151.63 37.7188 151 38.3484 151 39.125V75.6875C151 76.4641 151.63 77.0938 152.406 77.0938H193.375C196.477 77.0938 199 74.5704 199 71.4688V40.5312C199 37.4296 196.477 34.9062 193.375 34.9062ZM193.375 74.2812C192.825 74.2812 154.324 74.2812 153.812 74.2812V40.5312H187.75V71.4688C187.75 72.2454 188.38 72.875 189.156 72.875C189.933 72.875 190.562 72.2454 190.562 71.4688C190.562 69.9179 191.824 68.6562 193.375 68.6562C194.926 68.6562 196.188 69.9179 196.188 71.4688C196.188 73.0196 194.926 74.2812 193.375 74.2812ZM196.188 66.5986C195.36 66.1187 194.399 65.8438 193.375 65.8438C192.351 65.8438 191.39 66.1187 190.562 66.5986V40.5312C190.562 38.9804 191.824 37.7188 193.375 37.7188C194.926 37.7188 196.188 38.9804 196.188 40.5312V66.5986Z" fill="#FF5A30"/>
<path d="M183.438 43.3438H158.125C157.348 43.3438 156.719 43.9734 156.719 44.75V70.0625C156.719 70.8391 157.348 71.4688 158.125 71.4688H172.188C172.561 71.4688 172.918 71.3205 173.182 71.0568C173.446 70.7931 173.594 70.4354 173.594 70.0625V67.25C173.594 65.4166 174.769 63.8526 176.406 63.2722V70.0625C176.406 70.8391 177.036 71.4688 177.812 71.4688H183.438C184.214 71.4688 184.844 70.8391 184.844 70.0625V44.75C184.844 43.9734 184.214 43.3438 183.438 43.3438ZM182.031 68.6562H179.219V61.625C179.219 60.8484 178.589 60.2188 177.812 60.2188C173.935 60.2188 170.781 63.373 170.781 67.25V68.6562H159.531V60.2188H165.156V64.4375C165.156 65.2141 165.786 65.8438 166.562 65.8438C167.339 65.8438 167.969 65.2141 167.969 64.4375V58.8125C167.969 58.0359 167.339 57.4062 166.562 57.4062H159.531V46.1562H167.969V51.7812H163.75C162.973 51.7812 162.344 52.4109 162.344 53.1875C162.344 53.9641 162.973 54.5938 163.75 54.5938H169.375H175C175.777 54.5938 176.406 53.9641 176.406 53.1875C176.406 52.4109 175.777 51.7812 175 51.7812H170.781V46.1562H182.031V68.6562Z" fill="#FF5A30"/>
<path d="M98.2564 103.784C99.9098 103.784 101.179 104.077 102.064 104.664C102.95 105.24 103.392 106.189 103.392 107.512C103.392 108.845 102.944 109.811 102.048 110.408C101.152 110.995 99.8724 111.288 98.2084 111.288H97.4244V115H94.9284V104.072C95.4724 103.965 96.0484 103.891 96.6564 103.848C97.2644 103.805 97.7978 103.784 98.2564 103.784ZM98.4164 105.912C98.2351 105.912 98.0538 105.917 97.8724 105.928C97.7018 105.939 97.5524 105.949 97.4244 105.96V109.16H98.2084C99.0724 109.16 99.7231 109.043 100.16 108.808C100.598 108.573 100.816 108.136 100.816 107.496C100.816 107.187 100.758 106.931 100.64 106.728C100.534 106.525 100.374 106.365 100.16 106.248C99.9578 106.12 99.7071 106.035 99.4084 105.992C99.1098 105.939 98.7791 105.912 98.4164 105.912ZM110.137 108.696C109.924 108.643 109.673 108.589 109.385 108.536C109.097 108.472 108.788 108.44 108.457 108.44C108.308 108.44 108.127 108.456 107.913 108.488C107.711 108.509 107.556 108.536 107.449 108.568V115H105.065V107.032C105.492 106.883 105.993 106.744 106.569 106.616C107.156 106.477 107.807 106.408 108.521 106.408C108.649 106.408 108.804 106.419 108.985 106.44C109.167 106.451 109.348 106.472 109.529 106.504C109.711 106.525 109.892 106.557 110.073 106.6C110.255 106.632 110.409 106.675 110.537 106.728L110.137 108.696ZM119.531 110.776C119.531 111.437 119.435 112.045 119.243 112.6C119.051 113.144 118.774 113.613 118.411 114.008C118.048 114.392 117.611 114.691 117.099 114.904C116.598 115.117 116.032 115.224 115.403 115.224C114.784 115.224 114.219 115.117 113.707 114.904C113.206 114.691 112.774 114.392 112.411 114.008C112.048 113.613 111.766 113.144 111.563 112.6C111.36 112.045 111.259 111.437 111.259 110.776C111.259 110.115 111.36 109.512 111.563 108.968C111.776 108.424 112.064 107.96 112.427 107.576C112.8 107.192 113.238 106.893 113.739 106.68C114.251 106.467 114.806 106.36 115.403 106.36C116.011 106.36 116.566 106.467 117.067 106.68C117.579 106.893 118.016 107.192 118.379 107.576C118.742 107.96 119.024 108.424 119.227 108.968C119.43 109.512 119.531 110.115 119.531 110.776ZM117.099 110.776C117.099 110.04 116.95 109.464 116.651 109.048C116.363 108.621 115.947 108.408 115.403 108.408C114.859 108.408 114.438 108.621 114.139 109.048C113.84 109.464 113.691 110.04 113.691 110.776C113.691 111.512 113.84 112.099 114.139 112.536C114.438 112.963 114.859 113.176 115.403 113.176C115.947 113.176 116.363 112.963 116.651 112.536C116.95 112.099 117.099 111.512 117.099 110.776ZM120.594 117.96C120.444 117.96 120.226 117.944 119.938 117.912C119.639 117.88 119.362 117.821 119.106 117.736L119.426 115.8C119.586 115.853 119.735 115.891 119.874 115.912C120.002 115.933 120.167 115.944 120.37 115.944C120.743 115.944 121.004 115.832 121.154 115.608C121.303 115.384 121.378 115.059 121.378 114.632V106.584H123.762V114.696C123.762 115.805 123.49 116.627 122.946 117.16C122.402 117.693 121.618 117.96 120.594 117.96ZM123.986 104.152C123.986 104.589 123.842 104.936 123.554 105.192C123.276 105.437 122.946 105.56 122.562 105.56C122.178 105.56 121.842 105.437 121.554 105.192C121.276 104.936 121.138 104.589 121.138 104.152C121.138 103.715 121.276 103.373 121.554 103.128C121.842 102.872 122.178 102.744 122.562 102.744C122.946 102.744 123.276 102.872 123.554 103.128C123.842 103.373 123.986 103.715 123.986 104.152ZM125.603 110.856C125.603 110.109 125.715 109.459 125.939 108.904C126.173 108.339 126.477 107.869 126.851 107.496C127.224 107.123 127.651 106.84 128.131 106.648C128.621 106.456 129.123 106.36 129.635 106.36C130.829 106.36 131.773 106.728 132.467 107.464C133.16 108.189 133.507 109.261 133.507 110.68C133.507 110.819 133.501 110.973 133.491 111.144C133.48 111.304 133.469 111.448 133.459 111.576H128.051C128.104 112.067 128.333 112.456 128.739 112.744C129.144 113.032 129.688 113.176 130.371 113.176C130.808 113.176 131.235 113.139 131.651 113.064C132.077 112.979 132.424 112.877 132.691 112.76L133.011 114.696C132.883 114.76 132.712 114.824 132.499 114.888C132.285 114.952 132.045 115.005 131.779 115.048C131.523 115.101 131.245 115.144 130.947 115.176C130.648 115.208 130.349 115.224 130.051 115.224C129.293 115.224 128.632 115.112 128.067 114.888C127.512 114.664 127.048 114.36 126.675 113.976C126.312 113.581 126.04 113.117 125.859 112.584C125.688 112.051 125.603 111.475 125.603 110.856ZM131.203 109.944C131.192 109.741 131.155 109.544 131.091 109.352C131.037 109.16 130.947 108.989 130.819 108.84C130.701 108.691 130.547 108.568 130.355 108.472C130.173 108.376 129.944 108.328 129.667 108.328C129.4 108.328 129.171 108.376 128.979 108.472C128.787 108.557 128.627 108.675 128.499 108.824C128.371 108.973 128.269 109.149 128.195 109.352C128.131 109.544 128.083 109.741 128.051 109.944H131.203ZM134.947 110.792C134.947 110.184 135.043 109.613 135.235 109.08C135.437 108.536 135.725 108.067 136.099 107.672C136.472 107.267 136.925 106.947 137.459 106.712C137.992 106.477 138.6 106.36 139.283 106.36C139.731 106.36 140.141 106.403 140.515 106.488C140.888 106.563 141.251 106.675 141.603 106.824L141.107 108.728C140.883 108.643 140.637 108.568 140.371 108.504C140.104 108.44 139.805 108.408 139.475 108.408C138.771 108.408 138.243 108.627 137.891 109.064C137.549 109.501 137.379 110.077 137.379 110.792C137.379 111.549 137.539 112.136 137.859 112.552C138.189 112.968 138.76 113.176 139.571 113.176C139.859 113.176 140.168 113.149 140.499 113.096C140.829 113.043 141.133 112.957 141.411 112.84L141.747 114.792C141.469 114.909 141.123 115.011 140.707 115.096C140.291 115.181 139.832 115.224 139.331 115.224C138.563 115.224 137.901 115.112 137.347 114.888C136.792 114.653 136.333 114.339 135.971 113.944C135.619 113.549 135.357 113.085 135.187 112.552C135.027 112.008 134.947 111.421 134.947 110.792ZM143.267 104.488L145.651 104.104V106.584H148.515V108.568H145.651V111.528C145.651 112.029 145.736 112.429 145.907 112.728C146.088 113.027 146.445 113.176 146.979 113.176C147.235 113.176 147.496 113.155 147.763 113.112C148.04 113.059 148.291 112.989 148.515 112.904L148.851 114.76C148.563 114.877 148.243 114.979 147.891 115.064C147.539 115.149 147.107 115.192 146.595 115.192C145.944 115.192 145.405 115.107 144.979 114.936C144.552 114.755 144.211 114.509 143.955 114.2C143.699 113.88 143.517 113.496 143.411 113.048C143.315 112.6 143.267 112.104 143.267 111.56V104.488ZM156.956 112.968C157.073 112.979 157.206 112.989 157.356 113C157.516 113 157.702 113 157.916 113C159.164 113 160.086 112.685 160.684 112.056C161.292 111.427 161.596 110.557 161.596 109.448C161.596 108.285 161.308 107.405 160.732 106.808C160.156 106.211 159.244 105.912 157.996 105.912C157.825 105.912 157.649 105.917 157.468 105.928C157.286 105.928 157.116 105.939 156.956 105.96V112.968ZM164.172 109.448C164.172 110.408 164.022 111.245 163.724 111.96C163.425 112.675 162.998 113.267 162.444 113.736C161.9 114.205 161.233 114.557 160.444 114.792C159.654 115.027 158.769 115.144 157.788 115.144C157.34 115.144 156.817 115.123 156.22 115.08C155.622 115.048 155.036 114.973 154.46 114.856V104.056C155.036 103.949 155.633 103.88 156.252 103.848C156.881 103.805 157.42 103.784 157.868 103.784C158.817 103.784 159.676 103.891 160.444 104.104C161.222 104.317 161.889 104.653 162.444 105.112C162.998 105.571 163.425 106.157 163.724 106.872C164.022 107.587 164.172 108.445 164.172 109.448ZM165.697 110.856C165.697 110.109 165.809 109.459 166.033 108.904C166.267 108.339 166.571 107.869 166.945 107.496C167.318 107.123 167.745 106.84 168.225 106.648C168.715 106.456 169.217 106.36 169.729 106.36C170.923 106.36 171.867 106.728 172.561 107.464C173.254 108.189 173.601 109.261 173.601 110.68C173.601 110.819 173.595 110.973 173.585 111.144C173.574 111.304 173.563 111.448 173.553 111.576H168.145C168.198 112.067 168.427 112.456 168.833 112.744C169.238 113.032 169.782 113.176 170.465 113.176C170.902 113.176 171.329 113.139 171.745 113.064C172.171 112.979 172.518 112.877 172.785 112.76L173.105 114.696C172.977 114.76 172.806 114.824 172.593 114.888C172.379 114.952 172.139 115.005 171.873 115.048C171.617 115.101 171.339 115.144 171.041 115.176C170.742 115.208 170.443 115.224 170.145 115.224C169.387 115.224 168.726 115.112 168.161 114.888C167.606 114.664 167.142 114.36 166.769 113.976C166.406 113.581 166.134 113.117 165.953 112.584C165.782 112.051 165.697 111.475 165.697 110.856ZM171.297 109.944C171.286 109.741 171.249 109.544 171.185 109.352C171.131 109.16 171.041 108.989 170.913 108.84C170.795 108.691 170.641 108.568 170.449 108.472C170.267 108.376 170.038 108.328 169.761 108.328C169.494 108.328 169.265 108.376 169.073 108.472C168.881 108.557 168.721 108.675 168.593 108.824C168.465 108.973 168.363 109.149 168.289 109.352C168.225 109.544 168.177 109.741 168.145 109.944H171.297ZM177.728 115C177.184 113.933 176.63 112.685 176.064 111.256C175.51 109.827 174.982 108.269 174.48 106.584H177.008C177.115 107 177.238 107.453 177.376 107.944C177.526 108.424 177.675 108.915 177.824 109.416C177.984 109.907 178.139 110.387 178.288 110.856C178.448 111.325 178.603 111.752 178.752 112.136C178.891 111.752 179.04 111.325 179.2 110.856C179.36 110.387 179.515 109.907 179.664 109.416C179.824 108.915 179.974 108.424 180.112 107.944C180.262 107.453 180.39 107 180.496 106.584H182.96C182.459 108.269 181.926 109.827 181.36 111.256C180.806 112.685 180.256 113.933 179.712 115H177.728ZM183.618 110.856C183.618 110.109 183.73 109.459 183.954 108.904C184.189 108.339 184.493 107.869 184.866 107.496C185.24 107.123 185.666 106.84 186.146 106.648C186.637 106.456 187.138 106.36 187.65 106.36C188.845 106.36 189.789 106.728 190.482 107.464C191.176 108.189 191.522 109.261 191.522 110.68C191.522 110.819 191.517 110.973 191.506 111.144C191.496 111.304 191.485 111.448 191.474 111.576H186.066C186.12 112.067 186.349 112.456 186.754 112.744C187.16 113.032 187.704 113.176 188.386 113.176C188.824 113.176 189.25 113.139 189.666 113.064C190.093 112.979 190.44 112.877 190.706 112.76L191.026 114.696C190.898 114.76 190.728 114.824 190.514 114.888C190.301 114.952 190.061 115.005 189.794 115.048C189.538 115.101 189.261 115.144 188.962 115.176C188.664 115.208 188.365 115.224 188.066 115.224C187.309 115.224 186.648 115.112 186.082 114.888C185.528 114.664 185.064 114.36 184.69 113.976C184.328 113.581 184.056 113.117 183.874 112.584C183.704 112.051 183.618 111.475 183.618 110.856ZM189.218 109.944C189.208 109.741 189.17 109.544 189.106 109.352C189.053 109.16 188.962 108.989 188.834 108.84C188.717 108.691 188.562 108.568 188.37 108.472C188.189 108.376 187.96 108.328 187.682 108.328C187.416 108.328 187.186 108.376 186.994 108.472C186.802 108.557 186.642 108.675 186.514 108.824C186.386 108.973 186.285 109.149 186.21 109.352C186.146 109.544 186.098 109.741 186.066 109.944H189.218ZM196.722 115.16C196.029 115.149 195.464 115.075 195.026 114.936C194.6 114.797 194.258 114.605 194.002 114.36C193.757 114.104 193.586 113.8 193.49 113.448C193.405 113.085 193.362 112.68 193.362 112.232V102.968L195.746 102.584V111.752C195.746 111.965 195.762 112.157 195.794 112.328C195.826 112.499 195.885 112.643 195.97 112.76C196.066 112.877 196.2 112.973 196.37 113.048C196.541 113.123 196.77 113.171 197.058 113.192L196.722 115.16ZM206.297 110.776C206.297 111.437 206.201 112.045 206.009 112.6C205.817 113.144 205.539 113.613 205.177 114.008C204.814 114.392 204.377 114.691 203.865 114.904C203.363 115.117 202.798 115.224 202.169 115.224C201.55 115.224 200.985 115.117 200.473 114.904C199.971 114.691 199.539 114.392 199.177 114.008C198.814 113.613 198.531 113.144 198.329 112.6C198.126 112.045 198.025 111.437 198.025 110.776C198.025 110.115 198.126 109.512 198.329 108.968C198.542 108.424 198.83 107.96 199.193 107.576C199.566 107.192 200.003 106.893 200.505 106.68C201.017 106.467 201.571 106.36 202.169 106.36C202.777 106.36 203.331 106.467 203.833 106.68C204.345 106.893 204.782 107.192 205.145 107.576C205.507 107.96 205.79 108.424 205.993 108.968C206.195 109.512 206.297 110.115 206.297 110.776ZM203.865 110.776C203.865 110.04 203.715 109.464 203.417 109.048C203.129 108.621 202.713 108.408 202.169 108.408C201.625 108.408 201.203 108.621 200.905 109.048C200.606 109.464 200.457 110.04 200.457 110.776C200.457 111.512 200.606 112.099 200.905 112.536C201.203 112.963 201.625 113.176 202.169 113.176C202.713 113.176 203.129 112.963 203.417 112.536C203.715 112.099 203.865 111.512 203.865 110.776ZM213.535 110.856C213.535 110.12 213.37 109.533 213.039 109.096C212.709 108.648 212.218 108.424 211.567 108.424C211.354 108.424 211.157 108.435 210.975 108.456C210.794 108.467 210.645 108.483 210.527 108.504V112.808C210.677 112.904 210.869 112.984 211.103 113.048C211.349 113.112 211.594 113.144 211.839 113.144C212.97 113.144 213.535 112.381 213.535 110.856ZM215.967 110.792C215.967 111.443 215.887 112.035 215.727 112.568C215.567 113.101 215.333 113.56 215.023 113.944C214.714 114.328 214.33 114.627 213.871 114.84C213.413 115.053 212.885 115.16 212.287 115.16C211.957 115.16 211.647 115.128 211.359 115.064C211.071 115 210.794 114.909 210.527 114.792V117.96H208.143V106.872C208.357 106.808 208.602 106.749 208.879 106.696C209.157 106.632 209.445 106.579 209.743 106.536C210.053 106.493 210.362 106.461 210.671 106.44C210.991 106.408 211.295 106.392 211.583 106.392C212.277 106.392 212.895 106.499 213.439 106.712C213.983 106.915 214.442 107.208 214.815 107.592C215.189 107.965 215.471 108.424 215.663 108.968C215.866 109.512 215.967 110.12 215.967 110.792ZM222.424 110.536C222.424 109.768 222.322 109.224 222.12 108.904C221.928 108.584 221.592 108.424 221.112 108.424C220.962 108.424 220.808 108.435 220.648 108.456C220.488 108.467 220.333 108.483 220.184 108.504V115H217.8V106.872C218.002 106.819 218.237 106.765 218.504 106.712C218.781 106.648 219.069 106.595 219.368 106.552C219.677 106.499 219.992 106.461 220.312 106.44C220.632 106.408 220.946 106.392 221.256 106.392C221.864 106.392 222.354 106.472 222.728 106.632C223.112 106.781 223.426 106.963 223.672 107.176C224.013 106.931 224.402 106.739 224.84 106.6C225.288 106.461 225.698 106.392 226.072 106.392C226.744 106.392 227.293 106.488 227.72 106.68C228.157 106.861 228.504 107.123 228.76 107.464C229.016 107.805 229.192 108.211 229.288 108.68C229.384 109.149 229.432 109.672 229.432 110.248V115H227.048V110.536C227.048 109.768 226.946 109.224 226.744 108.904C226.552 108.584 226.216 108.424 225.736 108.424C225.608 108.424 225.426 108.456 225.192 108.52C224.968 108.584 224.781 108.664 224.632 108.76C224.706 109.005 224.754 109.267 224.776 109.544C224.797 109.811 224.808 110.099 224.808 110.408V115H222.424V110.536ZM231.197 110.856C231.197 110.109 231.309 109.459 231.533 108.904C231.767 108.339 232.071 107.869 232.445 107.496C232.818 107.123 233.245 106.84 233.725 106.648C234.215 106.456 234.717 106.36 235.229 106.36C236.423 106.36 237.367 106.728 238.061 107.464C238.754 108.189 239.101 109.261 239.101 110.68C239.101 110.819 239.095 110.973 239.085 111.144C239.074 111.304 239.063 111.448 239.053 111.576H233.645C233.698 112.067 233.927 112.456 234.333 112.744C234.738 113.032 235.282 113.176 235.965 113.176C236.402 113.176 236.829 113.139 237.245 113.064C237.671 112.979 238.018 112.877 238.285 112.76L238.605 114.696C238.477 114.76 238.306 114.824 238.093 114.888C237.879 114.952 237.639 115.005 237.373 115.048C237.117 115.101 236.839 115.144 236.541 115.176C236.242 115.208 235.943 115.224 235.645 115.224C234.887 115.224 234.226 115.112 233.661 114.888C233.106 114.664 232.642 114.36 232.269 113.976C231.906 113.581 231.634 113.117 231.453 112.584C231.282 112.051 231.197 111.475 231.197 110.856ZM236.797 109.944C236.786 109.741 236.749 109.544 236.685 109.352C236.631 109.16 236.541 108.989 236.413 108.84C236.295 108.691 236.141 108.568 235.949 108.472C235.767 108.376 235.538 108.328 235.261 108.328C234.994 108.328 234.765 108.376 234.573 108.472C234.381 108.557 234.221 108.675 234.093 108.824C233.965 108.973 233.863 109.149 233.789 109.352C233.725 109.544 233.677 109.741 233.645 109.944H236.797ZM240.94 106.872C241.346 106.755 241.868 106.648 242.508 106.552C243.148 106.445 243.82 106.392 244.524 106.392C245.239 106.392 245.831 106.488 246.3 106.68C246.78 106.861 247.159 107.123 247.436 107.464C247.714 107.805 247.911 108.211 248.028 108.68C248.146 109.149 248.204 109.672 248.204 110.248V115H245.82V110.536C245.82 109.768 245.719 109.224 245.516 108.904C245.314 108.584 244.935 108.424 244.38 108.424C244.21 108.424 244.028 108.435 243.836 108.456C243.644 108.467 243.474 108.483 243.324 108.504V115H240.94V106.872ZM250.282 104.488L252.666 104.104V106.584H255.53V108.568H252.666V111.528C252.666 112.029 252.752 112.429 252.922 112.728C253.104 113.027 253.461 113.176 253.994 113.176C254.25 113.176 254.512 113.155 254.778 113.112C255.056 113.059 255.306 112.989 255.53 112.904L255.866 114.76C255.578 114.877 255.258 114.979 254.906 115.064C254.554 115.149 254.122 115.192 253.61 115.192C252.96 115.192 252.421 115.107 251.994 114.936C251.568 114.755 251.226 114.509 250.97 114.2C250.714 113.88 250.533 113.496 250.426 113.048C250.33 112.6 250.282 112.104 250.282 111.56V104.488Z" fill="#9A9CA5"/>
</g>
</g>
<defs>
<filter id="filter0_dddd_2111_4031" x="0" y="0" width="350" height="294" filterUnits="userSpaceOnUse" color-interpolation-filters="sRGB">
<feFlood flood-opacity="0" result="BackgroundImageFix"/>
<feColorMatrix in="SourceAlpha" type="matrix" values="0 0 0 0 0 0 0 0 0 0 0 0 0 0 0 0 0 0 127 0" result="hardAlpha"/>
<feMorphology radius="4" operator="erode" in="SourceAlpha" result="effect1_dropShadow_2111_4031"/>
<feOffset dy="4"/>
<feGaussianBlur stdDeviation="2"/>
<feColorMatrix type="matrix" values="0 0 0 0 0.117647 0 0 0 0 0.129412 0 0 0 0 0.172549 0 0 0 0.03 0"/>
<feBlend mode="normal" in2="BackgroundImageFix" result="effect1_dropShadow_2111_4031"/>
<feColorMatrix in="SourceAlpha" type="matrix" values="0 0 0 0 0 0 0 0 0 0 0 0 0 0 0 0 0 0 127 0" result="hardAlpha"/>
<feMorphology radius="6" operator="erode" in="SourceAlpha" result="effect2_dropShadow_2111_4031"/>
<feOffset dy="12"/>
<feGaussianBlur stdDeviation="5"/>
<feColorMatrix type="matrix" values="0 0 0 0 0.603922 0 0 0 0 0.611765 0 0 0 0 0.647059 0 0 0 0.04 0"/>
<feBlend mode="normal" in2="effect1_dropShadow_2111_4031" result="effect2_dropShadow_2111_4031"/>
<feColorMatrix in="SourceAlpha" type="matrix" values="0 0 0 0 0 0 0 0 0 0 0 0 0 0 0 0 0 0 127 0" result="hardAlpha"/>
<feMorphology radius="10" operator="erode" in="SourceAlpha" result="effect3_dropShadow_2111_4031"/>
<feOffset dy="30"/>
<feGaussianBlur stdDeviation="12"/>
<feColorMatrix type="matrix" values="0 0 0 0 0.603922 0 0 0 0 0.611765 0 0 0 0 0.647059 0 0 0 0.05 0"/>
<feBlend mode="normal" in2="effect2_dropShadow_2111_4031" result="effect3_dropShadow_2111_4031"/>
<feColorMatrix in="SourceAlpha" type="matrix" values="0 0 0 0 0 0 0 0 0 0 0 0 0 0 0 0 0 0 127 0" result="hardAlpha"/>
<feMorphology radius="20" operator="erode" in="SourceAlpha" result="effect4_dropShadow_2111_4031"/>
<feOffset dy="80"/>
<feGaussianBlur stdDeviation="40"/>
<feColorMatrix type="matrix" values="0 0 0 0 0.603922 0 0 0 0 0.611765 0 0 0 0 0.647059 0 0 0 0.08 0"/>
<feBlend mode="normal" in2="effect3_dropShadow_2111_4031" result="effect4_dropShadow_2111_4031"/>
<feBlend mode="normal" in="SourceGraphic" in2="effect4_dropShadow_2111_4031" result="shape"/>
</filter>
<clipPath id="clip0_2111_4031">
<rect width="163" height="90" fill="white" transform="translate(93.5 32)"/>
</clipPath>
</defs>
</svg>
