<svg width="350" height="294" viewBox="0 0 350 294" fill="none" xmlns="http://www.w3.org/2000/svg">
<g filter="url(#filter0_dddd_2111_4037)">
<rect x="60" width="230" height="154" rx="4" fill="white"/>
<g clip-path="url(#clip0_2111_4037)">
<path d="M190.562 36.2188C190.562 33.8926 188.67 32 186.344 32H158.219C155.893 32 154 33.8926 154 36.2188V44.6562C154 46.9824 155.893 48.875 158.219 48.875H186.344C188.67 48.875 190.562 46.9824 190.562 44.6562V43.25H191.969C192.744 43.25 193.375 43.881 193.375 44.6562V50.2812C193.375 51.0565 192.744 51.6875 191.969 51.6875H175.094C172.768 51.6875 170.875 53.5801 170.875 55.9062V60.125H169.469C168.692 60.125 168.062 60.7545 168.062 61.5312V67.0797L166.656 72.7955C165.742 76.4529 168.505 80 172.281 80C176.059 80 178.82 76.4492 177.908 72.8007L176.5 67.0797V61.5312C176.5 60.7545 175.87 60.125 175.094 60.125H173.688V55.9062C173.688 55.131 174.318 54.5 175.094 54.5H191.969C194.295 54.5 196.188 52.6074 196.188 50.2812V44.6562C196.188 42.3301 194.295 40.4375 191.969 40.4375H190.562V36.2188ZM173.688 62.9375V65.8438H170.875V62.9375H173.688ZM172.281 77.1875C170.344 77.1875 168.912 75.3693 169.386 73.4727L170.571 68.6562H173.991L175.178 73.4778C175.649 75.3612 174.225 77.1875 172.281 77.1875ZM158.219 34.8125H186.344C187.119 34.8125 187.75 35.4435 187.75 36.2188V37.625H183.531C182.165 37.625 180.417 38.137 178.393 38.7295C175.66 39.53 172.562 40.4375 169.469 40.4375C166.453 40.4375 164.328 39.5568 162.452 38.78C161.018 38.186 159.663 37.625 158.219 37.625H156.812V36.2188C156.812 35.4435 157.443 34.8125 158.219 34.8125ZM187.75 44.6562C187.75 45.4315 187.119 46.0625 186.344 46.0625H158.219C157.443 46.0625 156.812 45.4315 156.812 44.6562V40.4375H158.219C159.104 40.4375 160.107 40.8528 161.375 41.3783C163.389 42.2122 165.894 43.25 169.469 43.25C172.966 43.25 176.413 42.24 179.184 41.4288C180.924 40.9191 182.568 40.4375 183.531 40.4375H187.75V44.6562Z" fill="#FF5A30"/>
<path d="M150.903 103.784C152.567 103.784 153.842 104.083 154.727 104.68C155.612 105.267 156.055 106.184 156.055 107.432C156.055 108.211 155.874 108.845 155.511 109.336C155.159 109.816 154.647 110.195 153.975 110.472C154.199 110.749 154.434 111.069 154.679 111.432C154.924 111.784 155.164 112.157 155.399 112.552C155.644 112.936 155.879 113.341 156.103 113.768C156.327 114.184 156.535 114.595 156.727 115H153.927C153.724 114.637 153.516 114.269 153.303 113.896C153.1 113.523 152.887 113.16 152.663 112.808C152.45 112.456 152.236 112.125 152.023 111.816C151.81 111.496 151.596 111.208 151.383 110.952H150.151V115H147.655V104.072C148.199 103.965 148.759 103.891 149.335 103.848C149.922 103.805 150.444 103.784 150.903 103.784ZM151.047 105.912C150.866 105.912 150.7 105.917 150.551 105.928C150.412 105.939 150.279 105.949 150.151 105.96V108.968H150.855C151.794 108.968 152.466 108.851 152.871 108.616C153.276 108.381 153.479 107.981 153.479 107.416C153.479 106.872 153.271 106.488 152.855 106.264C152.45 106.029 151.847 105.912 151.047 105.912ZM157.361 110.856C157.361 110.109 157.473 109.459 157.697 108.904C157.931 108.339 158.235 107.869 158.609 107.496C158.982 107.123 159.409 106.84 159.889 106.648C160.379 106.456 160.881 106.36 161.393 106.36C162.587 106.36 163.531 106.728 164.225 107.464C164.918 108.189 165.265 109.261 165.265 110.68C165.265 110.819 165.259 110.973 165.249 111.144C165.238 111.304 165.227 111.448 165.217 111.576H159.809C159.862 112.067 160.091 112.456 160.497 112.744C160.902 113.032 161.446 113.176 162.129 113.176C162.566 113.176 162.993 113.139 163.409 113.064C163.835 112.979 164.182 112.877 164.449 112.76L164.769 114.696C164.641 114.76 164.47 114.824 164.257 114.888C164.043 114.952 163.803 115.005 163.537 115.048C163.281 115.101 163.003 115.144 162.705 115.176C162.406 115.208 162.107 115.224 161.809 115.224C161.051 115.224 160.39 115.112 159.825 114.888C159.27 114.664 158.806 114.36 158.433 113.976C158.07 113.581 157.798 113.117 157.617 112.584C157.446 112.051 157.361 111.475 157.361 110.856ZM162.961 109.944C162.95 109.741 162.913 109.544 162.849 109.352C162.795 109.16 162.705 108.989 162.577 108.84C162.459 108.691 162.305 108.568 162.113 108.472C161.931 108.376 161.702 108.328 161.425 108.328C161.158 108.328 160.929 108.376 160.737 108.472C160.545 108.557 160.385 108.675 160.257 108.824C160.129 108.973 160.027 109.149 159.953 109.352C159.889 109.544 159.841 109.741 159.809 109.944H162.961ZM172.496 110.856C172.496 110.12 172.331 109.533 172 109.096C171.67 108.648 171.179 108.424 170.528 108.424C170.315 108.424 170.118 108.435 169.936 108.456C169.755 108.467 169.606 108.483 169.488 108.504V112.808C169.638 112.904 169.83 112.984 170.064 113.048C170.31 113.112 170.555 113.144 170.8 113.144C171.931 113.144 172.496 112.381 172.496 110.856ZM174.928 110.792C174.928 111.443 174.848 112.035 174.688 112.568C174.528 113.101 174.294 113.56 173.984 113.944C173.675 114.328 173.291 114.627 172.832 114.84C172.374 115.053 171.846 115.16 171.248 115.16C170.918 115.16 170.608 115.128 170.32 115.064C170.032 115 169.755 114.909 169.488 114.792V117.96H167.104V106.872C167.318 106.808 167.563 106.749 167.84 106.696C168.118 106.632 168.406 106.579 168.704 106.536C169.014 106.493 169.323 106.461 169.632 106.44C169.952 106.408 170.256 106.392 170.544 106.392C171.238 106.392 171.856 106.499 172.4 106.712C172.944 106.915 173.403 107.208 173.776 107.592C174.15 107.965 174.432 108.424 174.624 108.968C174.827 109.512 174.928 110.12 174.928 110.792ZM179.977 113.336C180.211 113.336 180.435 113.331 180.649 113.32C180.862 113.309 181.033 113.293 181.161 113.272V111.464C181.065 111.443 180.921 111.421 180.729 111.4C180.537 111.379 180.361 111.368 180.201 111.368C179.977 111.368 179.763 111.384 179.561 111.416C179.369 111.437 179.198 111.485 179.049 111.56C178.899 111.635 178.782 111.736 178.697 111.864C178.611 111.992 178.569 112.152 178.569 112.344C178.569 112.717 178.691 112.979 178.937 113.128C179.193 113.267 179.539 113.336 179.977 113.336ZM179.785 106.36C180.489 106.36 181.075 106.44 181.545 106.6C182.014 106.76 182.387 106.989 182.665 107.288C182.953 107.587 183.155 107.949 183.273 108.376C183.39 108.803 183.449 109.277 183.449 109.8V114.76C183.107 114.835 182.633 114.92 182.025 115.016C181.417 115.123 180.681 115.176 179.817 115.176C179.273 115.176 178.777 115.128 178.329 115.032C177.891 114.936 177.513 114.781 177.193 114.568C176.873 114.344 176.627 114.056 176.457 113.704C176.286 113.352 176.201 112.92 176.201 112.408C176.201 111.917 176.297 111.501 176.489 111.16C176.691 110.819 176.958 110.547 177.289 110.344C177.619 110.141 177.998 109.997 178.425 109.912C178.851 109.816 179.294 109.768 179.753 109.768C180.062 109.768 180.334 109.784 180.569 109.816C180.814 109.837 181.011 109.869 181.161 109.912V109.688C181.161 109.283 181.038 108.957 180.793 108.712C180.547 108.467 180.121 108.344 179.513 108.344C179.107 108.344 178.707 108.376 178.313 108.44C177.918 108.493 177.577 108.573 177.289 108.68L176.985 106.76C177.123 106.717 177.294 106.675 177.497 106.632C177.71 106.579 177.939 106.536 178.185 106.504C178.43 106.461 178.686 106.429 178.953 106.408C179.23 106.376 179.507 106.36 179.785 106.36ZM187.988 115H185.604V106.584H187.988V115ZM188.212 104.152C188.212 104.589 188.068 104.936 187.78 105.192C187.503 105.437 187.172 105.56 186.788 105.56C186.404 105.56 186.068 105.437 185.78 105.192C185.503 104.936 185.364 104.589 185.364 104.152C185.364 103.715 185.503 103.373 185.78 103.128C186.068 102.872 186.404 102.744 186.788 102.744C187.172 102.744 187.503 102.872 187.78 103.128C188.068 103.373 188.212 103.715 188.212 104.152ZM195.301 108.696C195.088 108.643 194.837 108.589 194.549 108.536C194.261 108.472 193.952 108.44 193.621 108.44C193.472 108.44 193.291 108.456 193.077 108.488C192.875 108.509 192.72 108.536 192.613 108.568V115H190.229V107.032C190.656 106.883 191.157 106.744 191.733 106.616C192.32 106.477 192.971 106.408 193.685 106.408C193.813 106.408 193.968 106.419 194.149 106.44C194.331 106.451 194.512 106.472 194.693 106.504C194.875 106.525 195.056 106.557 195.237 106.6C195.419 106.632 195.573 106.675 195.701 106.728L195.301 108.696ZM199.395 113.288C199.833 113.288 200.142 113.245 200.323 113.16C200.505 113.075 200.595 112.909 200.595 112.664C200.595 112.472 200.478 112.307 200.243 112.168C200.009 112.019 199.651 111.853 199.171 111.672C198.798 111.533 198.457 111.389 198.147 111.24C197.849 111.091 197.593 110.915 197.379 110.712C197.166 110.499 197.001 110.248 196.883 109.96C196.766 109.672 196.707 109.325 196.707 108.92C196.707 108.131 197.001 107.507 197.587 107.048C198.174 106.589 198.979 106.36 200.003 106.36C200.515 106.36 201.006 106.408 201.475 106.504C201.945 106.589 202.318 106.685 202.595 106.792L202.179 108.648C201.902 108.552 201.598 108.467 201.267 108.392C200.947 108.317 200.585 108.28 200.179 108.28C199.433 108.28 199.059 108.488 199.059 108.904C199.059 109 199.075 109.085 199.107 109.16C199.139 109.235 199.203 109.309 199.299 109.384C199.395 109.448 199.523 109.523 199.683 109.608C199.854 109.683 200.067 109.768 200.323 109.864C200.846 110.056 201.278 110.248 201.619 110.44C201.961 110.621 202.227 110.824 202.419 111.048C202.622 111.261 202.761 111.501 202.835 111.768C202.921 112.035 202.963 112.344 202.963 112.696C202.963 113.528 202.649 114.157 202.019 114.584C201.401 115.011 200.521 115.224 199.379 115.224C198.633 115.224 198.009 115.16 197.507 115.032C197.017 114.904 196.675 114.797 196.483 114.712L196.883 112.776C197.289 112.936 197.705 113.064 198.131 113.16C198.558 113.245 198.979 113.288 199.395 113.288Z" fill="#9A9CA5"/>
</g>
</g>
<defs>
<filter id="filter0_dddd_2111_4037" x="0" y="0" width="350" height="294" filterUnits="userSpaceOnUse" color-interpolation-filters="sRGB">
<feFlood flood-opacity="0" result="BackgroundImageFix"/>
<feColorMatrix in="SourceAlpha" type="matrix" values="0 0 0 0 0 0 0 0 0 0 0 0 0 0 0 0 0 0 127 0" result="hardAlpha"/>
<feMorphology radius="4" operator="erode" in="SourceAlpha" result="effect1_dropShadow_2111_4037"/>
<feOffset dy="4"/>
<feGaussianBlur stdDeviation="2"/>
<feColorMatrix type="matrix" values="0 0 0 0 0.117647 0 0 0 0 0.129412 0 0 0 0 0.172549 0 0 0 0.03 0"/>
<feBlend mode="normal" in2="BackgroundImageFix" result="effect1_dropShadow_2111_4037"/>
<feColorMatrix in="SourceAlpha" type="matrix" values="0 0 0 0 0 0 0 0 0 0 0 0 0 0 0 0 0 0 127 0" result="hardAlpha"/>
<feMorphology radius="6" operator="erode" in="SourceAlpha" result="effect2_dropShadow_2111_4037"/>
<feOffset dy="12"/>
<feGaussianBlur stdDeviation="5"/>
<feColorMatrix type="matrix" values="0 0 0 0 0.603922 0 0 0 0 0.611765 0 0 0 0 0.647059 0 0 0 0.04 0"/>
<feBlend mode="normal" in2="effect1_dropShadow_2111_4037" result="effect2_dropShadow_2111_4037"/>
<feColorMatrix in="SourceAlpha" type="matrix" values="0 0 0 0 0 0 0 0 0 0 0 0 0 0 0 0 0 0 127 0" result="hardAlpha"/>
<feMorphology radius="10" operator="erode" in="SourceAlpha" result="effect3_dropShadow_2111_4037"/>
<feOffset dy="30"/>
<feGaussianBlur stdDeviation="12"/>
<feColorMatrix type="matrix" values="0 0 0 0 0.603922 0 0 0 0 0.611765 0 0 0 0 0.647059 0 0 0 0.05 0"/>
<feBlend mode="normal" in2="effect2_dropShadow_2111_4037" result="effect3_dropShadow_2111_4037"/>
<feColorMatrix in="SourceAlpha" type="matrix" values="0 0 0 0 0 0 0 0 0 0 0 0 0 0 0 0 0 0 127 0" result="hardAlpha"/>
<feMorphology radius="20" operator="erode" in="SourceAlpha" result="effect4_dropShadow_2111_4037"/>
<feOffset dy="80"/>
<feGaussianBlur stdDeviation="40"/>
<feColorMatrix type="matrix" values="0 0 0 0 0.603922 0 0 0 0 0.611765 0 0 0 0 0.647059 0 0 0 0.08 0"/>
<feBlend mode="normal" in2="effect3_dropShadow_2111_4037" result="effect4_dropShadow_2111_4037"/>
<feBlend mode="normal" in="SourceGraphic" in2="effect4_dropShadow_2111_4037" result="shape"/>
</filter>
<clipPath id="clip0_2111_4037">
<rect width="58" height="90" fill="white" transform="translate(146 32)"/>
</clipPath>
</defs>
</svg>
