<svg width="285" height="188" viewBox="0 0 285 188" fill="none" xmlns="http://www.w3.org/2000/svg">
<path d="M116.425 91.62C116.865 91.62 117.225 91.5867 117.505 91.52C117.798 91.44 118.032 91.34 118.205 91.22C118.378 91.0867 118.498 90.9333 118.565 90.76C118.632 90.5867 118.665 90.3933 118.665 90.18C118.665 89.7267 118.452 89.3533 118.025 89.06C117.598 88.7533 116.865 88.4267 115.825 88.08C115.372 87.92 114.918 87.74 114.465 87.54C114.012 87.3267 113.605 87.0667 113.245 86.76C112.885 86.44 112.592 86.06 112.365 85.62C112.138 85.1667 112.025 84.62 112.025 83.98C112.025 83.34 112.145 82.7667 112.385 82.26C112.625 81.74 112.965 81.3 113.405 80.94C113.845 80.58 114.378 80.3067 115.005 80.12C115.632 79.92 116.338 79.82 117.125 79.82C118.058 79.82 118.865 79.92 119.545 80.12C120.225 80.32 120.785 80.54 121.225 80.78L120.325 83.24C119.938 83.04 119.505 82.8667 119.025 82.72C118.558 82.56 117.992 82.48 117.325 82.48C116.578 82.48 116.038 82.5867 115.705 82.8C115.385 83 115.225 83.3133 115.225 83.74C115.225 83.9933 115.285 84.2067 115.405 84.38C115.525 84.5533 115.692 84.7133 115.905 84.86C116.132 84.9933 116.385 85.12 116.665 85.24C116.958 85.3467 117.278 85.46 117.625 85.58C118.345 85.8467 118.972 86.1133 119.505 86.38C120.038 86.6333 120.478 86.9333 120.825 87.28C121.185 87.6267 121.452 88.0333 121.625 88.5C121.798 88.9667 121.885 89.5333 121.885 90.2C121.885 91.4933 121.432 92.5 120.525 93.22C119.618 93.9267 118.252 94.28 116.425 94.28C115.812 94.28 115.258 94.24 114.765 94.16C114.272 94.0933 113.832 94.0067 113.445 93.9C113.072 93.7933 112.745 93.68 112.465 93.56C112.198 93.44 111.972 93.3267 111.785 93.22L112.665 90.74C113.078 90.9667 113.585 91.1733 114.185 91.36C114.798 91.5333 115.545 91.62 116.425 91.62ZM128.34 91.92C128.633 91.92 128.913 91.9133 129.18 91.9C129.447 91.8867 129.66 91.8667 129.82 91.84V89.58C129.7 89.5533 129.52 89.5267 129.28 89.5C129.04 89.4733 128.82 89.46 128.62 89.46C128.34 89.46 128.073 89.48 127.82 89.52C127.58 89.5467 127.367 89.6067 127.18 89.7C126.993 89.7933 126.847 89.92 126.74 90.08C126.633 90.24 126.58 90.44 126.58 90.68C126.58 91.1467 126.733 91.4733 127.04 91.66C127.36 91.8333 127.793 91.92 128.34 91.92ZM128.1 83.2C128.98 83.2 129.713 83.3 130.3 83.5C130.887 83.7 131.353 83.9867 131.7 84.36C132.06 84.7333 132.313 85.1867 132.46 85.72C132.607 86.2533 132.68 86.8467 132.68 87.5V93.7C132.253 93.7933 131.66 93.9 130.9 94.02C130.14 94.1533 129.22 94.22 128.14 94.22C127.46 94.22 126.84 94.16 126.28 94.04C125.733 93.92 125.26 93.7267 124.86 93.46C124.46 93.18 124.153 92.82 123.94 92.38C123.727 91.94 123.62 91.4 123.62 90.76C123.62 90.1467 123.74 89.6267 123.98 89.2C124.233 88.7733 124.567 88.4333 124.98 88.18C125.393 87.9267 125.867 87.7467 126.4 87.64C126.933 87.52 127.487 87.46 128.06 87.46C128.447 87.46 128.787 87.48 129.08 87.52C129.387 87.5467 129.633 87.5867 129.82 87.64V87.36C129.82 86.8533 129.667 86.4467 129.36 86.14C129.053 85.8333 128.52 85.68 127.76 85.68C127.253 85.68 126.753 85.72 126.26 85.8C125.767 85.8667 125.34 85.9667 124.98 86.1L124.6 83.7C124.773 83.6467 124.987 83.5933 125.24 83.54C125.507 83.4733 125.793 83.42 126.1 83.38C126.407 83.3267 126.727 83.2867 127.06 83.26C127.407 83.22 127.753 83.2 128.1 83.2ZM139.935 78.48C140.495 78.48 141.008 78.54 141.475 78.66C141.941 78.7667 142.301 78.8733 142.555 78.98L141.975 81.36C141.708 81.24 141.415 81.1533 141.095 81.1C140.788 81.0333 140.501 81 140.235 81C139.875 81 139.568 81.0533 139.315 81.16C139.075 81.2533 138.881 81.3867 138.735 81.56C138.601 81.7333 138.501 81.94 138.435 82.18C138.381 82.42 138.355 82.68 138.355 82.96V83.48H142.035V85.96H138.355V94H135.375V82.92C135.375 81.56 135.755 80.48 136.515 79.68C137.288 78.88 138.428 78.48 139.935 78.48ZM143.156 88.82C143.156 87.8867 143.296 87.0733 143.576 86.38C143.869 85.6733 144.249 85.0867 144.716 84.62C145.183 84.1533 145.716 83.8 146.316 83.56C146.929 83.32 147.556 83.2 148.196 83.2C149.689 83.2 150.869 83.66 151.736 84.58C152.603 85.4867 153.036 86.8267 153.036 88.6C153.036 88.7733 153.029 88.9667 153.016 89.18C153.003 89.38 152.989 89.56 152.976 89.72H146.216C146.283 90.3333 146.569 90.82 147.076 91.18C147.583 91.54 148.263 91.72 149.116 91.72C149.663 91.72 150.196 91.6733 150.716 91.58C151.249 91.4733 151.683 91.3467 152.016 91.2L152.416 93.62C152.256 93.7 152.043 93.78 151.776 93.86C151.509 93.94 151.209 94.0067 150.876 94.06C150.556 94.1267 150.209 94.18 149.836 94.22C149.463 94.26 149.089 94.28 148.716 94.28C147.769 94.28 146.943 94.14 146.236 93.86C145.543 93.58 144.963 93.2 144.496 92.72C144.043 92.2267 143.703 91.6467 143.476 90.98C143.263 90.3133 143.156 89.5933 143.156 88.82ZM150.156 87.68C150.143 87.4267 150.096 87.18 150.016 86.94C149.949 86.7 149.836 86.4867 149.676 86.3C149.529 86.1133 149.336 85.96 149.096 85.84C148.869 85.72 148.583 85.66 148.236 85.66C147.903 85.66 147.616 85.72 147.376 85.84C147.136 85.9467 146.936 86.0933 146.776 86.28C146.616 86.4667 146.489 86.6867 146.396 86.94C146.316 87.18 146.256 87.4267 146.216 87.68H150.156ZM155.236 80.86L158.216 80.38V83.48H161.796V85.96H158.216V89.66C158.216 90.2867 158.322 90.7867 158.536 91.16C158.762 91.5333 159.209 91.72 159.876 91.72C160.196 91.72 160.522 91.6933 160.856 91.64C161.202 91.5733 161.516 91.4867 161.796 91.38L162.216 93.7C161.856 93.8467 161.456 93.9733 161.016 94.08C160.576 94.1867 160.036 94.24 159.396 94.24C158.582 94.24 157.909 94.1333 157.376 93.92C156.842 93.6933 156.416 93.3867 156.096 93C155.776 92.6 155.549 92.12 155.416 91.56C155.296 91 155.236 90.38 155.236 89.7V80.86ZM173.758 83.48C173.158 85.5067 172.531 87.4067 171.878 89.18C171.224 90.9533 170.511 92.6733 169.738 94.34C169.458 94.94 169.178 95.4467 168.898 95.86C168.618 96.2867 168.311 96.6333 167.978 96.9C167.644 97.18 167.264 97.38 166.838 97.5C166.424 97.6333 165.938 97.7 165.378 97.7C164.911 97.7 164.478 97.6533 164.078 97.56C163.691 97.48 163.371 97.3867 163.118 97.28L163.638 94.9C163.944 95.0067 164.218 95.08 164.458 95.12C164.698 95.16 164.951 95.18 165.218 95.18C165.751 95.18 166.158 95.0333 166.438 94.74C166.731 94.46 166.978 94.0667 167.178 93.56C166.498 92.2267 165.818 90.7333 165.138 89.08C164.458 87.4133 163.818 85.5467 163.218 83.48H166.378C166.511 84 166.664 84.5667 166.838 85.18C167.024 85.78 167.218 86.3933 167.418 87.02C167.618 87.6333 167.818 88.2333 168.018 88.82C168.231 89.4067 168.431 89.94 168.618 90.42C168.791 89.94 168.971 89.4067 169.158 88.82C169.344 88.2333 169.524 87.6333 169.698 87.02C169.884 86.3933 170.058 85.78 170.218 85.18C170.391 84.5667 170.544 84 170.678 83.48H173.758Z" fill="#1E212C"/>
<path d="M27.4246 129C27.2433 128.52 27.0726 128.051 26.9126 127.592C26.7526 127.123 26.5873 126.648 26.4166 126.168H21.3926L20.3846 129H18.7686C19.1953 127.827 19.5953 126.744 19.9686 125.752C20.342 124.749 20.7046 123.8 21.0566 122.904C21.4193 122.008 21.7766 121.155 22.1286 120.344C22.4806 119.523 22.8486 118.712 23.2326 117.912H24.6566C25.0406 118.712 25.4086 119.523 25.7606 120.344C26.1126 121.155 26.4646 122.008 26.8166 122.904C27.1793 123.8 27.5473 124.749 27.9206 125.752C28.294 126.744 28.694 127.827 29.1206 129H27.4246ZM25.9686 124.888C25.6273 123.96 25.286 123.064 24.9446 122.2C24.614 121.325 24.2673 120.488 23.9046 119.688C23.5313 120.488 23.174 121.325 22.8326 122.2C22.502 123.064 22.1713 123.96 21.8406 124.888H25.9686ZM30.53 120.92C30.8713 120.835 31.3247 120.744 31.89 120.648C32.4553 120.552 33.106 120.504 33.842 120.504C34.5033 120.504 35.0527 120.6 35.49 120.792C35.9273 120.973 36.274 121.235 36.53 121.576C36.7967 121.907 36.9833 122.307 37.09 122.776C37.1967 123.245 37.25 123.763 37.25 124.328V129H35.762V124.648C35.762 124.136 35.7247 123.699 35.65 123.336C35.586 122.973 35.474 122.68 35.314 122.456C35.154 122.232 34.9407 122.072 34.674 121.976C34.4073 121.869 34.0767 121.816 33.682 121.816C33.522 121.816 33.3567 121.821 33.186 121.832C33.0153 121.843 32.85 121.859 32.69 121.88C32.5407 121.891 32.402 121.907 32.274 121.928C32.1567 121.949 32.0713 121.965 32.018 121.976V129H30.53V120.92ZM41.2055 129H39.7175V120.68H41.2055V129ZM40.4535 119.176C40.1868 119.176 39.9575 119.091 39.7655 118.92C39.5842 118.739 39.4935 118.499 39.4935 118.2C39.4935 117.901 39.5842 117.667 39.7655 117.496C39.9575 117.315 40.1868 117.224 40.4535 117.224C40.7202 117.224 40.9442 117.315 41.1255 117.496C41.3175 117.667 41.4135 117.901 41.4135 118.2C41.4135 118.499 41.3175 118.739 41.1255 118.92C40.9442 119.091 40.7202 119.176 40.4535 119.176ZM43.7644 120.92C44.1057 120.835 44.5537 120.744 45.1084 120.648C45.6737 120.552 46.3244 120.504 47.0604 120.504C47.5937 120.504 48.0417 120.579 48.4044 120.728C48.767 120.867 49.071 121.075 49.3164 121.352C49.391 121.299 49.5084 121.224 49.6684 121.128C49.8284 121.032 50.0257 120.941 50.2604 120.856C50.495 120.76 50.7564 120.68 51.0444 120.616C51.3324 120.541 51.6417 120.504 51.9724 120.504C52.6124 120.504 53.135 120.6 53.5404 120.792C53.9457 120.973 54.2604 121.235 54.4844 121.576C54.719 121.917 54.8737 122.323 54.9484 122.792C55.0337 123.261 55.0764 123.773 55.0764 124.328V129H53.5884V124.648C53.5884 124.157 53.5617 123.736 53.5084 123.384C53.4657 123.032 53.375 122.739 53.2364 122.504C53.1084 122.269 52.927 122.099 52.6924 121.992C52.4684 121.875 52.175 121.816 51.8124 121.816C51.311 121.816 50.895 121.885 50.5644 122.024C50.2444 122.152 50.0257 122.269 49.9084 122.376C49.9937 122.653 50.0577 122.957 50.1004 123.288C50.143 123.619 50.1644 123.965 50.1644 124.328V129H48.6764V124.648C48.6764 124.157 48.6497 123.736 48.5964 123.384C48.543 123.032 48.447 122.739 48.3084 122.504C48.1804 122.269 47.999 122.099 47.7644 121.992C47.5404 121.875 47.2524 121.816 46.9004 121.816C46.751 121.816 46.591 121.821 46.4204 121.832C46.2497 121.843 46.0844 121.859 45.9244 121.88C45.775 121.891 45.6364 121.907 45.5084 121.928C45.3804 121.949 45.295 121.965 45.2524 121.976V129H43.7644V120.92ZM64.3208 120.504C64.4488 120.504 64.5928 120.515 64.7528 120.536C64.9234 120.547 65.0888 120.568 65.2488 120.6C65.4088 120.621 65.5528 120.648 65.6808 120.68C65.8194 120.701 65.9208 120.723 65.9848 120.744L65.7288 122.04C65.6114 121.997 65.4141 121.949 65.1368 121.896C64.8701 121.832 64.5234 121.8 64.0968 121.8C63.8194 121.8 63.5421 121.832 63.2648 121.896C62.9981 121.949 62.8221 121.987 62.7368 122.008V129H61.2488V121.032C61.6008 120.904 62.0381 120.787 62.5608 120.68C63.0834 120.563 63.6701 120.504 64.3208 120.504ZM66.9566 124.856C66.9566 124.12 67.0633 123.48 67.2766 122.936C67.49 122.381 67.7726 121.923 68.1246 121.56C68.4766 121.197 68.882 120.925 69.3406 120.744C69.7993 120.563 70.2686 120.472 70.7486 120.472C71.8686 120.472 72.7273 120.824 73.3246 121.528C73.922 122.221 74.2206 123.283 74.2206 124.712C74.2206 124.776 74.2206 124.861 74.2206 124.968C74.2206 125.064 74.2153 125.155 74.2046 125.24H68.5086C68.5726 126.104 68.8233 126.76 69.2606 127.208C69.698 127.656 70.3806 127.88 71.3086 127.88C71.8313 127.88 72.2686 127.837 72.6206 127.752C72.9833 127.656 73.2553 127.565 73.4366 127.48L73.6446 128.728C73.4633 128.824 73.1433 128.925 72.6846 129.032C72.2366 129.139 71.7246 129.192 71.1486 129.192C70.4233 129.192 69.794 129.085 69.2606 128.872C68.738 128.648 68.306 128.344 67.9646 127.96C67.6233 127.576 67.3673 127.123 67.1966 126.6C67.0366 126.067 66.9566 125.485 66.9566 124.856ZM72.6686 124.04C72.6793 123.368 72.5086 122.819 72.1566 122.392C71.8153 121.955 71.3406 121.736 70.7326 121.736C70.3913 121.736 70.0873 121.805 69.8206 121.944C69.5646 122.072 69.346 122.243 69.1646 122.456C68.9833 122.669 68.8393 122.915 68.7326 123.192C68.6366 123.469 68.5726 123.752 68.5406 124.04H72.6686ZM82.1341 124.856C82.1341 123.885 81.8941 123.139 81.4141 122.616C80.9341 122.093 80.2941 121.832 79.4941 121.832C79.0461 121.832 78.6941 121.848 78.4381 121.88C78.1928 121.912 77.9955 121.949 77.8461 121.992V127.24C78.0275 127.389 78.2888 127.533 78.6301 127.672C78.9715 127.811 79.3448 127.88 79.7501 127.88C80.1768 127.88 80.5395 127.805 80.8381 127.656C81.1475 127.496 81.3981 127.283 81.5901 127.016C81.7821 126.739 81.9208 126.419 82.0061 126.056C82.0915 125.683 82.1341 125.283 82.1341 124.856ZM83.6861 124.856C83.6861 125.485 83.6008 126.067 83.4301 126.6C83.2701 127.133 83.0301 127.592 82.7101 127.976C82.3901 128.36 81.9955 128.659 81.5261 128.872C81.0675 129.085 80.5395 129.192 79.9421 129.192C79.4621 129.192 79.0355 129.128 78.6621 129C78.2995 128.872 78.0275 128.749 77.8461 128.632V131.96H76.3581V120.936C76.7101 120.851 77.1475 120.76 77.6701 120.664C78.2035 120.557 78.8168 120.504 79.5101 120.504C80.1501 120.504 80.7261 120.605 81.2381 120.808C81.7501 121.011 82.1875 121.299 82.5501 121.672C82.9128 122.045 83.1901 122.504 83.3821 123.048C83.5848 123.581 83.6861 124.184 83.6861 124.856ZM88.852 120.504C88.98 120.504 89.124 120.515 89.284 120.536C89.4547 120.547 89.62 120.568 89.78 120.6C89.94 120.621 90.084 120.648 90.212 120.68C90.3507 120.701 90.452 120.723 90.516 120.744L90.26 122.04C90.1427 121.997 89.9453 121.949 89.668 121.896C89.4013 121.832 89.0547 121.8 88.628 121.8C88.3507 121.8 88.0733 121.832 87.796 121.896C87.5293 121.949 87.3533 121.987 87.268 122.008V129H85.78V121.032C86.132 120.904 86.5693 120.787 87.092 120.68C87.6147 120.563 88.2013 120.504 88.852 120.504ZM91.4879 124.856C91.4879 124.12 91.5945 123.48 91.8079 122.936C92.0212 122.381 92.3039 121.923 92.6559 121.56C93.0079 121.197 93.4132 120.925 93.8719 120.744C94.3305 120.563 94.7999 120.472 95.2799 120.472C96.3999 120.472 97.2585 120.824 97.8559 121.528C98.4532 122.221 98.7519 123.283 98.7519 124.712C98.7519 124.776 98.7519 124.861 98.7519 124.968C98.7519 125.064 98.7465 125.155 98.7359 125.24H93.0399C93.1039 126.104 93.3545 126.76 93.7919 127.208C94.2292 127.656 94.9119 127.88 95.8399 127.88C96.3625 127.88 96.7999 127.837 97.1519 127.752C97.5145 127.656 97.7865 127.565 97.9679 127.48L98.1759 128.728C97.9945 128.824 97.6745 128.925 97.2159 129.032C96.7679 129.139 96.2559 129.192 95.6799 129.192C94.9545 129.192 94.3252 129.085 93.7919 128.872C93.2692 128.648 92.8372 128.344 92.4959 127.96C92.1545 127.576 91.8985 127.123 91.7279 126.6C91.5679 126.067 91.4879 125.485 91.4879 124.856ZM97.1999 124.04C97.2105 123.368 97.0399 122.819 96.6879 122.392C96.3465 121.955 95.8719 121.736 95.2639 121.736C94.9225 121.736 94.6185 121.805 94.3519 121.944C94.0959 122.072 93.8772 122.243 93.6959 122.456C93.5145 122.669 93.3705 122.915 93.2639 123.192C93.1679 123.469 93.1039 123.752 93.0719 124.04H97.1999ZM100.889 129V116.84L102.377 116.584V120.84C102.655 120.733 102.948 120.653 103.257 120.6C103.577 120.536 103.892 120.504 104.201 120.504C104.863 120.504 105.412 120.6 105.849 120.792C106.287 120.973 106.633 121.235 106.889 121.576C107.156 121.907 107.343 122.307 107.449 122.776C107.556 123.245 107.609 123.763 107.609 124.328V129H106.121V124.648C106.121 124.136 106.084 123.699 106.009 123.336C105.945 122.973 105.833 122.68 105.673 122.456C105.513 122.232 105.3 122.072 105.033 121.976C104.767 121.869 104.436 121.816 104.041 121.816C103.881 121.816 103.716 121.827 103.545 121.848C103.375 121.869 103.209 121.896 103.049 121.928C102.9 121.949 102.761 121.976 102.633 122.008C102.516 122.04 102.431 122.067 102.377 122.088V129H100.889ZM109.566 124.856C109.566 124.12 109.673 123.48 109.886 122.936C110.099 122.381 110.382 121.923 110.734 121.56C111.086 121.197 111.491 120.925 111.95 120.744C112.409 120.563 112.878 120.472 113.358 120.472C114.478 120.472 115.337 120.824 115.934 121.528C116.531 122.221 116.83 123.283 116.83 124.712C116.83 124.776 116.83 124.861 116.83 124.968C116.83 125.064 116.825 125.155 116.814 125.24H111.118C111.182 126.104 111.433 126.76 111.87 127.208C112.307 127.656 112.99 127.88 113.918 127.88C114.441 127.88 114.878 127.837 115.23 127.752C115.593 127.656 115.865 127.565 116.046 127.48L116.254 128.728C116.073 128.824 115.753 128.925 115.294 129.032C114.846 129.139 114.334 129.192 113.758 129.192C113.033 129.192 112.403 129.085 111.87 128.872C111.347 128.648 110.915 128.344 110.574 127.96C110.233 127.576 109.977 127.123 109.806 126.6C109.646 126.067 109.566 125.485 109.566 124.856ZM115.278 124.04C115.289 123.368 115.118 122.819 114.766 122.392C114.425 121.955 113.95 121.736 113.342 121.736C113.001 121.736 112.697 121.805 112.43 121.944C112.174 122.072 111.955 122.243 111.774 122.456C111.593 122.669 111.449 122.915 111.342 123.192C111.246 123.469 111.182 123.752 111.15 124.04H115.278ZM118.968 120.92C119.309 120.835 119.762 120.744 120.328 120.648C120.893 120.552 121.544 120.504 122.28 120.504C122.941 120.504 123.49 120.6 123.928 120.792C124.365 120.973 124.712 121.235 124.968 121.576C125.234 121.907 125.421 122.307 125.528 122.776C125.634 123.245 125.688 123.763 125.688 124.328V129H124.2V124.648C124.2 124.136 124.162 123.699 124.088 123.336C124.024 122.973 123.912 122.68 123.752 122.456C123.592 122.232 123.378 122.072 123.112 121.976C122.845 121.869 122.514 121.816 122.12 121.816C121.96 121.816 121.794 121.821 121.624 121.832C121.453 121.843 121.288 121.859 121.128 121.88C120.978 121.891 120.84 121.907 120.712 121.928C120.594 121.949 120.509 121.965 120.456 121.976V129H118.968V120.92ZM133.531 122.44C133.35 122.291 133.088 122.147 132.747 122.008C132.406 121.869 132.032 121.8 131.627 121.8C131.2 121.8 130.832 121.88 130.523 122.04C130.224 122.189 129.979 122.403 129.787 122.68C129.595 122.947 129.456 123.267 129.371 123.64C129.286 124.013 129.243 124.413 129.243 124.84C129.243 125.811 129.483 126.563 129.963 127.096C130.443 127.619 131.083 127.88 131.883 127.88C132.288 127.88 132.624 127.864 132.891 127.832C133.168 127.789 133.382 127.747 133.531 127.704V122.44ZM133.531 116.84L135.019 116.584V128.76C134.678 128.856 134.24 128.952 133.707 129.048C133.174 129.144 132.56 129.192 131.867 129.192C131.227 129.192 130.651 129.091 130.139 128.888C129.627 128.685 129.19 128.397 128.827 128.024C128.464 127.651 128.182 127.197 127.979 126.664C127.787 126.12 127.691 125.512 127.691 124.84C127.691 124.2 127.771 123.613 127.931 123.08C128.102 122.547 128.347 122.088 128.667 121.704C128.987 121.32 129.376 121.021 129.835 120.808C130.304 120.595 130.838 120.488 131.435 120.488C131.915 120.488 132.336 120.552 132.699 120.68C133.072 120.808 133.35 120.931 133.531 121.048V116.84ZM137.113 124.856C137.113 124.12 137.22 123.48 137.433 122.936C137.646 122.381 137.929 121.923 138.281 121.56C138.633 121.197 139.038 120.925 139.497 120.744C139.956 120.563 140.425 120.472 140.905 120.472C142.025 120.472 142.884 120.824 143.481 121.528C144.078 122.221 144.377 123.283 144.377 124.712C144.377 124.776 144.377 124.861 144.377 124.968C144.377 125.064 144.372 125.155 144.361 125.24H138.665C138.729 126.104 138.98 126.76 139.417 127.208C139.854 127.656 140.537 127.88 141.465 127.88C141.988 127.88 142.425 127.837 142.777 127.752C143.14 127.656 143.412 127.565 143.593 127.48L143.801 128.728C143.62 128.824 143.3 128.925 142.841 129.032C142.393 129.139 141.881 129.192 141.305 129.192C140.58 129.192 139.95 129.085 139.417 128.872C138.894 128.648 138.462 128.344 138.121 127.96C137.78 127.576 137.524 127.123 137.353 126.6C137.193 126.067 137.113 125.485 137.113 124.856ZM142.825 124.04C142.836 123.368 142.665 122.819 142.313 122.392C141.972 121.955 141.497 121.736 140.889 121.736C140.548 121.736 140.244 121.805 139.977 121.944C139.721 122.072 139.502 122.243 139.321 122.456C139.14 122.669 138.996 122.915 138.889 123.192C138.793 123.469 138.729 123.752 138.697 124.04H142.825ZM149.586 120.504C149.714 120.504 149.858 120.515 150.018 120.536C150.189 120.547 150.354 120.568 150.514 120.6C150.674 120.621 150.818 120.648 150.946 120.68C151.085 120.701 151.186 120.723 151.25 120.744L150.994 122.04C150.877 121.997 150.68 121.949 150.402 121.896C150.136 121.832 149.789 121.8 149.362 121.8C149.085 121.8 148.808 121.832 148.53 121.896C148.264 121.949 148.088 121.987 148.002 122.008V129H146.514V121.032C146.866 120.904 147.304 120.787 147.826 120.68C148.349 120.563 148.936 120.504 149.586 120.504ZM154.174 129H152.686V120.68H154.174V129ZM153.422 119.176C153.156 119.176 152.926 119.091 152.734 118.92C152.553 118.739 152.462 118.499 152.462 118.2C152.462 117.901 152.553 117.667 152.734 117.496C152.926 117.315 153.156 117.224 153.422 117.224C153.689 117.224 153.913 117.315 154.094 117.496C154.286 117.667 154.382 117.901 154.382 118.2C154.382 118.499 154.286 118.739 154.094 118.92C153.913 119.091 153.689 119.176 153.422 119.176ZM158.125 120.68H161.277V121.928H158.125V125.768C158.125 126.184 158.157 126.531 158.221 126.808C158.285 127.075 158.381 127.288 158.509 127.448C158.637 127.597 158.797 127.704 158.989 127.768C159.181 127.832 159.405 127.864 159.661 127.864C160.109 127.864 160.466 127.816 160.733 127.72C161.01 127.613 161.202 127.539 161.309 127.496L161.597 128.728C161.448 128.803 161.186 128.893 160.813 129C160.44 129.117 160.013 129.176 159.533 129.176C158.968 129.176 158.498 129.107 158.125 128.968C157.762 128.819 157.469 128.6 157.245 128.312C157.021 128.024 156.861 127.672 156.765 127.256C156.68 126.829 156.637 126.339 156.637 125.784V118.36L158.125 118.104V120.68ZM168.81 127.928C169.418 127.928 169.866 127.848 170.154 127.688C170.452 127.528 170.602 127.272 170.602 126.92C170.602 126.557 170.458 126.269 170.17 126.056C169.882 125.843 169.407 125.603 168.746 125.336C168.426 125.208 168.116 125.08 167.818 124.952C167.53 124.813 167.279 124.653 167.066 124.472C166.852 124.291 166.682 124.072 166.554 123.816C166.426 123.56 166.362 123.245 166.362 122.872C166.362 122.136 166.634 121.555 167.178 121.128C167.722 120.691 168.463 120.472 169.402 120.472C169.636 120.472 169.871 120.488 170.106 120.52C170.34 120.541 170.559 120.573 170.762 120.616C170.964 120.648 171.14 120.685 171.29 120.728C171.45 120.771 171.572 120.808 171.658 120.84L171.386 122.12C171.226 122.035 170.975 121.949 170.634 121.864C170.292 121.768 169.882 121.72 169.402 121.72C168.986 121.72 168.623 121.805 168.314 121.976C168.004 122.136 167.85 122.392 167.85 122.744C167.85 122.925 167.882 123.085 167.946 123.224C168.02 123.363 168.127 123.491 168.266 123.608C168.415 123.715 168.596 123.816 168.81 123.912C169.023 124.008 169.279 124.109 169.578 124.216C169.972 124.365 170.324 124.515 170.634 124.664C170.943 124.803 171.204 124.968 171.418 125.16C171.642 125.352 171.812 125.587 171.93 125.864C172.047 126.131 172.106 126.461 172.106 126.856C172.106 127.624 171.818 128.205 171.242 128.6C170.676 128.995 169.866 129.192 168.81 129.192C168.074 129.192 167.498 129.128 167.082 129C166.666 128.883 166.383 128.792 166.234 128.728L166.506 127.448C166.676 127.512 166.948 127.608 167.322 127.736C167.695 127.864 168.191 127.928 168.81 127.928ZM175.502 129H174.014V120.68H175.502V129ZM174.75 119.176C174.484 119.176 174.254 119.091 174.062 118.92C173.881 118.739 173.79 118.499 173.79 118.2C173.79 117.901 173.881 117.667 174.062 117.496C174.254 117.315 174.484 117.224 174.75 117.224C175.017 117.224 175.241 117.315 175.422 117.496C175.614 117.667 175.71 117.901 175.71 118.2C175.71 118.499 175.614 118.739 175.422 118.92C175.241 119.091 175.017 119.176 174.75 119.176ZM178.061 120.92C178.403 120.835 178.856 120.744 179.421 120.648C179.987 120.552 180.637 120.504 181.373 120.504C182.035 120.504 182.584 120.6 183.021 120.792C183.459 120.973 183.805 121.235 184.061 121.576C184.328 121.907 184.515 122.307 184.621 122.776C184.728 123.245 184.781 123.763 184.781 124.328V129H183.293V124.648C183.293 124.136 183.256 123.699 183.181 123.336C183.117 122.973 183.005 122.68 182.845 122.456C182.685 122.232 182.472 122.072 182.205 121.976C181.939 121.869 181.608 121.816 181.213 121.816C181.053 121.816 180.888 121.821 180.717 121.832C180.547 121.843 180.381 121.859 180.221 121.88C180.072 121.891 179.933 121.907 179.805 121.928C179.688 121.949 179.603 121.965 179.549 121.976V129H178.061V120.92ZM188.641 120.68H191.793V121.928H188.641V125.768C188.641 126.184 188.673 126.531 188.737 126.808C188.801 127.075 188.897 127.288 189.025 127.448C189.153 127.597 189.313 127.704 189.505 127.768C189.697 127.832 189.921 127.864 190.177 127.864C190.625 127.864 190.982 127.816 191.249 127.72C191.526 127.613 191.718 127.539 191.825 127.496L192.113 128.728C191.963 128.803 191.702 128.893 191.329 129C190.955 129.117 190.529 129.176 190.049 129.176C189.483 129.176 189.014 129.107 188.641 128.968C188.278 128.819 187.985 128.6 187.761 128.312C187.537 128.024 187.377 127.672 187.281 127.256C187.195 126.829 187.153 126.339 187.153 125.784V118.36L188.641 118.104V120.68ZM203.885 120.68C203.469 122.237 202.979 123.731 202.413 125.16C201.859 126.589 201.32 127.869 200.797 129H199.453C198.931 127.869 198.387 126.589 197.821 125.16C197.267 123.731 196.781 122.237 196.365 120.68H197.965C198.093 121.203 198.243 121.763 198.413 122.36C198.595 122.947 198.781 123.533 198.973 124.12C199.176 124.696 199.379 125.256 199.581 125.8C199.784 126.344 199.976 126.829 200.157 127.256C200.339 126.829 200.531 126.344 200.733 125.8C200.936 125.256 201.133 124.696 201.325 124.12C201.528 123.533 201.715 122.947 201.885 122.36C202.067 121.763 202.221 121.203 202.349 120.68H203.885ZM212.546 124.84C212.546 125.501 212.45 126.099 212.258 126.632C212.066 127.165 211.794 127.624 211.442 128.008C211.101 128.392 210.69 128.691 210.21 128.904C209.73 129.107 209.207 129.208 208.642 129.208C208.077 129.208 207.554 129.107 207.074 128.904C206.594 128.691 206.178 128.392 205.826 128.008C205.485 127.624 205.218 127.165 205.026 126.632C204.834 126.099 204.738 125.501 204.738 124.84C204.738 124.189 204.834 123.597 205.026 123.064C205.218 122.52 205.485 122.056 205.826 121.672C206.178 121.288 206.594 120.995 207.074 120.792C207.554 120.579 208.077 120.472 208.642 120.472C209.207 120.472 209.73 120.579 210.21 120.792C210.69 120.995 211.101 121.288 211.442 121.672C211.794 122.056 212.066 122.52 212.258 123.064C212.45 123.597 212.546 124.189 212.546 124.84ZM210.994 124.84C210.994 123.901 210.781 123.16 210.354 122.616C209.938 122.061 209.367 121.784 208.642 121.784C207.917 121.784 207.341 122.061 206.914 122.616C206.498 123.16 206.29 123.901 206.29 124.84C206.29 125.779 206.498 126.525 206.914 127.08C207.341 127.624 207.917 127.896 208.642 127.896C209.367 127.896 209.938 127.624 210.354 127.08C210.781 126.525 210.994 125.779 210.994 124.84ZM217.135 129.16C216.218 129.139 215.567 128.941 215.183 128.568C214.799 128.195 214.607 127.613 214.607 126.824V116.84L216.095 116.584V126.584C216.095 126.829 216.117 127.032 216.159 127.192C216.202 127.352 216.271 127.48 216.367 127.576C216.463 127.672 216.591 127.747 216.751 127.8C216.911 127.843 217.109 127.88 217.343 127.912L217.135 129.16ZM225.638 128.76C225.297 128.845 224.844 128.936 224.278 129.032C223.724 129.128 223.078 129.176 222.342 129.176C221.702 129.176 221.164 129.085 220.726 128.904C220.289 128.712 219.937 128.445 219.67 128.104C219.404 127.763 219.212 127.363 219.094 126.904C218.977 126.435 218.918 125.917 218.918 125.352V120.68H220.406V125.032C220.406 126.045 220.566 126.771 220.886 127.208C221.206 127.645 221.745 127.864 222.502 127.864C222.662 127.864 222.828 127.859 222.998 127.848C223.169 127.837 223.329 127.827 223.478 127.816C223.628 127.795 223.761 127.779 223.878 127.768C224.006 127.747 224.097 127.725 224.15 127.704V120.68H225.638V128.76ZM233.978 124.856C233.978 123.885 233.738 123.139 233.258 122.616C232.778 122.093 232.138 121.832 231.338 121.832C230.89 121.832 230.538 121.848 230.282 121.88C230.037 121.912 229.839 121.949 229.69 121.992V127.24C229.871 127.389 230.133 127.533 230.474 127.672C230.815 127.811 231.189 127.88 231.594 127.88C232.021 127.88 232.383 127.805 232.682 127.656C232.991 127.496 233.242 127.283 233.434 127.016C233.626 126.739 233.765 126.419 233.85 126.056C233.935 125.683 233.978 125.283 233.978 124.856ZM235.53 124.856C235.53 125.485 235.445 126.067 235.274 126.6C235.114 127.133 234.874 127.592 234.554 127.976C234.234 128.36 233.839 128.659 233.37 128.872C232.911 129.085 232.383 129.192 231.786 129.192C231.306 129.192 230.879 129.128 230.506 129C230.143 128.872 229.871 128.749 229.69 128.632V131.96H228.202V120.936C228.554 120.851 228.991 120.76 229.514 120.664C230.047 120.557 230.661 120.504 231.354 120.504C231.994 120.504 232.57 120.605 233.082 120.808C233.594 121.011 234.031 121.299 234.394 121.672C234.757 122.045 235.034 122.504 235.226 123.048C235.429 123.581 235.53 124.184 235.53 124.856ZM239.016 120.68H242.168V121.928H239.016V125.768C239.016 126.184 239.048 126.531 239.112 126.808C239.176 127.075 239.272 127.288 239.4 127.448C239.528 127.597 239.688 127.704 239.88 127.768C240.072 127.832 240.296 127.864 240.552 127.864C241 127.864 241.357 127.816 241.624 127.72C241.901 127.613 242.093 127.539 242.2 127.496L242.488 128.728C242.338 128.803 242.077 128.893 241.704 129C241.33 129.117 240.904 129.176 240.424 129.176C239.858 129.176 239.389 129.107 239.016 128.968C238.653 128.819 238.36 128.6 238.136 128.312C237.912 128.024 237.752 127.672 237.656 127.256C237.57 126.829 237.528 126.339 237.528 125.784V118.36L239.016 118.104V120.68ZM246.877 127.928C247.229 127.928 247.539 127.923 247.805 127.912C248.083 127.891 248.312 127.859 248.493 127.816V125.336C248.387 125.283 248.211 125.24 247.965 125.208C247.731 125.165 247.443 125.144 247.101 125.144C246.877 125.144 246.637 125.16 246.381 125.192C246.136 125.224 245.907 125.293 245.693 125.4C245.491 125.496 245.32 125.635 245.181 125.816C245.043 125.987 244.973 126.216 244.973 126.504C244.973 127.037 245.144 127.411 245.485 127.624C245.827 127.827 246.291 127.928 246.877 127.928ZM246.749 120.472C247.347 120.472 247.848 120.552 248.253 120.712C248.669 120.861 249 121.08 249.245 121.368C249.501 121.645 249.683 121.981 249.789 122.376C249.896 122.76 249.949 123.187 249.949 123.656V128.856C249.821 128.877 249.64 128.909 249.405 128.952C249.181 128.984 248.925 129.016 248.637 129.048C248.349 129.08 248.035 129.107 247.693 129.128C247.363 129.16 247.032 129.176 246.701 129.176C246.232 129.176 245.8 129.128 245.405 129.032C245.011 128.936 244.669 128.787 244.381 128.584C244.093 128.371 243.869 128.093 243.709 127.752C243.549 127.411 243.469 127 243.469 126.52C243.469 126.061 243.56 125.667 243.741 125.336C243.933 125.005 244.189 124.739 244.509 124.536C244.829 124.333 245.203 124.184 245.629 124.088C246.056 123.992 246.504 123.944 246.973 123.944C247.123 123.944 247.277 123.955 247.437 123.976C247.597 123.987 247.747 124.008 247.885 124.04C248.035 124.061 248.163 124.083 248.269 124.104C248.376 124.125 248.451 124.141 248.493 124.152V123.736C248.493 123.491 248.467 123.251 248.413 123.016C248.36 122.771 248.264 122.557 248.125 122.376C247.987 122.184 247.795 122.035 247.549 121.928C247.315 121.811 247.005 121.752 246.621 121.752C246.131 121.752 245.699 121.789 245.325 121.864C244.963 121.928 244.691 121.997 244.509 122.072L244.333 120.84C244.525 120.755 244.845 120.675 245.293 120.6C245.741 120.515 246.227 120.472 246.749 120.472ZM253.813 120.68H256.965V121.928H253.813V125.768C253.813 126.184 253.845 126.531 253.909 126.808C253.973 127.075 254.069 127.288 254.197 127.448C254.325 127.597 254.485 127.704 254.677 127.768C254.869 127.832 255.093 127.864 255.349 127.864C255.797 127.864 256.154 127.816 256.421 127.72C256.698 127.613 256.89 127.539 256.997 127.496L257.285 128.728C257.135 128.803 256.874 128.893 256.501 129C256.127 129.117 255.701 129.176 255.221 129.176C254.655 129.176 254.186 129.107 253.813 128.968C253.45 128.819 253.157 128.6 252.933 128.312C252.709 128.024 252.549 127.672 252.453 127.256C252.367 126.829 252.325 126.339 252.325 125.784V118.36L253.813 118.104V120.68ZM258.238 124.856C258.238 124.12 258.345 123.48 258.558 122.936C258.771 122.381 259.054 121.923 259.406 121.56C259.758 121.197 260.163 120.925 260.622 120.744C261.081 120.563 261.55 120.472 262.03 120.472C263.15 120.472 264.009 120.824 264.606 121.528C265.203 122.221 265.502 123.283 265.502 124.712C265.502 124.776 265.502 124.861 265.502 124.968C265.502 125.064 265.497 125.155 265.486 125.24H259.79C259.854 126.104 260.105 126.76 260.542 127.208C260.979 127.656 261.662 127.88 262.59 127.88C263.113 127.88 263.55 127.837 263.902 127.752C264.265 127.656 264.537 127.565 264.718 127.48L264.926 128.728C264.745 128.824 264.425 128.925 263.966 129.032C263.518 129.139 263.006 129.192 262.43 129.192C261.705 129.192 261.075 129.085 260.542 128.872C260.019 128.648 259.587 128.344 259.246 127.96C258.905 127.576 258.649 127.123 258.478 126.6C258.318 126.067 258.238 125.485 258.238 124.856ZM263.95 124.04C263.961 123.368 263.79 122.819 263.438 122.392C263.097 121.955 262.622 121.736 262.014 121.736C261.673 121.736 261.369 121.805 261.102 121.944C260.846 122.072 260.627 122.243 260.446 122.456C260.265 122.669 260.121 122.915 260.014 123.192C259.918 123.469 259.854 123.752 259.822 124.04H263.95ZM27.4098 150.856C27.4098 150.12 27.5164 149.48 27.7298 148.936C27.9431 148.381 28.2258 147.923 28.5778 147.56C28.9298 147.197 29.3351 146.925 29.7938 146.744C30.2524 146.563 30.7218 146.472 31.2018 146.472C32.3218 146.472 33.1804 146.824 33.7778 147.528C34.3751 148.221 34.6737 149.283 34.6737 150.712C34.6737 150.776 34.6737 150.861 34.6737 150.968C34.6737 151.064 34.6684 151.155 34.6578 151.24H28.9618C29.0258 152.104 29.2764 152.76 29.7138 153.208C30.1511 153.656 30.8338 153.88 31.7618 153.88C32.2844 153.88 32.7218 153.837 33.0738 153.752C33.4364 153.656 33.7084 153.565 33.8898 153.48L34.0978 154.728C33.9164 154.824 33.5964 154.925 33.1378 155.032C32.6898 155.139 32.1778 155.192 31.6018 155.192C30.8764 155.192 30.2471 155.085 29.7138 154.872C29.1911 154.648 28.7591 154.344 28.4178 153.96C28.0764 153.576 27.8204 153.123 27.6497 152.6C27.4898 152.067 27.4098 151.485 27.4098 150.856ZM33.1218 150.04C33.1324 149.368 32.9618 148.819 32.6098 148.392C32.2684 147.955 31.7938 147.736 31.1858 147.736C30.8444 147.736 30.5404 147.805 30.2738 147.944C30.0178 148.072 29.7991 148.243 29.6178 148.456C29.4364 148.669 29.2924 148.915 29.1858 149.192C29.0898 149.469 29.0258 149.752 28.9938 150.04H33.1218ZM41.7873 155C41.6699 154.765 41.5259 154.504 41.3553 154.216C41.1846 153.928 40.9979 153.635 40.7953 153.336C40.5926 153.027 40.3846 152.723 40.1713 152.424C39.9579 152.125 39.7499 151.843 39.5473 151.576C39.3446 151.843 39.1366 152.131 38.9233 152.44C38.7099 152.739 38.5019 153.043 38.2993 153.352C38.1073 153.651 37.9259 153.944 37.7553 154.232C37.5846 154.52 37.4406 154.776 37.3233 155H35.7873C36.1606 154.275 36.6033 153.539 37.1153 152.792C37.6379 152.035 38.1553 151.315 38.6673 150.632L35.9153 146.68H37.5953L39.5793 149.592L41.5793 146.68H43.1633L40.4753 150.536C40.9873 151.229 41.5099 151.965 42.0433 152.744C42.5873 153.512 43.0459 154.264 43.4193 155H41.7873ZM44.1754 150.856C44.1754 150.12 44.282 149.48 44.4954 148.936C44.7087 148.381 44.9914 147.923 45.3434 147.56C45.6954 147.197 46.1007 146.925 46.5594 146.744C47.018 146.563 47.4874 146.472 47.9674 146.472C49.0874 146.472 49.946 146.824 50.5434 147.528C51.1407 148.221 51.4394 149.283 51.4394 150.712C51.4394 150.776 51.4394 150.861 51.4394 150.968C51.4394 151.064 51.434 151.155 51.4234 151.24H45.7274C45.7914 152.104 46.042 152.76 46.4794 153.208C46.9167 153.656 47.5994 153.88 48.5274 153.88C49.05 153.88 49.4874 153.837 49.8394 153.752C50.202 153.656 50.474 153.565 50.6554 153.48L50.8634 154.728C50.682 154.824 50.362 154.925 49.9034 155.032C49.4554 155.139 48.9434 155.192 48.3674 155.192C47.642 155.192 47.0127 155.085 46.4794 154.872C45.9567 154.648 45.5247 154.344 45.1834 153.96C44.842 153.576 44.586 153.123 44.4154 152.6C44.2554 152.067 44.1754 151.485 44.1754 150.856ZM49.8874 150.04C49.898 149.368 49.7274 148.819 49.3754 148.392C49.034 147.955 48.5594 147.736 47.9514 147.736C47.61 147.736 47.306 147.805 47.0394 147.944C46.7834 148.072 46.5647 148.243 46.3834 148.456C46.202 148.669 46.058 148.915 45.9514 149.192C45.8554 149.469 45.7914 149.752 45.7594 150.04H49.8874ZM56.6489 146.504C56.7769 146.504 56.9209 146.515 57.0809 146.536C57.2515 146.547 57.4169 146.568 57.5769 146.6C57.7369 146.621 57.8809 146.648 58.0089 146.68C58.1475 146.701 58.2489 146.723 58.3129 146.744L58.0569 148.04C57.9395 147.997 57.7422 147.949 57.4649 147.896C57.1982 147.832 56.8515 147.8 56.4249 147.8C56.1475 147.8 55.8702 147.832 55.5929 147.896C55.3262 147.949 55.1502 147.987 55.0649 148.008V155H53.5769V147.032C53.9289 146.904 54.3662 146.787 54.8889 146.68C55.4115 146.563 55.9982 146.504 56.6489 146.504ZM63.3648 155.192C62.6928 155.192 62.1008 155.085 61.5888 154.872C61.0874 154.659 60.6608 154.36 60.3088 153.976C59.9674 153.592 59.7114 153.139 59.5408 152.616C59.3701 152.083 59.2848 151.496 59.2848 150.856C59.2848 150.216 59.3754 149.629 59.5568 149.096C59.7488 148.563 60.0154 148.104 60.3568 147.72C60.6981 147.325 61.1141 147.021 61.6048 146.808C62.1061 146.584 62.6608 146.472 63.2688 146.472C63.6421 146.472 64.0154 146.504 64.3888 146.568C64.7621 146.632 65.1194 146.733 65.4608 146.872L65.1248 148.136C64.9008 148.029 64.6394 147.944 64.3408 147.88C64.0528 147.816 63.7434 147.784 63.4128 147.784C62.5808 147.784 61.9408 148.045 61.4928 148.568C61.0554 149.091 60.8368 149.853 60.8368 150.856C60.8368 151.304 60.8848 151.715 60.9808 152.088C61.0874 152.461 61.2474 152.781 61.4608 153.048C61.6848 153.315 61.9674 153.523 62.3088 153.672C62.6501 153.811 63.0661 153.88 63.5568 153.88C63.9514 153.88 64.3088 153.843 64.6288 153.768C64.9488 153.693 65.1994 153.613 65.3808 153.528L65.5888 154.776C65.5034 154.829 65.3808 154.883 65.2208 154.936C65.0608 154.979 64.8794 155.016 64.6768 155.048C64.4741 155.091 64.2554 155.123 64.0208 155.144C63.7968 155.176 63.5781 155.192 63.3648 155.192ZM68.6743 155H67.1863V146.68H68.6743V155ZM67.9223 145.176C67.6556 145.176 67.4263 145.091 67.2343 144.92C67.0529 144.739 66.9622 144.499 66.9622 144.2C66.9622 143.901 67.0529 143.667 67.2343 143.496C67.4263 143.315 67.6556 143.224 67.9223 143.224C68.1889 143.224 68.4129 143.315 68.5943 143.496C68.7863 143.667 68.8823 143.901 68.8823 144.2C68.8823 144.499 68.7863 144.739 68.5943 144.92C68.4129 145.091 68.1889 145.176 67.9223 145.176ZM72.6251 146.68H75.7771V147.928H72.6251V151.768C72.6251 152.184 72.6571 152.531 72.7211 152.808C72.7851 153.075 72.8811 153.288 73.0091 153.448C73.1371 153.597 73.2971 153.704 73.4891 153.768C73.6811 153.832 73.9051 153.864 74.1611 153.864C74.6091 153.864 74.9665 153.816 75.2331 153.72C75.5105 153.613 75.7025 153.539 75.8091 153.496L76.0971 154.728C75.9478 154.803 75.6865 154.893 75.3131 155C74.9398 155.117 74.5131 155.176 74.0331 155.176C73.4678 155.176 72.9985 155.107 72.6251 154.968C72.2625 154.819 71.9691 154.6 71.7451 154.312C71.5211 154.024 71.3611 153.672 71.2651 153.256C71.1798 152.829 71.1371 152.339 71.1371 151.784V144.36L72.6251 144.104V146.68ZM80.4866 153.928C80.8386 153.928 81.148 153.923 81.4146 153.912C81.692 153.891 81.9213 153.859 82.1026 153.816V151.336C81.996 151.283 81.82 151.24 81.5746 151.208C81.34 151.165 81.052 151.144 80.7106 151.144C80.4866 151.144 80.2466 151.16 79.9906 151.192C79.7453 151.224 79.516 151.293 79.3026 151.4C79.1 151.496 78.9293 151.635 78.7906 151.816C78.652 151.987 78.5826 152.216 78.5826 152.504C78.5826 153.037 78.7533 153.411 79.0946 153.624C79.436 153.827 79.9 153.928 80.4866 153.928ZM80.3586 146.472C80.956 146.472 81.4573 146.552 81.8626 146.712C82.2786 146.861 82.6093 147.08 82.8546 147.368C83.1106 147.645 83.292 147.981 83.3986 148.376C83.5053 148.76 83.5586 149.187 83.5586 149.656V154.856C83.4306 154.877 83.2493 154.909 83.0146 154.952C82.7906 154.984 82.5346 155.016 82.2466 155.048C81.9586 155.08 81.644 155.107 81.3026 155.128C80.972 155.16 80.6413 155.176 80.3106 155.176C79.8413 155.176 79.4093 155.128 79.0146 155.032C78.62 154.936 78.2786 154.787 77.9906 154.584C77.7026 154.371 77.4786 154.093 77.3186 153.752C77.1586 153.411 77.0786 153 77.0786 152.52C77.0786 152.061 77.1693 151.667 77.3506 151.336C77.5426 151.005 77.7986 150.739 78.1186 150.536C78.4386 150.333 78.812 150.184 79.2386 150.088C79.6653 149.992 80.1133 149.944 80.5826 149.944C80.732 149.944 80.8866 149.955 81.0466 149.976C81.2066 149.987 81.356 150.008 81.4946 150.04C81.644 150.061 81.772 150.083 81.8786 150.104C81.9853 150.125 82.06 150.141 82.1026 150.152V149.736C82.1026 149.491 82.076 149.251 82.0226 149.016C81.9693 148.771 81.8733 148.557 81.7346 148.376C81.596 148.184 81.404 148.035 81.1586 147.928C80.924 147.811 80.6146 147.752 80.2306 147.752C79.74 147.752 79.308 147.789 78.9346 147.864C78.572 147.928 78.3 147.997 78.1186 148.072L77.9426 146.84C78.1346 146.755 78.4546 146.675 78.9026 146.6C79.3506 146.515 79.836 146.472 80.3586 146.472ZM87.422 146.68H90.574V147.928H87.422V151.768C87.422 152.184 87.454 152.531 87.518 152.808C87.582 153.075 87.678 153.288 87.806 153.448C87.934 153.597 88.094 153.704 88.286 153.768C88.478 153.832 88.702 153.864 88.958 153.864C89.406 153.864 89.7633 153.816 90.03 153.72C90.3073 153.613 90.4993 153.539 90.606 153.496L90.894 154.728C90.7447 154.803 90.4833 154.893 90.11 155C89.7367 155.117 89.31 155.176 88.83 155.176C88.2647 155.176 87.7953 155.107 87.422 154.968C87.0593 154.819 86.766 154.6 86.542 154.312C86.318 154.024 86.158 153.672 86.062 153.256C85.9767 152.829 85.934 152.339 85.934 151.784V144.36L87.422 144.104V146.68ZM93.9555 155H92.4675V146.68H93.9555V155ZM93.2035 145.176C92.9368 145.176 92.7075 145.091 92.5155 144.92C92.3342 144.739 92.2435 144.499 92.2435 144.2C92.2435 143.901 92.3342 143.667 92.5155 143.496C92.7075 143.315 92.9368 143.224 93.2035 143.224C93.4702 143.224 93.6942 143.315 93.8755 143.496C94.0675 143.667 94.1635 143.901 94.1635 144.2C94.1635 144.499 94.0675 144.739 93.8755 144.92C93.6942 145.091 93.4702 145.176 93.2035 145.176ZM103.858 150.84C103.858 151.501 103.762 152.099 103.57 152.632C103.378 153.165 103.106 153.624 102.754 154.008C102.413 154.392 102.002 154.691 101.522 154.904C101.042 155.107 100.52 155.208 99.9544 155.208C99.389 155.208 98.8664 155.107 98.3864 154.904C97.9064 154.691 97.4904 154.392 97.1384 154.008C96.797 153.624 96.5304 153.165 96.3384 152.632C96.1464 152.099 96.0504 151.501 96.0504 150.84C96.0504 150.189 96.1464 149.597 96.3384 149.064C96.5304 148.52 96.797 148.056 97.1384 147.672C97.4904 147.288 97.9064 146.995 98.3864 146.792C98.8664 146.579 99.389 146.472 99.9544 146.472C100.52 146.472 101.042 146.579 101.522 146.792C102.002 146.995 102.413 147.288 102.754 147.672C103.106 148.056 103.378 148.52 103.57 149.064C103.762 149.597 103.858 150.189 103.858 150.84ZM102.306 150.84C102.306 149.901 102.093 149.16 101.666 148.616C101.25 148.061 100.68 147.784 99.9544 147.784C99.229 147.784 98.653 148.061 98.2264 148.616C97.8104 149.16 97.6024 149.901 97.6024 150.84C97.6024 151.779 97.8104 152.525 98.2264 153.08C98.653 153.624 99.229 153.896 99.9544 153.896C100.68 153.896 101.25 153.624 101.666 153.08C102.093 152.525 102.306 151.779 102.306 150.84ZM105.952 146.92C106.293 146.835 106.747 146.744 107.312 146.648C107.877 146.552 108.528 146.504 109.264 146.504C109.925 146.504 110.475 146.6 110.912 146.792C111.349 146.973 111.696 147.235 111.952 147.576C112.219 147.907 112.405 148.307 112.512 148.776C112.619 149.245 112.672 149.763 112.672 150.328V155H111.184V150.648C111.184 150.136 111.147 149.699 111.072 149.336C111.008 148.973 110.896 148.68 110.736 148.456C110.576 148.232 110.363 148.072 110.096 147.976C109.829 147.869 109.499 147.816 109.104 147.816C108.944 147.816 108.779 147.821 108.608 147.832C108.437 147.843 108.272 147.859 108.112 147.88C107.963 147.891 107.824 147.907 107.696 147.928C107.579 147.949 107.493 147.965 107.44 147.976V155H105.952V146.92ZM121.659 153.928C122.011 153.928 122.32 153.923 122.587 153.912C122.864 153.891 123.093 153.859 123.275 153.816V151.336C123.168 151.283 122.992 151.24 122.747 151.208C122.512 151.165 122.224 151.144 121.883 151.144C121.659 151.144 121.419 151.16 121.163 151.192C120.917 151.224 120.688 151.293 120.475 151.4C120.272 151.496 120.101 151.635 119.963 151.816C119.824 151.987 119.755 152.216 119.755 152.504C119.755 153.037 119.925 153.411 120.267 153.624C120.608 153.827 121.072 153.928 121.659 153.928ZM121.531 146.472C122.128 146.472 122.629 146.552 123.035 146.712C123.451 146.861 123.781 147.08 124.027 147.368C124.283 147.645 124.464 147.981 124.571 148.376C124.677 148.76 124.731 149.187 124.731 149.656V154.856C124.603 154.877 124.421 154.909 124.187 154.952C123.963 154.984 123.707 155.016 123.419 155.048C123.131 155.08 122.816 155.107 122.475 155.128C122.144 155.16 121.813 155.176 121.483 155.176C121.013 155.176 120.581 155.128 120.187 155.032C119.792 154.936 119.451 154.787 119.163 154.584C118.875 154.371 118.651 154.093 118.491 153.752C118.331 153.411 118.251 153 118.251 152.52C118.251 152.061 118.341 151.667 118.523 151.336C118.715 151.005 118.971 150.739 119.291 150.536C119.611 150.333 119.984 150.184 120.411 150.088C120.837 149.992 121.285 149.944 121.755 149.944C121.904 149.944 122.059 149.955 122.219 149.976C122.379 149.987 122.528 150.008 122.667 150.04C122.816 150.061 122.944 150.083 123.051 150.104C123.157 150.125 123.232 150.141 123.275 150.152V149.736C123.275 149.491 123.248 149.251 123.195 149.016C123.141 148.771 123.045 148.557 122.907 148.376C122.768 148.184 122.576 148.035 122.331 147.928C122.096 147.811 121.787 147.752 121.403 147.752C120.912 147.752 120.48 147.789 120.107 147.864C119.744 147.928 119.472 147.997 119.291 148.072L119.115 146.84C119.307 146.755 119.627 146.675 120.075 146.6C120.523 146.515 121.008 146.472 121.531 146.472ZM132.578 148.44C132.397 148.291 132.135 148.147 131.794 148.008C131.453 147.869 131.079 147.8 130.674 147.8C130.247 147.8 129.879 147.88 129.57 148.04C129.271 148.189 129.026 148.403 128.834 148.68C128.642 148.947 128.503 149.267 128.418 149.64C128.333 150.013 128.29 150.413 128.29 150.84C128.29 151.811 128.53 152.563 129.01 153.096C129.49 153.619 130.13 153.88 130.93 153.88C131.335 153.88 131.671 153.864 131.938 153.832C132.215 153.789 132.429 153.747 132.578 153.704V148.44ZM132.578 142.84L134.066 142.584V154.76C133.725 154.856 133.287 154.952 132.754 155.048C132.221 155.144 131.607 155.192 130.914 155.192C130.274 155.192 129.698 155.091 129.186 154.888C128.674 154.685 128.237 154.397 127.874 154.024C127.511 153.651 127.229 153.197 127.026 152.664C126.834 152.12 126.738 151.512 126.738 150.84C126.738 150.2 126.818 149.613 126.978 149.08C127.149 148.547 127.394 148.088 127.714 147.704C128.034 147.32 128.423 147.021 128.882 146.808C129.351 146.595 129.885 146.488 130.482 146.488C130.962 146.488 131.383 146.552 131.746 146.68C132.119 146.808 132.397 146.931 132.578 147.048V142.84ZM138.112 155H136.624V146.68H138.112V155ZM137.36 145.176C137.093 145.176 136.864 145.091 136.672 144.92C136.49 144.739 136.4 144.499 136.4 144.2C136.4 143.901 136.49 143.667 136.672 143.496C136.864 143.315 137.093 143.224 137.36 143.224C137.626 143.224 137.85 143.315 138.032 143.496C138.224 143.667 138.32 143.901 138.32 144.2C138.32 144.499 138.224 144.739 138.032 144.92C137.85 145.091 137.626 145.176 137.36 145.176ZM146.447 150.856C146.447 149.885 146.207 149.139 145.727 148.616C145.247 148.093 144.607 147.832 143.807 147.832C143.359 147.832 143.007 147.848 142.751 147.88C142.505 147.912 142.308 147.949 142.159 147.992V153.24C142.34 153.389 142.601 153.533 142.943 153.672C143.284 153.811 143.657 153.88 144.063 153.88C144.489 153.88 144.852 153.805 145.151 153.656C145.46 153.496 145.711 153.283 145.903 153.016C146.095 152.739 146.233 152.419 146.319 152.056C146.404 151.683 146.447 151.283 146.447 150.856ZM147.999 150.856C147.999 151.485 147.913 152.067 147.743 152.6C147.583 153.133 147.343 153.592 147.023 153.976C146.703 154.36 146.308 154.659 145.839 154.872C145.38 155.085 144.852 155.192 144.255 155.192C143.775 155.192 143.348 155.128 142.975 155C142.612 154.872 142.34 154.749 142.159 154.632V157.96H140.671V146.936C141.023 146.851 141.46 146.76 141.983 146.664C142.516 146.557 143.129 146.504 143.823 146.504C144.463 146.504 145.039 146.605 145.551 146.808C146.063 147.011 146.5 147.299 146.863 147.672C147.225 148.045 147.503 148.504 147.695 149.048C147.897 149.581 147.999 150.184 147.999 150.856ZM151.581 155H150.093V146.68H151.581V155ZM150.829 145.176C150.562 145.176 150.333 145.091 150.141 144.92C149.959 144.739 149.868 144.499 149.868 144.2C149.868 143.901 149.959 143.667 150.141 143.496C150.333 143.315 150.562 143.224 150.829 143.224C151.095 143.224 151.319 143.315 151.501 143.496C151.693 143.667 151.789 143.901 151.789 144.2C151.789 144.499 151.693 144.739 151.501 144.92C151.319 145.091 151.095 145.176 150.829 145.176ZM156.075 153.928C156.683 153.928 157.131 153.848 157.419 153.688C157.718 153.528 157.867 153.272 157.867 152.92C157.867 152.557 157.723 152.269 157.435 152.056C157.147 151.843 156.673 151.603 156.011 151.336C155.691 151.208 155.382 151.08 155.083 150.952C154.795 150.813 154.545 150.653 154.331 150.472C154.118 150.291 153.947 150.072 153.819 149.816C153.691 149.56 153.627 149.245 153.627 148.872C153.627 148.136 153.899 147.555 154.443 147.128C154.987 146.691 155.729 146.472 156.667 146.472C156.902 146.472 157.137 146.488 157.371 146.52C157.606 146.541 157.825 146.573 158.027 146.616C158.23 146.648 158.406 146.685 158.555 146.728C158.715 146.771 158.838 146.808 158.923 146.84L158.651 148.12C158.491 148.035 158.241 147.949 157.899 147.864C157.558 147.768 157.147 147.72 156.667 147.72C156.251 147.72 155.889 147.805 155.579 147.976C155.27 148.136 155.115 148.392 155.115 148.744C155.115 148.925 155.147 149.085 155.211 149.224C155.286 149.363 155.393 149.491 155.531 149.608C155.681 149.715 155.862 149.816 156.075 149.912C156.289 150.008 156.545 150.109 156.843 150.216C157.238 150.365 157.59 150.515 157.899 150.664C158.209 150.803 158.47 150.968 158.683 151.16C158.907 151.352 159.078 151.587 159.195 151.864C159.313 152.131 159.371 152.461 159.371 152.856C159.371 153.624 159.083 154.205 158.507 154.6C157.942 154.995 157.131 155.192 156.075 155.192C155.339 155.192 154.763 155.128 154.347 155C153.931 154.883 153.649 154.792 153.499 154.728L153.771 153.448C153.942 153.512 154.214 153.608 154.587 153.736C154.961 153.864 155.457 153.928 156.075 153.928ZM162.768 155H161.28V146.68H162.768V155ZM162.016 145.176C161.749 145.176 161.52 145.091 161.328 144.92C161.147 144.739 161.056 144.499 161.056 144.2C161.056 143.901 161.147 143.667 161.328 143.496C161.52 143.315 161.749 143.224 162.016 143.224C162.283 143.224 162.507 143.315 162.688 143.496C162.88 143.667 162.976 143.901 162.976 144.2C162.976 144.499 162.88 144.739 162.688 144.92C162.507 145.091 162.283 145.176 162.016 145.176ZM168.943 155.192C168.271 155.192 167.679 155.085 167.167 154.872C166.666 154.659 166.239 154.36 165.887 153.976C165.546 153.592 165.29 153.139 165.119 152.616C164.948 152.083 164.863 151.496 164.863 150.856C164.863 150.216 164.954 149.629 165.135 149.096C165.327 148.563 165.594 148.104 165.935 147.72C166.276 147.325 166.692 147.021 167.183 146.808C167.684 146.584 168.239 146.472 168.847 146.472C169.22 146.472 169.594 146.504 169.967 146.568C170.34 146.632 170.698 146.733 171.039 146.872L170.703 148.136C170.479 148.029 170.218 147.944 169.919 147.88C169.631 147.816 169.322 147.784 168.991 147.784C168.159 147.784 167.519 148.045 167.071 148.568C166.634 149.091 166.415 149.853 166.415 150.856C166.415 151.304 166.463 151.715 166.559 152.088C166.666 152.461 166.826 152.781 167.039 153.048C167.263 153.315 167.546 153.523 167.887 153.672C168.228 153.811 168.644 153.88 169.135 153.88C169.53 153.88 169.887 153.843 170.207 153.768C170.527 153.693 170.778 153.613 170.959 153.528L171.167 154.776C171.082 154.829 170.959 154.883 170.799 154.936C170.639 154.979 170.458 155.016 170.255 155.048C170.052 155.091 169.834 155.123 169.599 155.144C169.375 155.176 169.156 155.192 168.943 155.192ZM174.252 155H172.764V146.68H174.252V155ZM173.5 145.176C173.234 145.176 173.004 145.091 172.812 144.92C172.631 144.739 172.54 144.499 172.54 144.2C172.54 143.901 172.631 143.667 172.812 143.496C173.004 143.315 173.234 143.224 173.5 143.224C173.767 143.224 173.991 143.315 174.172 143.496C174.364 143.667 174.46 143.901 174.46 144.2C174.46 144.499 174.364 144.739 174.172 144.92C173.991 145.091 173.767 145.176 173.5 145.176ZM176.811 146.92C177.153 146.835 177.606 146.744 178.171 146.648C178.737 146.552 179.387 146.504 180.123 146.504C180.785 146.504 181.334 146.6 181.771 146.792C182.209 146.973 182.555 147.235 182.811 147.576C183.078 147.907 183.265 148.307 183.371 148.776C183.478 149.245 183.531 149.763 183.531 150.328V155H182.043V150.648C182.043 150.136 182.006 149.699 181.931 149.336C181.867 148.973 181.755 148.68 181.595 148.456C181.435 148.232 181.222 148.072 180.955 147.976C180.689 147.869 180.358 147.816 179.963 147.816C179.803 147.816 179.638 147.821 179.467 147.832C179.297 147.843 179.131 147.859 178.971 147.88C178.822 147.891 178.683 147.907 178.555 147.928C178.438 147.949 178.353 147.965 178.299 147.976V155H176.811V146.92ZM191.215 154.168C191.087 154.253 190.836 154.365 190.463 154.504C190.1 154.632 189.673 154.696 189.183 154.696C188.681 154.696 188.207 154.616 187.759 154.456C187.321 154.296 186.937 154.051 186.607 153.72C186.276 153.379 186.015 152.957 185.823 152.456C185.631 151.955 185.535 151.357 185.535 150.664C185.535 150.056 185.625 149.501 185.807 149C185.988 148.488 186.249 148.051 186.591 147.688C186.943 147.315 187.369 147.027 187.871 146.824C188.372 146.611 188.937 146.504 189.567 146.504C190.26 146.504 190.863 146.557 191.375 146.664C191.897 146.76 192.335 146.851 192.687 146.936V154.36C192.687 155.64 192.356 156.568 191.695 157.144C191.033 157.72 190.031 158.008 188.687 158.008C188.164 158.008 187.668 157.965 187.199 157.88C186.74 157.795 186.34 157.693 185.999 157.576L186.271 156.28C186.569 156.397 186.932 156.499 187.359 156.584C187.796 156.68 188.249 156.728 188.719 156.728C189.604 156.728 190.239 156.552 190.623 156.2C191.017 155.848 191.215 155.288 191.215 154.52V154.168ZM191.199 147.992C191.049 147.949 190.847 147.912 190.591 147.88C190.345 147.837 190.009 147.816 189.583 147.816C188.783 147.816 188.164 148.077 187.727 148.6C187.3 149.123 187.087 149.816 187.087 150.68C187.087 151.16 187.145 151.571 187.263 151.912C187.391 152.253 187.556 152.536 187.759 152.76C187.972 152.984 188.212 153.149 188.479 153.256C188.756 153.363 189.039 153.416 189.327 153.416C189.721 153.416 190.084 153.363 190.415 153.256C190.745 153.139 191.007 153.005 191.199 152.856V147.992ZM201.448 155.16C200.531 155.139 199.88 154.941 199.496 154.568C199.112 154.195 198.92 153.613 198.92 152.824V142.84L200.408 142.584V152.584C200.408 152.829 200.429 153.032 200.472 153.192C200.515 153.352 200.584 153.48 200.68 153.576C200.776 153.672 200.904 153.747 201.064 153.8C201.224 153.843 201.421 153.88 201.656 153.912L201.448 155.16ZM206.143 153.928C206.495 153.928 206.804 153.923 207.071 153.912C207.348 153.891 207.578 153.859 207.759 153.816V151.336C207.652 151.283 207.476 151.24 207.231 151.208C206.996 151.165 206.708 151.144 206.367 151.144C206.143 151.144 205.903 151.16 205.647 151.192C205.402 151.224 205.172 151.293 204.959 151.4C204.756 151.496 204.586 151.635 204.447 151.816C204.308 151.987 204.239 152.216 204.239 152.504C204.239 153.037 204.41 153.411 204.751 153.624C205.092 153.827 205.556 153.928 206.143 153.928ZM206.015 146.472C206.612 146.472 207.114 146.552 207.519 146.712C207.935 146.861 208.266 147.08 208.511 147.368C208.767 147.645 208.948 147.981 209.055 148.376C209.162 148.76 209.215 149.187 209.215 149.656V154.856C209.087 154.877 208.906 154.909 208.671 154.952C208.447 154.984 208.191 155.016 207.903 155.048C207.615 155.08 207.3 155.107 206.959 155.128C206.628 155.16 206.298 155.176 205.967 155.176C205.498 155.176 205.066 155.128 204.671 155.032C204.276 154.936 203.935 154.787 203.647 154.584C203.359 154.371 203.135 154.093 202.975 153.752C202.815 153.411 202.735 153 202.735 152.52C202.735 152.061 202.826 151.667 203.007 151.336C203.199 151.005 203.455 150.739 203.775 150.536C204.095 150.333 204.468 150.184 204.895 150.088C205.322 149.992 205.77 149.944 206.239 149.944C206.388 149.944 206.543 149.955 206.703 149.976C206.863 149.987 207.012 150.008 207.151 150.04C207.3 150.061 207.428 150.083 207.535 150.104C207.642 150.125 207.716 150.141 207.759 150.152V149.736C207.759 149.491 207.732 149.251 207.679 149.016C207.626 148.771 207.53 148.557 207.391 148.376C207.252 148.184 207.06 148.035 206.815 147.928C206.58 147.811 206.271 147.752 205.887 147.752C205.396 147.752 204.964 147.789 204.591 147.864C204.228 147.928 203.956 147.997 203.775 148.072L203.599 146.84C203.791 146.755 204.111 146.675 204.559 146.6C205.007 146.515 205.492 146.472 206.015 146.472ZM213.174 147.048C213.356 146.931 213.628 146.808 213.99 146.68C214.364 146.552 214.79 146.488 215.27 146.488C215.868 146.488 216.396 146.595 216.854 146.808C217.324 147.021 217.718 147.32 218.038 147.704C218.358 148.088 218.598 148.547 218.758 149.08C218.929 149.613 219.014 150.2 219.014 150.84C219.014 151.512 218.913 152.12 218.71 152.664C218.518 153.197 218.241 153.651 217.878 154.024C217.516 154.397 217.078 154.685 216.566 154.888C216.054 155.091 215.478 155.192 214.838 155.192C214.145 155.192 213.532 155.144 212.998 155.048C212.465 154.952 212.028 154.856 211.686 154.76V142.84L213.174 142.584V147.048ZM213.174 153.704C213.324 153.747 213.532 153.789 213.798 153.832C214.076 153.864 214.417 153.88 214.822 153.88C215.622 153.88 216.262 153.619 216.742 153.096C217.222 152.563 217.462 151.811 217.462 150.84C217.462 150.413 217.42 150.013 217.334 149.64C217.249 149.267 217.11 148.947 216.918 148.68C216.726 148.403 216.476 148.189 216.166 148.04C215.868 147.88 215.505 147.8 215.078 147.8C214.673 147.8 214.3 147.869 213.958 148.008C213.617 148.147 213.356 148.291 213.174 148.44V153.704ZM228.452 150.84C228.452 151.501 228.356 152.099 228.164 152.632C227.972 153.165 227.7 153.624 227.348 154.008C227.007 154.392 226.596 154.691 226.116 154.904C225.636 155.107 225.113 155.208 224.548 155.208C223.983 155.208 223.46 155.107 222.98 154.904C222.5 154.691 222.084 154.392 221.732 154.008C221.391 153.624 221.124 153.165 220.932 152.632C220.74 152.099 220.644 151.501 220.644 150.84C220.644 150.189 220.74 149.597 220.932 149.064C221.124 148.52 221.391 148.056 221.732 147.672C222.084 147.288 222.5 146.995 222.98 146.792C223.46 146.579 223.983 146.472 224.548 146.472C225.113 146.472 225.636 146.579 226.116 146.792C226.596 146.995 227.007 147.288 227.348 147.672C227.7 148.056 227.972 148.52 228.164 149.064C228.356 149.597 228.452 150.189 228.452 150.84ZM226.9 150.84C226.9 149.901 226.687 149.16 226.26 148.616C225.844 148.061 225.273 147.784 224.548 147.784C223.823 147.784 223.247 148.061 222.82 148.616C222.404 149.16 222.196 149.901 222.196 150.84C222.196 151.779 222.404 152.525 222.82 153.08C223.247 153.624 223.823 153.896 224.548 153.896C225.273 153.896 225.844 153.624 226.26 153.08C226.687 152.525 226.9 151.779 226.9 150.84ZM233.618 146.504C233.746 146.504 233.89 146.515 234.05 146.536C234.22 146.547 234.386 146.568 234.546 146.6C234.706 146.621 234.85 146.648 234.978 146.68C235.116 146.701 235.218 146.723 235.282 146.744L235.026 148.04C234.908 147.997 234.711 147.949 234.434 147.896C234.167 147.832 233.82 147.8 233.394 147.8C233.116 147.8 232.839 147.832 232.562 147.896C232.295 147.949 232.119 147.987 232.034 148.008V155H230.546V147.032C230.898 146.904 231.335 146.787 231.858 146.68C232.38 146.563 232.967 146.504 233.618 146.504ZM243.342 154.76C243 154.845 242.547 154.936 241.982 155.032C241.427 155.128 240.782 155.176 240.046 155.176C239.406 155.176 238.867 155.085 238.43 154.904C237.992 154.712 237.64 154.445 237.374 154.104C237.107 153.763 236.915 153.363 236.798 152.904C236.68 152.435 236.622 151.917 236.622 151.352V146.68H238.11V151.032C238.11 152.045 238.27 152.771 238.59 153.208C238.91 153.645 239.448 153.864 240.206 153.864C240.366 153.864 240.531 153.859 240.702 153.848C240.872 153.837 241.032 153.827 241.182 153.816C241.331 153.795 241.464 153.779 241.582 153.768C241.71 153.747 241.8 153.725 241.854 153.704V146.68H243.342V154.76ZM245.905 146.92C246.246 146.835 246.694 146.744 247.249 146.648C247.814 146.552 248.465 146.504 249.201 146.504C249.734 146.504 250.182 146.579 250.545 146.728C250.908 146.867 251.212 147.075 251.457 147.352C251.532 147.299 251.649 147.224 251.809 147.128C251.969 147.032 252.166 146.941 252.401 146.856C252.636 146.76 252.897 146.68 253.185 146.616C253.473 146.541 253.782 146.504 254.113 146.504C254.753 146.504 255.276 146.6 255.681 146.792C256.086 146.973 256.401 147.235 256.625 147.576C256.86 147.917 257.014 148.323 257.089 148.792C257.174 149.261 257.217 149.773 257.217 150.328V155H255.729V150.648C255.729 150.157 255.702 149.736 255.649 149.384C255.606 149.032 255.516 148.739 255.377 148.504C255.249 148.269 255.068 148.099 254.833 147.992C254.609 147.875 254.316 147.816 253.953 147.816C253.452 147.816 253.036 147.885 252.705 148.024C252.385 148.152 252.166 148.269 252.049 148.376C252.134 148.653 252.198 148.957 252.241 149.288C252.284 149.619 252.305 149.965 252.305 150.328V155H250.817V150.648C250.817 150.157 250.79 149.736 250.737 149.384C250.684 149.032 250.588 148.739 250.449 148.504C250.321 148.269 250.14 148.099 249.905 147.992C249.681 147.875 249.393 147.816 249.041 147.816C248.892 147.816 248.732 147.821 248.561 147.832C248.39 147.843 248.225 147.859 248.065 147.88C247.916 147.891 247.777 147.907 247.649 147.928C247.521 147.949 247.436 147.965 247.393 147.976V155H245.905V146.92ZM30.7679 179.928C31.1199 179.928 31.4292 179.923 31.6959 179.912C31.9732 179.891 32.2025 179.859 32.3839 179.816V177.336C32.2772 177.283 32.1012 177.24 31.8559 177.208C31.6212 177.165 31.3332 177.144 30.9919 177.144C30.7679 177.144 30.5279 177.16 30.2719 177.192C30.0265 177.224 29.7972 177.293 29.5839 177.4C29.3812 177.496 29.2105 177.635 29.0719 177.816C28.9332 177.987 28.8639 178.216 28.8639 178.504C28.8639 179.037 29.0345 179.411 29.3759 179.624C29.7172 179.827 30.1812 179.928 30.7679 179.928ZM30.6399 172.472C31.2372 172.472 31.7385 172.552 32.1439 172.712C32.5599 172.861 32.8905 173.08 33.1359 173.368C33.3919 173.645 33.5732 173.981 33.6799 174.376C33.7865 174.76 33.8399 175.187 33.8399 175.656V180.856C33.7119 180.877 33.5305 180.909 33.2959 180.952C33.0719 180.984 32.8159 181.016 32.5279 181.048C32.2399 181.08 31.9252 181.107 31.5839 181.128C31.2532 181.16 30.9225 181.176 30.5919 181.176C30.1225 181.176 29.6905 181.128 29.2959 181.032C28.9012 180.936 28.5599 180.787 28.2719 180.584C27.9839 180.371 27.7599 180.093 27.5999 179.752C27.4399 179.411 27.3599 179 27.3599 178.52C27.3599 178.061 27.4505 177.667 27.6319 177.336C27.8239 177.005 28.0799 176.739 28.3999 176.536C28.7199 176.333 29.0932 176.184 29.5199 176.088C29.9465 175.992 30.3945 175.944 30.8639 175.944C31.0132 175.944 31.1679 175.955 31.3279 175.976C31.4879 175.987 31.6372 176.008 31.7759 176.04C31.9252 176.061 32.0532 176.083 32.1599 176.104C32.2665 176.125 32.3412 176.141 32.3839 176.152V175.736C32.3839 175.491 32.3572 175.251 32.3039 175.016C32.2505 174.771 32.1545 174.557 32.0159 174.376C31.8772 174.184 31.6852 174.035 31.4399 173.928C31.2052 173.811 30.8959 173.752 30.5119 173.752C30.0212 173.752 29.5892 173.789 29.2159 173.864C28.8532 173.928 28.5812 173.997 28.3999 174.072L28.2239 172.84C28.4159 172.755 28.7359 172.675 29.1839 172.6C29.6319 172.515 30.1172 172.472 30.6399 172.472ZM41.6873 174.44C41.5059 174.291 41.2446 174.147 40.9033 174.008C40.5619 173.869 40.1886 173.8 39.7833 173.8C39.3566 173.8 38.9886 173.88 38.6793 174.04C38.3806 174.189 38.1353 174.403 37.9433 174.68C37.7513 174.947 37.6126 175.267 37.5273 175.64C37.4419 176.013 37.3993 176.413 37.3993 176.84C37.3993 177.811 37.6393 178.563 38.1193 179.096C38.5993 179.619 39.2393 179.88 40.0393 179.88C40.4446 179.88 40.7806 179.864 41.0473 179.832C41.3246 179.789 41.5379 179.747 41.6873 179.704V174.44ZM41.6873 168.84L43.1753 168.584V180.76C42.8339 180.856 42.3966 180.952 41.8633 181.048C41.3299 181.144 40.7166 181.192 40.0233 181.192C39.3833 181.192 38.8073 181.091 38.2953 180.888C37.7833 180.685 37.3459 180.397 36.9833 180.024C36.6206 179.651 36.3379 179.197 36.1353 178.664C35.9433 178.12 35.8473 177.512 35.8473 176.84C35.8473 176.2 35.9273 175.613 36.0872 175.08C36.2579 174.547 36.5033 174.088 36.8233 173.704C37.1433 173.32 37.5326 173.021 37.9913 172.808C38.4606 172.595 38.9939 172.488 39.5913 172.488C40.0713 172.488 40.4926 172.552 40.8553 172.68C41.2286 172.808 41.5059 172.931 41.6873 173.048V168.84ZM47.2211 181H45.7331V172.68H47.2211V181ZM46.4691 171.176C46.2025 171.176 45.9731 171.091 45.7811 170.92C45.5998 170.739 45.5091 170.499 45.5091 170.2C45.5091 169.901 45.5998 169.667 45.7811 169.496C45.9731 169.315 46.2025 169.224 46.4691 169.224C46.7358 169.224 46.9598 169.315 47.1411 169.496C47.3331 169.667 47.4291 169.901 47.4291 170.2C47.4291 170.499 47.3331 170.739 47.1411 170.92C46.9598 171.091 46.7358 171.176 46.4691 171.176ZM55.556 176.856C55.556 175.885 55.316 175.139 54.836 174.616C54.356 174.093 53.716 173.832 52.916 173.832C52.468 173.832 52.116 173.848 51.86 173.88C51.6147 173.912 51.4173 173.949 51.268 173.992V179.24C51.4493 179.389 51.7107 179.533 52.052 179.672C52.3933 179.811 52.7667 179.88 53.172 179.88C53.5987 179.88 53.9613 179.805 54.26 179.656C54.5693 179.496 54.82 179.283 55.012 179.016C55.204 178.739 55.3427 178.419 55.428 178.056C55.5133 177.683 55.556 177.283 55.556 176.856ZM57.108 176.856C57.108 177.485 57.0227 178.067 56.852 178.6C56.692 179.133 56.452 179.592 56.132 179.976C55.812 180.36 55.4173 180.659 54.948 180.872C54.4893 181.085 53.9613 181.192 53.364 181.192C52.884 181.192 52.4573 181.128 52.084 181C51.7213 180.872 51.4493 180.749 51.268 180.632V183.96H49.78V172.936C50.132 172.851 50.5693 172.76 51.092 172.664C51.6253 172.557 52.2387 172.504 52.932 172.504C53.572 172.504 54.148 172.605 54.66 172.808C55.172 173.011 55.6093 173.299 55.972 173.672C56.3347 174.045 56.612 174.504 56.804 175.048C57.0067 175.581 57.108 176.184 57.108 176.856ZM60.6899 181H59.2019V172.68H60.6899V181ZM59.9379 171.176C59.6712 171.176 59.4419 171.091 59.2499 170.92C59.0685 170.739 58.9779 170.499 58.9779 170.2C58.9779 169.901 59.0685 169.667 59.2499 169.496C59.4419 169.315 59.6712 169.224 59.9379 169.224C60.2045 169.224 60.4285 169.315 60.6099 169.496C60.8019 169.667 60.8979 169.901 60.8979 170.2C60.8979 170.499 60.8019 170.739 60.6099 170.92C60.4285 171.091 60.2045 171.176 59.9379 171.176ZM65.1848 179.928C65.7928 179.928 66.2408 179.848 66.5288 179.688C66.8274 179.528 66.9768 179.272 66.9768 178.92C66.9768 178.557 66.8328 178.269 66.5448 178.056C66.2568 177.843 65.7821 177.603 65.1208 177.336C64.8008 177.208 64.4914 177.08 64.1928 176.952C63.9048 176.813 63.6541 176.653 63.4408 176.472C63.2274 176.291 63.0568 176.072 62.9288 175.816C62.8008 175.56 62.7368 175.245 62.7368 174.872C62.7368 174.136 63.0088 173.555 63.5528 173.128C64.0968 172.691 64.8381 172.472 65.7768 172.472C66.0114 172.472 66.2461 172.488 66.4808 172.52C66.7154 172.541 66.9341 172.573 67.1368 172.616C67.3394 172.648 67.5154 172.685 67.6648 172.728C67.8248 172.771 67.9474 172.808 68.0328 172.84L67.7608 174.12C67.6008 174.035 67.3501 173.949 67.0088 173.864C66.6674 173.768 66.2568 173.72 65.7768 173.72C65.3608 173.72 64.9981 173.805 64.6888 173.976C64.3794 174.136 64.2248 174.392 64.2248 174.744C64.2248 174.925 64.2568 175.085 64.3207 175.224C64.3954 175.363 64.5021 175.491 64.6408 175.608C64.7901 175.715 64.9714 175.816 65.1848 175.912C65.3981 176.008 65.6541 176.109 65.9528 176.216C66.3474 176.365 66.6994 176.515 67.0088 176.664C67.3181 176.803 67.5794 176.968 67.7928 177.16C68.0168 177.352 68.1874 177.587 68.3048 177.864C68.4221 178.131 68.4808 178.461 68.4808 178.856C68.4808 179.624 68.1928 180.205 67.6168 180.6C67.0514 180.995 66.2408 181.192 65.1848 181.192C64.4488 181.192 63.8728 181.128 63.4568 181C63.0408 180.883 62.7581 180.792 62.6088 180.728L62.8808 179.448C63.0514 179.512 63.3234 179.608 63.6968 179.736C64.0701 179.864 64.5661 179.928 65.1848 179.928ZM71.8774 181H70.3894V172.68H71.8774V181ZM71.1254 171.176C70.8587 171.176 70.6294 171.091 70.4374 170.92C70.256 170.739 70.1654 170.499 70.1654 170.2C70.1654 169.901 70.256 169.667 70.4374 169.496C70.6294 169.315 70.8587 169.224 71.1254 169.224C71.392 169.224 71.616 169.315 71.7974 169.496C71.9894 169.667 72.0854 169.901 72.0854 170.2C72.0854 170.499 71.9894 170.739 71.7974 170.92C71.616 171.091 71.392 171.176 71.1254 171.176ZM78.0523 181.192C77.3803 181.192 76.7883 181.085 76.2763 180.872C75.7749 180.659 75.3483 180.36 74.9963 179.976C74.6549 179.592 74.3989 179.139 74.2283 178.616C74.0576 178.083 73.9723 177.496 73.9723 176.856C73.9723 176.216 74.0629 175.629 74.2443 175.096C74.4363 174.563 74.7029 174.104 75.0443 173.72C75.3856 173.325 75.8016 173.021 76.2923 172.808C76.7936 172.584 77.3483 172.472 77.9563 172.472C78.3296 172.472 78.7029 172.504 79.0763 172.568C79.4496 172.632 79.8069 172.733 80.1483 172.872L79.8123 174.136C79.5883 174.029 79.3269 173.944 79.0283 173.88C78.7403 173.816 78.4309 173.784 78.1003 173.784C77.2683 173.784 76.6283 174.045 76.1803 174.568C75.7429 175.091 75.5243 175.853 75.5243 176.856C75.5243 177.304 75.5723 177.715 75.6683 178.088C75.7749 178.461 75.9349 178.781 76.1483 179.048C76.3723 179.315 76.6549 179.523 76.9963 179.672C77.3376 179.811 77.7536 179.88 78.2443 179.88C78.6389 179.88 78.9963 179.843 79.3163 179.768C79.6363 179.693 79.8869 179.613 80.0683 179.528L80.2763 180.776C80.1909 180.829 80.0683 180.883 79.9083 180.936C79.7483 180.979 79.5669 181.016 79.3643 181.048C79.1616 181.091 78.9429 181.123 78.7083 181.144C78.4843 181.176 78.2656 181.192 78.0523 181.192ZM83.3618 181H81.8738V172.68H83.3618V181ZM82.6098 171.176C82.3431 171.176 82.1138 171.091 81.9218 170.92C81.7404 170.739 81.6497 170.499 81.6497 170.2C81.6497 169.901 81.7404 169.667 81.9218 169.496C82.1138 169.315 82.3431 169.224 82.6098 169.224C82.8764 169.224 83.1004 169.315 83.2818 169.496C83.4738 169.667 83.5698 169.901 83.5698 170.2C83.5698 170.499 83.4738 170.739 83.2818 170.92C83.1004 171.091 82.8764 171.176 82.6098 171.176ZM85.9206 172.92C86.262 172.835 86.7153 172.744 87.2806 172.648C87.846 172.552 88.4966 172.504 89.2326 172.504C89.894 172.504 90.4433 172.6 90.8806 172.792C91.318 172.973 91.6646 173.235 91.9206 173.576C92.1873 173.907 92.374 174.307 92.4806 174.776C92.5873 175.245 92.6406 175.763 92.6406 176.328V181H91.1526V176.648C91.1526 176.136 91.1153 175.699 91.0406 175.336C90.9766 174.973 90.8646 174.68 90.7046 174.456C90.5446 174.232 90.3313 174.072 90.0646 173.976C89.798 173.869 89.4673 173.816 89.0726 173.816C88.9126 173.816 88.7473 173.821 88.5766 173.832C88.406 173.843 88.2406 173.859 88.0806 173.88C87.9313 173.891 87.7926 173.907 87.6646 173.928C87.5473 173.949 87.462 173.965 87.4086 173.976V181H85.9206V172.92ZM100.324 180.168C100.196 180.253 99.9455 180.365 99.5721 180.504C99.2095 180.632 98.7828 180.696 98.2921 180.696C97.7908 180.696 97.3161 180.616 96.8681 180.456C96.4308 180.296 96.0468 180.051 95.7161 179.72C95.3855 179.379 95.1241 178.957 94.9321 178.456C94.7401 177.955 94.6441 177.357 94.6441 176.664C94.6441 176.056 94.7348 175.501 94.9161 175C95.0975 174.488 95.3588 174.051 95.7001 173.688C96.0521 173.315 96.4788 173.027 96.9801 172.824C97.4815 172.611 98.0468 172.504 98.6761 172.504C99.3695 172.504 99.9721 172.557 100.484 172.664C101.007 172.76 101.444 172.851 101.796 172.936V180.36C101.796 181.64 101.465 182.568 100.804 183.144C100.143 183.72 99.1401 184.008 97.7961 184.008C97.2735 184.008 96.7775 183.965 96.3081 183.88C95.8495 183.795 95.4495 183.693 95.1081 183.576L95.3801 182.28C95.6788 182.397 96.0415 182.499 96.4681 182.584C96.9055 182.68 97.3588 182.728 97.8281 182.728C98.7135 182.728 99.3481 182.552 99.7321 182.2C100.127 181.848 100.324 181.288 100.324 180.52V180.168ZM100.308 173.992C100.159 173.949 99.9561 173.912 99.7001 173.88C99.4548 173.837 99.1188 173.816 98.6921 173.816C97.8921 173.816 97.2735 174.077 96.8361 174.6C96.4095 175.123 96.1961 175.816 96.1961 176.68C96.1961 177.16 96.2548 177.571 96.3721 177.912C96.5001 178.253 96.6655 178.536 96.8681 178.76C97.0815 178.984 97.3215 179.149 97.5881 179.256C97.8655 179.363 98.1481 179.416 98.4361 179.416C98.8308 179.416 99.1935 179.363 99.5241 179.256C99.8548 179.139 100.116 179.005 100.308 178.856V173.992ZM106.118 180.136C106.118 180.424 106.022 180.675 105.83 180.888C105.638 181.101 105.377 181.208 105.046 181.208C104.715 181.208 104.454 181.101 104.262 180.888C104.07 180.675 103.974 180.424 103.974 180.136C103.974 179.848 104.07 179.597 104.262 179.384C104.454 179.171 104.715 179.064 105.046 179.064C105.377 179.064 105.638 179.171 105.83 179.384C106.022 179.597 106.118 179.848 106.118 180.136ZM117.071 179.464C116.964 179.208 116.82 178.883 116.639 178.488C116.468 178.093 116.281 177.667 116.079 177.208C115.876 176.749 115.657 176.28 115.423 175.8C115.199 175.309 114.985 174.851 114.783 174.424C114.58 173.987 114.388 173.597 114.207 173.256C114.036 172.915 113.897 172.653 113.791 172.472C113.673 173.731 113.577 175.096 113.503 176.568C113.428 178.029 113.364 179.507 113.311 181H111.791C111.833 180.04 111.881 179.075 111.935 178.104C111.988 177.123 112.047 176.163 112.111 175.224C112.185 174.275 112.26 173.352 112.335 172.456C112.42 171.56 112.511 170.712 112.607 169.912H113.967C114.255 170.381 114.564 170.936 114.895 171.576C115.225 172.216 115.556 172.888 115.887 173.592C116.217 174.285 116.537 174.984 116.847 175.688C117.156 176.381 117.439 177.016 117.695 177.592C117.951 177.016 118.233 176.381 118.543 175.688C118.852 174.984 119.172 174.285 119.503 173.592C119.833 172.888 120.164 172.216 120.495 171.576C120.825 170.936 121.135 170.381 121.423 169.912H122.783C123.145 173.485 123.417 177.181 123.599 181H122.079C122.025 179.507 121.961 178.029 121.887 176.568C121.812 175.096 121.716 173.731 121.599 172.472C121.492 172.653 121.348 172.915 121.167 173.256C120.996 173.597 120.809 173.987 120.607 174.424C120.404 174.851 120.185 175.309 119.951 175.8C119.727 176.28 119.513 176.749 119.311 177.208C119.108 177.667 118.916 178.093 118.735 178.488C118.564 178.883 118.425 179.208 118.319 179.464H117.071ZM127.424 181H125.936V172.68H127.424V181ZM126.672 171.176C126.406 171.176 126.176 171.091 125.984 170.92C125.803 170.739 125.712 170.499 125.712 170.2C125.712 169.901 125.803 169.667 125.984 169.496C126.176 169.315 126.406 169.224 126.672 169.224C126.939 169.224 127.163 169.315 127.344 169.496C127.536 169.667 127.632 169.901 127.632 170.2C127.632 170.499 127.536 170.739 127.344 170.92C127.163 171.091 126.939 171.176 126.672 171.176ZM129.983 172.92C130.324 172.835 130.778 172.744 131.343 172.648C131.908 172.552 132.559 172.504 133.295 172.504C133.956 172.504 134.506 172.6 134.943 172.792C135.38 172.973 135.727 173.235 135.983 173.576C136.25 173.907 136.436 174.307 136.543 174.776C136.65 175.245 136.703 175.763 136.703 176.328V181H135.215V176.648C135.215 176.136 135.178 175.699 135.103 175.336C135.039 174.973 134.927 174.68 134.767 174.456C134.607 174.232 134.394 174.072 134.127 173.976C133.86 173.869 133.53 173.816 133.135 173.816C132.975 173.816 132.81 173.821 132.639 173.832C132.468 173.843 132.303 173.859 132.143 173.88C131.994 173.891 131.855 173.907 131.727 173.928C131.61 173.949 131.524 173.965 131.471 173.976V181H129.983V172.92ZM140.659 181H139.171V172.68H140.659V181ZM139.907 171.176C139.64 171.176 139.411 171.091 139.219 170.92C139.037 170.739 138.947 170.499 138.947 170.2C138.947 169.901 139.037 169.667 139.219 169.496C139.411 169.315 139.64 169.224 139.907 169.224C140.173 169.224 140.397 169.315 140.579 169.496C140.771 169.667 140.867 169.901 140.867 170.2C140.867 170.499 140.771 170.739 140.579 170.92C140.397 171.091 140.173 171.176 139.907 171.176ZM143.218 172.92C143.559 172.835 144.007 172.744 144.562 172.648C145.127 172.552 145.778 172.504 146.514 172.504C147.047 172.504 147.495 172.579 147.858 172.728C148.22 172.867 148.524 173.075 148.77 173.352C148.844 173.299 148.962 173.224 149.122 173.128C149.282 173.032 149.479 172.941 149.714 172.856C149.948 172.76 150.21 172.68 150.498 172.616C150.786 172.541 151.095 172.504 151.426 172.504C152.066 172.504 152.588 172.6 152.994 172.792C153.399 172.973 153.714 173.235 153.938 173.576C154.172 173.917 154.327 174.323 154.402 174.792C154.487 175.261 154.53 175.773 154.53 176.328V181H153.042V176.648C153.042 176.157 153.015 175.736 152.962 175.384C152.919 175.032 152.828 174.739 152.69 174.504C152.562 174.269 152.38 174.099 152.146 173.992C151.922 173.875 151.628 173.816 151.266 173.816C150.764 173.816 150.348 173.885 150.017 174.024C149.698 174.152 149.479 174.269 149.362 174.376C149.447 174.653 149.511 174.957 149.554 175.288C149.596 175.619 149.618 175.965 149.618 176.328V181H148.13V176.648C148.13 176.157 148.103 175.736 148.05 175.384C147.996 175.032 147.9 174.739 147.762 174.504C147.634 174.269 147.452 174.099 147.218 173.992C146.994 173.875 146.706 173.816 146.354 173.816C146.204 173.816 146.044 173.821 145.874 173.832C145.703 173.843 145.538 173.859 145.378 173.88C145.228 173.891 145.09 173.907 144.962 173.928C144.834 173.949 144.748 173.965 144.706 173.976V181H143.218V172.92ZM160.238 176.856C160.238 176.12 160.345 175.48 160.558 174.936C160.771 174.381 161.054 173.923 161.406 173.56C161.758 173.197 162.163 172.925 162.622 172.744C163.081 172.563 163.55 172.472 164.03 172.472C165.15 172.472 166.009 172.824 166.606 173.528C167.203 174.221 167.502 175.283 167.502 176.712C167.502 176.776 167.502 176.861 167.502 176.968C167.502 177.064 167.497 177.155 167.486 177.24H161.79C161.854 178.104 162.105 178.76 162.542 179.208C162.979 179.656 163.662 179.88 164.59 179.88C165.113 179.88 165.55 179.837 165.902 179.752C166.265 179.656 166.537 179.565 166.718 179.48L166.926 180.728C166.745 180.824 166.425 180.925 165.966 181.032C165.518 181.139 165.006 181.192 164.43 181.192C163.705 181.192 163.075 181.085 162.542 180.872C162.019 180.648 161.587 180.344 161.246 179.96C160.905 179.576 160.649 179.123 160.478 178.6C160.318 178.067 160.238 177.485 160.238 176.856ZM165.95 176.04C165.961 175.368 165.79 174.819 165.438 174.392C165.097 173.955 164.622 173.736 164.014 173.736C163.673 173.736 163.369 173.805 163.102 173.944C162.846 174.072 162.627 174.243 162.446 174.456C162.265 174.669 162.121 174.915 162.014 175.192C161.918 175.469 161.854 175.752 161.822 176.04H165.95ZM169.639 172.92C169.981 172.835 170.429 172.744 170.983 172.648C171.549 172.552 172.199 172.504 172.935 172.504C173.469 172.504 173.917 172.579 174.279 172.728C174.642 172.867 174.946 173.075 175.191 173.352C175.266 173.299 175.383 173.224 175.543 173.128C175.703 173.032 175.901 172.941 176.135 172.856C176.37 172.76 176.631 172.68 176.919 172.616C177.207 172.541 177.517 172.504 177.847 172.504C178.487 172.504 179.01 172.6 179.415 172.792C179.821 172.973 180.135 173.235 180.359 173.576C180.594 173.917 180.749 174.323 180.823 174.792C180.909 175.261 180.951 175.773 180.951 176.328V181H179.463V176.648C179.463 176.157 179.437 175.736 179.383 175.384C179.341 175.032 179.25 174.739 179.111 174.504C178.983 174.269 178.802 174.099 178.567 173.992C178.343 173.875 178.05 173.816 177.687 173.816C177.186 173.816 176.77 173.885 176.439 174.024C176.119 174.152 175.901 174.269 175.783 174.376C175.869 174.653 175.933 174.957 175.975 175.288C176.018 175.619 176.039 175.965 176.039 176.328V181H174.551V176.648C174.551 176.157 174.525 175.736 174.471 175.384C174.418 175.032 174.322 174.739 174.183 174.504C174.055 174.269 173.874 174.099 173.639 173.992C173.415 173.875 173.127 173.816 172.775 173.816C172.626 173.816 172.466 173.821 172.295 173.832C172.125 173.843 171.959 173.859 171.799 173.88C171.65 173.891 171.511 173.907 171.383 173.928C171.255 173.949 171.17 173.965 171.127 173.976V181H169.639V172.92ZM189.197 176.856C189.197 175.885 188.957 175.139 188.477 174.616C187.997 174.093 187.357 173.832 186.557 173.832C186.109 173.832 185.757 173.848 185.501 173.88C185.255 173.912 185.058 173.949 184.909 173.992V179.24C185.09 179.389 185.351 179.533 185.693 179.672C186.034 179.811 186.407 179.88 186.813 179.88C187.239 179.88 187.602 179.805 187.901 179.656C188.21 179.496 188.461 179.283 188.653 179.016C188.845 178.739 188.983 178.419 189.069 178.056C189.154 177.683 189.197 177.283 189.197 176.856ZM190.749 176.856C190.749 177.485 190.663 178.067 190.493 178.6C190.333 179.133 190.093 179.592 189.773 179.976C189.453 180.36 189.058 180.659 188.589 180.872C188.13 181.085 187.602 181.192 187.005 181.192C186.525 181.192 186.098 181.128 185.725 181C185.362 180.872 185.09 180.749 184.909 180.632V183.96H183.421V172.936C183.773 172.851 184.21 172.76 184.733 172.664C185.266 172.557 185.879 172.504 186.573 172.504C187.213 172.504 187.789 172.605 188.301 172.808C188.813 173.011 189.25 173.299 189.613 173.672C189.975 174.045 190.253 174.504 190.445 175.048C190.647 175.581 190.749 176.184 190.749 176.856ZM200.187 176.84C200.187 177.501 200.091 178.099 199.899 178.632C199.707 179.165 199.435 179.624 199.083 180.008C198.741 180.392 198.331 180.691 197.851 180.904C197.371 181.107 196.848 181.208 196.283 181.208C195.717 181.208 195.195 181.107 194.715 180.904C194.235 180.691 193.819 180.392 193.467 180.008C193.125 179.624 192.859 179.165 192.667 178.632C192.475 178.099 192.379 177.501 192.379 176.84C192.379 176.189 192.475 175.597 192.667 175.064C192.859 174.52 193.125 174.056 193.467 173.672C193.819 173.288 194.235 172.995 194.715 172.792C195.195 172.579 195.717 172.472 196.283 172.472C196.848 172.472 197.371 172.579 197.851 172.792C198.331 172.995 198.741 173.288 199.083 173.672C199.435 174.056 199.707 174.52 199.899 175.064C200.091 175.597 200.187 176.189 200.187 176.84ZM198.635 176.84C198.635 175.901 198.421 175.16 197.995 174.616C197.579 174.061 197.008 173.784 196.283 173.784C195.557 173.784 194.981 174.061 194.555 174.616C194.139 175.16 193.931 175.901 193.931 176.84C193.931 177.779 194.139 178.525 194.555 179.08C194.981 179.624 195.557 179.896 196.283 179.896C197.008 179.896 197.579 179.624 197.995 179.08C198.421 178.525 198.635 177.779 198.635 176.84ZM205.352 172.504C205.48 172.504 205.624 172.515 205.784 172.536C205.955 172.547 206.12 172.568 206.28 172.6C206.44 172.621 206.584 172.648 206.712 172.68C206.851 172.701 206.952 172.723 207.016 172.744L206.76 174.04C206.643 173.997 206.445 173.949 206.168 173.896C205.901 173.832 205.555 173.8 205.128 173.8C204.851 173.8 204.573 173.832 204.296 173.896C204.029 173.949 203.853 173.987 203.768 174.008V181H202.28V173.032C202.632 172.904 203.069 172.787 203.592 172.68C204.115 172.563 204.701 172.504 205.352 172.504ZM211.691 176.856C211.691 176.12 211.798 175.48 212.011 174.936C212.224 174.381 212.507 173.923 212.859 173.56C213.211 173.197 213.616 172.925 214.075 172.744C214.534 172.563 215.003 172.472 215.483 172.472C216.603 172.472 217.462 172.824 218.059 173.528C218.656 174.221 218.955 175.283 218.955 176.712C218.955 176.776 218.955 176.861 218.955 176.968C218.955 177.064 218.95 177.155 218.939 177.24H213.243C213.307 178.104 213.558 178.76 213.995 179.208C214.432 179.656 215.115 179.88 216.043 179.88C216.566 179.88 217.003 179.837 217.355 179.752C217.718 179.656 217.99 179.565 218.171 179.48L218.379 180.728C218.198 180.824 217.878 180.925 217.419 181.032C216.971 181.139 216.459 181.192 215.883 181.192C215.158 181.192 214.528 181.085 213.995 180.872C213.472 180.648 213.04 180.344 212.699 179.96C212.358 179.576 212.102 179.123 211.931 178.6C211.771 178.067 211.691 177.485 211.691 176.856ZM217.403 176.04C217.414 175.368 217.243 174.819 216.891 174.392C216.55 173.955 216.075 173.736 215.467 173.736C215.126 173.736 214.822 173.805 214.555 173.944C214.299 174.072 214.08 174.243 213.899 174.456C213.718 174.669 213.574 174.915 213.467 175.192C213.371 175.469 213.307 175.752 213.275 176.04H217.403ZM223.029 179.928C223.637 179.928 224.085 179.848 224.373 179.688C224.671 179.528 224.821 179.272 224.821 178.92C224.821 178.557 224.677 178.269 224.389 178.056C224.101 177.843 223.626 177.603 222.965 177.336C222.645 177.208 222.335 177.08 222.037 176.952C221.749 176.813 221.498 176.653 221.285 176.472C221.071 176.291 220.901 176.072 220.773 175.816C220.645 175.56 220.581 175.245 220.581 174.872C220.581 174.136 220.853 173.555 221.397 173.128C221.941 172.691 222.682 172.472 223.621 172.472C223.855 172.472 224.09 172.488 224.325 172.52C224.559 172.541 224.778 172.573 224.981 172.616C225.183 172.648 225.359 172.685 225.509 172.728C225.669 172.771 225.791 172.808 225.877 172.84L225.605 174.12C225.445 174.035 225.194 173.949 224.853 173.864C224.511 173.768 224.101 173.72 223.621 173.72C223.205 173.72 222.842 173.805 222.533 173.976C222.223 174.136 222.069 174.392 222.069 174.744C222.069 174.925 222.101 175.085 222.164 175.224C222.239 175.363 222.346 175.491 222.485 175.608C222.634 175.715 222.815 175.816 223.029 175.912C223.242 176.008 223.498 176.109 223.797 176.216C224.191 176.365 224.543 176.515 224.853 176.664C225.162 176.803 225.423 176.968 225.637 177.16C225.861 177.352 226.031 177.587 226.149 177.864C226.266 178.131 226.325 178.461 226.325 178.856C226.325 179.624 226.037 180.205 225.461 180.6C224.895 180.995 224.085 181.192 223.029 181.192C222.293 181.192 221.717 181.128 221.301 181C220.885 180.883 220.602 180.792 220.453 180.728L220.725 179.448C220.895 179.512 221.167 179.608 221.541 179.736C221.914 179.864 222.41 179.928 223.029 179.928ZM229.625 172.68H232.777V173.928H229.625V177.768C229.625 178.184 229.657 178.531 229.721 178.808C229.785 179.075 229.881 179.288 230.009 179.448C230.137 179.597 230.297 179.704 230.489 179.768C230.681 179.832 230.905 179.864 231.161 179.864C231.609 179.864 231.966 179.816 232.233 179.72C232.51 179.613 232.702 179.539 232.809 179.496L233.097 180.728C232.948 180.803 232.686 180.893 232.313 181C231.94 181.117 231.513 181.176 231.033 181.176C230.468 181.176 229.998 181.107 229.625 180.968C229.262 180.819 228.969 180.6 228.745 180.312C228.521 180.024 228.361 179.672 228.265 179.256C228.18 178.829 228.137 178.339 228.137 177.784V170.36L229.625 170.104V172.68ZM237.91 176.856C237.91 176.12 238.016 175.48 238.23 174.936C238.443 174.381 238.726 173.923 239.078 173.56C239.43 173.197 239.835 172.925 240.294 172.744C240.752 172.563 241.222 172.472 241.702 172.472C242.822 172.472 243.68 172.824 244.278 173.528C244.875 174.221 245.174 175.283 245.174 176.712C245.174 176.776 245.174 176.861 245.174 176.968C245.174 177.064 245.168 177.155 245.158 177.24H239.462C239.526 178.104 239.776 178.76 240.214 179.208C240.651 179.656 241.334 179.88 242.262 179.88C242.784 179.88 243.222 179.837 243.574 179.752C243.936 179.656 244.208 179.565 244.39 179.48L244.598 180.728C244.416 180.824 244.096 180.925 243.638 181.032C243.19 181.139 242.678 181.192 242.102 181.192C241.376 181.192 240.747 181.085 240.214 180.872C239.691 180.648 239.259 180.344 238.918 179.96C238.576 179.576 238.32 179.123 238.15 178.6C237.99 178.067 237.91 177.485 237.91 176.856ZM243.622 176.04C243.632 175.368 243.462 174.819 243.11 174.392C242.768 173.955 242.294 173.736 241.686 173.736C241.344 173.736 241.04 173.805 240.774 173.944C240.518 174.072 240.299 174.243 240.118 174.456C239.936 174.669 239.792 174.915 239.686 175.192C239.59 175.469 239.526 175.752 239.494 176.04H243.622ZM250.127 179.928C250.479 179.928 250.789 179.923 251.055 179.912C251.333 179.891 251.562 179.859 251.743 179.816V177.336C251.637 177.283 251.461 177.24 251.215 177.208C250.981 177.165 250.693 177.144 250.351 177.144C250.127 177.144 249.887 177.16 249.631 177.192C249.386 177.224 249.157 177.293 248.943 177.4C248.741 177.496 248.57 177.635 248.431 177.816C248.293 177.987 248.223 178.216 248.223 178.504C248.223 179.037 248.394 179.411 248.735 179.624C249.077 179.827 249.541 179.928 250.127 179.928ZM249.999 172.472C250.597 172.472 251.098 172.552 251.503 172.712C251.919 172.861 252.25 173.08 252.495 173.368C252.751 173.645 252.933 173.981 253.039 174.376C253.146 174.76 253.199 175.187 253.199 175.656V180.856C253.071 180.877 252.89 180.909 252.655 180.952C252.431 180.984 252.175 181.016 251.887 181.048C251.599 181.08 251.285 181.107 250.943 181.128C250.613 181.16 250.282 181.176 249.951 181.176C249.482 181.176 249.05 181.128 248.655 181.032C248.261 180.936 247.919 180.787 247.631 180.584C247.343 180.371 247.119 180.093 246.959 179.752C246.799 179.411 246.719 179 246.719 178.52C246.719 178.061 246.81 177.667 246.991 177.336C247.183 177.005 247.439 176.739 247.759 176.536C248.079 176.333 248.453 176.184 248.879 176.088C249.306 175.992 249.754 175.944 250.223 175.944C250.373 175.944 250.527 175.955 250.687 175.976C250.847 175.987 250.997 176.008 251.135 176.04C251.285 176.061 251.413 176.083 251.519 176.104C251.626 176.125 251.701 176.141 251.743 176.152V175.736C251.743 175.491 251.717 175.251 251.663 175.016C251.61 174.771 251.514 174.557 251.375 174.376C251.237 174.184 251.045 174.035 250.799 173.928C250.565 173.811 250.255 173.752 249.871 173.752C249.381 173.752 248.949 173.789 248.575 173.864C248.213 173.928 247.941 173.997 247.759 174.072L247.583 172.84C247.775 172.755 248.095 172.675 248.543 172.6C248.991 172.515 249.477 172.472 249.999 172.472ZM257.431 180.136C257.431 180.424 257.335 180.675 257.143 180.888C256.951 181.101 256.689 181.208 256.359 181.208C256.028 181.208 255.767 181.101 255.575 180.888C255.383 180.675 255.287 180.424 255.287 180.136C255.287 179.848 255.383 179.597 255.575 179.384C255.767 179.171 256.028 179.064 256.359 179.064C256.689 179.064 256.951 179.171 257.143 179.384C257.335 179.597 257.431 179.848 257.431 180.136Z" fill="#787A80"/>
<g clip-path="url(#clip0_2111_1856)">
<path d="M126 44H120.5C119.672 44 119 43.328 119 42.5V25.5C119 24.672 119.672 24 120.5 24C127.512 24 130.776 26.434 130.91 26.538C131.394 26.908 131.608 27.534 131.448 28.122L127.448 42.894C127.272 43.546 126.678 44 126 44ZM122 41H124.852L128.248 28.458C127.202 27.964 125.158 27.228 122 27.044V41Z" fill="#FF5A30"/>
<path d="M145 48C140.482 48 132.154 44.542 125.962 41.638C125.212 41.286 124.89 40.392 125.242 39.642C125.592 38.892 126.488 38.566 127.236 38.92C135.476 42.786 141.952 45 145 45C149.056 45 158.264 40.618 163.09 38.09C162.534 37.772 161.706 37.5 160.5 37.5C158.74 37.5 156.57 38.22 154.472 38.916C153.79 39.142 153.11 39.368 152.436 39.574C150.952 40.032 149.2 40.5 147.498 40.5C143.284 40.5 137.72 38.496 137.486 38.41C136.706 38.126 136.304 37.266 136.588 36.488C136.872 35.708 137.734 35.31 138.51 35.59C138.562 35.61 143.814 37.5 147.498 37.5C148.81 37.5 150.356 37.076 151.556 36.706C152.208 36.506 152.866 36.288 153.524 36.07C155.848 35.298 158.25 34.5 160.496 34.5C165.454 34.5 166.832 37.802 166.888 37.944C167.17 38.646 166.882 39.448 166.22 39.814C165.62 40.148 151.314 48 145 48Z" fill="#FF5A30"/>
<path d="M152 39.6795C151.172 39.6795 150.5 39.0075 150.5 38.1795V37.2795C150.5 36.0975 149.658 35.0655 148.5 34.8295L129.238 30.8895C128.428 30.7235 127.904 29.9315 128.07 29.1195C128.236 28.3075 129.03 27.7895 129.84 27.9515L149.102 31.8915C151.65 32.4115 153.5 34.6795 153.5 37.2815V38.1815C153.5 39.0075 152.828 39.6795 152 39.6795Z" fill="#FF5A30"/>
<path d="M155 27.9991C154.8 27.9991 154.602 27.959 154.414 27.879C153.948 27.681 143 22.915 143 13.107V5.07105C143 4.42905 143.408 3.85905 144.018 3.65105L154.518 0.0790469C154.83 -0.0289531 155.17 -0.0289531 155.482 0.0790469L165.982 3.65105C166.592 3.85705 167 4.42705 167 5.07105V13.107C167 22.915 156.052 27.6831 155.586 27.8811C155.398 27.959 155.2 27.9991 155 27.9991ZM146 6.14505V13.107C146 19.803 152.91 23.789 154.998 24.8391C157.082 23.783 164 19.7771 164 13.107V6.14505L155 3.08305L146 6.14505Z" fill="#FF5A30"/>
<path d="M154.499 19.0003C154.103 19.0003 153.719 18.8423 153.439 18.5603L149.439 14.5603C148.854 13.9743 148.854 13.0243 149.439 12.4383C150.025 11.8523 150.975 11.8523 151.561 12.4383L154.339 15.2163L159.299 8.60027C159.791 7.93828 160.733 7.80227 161.399 8.30027C162.061 8.79827 162.195 9.73827 161.697 10.4003L155.697 18.4003C155.437 18.7483 155.039 18.9663 154.603 18.9963C154.569 19.0003 154.535 19.0003 154.499 19.0003Z" fill="#FF5A30"/>
</g>
<defs>
<clipPath id="clip0_2111_1856">
<rect width="48" height="48" fill="white" transform="translate(119)"/>
</clipPath>
</defs>
</svg>
