<svg width="285" height="188" viewBox="0 0 285 188" fill="none" xmlns="http://www.w3.org/2000/svg">
<path d="M111.339 87.06C111.339 87.74 111.419 88.3533 111.579 88.9C111.752 89.4467 111.992 89.92 112.299 90.32C112.619 90.7067 113.006 91.0067 113.459 91.22C113.912 91.4333 114.432 91.54 115.019 91.54C115.592 91.54 116.106 91.4333 116.559 91.22C117.026 91.0067 117.412 90.7067 117.719 90.32C118.039 89.92 118.279 89.4467 118.439 88.9C118.612 88.3533 118.699 87.74 118.699 87.06C118.699 86.38 118.612 85.7667 118.439 85.22C118.279 84.66 118.039 84.1867 117.719 83.8C117.412 83.4 117.026 83.0933 116.559 82.88C116.106 82.6667 115.592 82.56 115.019 82.56C114.432 82.56 113.912 82.6733 113.459 82.9C113.006 83.1133 112.619 83.42 112.299 83.82C111.992 84.2067 111.752 84.68 111.579 85.24C111.419 85.7867 111.339 86.3933 111.339 87.06ZM121.919 87.06C121.919 88.0333 121.799 88.9133 121.559 89.7C121.319 90.4733 120.979 91.1533 120.539 91.74C120.112 92.3267 119.599 92.8133 118.999 93.2C118.399 93.5867 117.739 93.8667 117.019 94.04C117.086 94.3067 117.232 94.52 117.459 94.68C117.686 94.8533 117.972 94.9933 118.319 95.1C118.666 95.2067 119.066 95.2867 119.519 95.34C119.986 95.3933 120.486 95.44 121.019 95.48L120.379 97.76C119.339 97.72 118.446 97.6133 117.699 97.44C116.966 97.28 116.339 97.0533 115.819 96.76C115.312 96.4667 114.906 96.1067 114.599 95.68C114.306 95.2533 114.079 94.76 113.919 94.2C113.092 94.0933 112.326 93.8667 111.619 93.52C110.912 93.16 110.299 92.68 109.779 92.08C109.259 91.48 108.852 90.76 108.559 89.92C108.266 89.08 108.119 88.1267 108.119 87.06C108.119 85.8733 108.306 84.8333 108.679 83.94C109.052 83.0333 109.552 82.2733 110.179 81.66C110.819 81.0467 111.552 80.5867 112.379 80.28C113.219 79.9733 114.099 79.82 115.019 79.82C115.966 79.82 116.859 79.9733 117.699 80.28C118.539 80.5867 119.272 81.0467 119.899 81.66C120.526 82.2733 121.019 83.0333 121.379 83.94C121.739 84.8333 121.919 85.8733 121.919 87.06ZM133.3 93.64C132.793 93.7867 132.14 93.92 131.34 94.04C130.54 94.1733 129.7 94.24 128.82 94.24C127.927 94.24 127.18 94.12 126.58 93.88C125.993 93.64 125.527 93.3067 125.18 92.88C124.833 92.44 124.587 91.92 124.44 91.32C124.293 90.72 124.22 90.06 124.22 89.34V83.48H127.2V88.98C127.2 89.94 127.327 90.6333 127.58 91.06C127.833 91.4867 128.307 91.7 129 91.7C129.213 91.7 129.44 91.6933 129.68 91.68C129.92 91.6533 130.133 91.6267 130.32 91.6V83.48H133.3V93.64ZM140.117 91.92C140.411 91.92 140.691 91.9133 140.957 91.9C141.224 91.8867 141.437 91.8667 141.597 91.84V89.58C141.477 89.5533 141.297 89.5267 141.057 89.5C140.817 89.4733 140.597 89.46 140.397 89.46C140.117 89.46 139.851 89.48 139.597 89.52C139.357 89.5467 139.144 89.6067 138.957 89.7C138.771 89.7933 138.624 89.92 138.517 90.08C138.411 90.24 138.357 90.44 138.357 90.68C138.357 91.1467 138.511 91.4733 138.817 91.66C139.137 91.8333 139.571 91.92 140.117 91.92ZM139.877 83.2C140.757 83.2 141.491 83.3 142.077 83.5C142.664 83.7 143.131 83.9867 143.477 84.36C143.837 84.7333 144.091 85.1867 144.237 85.72C144.384 86.2533 144.457 86.8467 144.457 87.5V93.7C144.031 93.7933 143.437 93.9 142.677 94.02C141.917 94.1533 140.997 94.22 139.917 94.22C139.237 94.22 138.617 94.16 138.057 94.04C137.511 93.92 137.037 93.7267 136.637 93.46C136.237 93.18 135.931 92.82 135.717 92.38C135.504 91.94 135.397 91.4 135.397 90.76C135.397 90.1467 135.517 89.6267 135.757 89.2C136.011 88.7733 136.344 88.4333 136.757 88.18C137.171 87.9267 137.644 87.7467 138.177 87.64C138.711 87.52 139.264 87.46 139.837 87.46C140.224 87.46 140.564 87.48 140.857 87.52C141.164 87.5467 141.411 87.5867 141.597 87.64V87.36C141.597 86.8533 141.444 86.4467 141.137 86.14C140.831 85.8333 140.297 85.68 139.537 85.68C139.031 85.68 138.531 85.72 138.037 85.8C137.544 85.8667 137.117 85.9667 136.757 86.1L136.377 83.7C136.551 83.6467 136.764 83.5933 137.017 83.54C137.284 83.4733 137.571 83.42 137.877 83.38C138.184 83.3267 138.504 83.2867 138.837 83.26C139.184 83.22 139.531 83.2 139.877 83.2ZM151.352 94.2C150.485 94.1867 149.779 94.0933 149.232 93.92C148.699 93.7467 148.272 93.5067 147.952 93.2C147.645 92.88 147.432 92.5 147.312 92.06C147.205 91.6067 147.152 91.1 147.152 90.54V78.96L150.132 78.48V89.94C150.132 90.2067 150.152 90.4467 150.192 90.66C150.232 90.8733 150.305 91.0533 150.412 91.2C150.532 91.3467 150.699 91.4667 150.912 91.56C151.125 91.6533 151.412 91.7133 151.772 91.74L151.352 94.2ZM156.46 94H153.48V83.48H156.46V94ZM156.74 80.44C156.74 80.9867 156.56 81.42 156.2 81.74C155.853 82.0467 155.44 82.2 154.96 82.2C154.48 82.2 154.06 82.0467 153.7 81.74C153.353 81.42 153.18 80.9867 153.18 80.44C153.18 79.8933 153.353 79.4667 153.7 79.16C154.06 78.84 154.48 78.68 154.96 78.68C155.44 78.68 155.853 78.84 156.2 79.16C156.56 79.4667 156.74 79.8933 156.74 80.44ZM159.161 80.86L162.141 80.38V83.48H165.721V85.96H162.141V89.66C162.141 90.2867 162.248 90.7867 162.461 91.16C162.688 91.5333 163.135 91.72 163.801 91.72C164.121 91.72 164.448 91.6933 164.781 91.64C165.128 91.5733 165.441 91.4867 165.721 91.38L166.141 93.7C165.781 93.8467 165.381 93.9733 164.941 94.08C164.501 94.1867 163.961 94.24 163.321 94.24C162.508 94.24 161.835 94.1333 161.301 93.92C160.768 93.6933 160.341 93.3867 160.021 93C159.701 92.6 159.475 92.12 159.341 91.56C159.221 91 159.161 90.38 159.161 89.7V80.86ZM177.683 83.48C177.083 85.5067 176.457 87.4067 175.803 89.18C175.15 90.9533 174.437 92.6733 173.663 94.34C173.383 94.94 173.103 95.4467 172.823 95.86C172.543 96.2867 172.237 96.6333 171.903 96.9C171.57 97.18 171.19 97.38 170.763 97.5C170.35 97.6333 169.863 97.7 169.303 97.7C168.837 97.7 168.403 97.6533 168.003 97.56C167.617 97.48 167.297 97.3867 167.043 97.28L167.563 94.9C167.87 95.0067 168.143 95.08 168.383 95.12C168.623 95.16 168.877 95.18 169.143 95.18C169.677 95.18 170.083 95.0333 170.363 94.74C170.657 94.46 170.903 94.0667 171.103 93.56C170.423 92.2267 169.743 90.7333 169.063 89.08C168.383 87.4133 167.743 85.5467 167.143 83.48H170.303C170.437 84 170.59 84.5667 170.763 85.18C170.95 85.78 171.143 86.3933 171.343 87.02C171.543 87.6333 171.743 88.2333 171.943 88.82C172.157 89.4067 172.357 89.94 172.543 90.42C172.717 89.94 172.897 89.4067 173.083 88.82C173.27 88.2333 173.45 87.6333 173.623 87.02C173.81 86.3933 173.983 85.78 174.143 85.18C174.317 84.5667 174.47 84 174.603 83.48H177.683Z" fill="#1E212C"/>
<path d="M9.68306 129.24C8.9044 129.24 8.19506 129.112 7.55506 128.856C6.91506 128.6 6.36573 128.227 5.90706 127.736C5.4484 127.245 5.09106 126.643 4.83506 125.928C4.58973 125.203 4.46706 124.376 4.46706 123.448C4.46706 122.52 4.60573 121.699 4.88306 120.984C5.17106 120.259 5.55506 119.651 6.03506 119.16C6.51506 118.669 7.07506 118.296 7.71506 118.04C8.35506 117.784 9.03773 117.656 9.76306 117.656C10.2217 117.656 10.6324 117.688 10.9951 117.752C11.3684 117.816 11.6884 117.891 11.9551 117.976C12.2324 118.061 12.4564 118.147 12.6271 118.232C12.7977 118.317 12.9151 118.381 12.9791 118.424L12.5311 119.704C12.4351 119.64 12.2964 119.571 12.1151 119.496C11.9337 119.421 11.7257 119.347 11.4911 119.272C11.2671 119.197 11.0164 119.139 10.7391 119.096C10.4724 119.043 10.2004 119.016 9.92306 119.016C9.3364 119.016 8.8084 119.117 8.33906 119.32C7.86973 119.523 7.46973 119.816 7.13906 120.2C6.8084 120.584 6.5524 121.053 6.37106 121.608C6.2004 122.152 6.11506 122.765 6.11506 123.448C6.11506 124.109 6.18973 124.712 6.33906 125.256C6.49906 125.8 6.73373 126.269 7.04306 126.664C7.3524 127.048 7.7364 127.347 8.19506 127.56C8.6644 127.773 9.2084 127.88 9.82706 127.88C10.5417 127.88 11.1337 127.805 11.6031 127.656C12.0724 127.507 12.4244 127.373 12.6591 127.256L13.0591 128.536C12.9844 128.589 12.8511 128.659 12.6591 128.744C12.4671 128.819 12.2271 128.893 11.9391 128.968C11.6511 129.043 11.3151 129.107 10.9311 129.16C10.5471 129.213 10.1311 129.24 9.68306 129.24ZM21.0524 128.76C20.7111 128.845 20.2578 128.936 19.6924 129.032C19.1378 129.128 18.4924 129.176 17.7564 129.176C17.1164 129.176 16.5778 129.085 16.1404 128.904C15.7031 128.712 15.3511 128.445 15.0844 128.104C14.8178 127.763 14.6258 127.363 14.5084 126.904C14.3911 126.435 14.3324 125.917 14.3324 125.352V120.68H15.8204V125.032C15.8204 126.045 15.9804 126.771 16.3004 127.208C16.6204 127.645 17.1591 127.864 17.9164 127.864C18.0764 127.864 18.2418 127.859 18.4124 127.848C18.5831 127.837 18.7431 127.827 18.8924 127.816C19.0418 127.795 19.1751 127.779 19.2924 127.768C19.4204 127.747 19.5111 127.725 19.5644 127.704V120.68H21.0524V128.76ZM26.1119 129.16C25.1946 129.139 24.5439 128.941 24.1599 128.568C23.7759 128.195 23.5839 127.613 23.5839 126.824V116.84L25.0719 116.584V126.584C25.0719 126.829 25.0933 127.032 25.1359 127.192C25.1786 127.352 25.2479 127.48 25.3439 127.576C25.4399 127.672 25.5679 127.747 25.7279 127.8C25.8879 127.843 26.0853 127.88 26.3199 127.912L26.1119 129.16ZM33.7669 124.856C33.7669 123.885 33.5269 123.139 33.0469 122.616C32.5669 122.093 31.9269 121.832 31.1269 121.832C30.6789 121.832 30.3269 121.848 30.0709 121.88C29.8256 121.912 29.6283 121.949 29.4789 121.992V127.24C29.6603 127.389 29.9216 127.533 30.2629 127.672C30.6043 127.811 30.9776 127.88 31.3829 127.88C31.8096 127.88 32.1723 127.805 32.4709 127.656C32.7803 127.496 33.0309 127.283 33.2229 127.016C33.4149 126.739 33.5536 126.419 33.6389 126.056C33.7243 125.683 33.7669 125.283 33.7669 124.856ZM35.3189 124.856C35.3189 125.485 35.2336 126.067 35.0629 126.6C34.9029 127.133 34.6629 127.592 34.3429 127.976C34.0229 128.36 33.6283 128.659 33.1589 128.872C32.7003 129.085 32.1723 129.192 31.5749 129.192C31.0949 129.192 30.6683 129.128 30.2949 129C29.9323 128.872 29.6603 128.749 29.4789 128.632V131.96H27.9909V120.936C28.3429 120.851 28.7803 120.76 29.3029 120.664C29.8363 120.557 30.4496 120.504 31.1429 120.504C31.7829 120.504 32.3589 120.605 32.8709 120.808C33.3829 121.011 33.8203 121.299 34.1829 121.672C34.5456 122.045 34.8229 122.504 35.0149 123.048C35.2176 123.581 35.3189 124.184 35.3189 124.856ZM40.2288 127.928C40.5808 127.928 40.8901 127.923 41.1568 127.912C41.4341 127.891 41.6635 127.859 41.8448 127.816V125.336C41.7381 125.283 41.5621 125.24 41.3168 125.208C41.0821 125.165 40.7941 125.144 40.4528 125.144C40.2288 125.144 39.9888 125.16 39.7328 125.192C39.4875 125.224 39.2581 125.293 39.0448 125.4C38.8421 125.496 38.6715 125.635 38.5328 125.816C38.3941 125.987 38.3248 126.216 38.3248 126.504C38.3248 127.037 38.4955 127.411 38.8368 127.624C39.1781 127.827 39.6421 127.928 40.2288 127.928ZM40.1008 120.472C40.6981 120.472 41.1995 120.552 41.6048 120.712C42.0208 120.861 42.3515 121.08 42.5968 121.368C42.8528 121.645 43.0341 121.981 43.1408 122.376C43.2475 122.76 43.3008 123.187 43.3008 123.656V128.856C43.1728 128.877 42.9915 128.909 42.7568 128.952C42.5328 128.984 42.2768 129.016 41.9888 129.048C41.7008 129.08 41.3861 129.107 41.0448 129.128C40.7141 129.16 40.3835 129.176 40.0528 129.176C39.5835 129.176 39.1515 129.128 38.7568 129.032C38.3621 128.936 38.0208 128.787 37.7328 128.584C37.4448 128.371 37.2208 128.093 37.0608 127.752C36.9008 127.411 36.8208 127 36.8208 126.52C36.8208 126.061 36.9115 125.667 37.0928 125.336C37.2848 125.005 37.5408 124.739 37.8608 124.536C38.1808 124.333 38.5541 124.184 38.9808 124.088C39.4075 123.992 39.8555 123.944 40.3248 123.944C40.4741 123.944 40.6288 123.955 40.7888 123.976C40.9488 123.987 41.0981 124.008 41.2368 124.04C41.3861 124.061 41.5141 124.083 41.6208 124.104C41.7275 124.125 41.8021 124.141 41.8448 124.152V123.736C41.8448 123.491 41.8181 123.251 41.7648 123.016C41.7115 122.771 41.6155 122.557 41.4768 122.376C41.3381 122.184 41.1461 122.035 40.9008 121.928C40.6661 121.811 40.3568 121.752 39.9728 121.752C39.4821 121.752 39.0501 121.789 38.6768 121.864C38.3141 121.928 38.0421 121.997 37.8608 122.072L37.6848 120.84C37.8768 120.755 38.1968 120.675 38.6448 120.6C39.0928 120.515 39.5781 120.472 40.1008 120.472ZM49.4753 120.92C49.8166 120.835 50.27 120.744 50.8353 120.648C51.4006 120.552 52.0513 120.504 52.7873 120.504C53.4486 120.504 53.998 120.6 54.4353 120.792C54.8726 120.973 55.2193 121.235 55.4753 121.576C55.742 121.907 55.9286 122.307 56.0353 122.776C56.142 123.245 56.1953 123.763 56.1953 124.328V129H54.7073V124.648C54.7073 124.136 54.67 123.699 54.5953 123.336C54.5313 122.973 54.4193 122.68 54.2593 122.456C54.0993 122.232 53.886 122.072 53.6193 121.976C53.3526 121.869 53.022 121.816 52.6273 121.816C52.4673 121.816 52.302 121.821 52.1313 121.832C51.9606 121.843 51.7953 121.859 51.6353 121.88C51.486 121.891 51.3473 121.907 51.2193 121.928C51.102 121.949 51.0166 121.965 50.9633 121.976V129H49.4753V120.92ZM66.0068 124.84C66.0068 125.501 65.9108 126.099 65.7188 126.632C65.5268 127.165 65.2548 127.624 64.9028 128.008C64.5615 128.392 64.1508 128.691 63.6708 128.904C63.1908 129.107 62.6681 129.208 62.1028 129.208C61.5375 129.208 61.0148 129.107 60.5348 128.904C60.0548 128.691 59.6388 128.392 59.2868 128.008C58.9455 127.624 58.6788 127.165 58.4868 126.632C58.2948 126.099 58.1988 125.501 58.1988 124.84C58.1988 124.189 58.2948 123.597 58.4868 123.064C58.6788 122.52 58.9455 122.056 59.2868 121.672C59.6388 121.288 60.0548 120.995 60.5348 120.792C61.0148 120.579 61.5375 120.472 62.1028 120.472C62.6681 120.472 63.1908 120.579 63.6708 120.792C64.1508 120.995 64.5615 121.288 64.9028 121.672C65.2548 122.056 65.5268 122.52 65.7188 123.064C65.9108 123.597 66.0068 124.189 66.0068 124.84ZM64.4548 124.84C64.4548 123.901 64.2415 123.16 63.8148 122.616C63.3988 122.061 62.8281 121.784 62.1028 121.784C61.3775 121.784 60.8015 122.061 60.3748 122.616C59.9588 123.16 59.7508 123.901 59.7508 124.84C59.7508 125.779 59.9588 126.525 60.3748 127.08C60.8015 127.624 61.3775 127.896 62.1028 127.896C62.8281 127.896 63.3988 127.624 63.8148 127.08C64.2415 126.525 64.4548 125.779 64.4548 124.84ZM70.0363 127.928C70.6443 127.928 71.0923 127.848 71.3803 127.688C71.679 127.528 71.8283 127.272 71.8283 126.92C71.8283 126.557 71.6843 126.269 71.3963 126.056C71.1083 125.843 70.6336 125.603 69.9723 125.336C69.6523 125.208 69.343 125.08 69.0443 124.952C68.7563 124.813 68.5056 124.653 68.2923 124.472C68.079 124.291 67.9083 124.072 67.7803 123.816C67.6523 123.56 67.5883 123.245 67.5883 122.872C67.5883 122.136 67.8603 121.555 68.4043 121.128C68.9483 120.691 69.6896 120.472 70.6283 120.472C70.863 120.472 71.0976 120.488 71.3323 120.52C71.567 120.541 71.7856 120.573 71.9883 120.616C72.191 120.648 72.367 120.685 72.5163 120.728C72.6763 120.771 72.799 120.808 72.8843 120.84L72.6123 122.12C72.4523 122.035 72.2016 121.949 71.8603 121.864C71.519 121.768 71.1083 121.72 70.6283 121.72C70.2123 121.72 69.8496 121.805 69.5403 121.976C69.231 122.136 69.0763 122.392 69.0763 122.744C69.0763 122.925 69.1083 123.085 69.1723 123.224C69.247 123.363 69.3536 123.491 69.4923 123.608C69.6416 123.715 69.823 123.816 70.0363 123.912C70.2496 124.008 70.5056 124.109 70.8043 124.216C71.199 124.365 71.551 124.515 71.8603 124.664C72.1696 124.803 72.431 124.968 72.6443 125.16C72.8683 125.352 73.039 125.587 73.1563 125.864C73.2736 126.131 73.3323 126.461 73.3323 126.856C73.3323 127.624 73.0443 128.205 72.4683 128.6C71.903 128.995 71.0923 129.192 70.0363 129.192C69.3003 129.192 68.7243 129.128 68.3083 129C67.8923 128.883 67.6096 128.792 67.4603 128.728L67.7323 127.448C67.903 127.512 68.175 127.608 68.5483 127.736C68.9216 127.864 69.4176 127.928 70.0363 127.928ZM76.6329 120.68H79.7849V121.928H76.6329V125.768C76.6329 126.184 76.6649 126.531 76.7289 126.808C76.7929 127.075 76.8889 127.288 77.0169 127.448C77.1449 127.597 77.3049 127.704 77.4969 127.768C77.6889 127.832 77.9129 127.864 78.1689 127.864C78.6169 127.864 78.9743 127.816 79.2409 127.72C79.5183 127.613 79.7103 127.539 79.8169 127.496L80.1049 128.728C79.9556 128.803 79.6943 128.893 79.3209 129C78.9476 129.117 78.5209 129.176 78.0409 129.176C77.4756 129.176 77.0063 129.107 76.6329 128.968C76.2703 128.819 75.9769 128.6 75.7529 128.312C75.5289 128.024 75.3689 127.672 75.2729 127.256C75.1876 126.829 75.1449 126.339 75.1449 125.784V118.36L76.6329 118.104V120.68ZM84.7504 120.504C84.8784 120.504 85.0224 120.515 85.1824 120.536C85.3531 120.547 85.5184 120.568 85.6784 120.6C85.8384 120.621 85.9824 120.648 86.1104 120.68C86.2491 120.701 86.3504 120.723 86.4144 120.744L86.1584 122.04C86.0411 121.997 85.8438 121.949 85.5664 121.896C85.2998 121.832 84.9531 121.8 84.5264 121.8C84.2491 121.8 83.9718 121.832 83.6944 121.896C83.4278 121.949 83.2518 121.987 83.1664 122.008V129H81.6784V121.032C82.0304 120.904 82.4678 120.787 82.9904 120.68C83.5131 120.563 84.0998 120.504 84.7504 120.504ZM94.4743 128.76C94.133 128.845 93.6796 128.936 93.1143 129.032C92.5596 129.128 91.9143 129.176 91.1783 129.176C90.5383 129.176 89.9996 129.085 89.5623 128.904C89.125 128.712 88.773 128.445 88.5063 128.104C88.2396 127.763 88.0476 127.363 87.9303 126.904C87.813 126.435 87.7543 125.917 87.7543 125.352V120.68H89.2423V125.032C89.2423 126.045 89.4023 126.771 89.7223 127.208C90.0423 127.645 90.581 127.864 91.3383 127.864C91.4983 127.864 91.6636 127.859 91.8343 127.848C92.005 127.837 92.165 127.827 92.3143 127.816C92.4636 127.795 92.597 127.779 92.7143 127.768C92.8423 127.747 92.933 127.725 92.9863 127.704V120.68H94.4743V128.76ZM102.414 122.44C102.232 122.291 101.971 122.147 101.63 122.008C101.288 121.869 100.915 121.8 100.51 121.8C100.083 121.8 99.7151 121.88 99.4058 122.04C99.1071 122.189 98.8618 122.403 98.6698 122.68C98.4778 122.947 98.3391 123.267 98.2538 123.64C98.1685 124.013 98.1258 124.413 98.1258 124.84C98.1258 125.811 98.3658 126.563 98.8458 127.096C99.3258 127.619 99.9658 127.88 100.766 127.88C101.171 127.88 101.507 127.864 101.774 127.832C102.051 127.789 102.264 127.747 102.414 127.704V122.44ZM102.414 116.84L103.902 116.584V128.76C103.56 128.856 103.123 128.952 102.59 129.048C102.056 129.144 101.443 129.192 100.75 129.192C100.11 129.192 99.5338 129.091 99.0218 128.888C98.5098 128.685 98.0725 128.397 97.7098 128.024C97.3471 127.651 97.0645 127.197 96.8618 126.664C96.6698 126.12 96.5738 125.512 96.5738 124.84C96.5738 124.2 96.6538 123.613 96.8138 123.08C96.9845 122.547 97.2298 122.088 97.5498 121.704C97.8698 121.32 98.2591 121.021 98.7178 120.808C99.1871 120.595 99.7205 120.488 100.318 120.488C100.798 120.488 101.219 120.552 101.582 120.68C101.955 120.808 102.232 120.931 102.414 121.048V116.84ZM113.779 129.192C113.107 129.192 112.515 129.085 112.003 128.872C111.501 128.659 111.075 128.36 110.723 127.976C110.381 127.592 110.125 127.139 109.955 126.616C109.784 126.083 109.699 125.496 109.699 124.856C109.699 124.216 109.789 123.629 109.971 123.096C110.163 122.563 110.429 122.104 110.771 121.72C111.112 121.325 111.528 121.021 112.019 120.808C112.52 120.584 113.075 120.472 113.683 120.472C114.056 120.472 114.429 120.504 114.803 120.568C115.176 120.632 115.533 120.733 115.875 120.872L115.539 122.136C115.315 122.029 115.053 121.944 114.755 121.88C114.467 121.816 114.157 121.784 113.827 121.784C112.995 121.784 112.355 122.045 111.907 122.568C111.469 123.091 111.251 123.853 111.251 124.856C111.251 125.304 111.299 125.715 111.395 126.088C111.501 126.461 111.661 126.781 111.875 127.048C112.099 127.315 112.381 127.523 112.723 127.672C113.064 127.811 113.48 127.88 113.971 127.88C114.365 127.88 114.723 127.843 115.043 127.768C115.363 127.693 115.613 127.613 115.795 127.528L116.003 128.776C115.917 128.829 115.795 128.883 115.635 128.936C115.475 128.979 115.293 129.016 115.091 129.048C114.888 129.091 114.669 129.123 114.435 129.144C114.211 129.176 113.992 129.192 113.779 129.192ZM124.741 124.84C124.741 125.501 124.645 126.099 124.453 126.632C124.261 127.165 123.989 127.624 123.637 128.008C123.296 128.392 122.885 128.691 122.405 128.904C121.925 129.107 121.403 129.208 120.837 129.208C120.272 129.208 119.749 129.107 119.269 128.904C118.789 128.691 118.373 128.392 118.021 128.008C117.68 127.624 117.413 127.165 117.221 126.632C117.029 126.099 116.933 125.501 116.933 124.84C116.933 124.189 117.029 123.597 117.221 123.064C117.413 122.52 117.68 122.056 118.021 121.672C118.373 121.288 118.789 120.995 119.269 120.792C119.749 120.579 120.272 120.472 120.837 120.472C121.403 120.472 121.925 120.579 122.405 120.792C122.885 120.995 123.296 121.288 123.637 121.672C123.989 122.056 124.261 122.52 124.453 123.064C124.645 123.597 124.741 124.189 124.741 124.84ZM123.189 124.84C123.189 123.901 122.976 123.16 122.549 122.616C122.133 122.061 121.563 121.784 120.837 121.784C120.112 121.784 119.536 122.061 119.109 122.616C118.693 123.16 118.485 123.901 118.485 124.84C118.485 125.779 118.693 126.525 119.109 127.08C119.536 127.624 120.112 127.896 120.837 127.896C121.563 127.896 122.133 127.624 122.549 127.08C122.976 126.525 123.189 125.779 123.189 124.84ZM126.835 120.92C127.176 120.835 127.624 120.744 128.179 120.648C128.744 120.552 129.395 120.504 130.131 120.504C130.664 120.504 131.112 120.579 131.475 120.728C131.837 120.867 132.141 121.075 132.387 121.352C132.461 121.299 132.579 121.224 132.739 121.128C132.899 121.032 133.096 120.941 133.331 120.856C133.565 120.76 133.827 120.68 134.115 120.616C134.403 120.541 134.712 120.504 135.043 120.504C135.683 120.504 136.205 120.6 136.611 120.792C137.016 120.973 137.331 121.235 137.555 121.576C137.789 121.917 137.944 122.323 138.019 122.792C138.104 123.261 138.147 123.773 138.147 124.328V129H136.659V124.648C136.659 124.157 136.632 123.736 136.579 123.384C136.536 123.032 136.445 122.739 136.307 122.504C136.179 122.269 135.997 122.099 135.763 121.992C135.539 121.875 135.245 121.816 134.883 121.816C134.381 121.816 133.965 121.885 133.635 122.024C133.315 122.152 133.096 122.269 132.979 122.376C133.064 122.653 133.128 122.957 133.171 123.288C133.213 123.619 133.235 123.965 133.235 124.328V129H131.747V124.648C131.747 124.157 131.72 123.736 131.667 123.384C131.613 123.032 131.517 122.739 131.379 122.504C131.251 122.269 131.069 122.099 130.835 121.992C130.611 121.875 130.323 121.816 129.971 121.816C129.821 121.816 129.661 121.821 129.491 121.832C129.32 121.843 129.155 121.859 128.995 121.88C128.845 121.891 128.707 121.907 128.579 121.928C128.451 121.949 128.365 121.965 128.323 121.976V129H126.835V120.92ZM140.616 120.92C140.957 120.835 141.405 120.744 141.96 120.648C142.525 120.552 143.176 120.504 143.912 120.504C144.445 120.504 144.893 120.579 145.256 120.728C145.619 120.867 145.923 121.075 146.168 121.352C146.243 121.299 146.36 121.224 146.52 121.128C146.68 121.032 146.877 120.941 147.112 120.856C147.347 120.76 147.608 120.68 147.896 120.616C148.184 120.541 148.493 120.504 148.824 120.504C149.464 120.504 149.987 120.6 150.392 120.792C150.797 120.973 151.112 121.235 151.336 121.576C151.571 121.917 151.725 122.323 151.8 122.792C151.885 123.261 151.928 123.773 151.928 124.328V129H150.44V124.648C150.44 124.157 150.413 123.736 150.36 123.384C150.317 123.032 150.227 122.739 150.088 122.504C149.96 122.269 149.779 122.099 149.544 121.992C149.32 121.875 149.027 121.816 148.664 121.816C148.163 121.816 147.747 121.885 147.416 122.024C147.096 122.152 146.877 122.269 146.76 122.376C146.845 122.653 146.909 122.957 146.952 123.288C146.995 123.619 147.016 123.965 147.016 124.328V129H145.528V124.648C145.528 124.157 145.501 123.736 145.448 123.384C145.395 123.032 145.299 122.739 145.16 122.504C145.032 122.269 144.851 122.099 144.616 121.992C144.392 121.875 144.104 121.816 143.752 121.816C143.603 121.816 143.443 121.821 143.272 121.832C143.101 121.843 142.936 121.859 142.776 121.88C142.627 121.891 142.488 121.907 142.36 121.928C142.232 121.949 142.147 121.965 142.104 121.976V129H140.616V120.92ZM161.741 124.84C161.741 125.501 161.645 126.099 161.453 126.632C161.261 127.165 160.989 127.624 160.637 128.008C160.296 128.392 159.885 128.691 159.405 128.904C158.925 129.107 158.403 129.208 157.837 129.208C157.272 129.208 156.749 129.107 156.269 128.904C155.789 128.691 155.373 128.392 155.021 128.008C154.68 127.624 154.413 127.165 154.221 126.632C154.029 126.099 153.933 125.501 153.933 124.84C153.933 124.189 154.029 123.597 154.221 123.064C154.413 122.52 154.68 122.056 155.021 121.672C155.373 121.288 155.789 120.995 156.269 120.792C156.749 120.579 157.272 120.472 157.837 120.472C158.403 120.472 158.925 120.579 159.405 120.792C159.885 120.995 160.296 121.288 160.637 121.672C160.989 122.056 161.261 122.52 161.453 123.064C161.645 123.597 161.741 124.189 161.741 124.84ZM160.189 124.84C160.189 123.901 159.976 123.16 159.549 122.616C159.133 122.061 158.563 121.784 157.837 121.784C157.112 121.784 156.536 122.061 156.109 122.616C155.693 123.16 155.485 123.901 155.485 124.84C155.485 125.779 155.693 126.525 156.109 127.08C156.536 127.624 157.112 127.896 157.837 127.896C158.563 127.896 159.133 127.624 159.549 127.08C159.976 126.525 160.189 125.779 160.189 124.84ZM169.211 122.44C169.029 122.291 168.768 122.147 168.427 122.008C168.085 121.869 167.712 121.8 167.307 121.8C166.88 121.8 166.512 121.88 166.203 122.04C165.904 122.189 165.659 122.403 165.467 122.68C165.275 122.947 165.136 123.267 165.051 123.64C164.965 124.013 164.923 124.413 164.923 124.84C164.923 125.811 165.163 126.563 165.643 127.096C166.123 127.619 166.763 127.88 167.563 127.88C167.968 127.88 168.304 127.864 168.571 127.832C168.848 127.789 169.061 127.747 169.211 127.704V122.44ZM169.211 116.84L170.699 116.584V128.76C170.357 128.856 169.92 128.952 169.387 129.048C168.853 129.144 168.24 129.192 167.547 129.192C166.907 129.192 166.331 129.091 165.819 128.888C165.307 128.685 164.869 128.397 164.507 128.024C164.144 127.651 163.861 127.197 163.659 126.664C163.467 126.12 163.371 125.512 163.371 124.84C163.371 124.2 163.451 123.613 163.611 123.08C163.781 122.547 164.027 122.088 164.347 121.704C164.667 121.32 165.056 121.021 165.515 120.808C165.984 120.595 166.517 120.488 167.115 120.488C167.595 120.488 168.016 120.552 168.379 120.68C168.752 120.808 169.029 120.931 169.211 121.048V116.84ZM180.601 124.84C180.601 125.501 180.505 126.099 180.313 126.632C180.121 127.165 179.849 127.624 179.497 128.008C179.155 128.392 178.745 128.691 178.265 128.904C177.785 129.107 177.262 129.208 176.697 129.208C176.131 129.208 175.609 129.107 175.129 128.904C174.649 128.691 174.233 128.392 173.881 128.008C173.539 127.624 173.273 127.165 173.081 126.632C172.889 126.099 172.793 125.501 172.793 124.84C172.793 124.189 172.889 123.597 173.081 123.064C173.273 122.52 173.539 122.056 173.881 121.672C174.233 121.288 174.649 120.995 175.129 120.792C175.609 120.579 176.131 120.472 176.697 120.472C177.262 120.472 177.785 120.579 178.265 120.792C178.745 120.995 179.155 121.288 179.497 121.672C179.849 122.056 180.121 122.52 180.313 123.064C180.505 123.597 180.601 124.189 180.601 124.84ZM179.049 124.84C179.049 123.901 178.835 123.16 178.409 122.616C177.993 122.061 177.422 121.784 176.697 121.784C175.971 121.784 175.395 122.061 174.969 122.616C174.553 123.16 174.345 123.901 174.345 124.84C174.345 125.779 174.553 126.525 174.969 127.08C175.395 127.624 175.971 127.896 176.697 127.896C177.422 127.896 177.993 127.624 178.409 127.08C178.835 126.525 179.049 125.779 179.049 124.84ZM185.933 124.856C185.933 124.12 186.04 123.48 186.253 122.936C186.467 122.381 186.749 121.923 187.101 121.56C187.453 121.197 187.859 120.925 188.317 120.744C188.776 120.563 189.245 120.472 189.725 120.472C190.845 120.472 191.704 120.824 192.301 121.528C192.899 122.221 193.197 123.283 193.197 124.712C193.197 124.776 193.197 124.861 193.197 124.968C193.197 125.064 193.192 125.155 193.181 125.24H187.485C187.549 126.104 187.8 126.76 188.237 127.208C188.675 127.656 189.357 127.88 190.285 127.88C190.808 127.88 191.245 127.837 191.597 127.752C191.96 127.656 192.232 127.565 192.413 127.48L192.621 128.728C192.44 128.824 192.12 128.925 191.661 129.032C191.213 129.139 190.701 129.192 190.125 129.192C189.4 129.192 188.771 129.085 188.237 128.872C187.715 128.648 187.283 128.344 186.941 127.96C186.6 127.576 186.344 127.123 186.173 126.6C186.013 126.067 185.933 125.485 185.933 124.856ZM191.645 124.04C191.656 123.368 191.485 122.819 191.133 122.392C190.792 121.955 190.317 121.736 189.709 121.736C189.368 121.736 189.064 121.805 188.797 121.944C188.541 122.072 188.323 122.243 188.141 122.456C187.96 122.669 187.816 122.915 187.709 123.192C187.613 123.469 187.549 123.752 187.517 124.04H191.645ZM198.151 127.928C198.503 127.928 198.812 127.923 199.079 127.912C199.356 127.891 199.585 127.859 199.767 127.816V125.336C199.66 125.283 199.484 125.24 199.239 125.208C199.004 125.165 198.716 125.144 198.375 125.144C198.151 125.144 197.911 125.16 197.655 125.192C197.409 125.224 197.18 125.293 196.967 125.4C196.764 125.496 196.593 125.635 196.455 125.816C196.316 125.987 196.247 126.216 196.247 126.504C196.247 127.037 196.417 127.411 196.759 127.624C197.1 127.827 197.564 127.928 198.151 127.928ZM198.023 120.472C198.62 120.472 199.121 120.552 199.527 120.712C199.943 120.861 200.273 121.08 200.519 121.368C200.775 121.645 200.956 121.981 201.063 122.376C201.169 122.76 201.223 123.187 201.223 123.656V128.856C201.095 128.877 200.913 128.909 200.679 128.952C200.455 128.984 200.199 129.016 199.911 129.048C199.623 129.08 199.308 129.107 198.967 129.128C198.636 129.16 198.305 129.176 197.975 129.176C197.505 129.176 197.073 129.128 196.679 129.032C196.284 128.936 195.943 128.787 195.655 128.584C195.367 128.371 195.143 128.093 194.983 127.752C194.823 127.411 194.743 127 194.743 126.52C194.743 126.061 194.833 125.667 195.015 125.336C195.207 125.005 195.463 124.739 195.783 124.536C196.103 124.333 196.476 124.184 196.903 124.088C197.329 123.992 197.777 123.944 198.247 123.944C198.396 123.944 198.551 123.955 198.711 123.976C198.871 123.987 199.02 124.008 199.159 124.04C199.308 124.061 199.436 124.083 199.543 124.104C199.649 124.125 199.724 124.141 199.767 124.152V123.736C199.767 123.491 199.74 123.251 199.687 123.016C199.633 122.771 199.537 122.557 199.399 122.376C199.26 122.184 199.068 122.035 198.823 121.928C198.588 121.811 198.279 121.752 197.895 121.752C197.404 121.752 196.972 121.789 196.599 121.864C196.236 121.928 195.964 121.997 195.783 122.072L195.607 120.84C195.799 120.755 196.119 120.675 196.567 120.6C197.015 120.515 197.5 120.472 198.023 120.472ZM211.013 129.192C210.341 129.192 209.749 129.085 209.237 128.872C208.736 128.659 208.309 128.36 207.957 127.976C207.616 127.592 207.36 127.139 207.189 126.616C207.019 126.083 206.933 125.496 206.933 124.856C206.933 124.216 207.024 123.629 207.205 123.096C207.397 122.563 207.664 122.104 208.005 121.72C208.347 121.325 208.763 121.021 209.253 120.808C209.755 120.584 210.309 120.472 210.917 120.472C211.291 120.472 211.664 120.504 212.037 120.568C212.411 120.632 212.768 120.733 213.109 120.872L212.773 122.136C212.549 122.029 212.288 121.944 211.989 121.88C211.701 121.816 211.392 121.784 211.061 121.784C210.229 121.784 209.589 122.045 209.141 122.568C208.704 123.091 208.485 123.853 208.485 124.856C208.485 125.304 208.533 125.715 208.629 126.088C208.736 126.461 208.896 126.781 209.109 127.048C209.333 127.315 209.616 127.523 209.957 127.672C210.299 127.811 210.715 127.88 211.205 127.88C211.6 127.88 211.957 127.843 212.277 127.768C212.597 127.693 212.848 127.613 213.029 127.528L213.237 128.776C213.152 128.829 213.029 128.883 212.869 128.936C212.709 128.979 212.528 129.016 212.325 129.048C212.123 129.091 211.904 129.123 211.669 129.144C211.445 129.176 211.227 129.192 211.013 129.192ZM221.976 124.84C221.976 125.501 221.88 126.099 221.688 126.632C221.496 127.165 221.224 127.624 220.872 128.008C220.53 128.392 220.12 128.691 219.64 128.904C219.16 129.107 218.637 129.208 218.072 129.208C217.506 129.208 216.984 129.107 216.504 128.904C216.024 128.691 215.608 128.392 215.256 128.008C214.914 127.624 214.648 127.165 214.456 126.632C214.264 126.099 214.168 125.501 214.168 124.84C214.168 124.189 214.264 123.597 214.456 123.064C214.648 122.52 214.914 122.056 215.256 121.672C215.608 121.288 216.024 120.995 216.504 120.792C216.984 120.579 217.506 120.472 218.072 120.472C218.637 120.472 219.16 120.579 219.64 120.792C220.12 120.995 220.53 121.288 220.872 121.672C221.224 122.056 221.496 122.52 221.688 123.064C221.88 123.597 221.976 124.189 221.976 124.84ZM220.424 124.84C220.424 123.901 220.21 123.16 219.784 122.616C219.368 122.061 218.797 121.784 218.072 121.784C217.346 121.784 216.77 122.061 216.344 122.616C215.928 123.16 215.72 123.901 215.72 124.84C215.72 125.779 215.928 126.525 216.344 127.08C216.77 127.624 217.346 127.896 218.072 127.896C218.797 127.896 219.368 127.624 219.784 127.08C220.21 126.525 220.424 125.779 220.424 124.84ZM224.069 120.92C224.41 120.835 224.864 120.744 225.429 120.648C225.994 120.552 226.645 120.504 227.381 120.504C228.042 120.504 228.592 120.6 229.029 120.792C229.466 120.973 229.813 121.235 230.069 121.576C230.336 121.907 230.522 122.307 230.629 122.776C230.736 123.245 230.789 123.763 230.789 124.328V129H229.301V124.648C229.301 124.136 229.264 123.699 229.189 123.336C229.125 122.973 229.013 122.68 228.853 122.456C228.693 122.232 228.48 122.072 228.213 121.976C227.946 121.869 227.616 121.816 227.221 121.816C227.061 121.816 226.896 121.821 226.725 121.832C226.554 121.843 226.389 121.859 226.229 121.88C226.08 121.891 225.941 121.907 225.813 121.928C225.696 121.949 225.61 121.965 225.557 121.976V129H224.069V120.92ZM235.193 127.928C235.801 127.928 236.249 127.848 236.537 127.688C236.835 127.528 236.985 127.272 236.985 126.92C236.985 126.557 236.841 126.269 236.553 126.056C236.265 125.843 235.79 125.603 235.129 125.336C234.809 125.208 234.499 125.08 234.201 124.952C233.913 124.813 233.662 124.653 233.449 124.472C233.235 124.291 233.065 124.072 232.937 123.816C232.809 123.56 232.745 123.245 232.745 122.872C232.745 122.136 233.017 121.555 233.561 121.128C234.105 120.691 234.846 120.472 235.785 120.472C236.019 120.472 236.254 120.488 236.489 120.52C236.723 120.541 236.942 120.573 237.145 120.616C237.347 120.648 237.523 120.685 237.673 120.728C237.833 120.771 237.955 120.808 238.041 120.84L237.769 122.12C237.609 122.035 237.358 121.949 237.017 121.864C236.675 121.768 236.265 121.72 235.785 121.72C235.369 121.72 235.006 121.805 234.697 121.976C234.387 122.136 234.233 122.392 234.233 122.744C234.233 122.925 234.265 123.085 234.329 123.224C234.403 123.363 234.51 123.491 234.649 123.608C234.798 123.715 234.979 123.816 235.193 123.912C235.406 124.008 235.662 124.109 235.961 124.216C236.355 124.365 236.707 124.515 237.017 124.664C237.326 124.803 237.587 124.968 237.801 125.16C238.025 125.352 238.195 125.587 238.313 125.864C238.43 126.131 238.489 126.461 238.489 126.856C238.489 127.624 238.201 128.205 237.625 128.6C237.059 128.995 236.249 129.192 235.193 129.192C234.457 129.192 233.881 129.128 233.465 129C233.049 128.883 232.766 128.792 232.617 128.728L232.889 127.448C233.059 127.512 233.331 127.608 233.705 127.736C234.078 127.864 234.574 127.928 235.193 127.928ZM239.933 124.856C239.933 124.12 240.04 123.48 240.253 122.936C240.467 122.381 240.749 121.923 241.101 121.56C241.453 121.197 241.859 120.925 242.317 120.744C242.776 120.563 243.245 120.472 243.725 120.472C244.845 120.472 245.704 120.824 246.301 121.528C246.899 122.221 247.197 123.283 247.197 124.712C247.197 124.776 247.197 124.861 247.197 124.968C247.197 125.064 247.192 125.155 247.181 125.24H241.485C241.549 126.104 241.8 126.76 242.237 127.208C242.675 127.656 243.357 127.88 244.285 127.88C244.808 127.88 245.245 127.837 245.597 127.752C245.96 127.656 246.232 127.565 246.413 127.48L246.621 128.728C246.44 128.824 246.12 128.925 245.661 129.032C245.213 129.139 244.701 129.192 244.125 129.192C243.4 129.192 242.771 129.085 242.237 128.872C241.715 128.648 241.283 128.344 240.941 127.96C240.6 127.576 240.344 127.123 240.173 126.6C240.013 126.067 239.933 125.485 239.933 124.856ZM245.645 124.04C245.656 123.368 245.485 122.819 245.133 122.392C244.792 121.955 244.317 121.736 243.709 121.736C243.368 121.736 243.064 121.805 242.797 121.944C242.541 122.072 242.323 122.243 242.141 122.456C241.96 122.669 241.816 122.915 241.709 123.192C241.613 123.469 241.549 123.752 241.517 124.04H245.645ZM250.423 124.856C250.423 125.283 250.465 125.683 250.551 126.056C250.636 126.419 250.775 126.739 250.967 127.016C251.159 127.283 251.404 127.496 251.703 127.656C252.012 127.805 252.38 127.88 252.807 127.88C253.212 127.88 253.585 127.811 253.927 127.672C254.268 127.533 254.529 127.389 254.711 127.24V121.992C254.561 121.949 254.359 121.912 254.103 121.88C253.857 121.848 253.511 121.832 253.063 121.832C252.263 121.832 251.623 122.093 251.143 122.616C250.663 123.139 250.423 123.885 250.423 124.856ZM248.871 124.856C248.871 124.184 248.967 123.581 249.159 123.048C249.361 122.504 249.644 122.045 250.007 121.672C250.369 121.299 250.807 121.011 251.319 120.808C251.831 120.605 252.407 120.504 253.047 120.504C253.74 120.504 254.348 120.557 254.871 120.664C255.404 120.76 255.847 120.851 256.199 120.936V131.96H254.711V128.632C254.529 128.749 254.252 128.872 253.879 129C253.516 129.128 253.095 129.192 252.615 129.192C252.017 129.192 251.484 129.085 251.015 128.872C250.556 128.659 250.167 128.36 249.847 127.976C249.527 127.592 249.281 127.133 249.111 126.6C248.951 126.067 248.871 125.485 248.871 124.856ZM265.381 128.76C265.039 128.845 264.586 128.936 264.021 129.032C263.466 129.128 262.821 129.176 262.085 129.176C261.445 129.176 260.906 129.085 260.469 128.904C260.031 128.712 259.679 128.445 259.413 128.104C259.146 127.763 258.954 127.363 258.837 126.904C258.719 126.435 258.661 125.917 258.661 125.352V120.68H260.149V125.032C260.149 126.045 260.309 126.771 260.629 127.208C260.949 127.645 261.487 127.864 262.245 127.864C262.405 127.864 262.57 127.859 262.741 127.848C262.911 127.837 263.071 127.827 263.221 127.816C263.37 127.795 263.503 127.779 263.621 127.768C263.749 127.747 263.839 127.725 263.893 127.704V120.68H265.381V128.76ZM270.76 127.928C271.112 127.928 271.421 127.923 271.688 127.912C271.965 127.891 272.195 127.859 272.376 127.816V125.336C272.269 125.283 272.093 125.24 271.848 125.208C271.613 125.165 271.325 125.144 270.984 125.144C270.76 125.144 270.52 125.16 270.264 125.192C270.019 125.224 269.789 125.293 269.576 125.4C269.373 125.496 269.203 125.635 269.064 125.816C268.925 125.987 268.856 126.216 268.856 126.504C268.856 127.037 269.027 127.411 269.368 127.624C269.709 127.827 270.173 127.928 270.76 127.928ZM270.632 120.472C271.229 120.472 271.731 120.552 272.136 120.712C272.552 120.861 272.883 121.08 273.128 121.368C273.384 121.645 273.565 121.981 273.672 122.376C273.779 122.76 273.832 123.187 273.832 123.656V128.856C273.704 128.877 273.523 128.909 273.288 128.952C273.064 128.984 272.808 129.016 272.52 129.048C272.232 129.08 271.917 129.107 271.576 129.128C271.245 129.16 270.915 129.176 270.584 129.176C270.115 129.176 269.683 129.128 269.288 129.032C268.893 128.936 268.552 128.787 268.264 128.584C267.976 128.371 267.752 128.093 267.592 127.752C267.432 127.411 267.352 127 267.352 126.52C267.352 126.061 267.443 125.667 267.624 125.336C267.816 125.005 268.072 124.739 268.392 124.536C268.712 124.333 269.085 124.184 269.512 124.088C269.939 123.992 270.387 123.944 270.856 123.944C271.005 123.944 271.16 123.955 271.32 123.976C271.48 123.987 271.629 124.008 271.768 124.04C271.917 124.061 272.045 124.083 272.152 124.104C272.259 124.125 272.333 124.141 272.376 124.152V123.736C272.376 123.491 272.349 123.251 272.296 123.016C272.243 122.771 272.147 122.557 272.008 122.376C271.869 122.184 271.677 122.035 271.432 121.928C271.197 121.811 270.888 121.752 270.504 121.752C270.013 121.752 269.581 121.789 269.208 121.864C268.845 121.928 268.573 121.997 268.392 122.072L268.216 120.84C268.408 120.755 268.728 120.675 269.176 120.6C269.624 120.515 270.109 120.472 270.632 120.472ZM277.695 120.68H280.847V121.928H277.695V125.768C277.695 126.184 277.727 126.531 277.791 126.808C277.855 127.075 277.951 127.288 278.079 127.448C278.207 127.597 278.367 127.704 278.559 127.768C278.751 127.832 278.975 127.864 279.231 127.864C279.679 127.864 280.037 127.816 280.303 127.72C280.581 127.613 280.773 127.539 280.879 127.496L281.167 128.728C281.018 128.803 280.757 128.893 280.383 129C280.01 129.117 279.583 129.176 279.103 129.176C278.538 129.176 278.069 129.107 277.695 128.968C277.333 128.819 277.039 128.6 276.815 128.312C276.591 128.024 276.431 127.672 276.335 127.256C276.25 126.829 276.207 126.339 276.207 125.784V118.36L277.695 118.104V120.68ZM20.7444 153.928C21.0964 153.928 21.4058 153.923 21.6724 153.912C21.9498 153.891 22.1791 153.859 22.3604 153.816V151.336C22.2538 151.283 22.0778 151.24 21.8324 151.208C21.5978 151.165 21.3098 151.144 20.9684 151.144C20.7444 151.144 20.5044 151.16 20.2484 151.192C20.0031 151.224 19.7738 151.293 19.5604 151.4C19.3578 151.496 19.1871 151.635 19.0484 151.816C18.9098 151.987 18.8404 152.216 18.8404 152.504C18.8404 153.037 19.0111 153.411 19.3524 153.624C19.6938 153.827 20.1578 153.928 20.7444 153.928ZM20.6164 146.472C21.2138 146.472 21.7151 146.552 22.1204 146.712C22.5364 146.861 22.8671 147.08 23.1124 147.368C23.3684 147.645 23.5498 147.981 23.6564 148.376C23.7631 148.76 23.8164 149.187 23.8164 149.656V154.856C23.6884 154.877 23.5071 154.909 23.2724 154.952C23.0484 154.984 22.7924 155.016 22.5044 155.048C22.2164 155.08 21.9018 155.107 21.5604 155.128C21.2298 155.16 20.8991 155.176 20.5684 155.176C20.0991 155.176 19.6671 155.128 19.2724 155.032C18.8778 154.936 18.5364 154.787 18.2484 154.584C17.9604 154.371 17.7364 154.093 17.5764 153.752C17.4164 153.411 17.3364 153 17.3364 152.52C17.3364 152.061 17.4271 151.667 17.6084 151.336C17.8004 151.005 18.0564 150.739 18.3764 150.536C18.6964 150.333 19.0698 150.184 19.4964 150.088C19.9231 149.992 20.3711 149.944 20.8404 149.944C20.9898 149.944 21.1444 149.955 21.3044 149.976C21.4644 149.987 21.6138 150.008 21.7524 150.04C21.9018 150.061 22.0298 150.083 22.1364 150.104C22.2431 150.125 22.3178 150.141 22.3604 150.152V149.736C22.3604 149.491 22.3338 149.251 22.2804 149.016C22.2271 148.771 22.1311 148.557 21.9924 148.376C21.8538 148.184 21.6618 148.035 21.4164 147.928C21.1818 147.811 20.8724 147.752 20.4884 147.752C19.9978 147.752 19.5658 147.789 19.1924 147.864C18.8298 147.928 18.5578 147.997 18.3764 148.072L18.2004 146.84C18.3924 146.755 18.7124 146.675 19.1604 146.6C19.6084 146.515 20.0938 146.472 20.6164 146.472ZM28.7838 155.16C27.8665 155.139 27.2158 154.941 26.8318 154.568C26.4478 154.195 26.2558 153.613 26.2558 152.824V142.84L27.7438 142.584V152.584C27.7438 152.829 27.7651 153.032 27.8078 153.192C27.8505 153.352 27.9198 153.48 28.0158 153.576C28.1118 153.672 28.2398 153.747 28.3998 153.8C28.5598 153.843 28.7571 153.88 28.9918 153.912L28.7838 155.16ZM32.1508 155H30.6628V146.68H32.1508V155ZM31.3988 145.176C31.1321 145.176 30.9028 145.091 30.7108 144.92C30.5295 144.739 30.4388 144.499 30.4388 144.2C30.4388 143.901 30.5295 143.667 30.7108 143.496C30.9028 143.315 31.1321 143.224 31.3988 143.224C31.6655 143.224 31.8895 143.315 32.0708 143.496C32.2628 143.667 32.3588 143.901 32.3588 144.2C32.3588 144.499 32.2628 144.739 32.0708 144.92C31.8895 145.091 31.6655 145.176 31.3988 145.176ZM35.7977 150.856C35.7977 151.283 35.8404 151.683 35.9257 152.056C36.011 152.419 36.1497 152.739 36.3417 153.016C36.5337 153.283 36.779 153.496 37.0777 153.656C37.387 153.805 37.755 153.88 38.1817 153.88C38.587 153.88 38.9604 153.811 39.3017 153.672C39.643 153.533 39.9044 153.389 40.0857 153.24V147.992C39.9364 147.949 39.7337 147.912 39.4777 147.88C39.2324 147.848 38.8857 147.832 38.4377 147.832C37.6377 147.832 36.9977 148.093 36.5177 148.616C36.0377 149.139 35.7977 149.885 35.7977 150.856ZM34.2457 150.856C34.2457 150.184 34.3417 149.581 34.5337 149.048C34.7364 148.504 35.019 148.045 35.3817 147.672C35.7444 147.299 36.1817 147.011 36.6937 146.808C37.2057 146.605 37.7817 146.504 38.4217 146.504C39.115 146.504 39.723 146.557 40.2457 146.664C40.779 146.76 41.2217 146.851 41.5737 146.936V157.96H40.0857V154.632C39.9044 154.749 39.627 154.872 39.2537 155C38.891 155.128 38.4697 155.192 37.9897 155.192C37.3924 155.192 36.859 155.085 36.3897 154.872C35.931 154.659 35.5417 154.36 35.2217 153.976C34.9017 153.592 34.6564 153.133 34.4857 152.6C34.3257 152.067 34.2457 151.485 34.2457 150.856ZM50.7556 154.76C50.4142 154.845 49.9609 154.936 49.3956 155.032C48.8409 155.128 48.1956 155.176 47.4596 155.176C46.8196 155.176 46.2809 155.085 45.8436 154.904C45.4062 154.712 45.0542 154.445 44.7876 154.104C44.5209 153.763 44.3289 153.363 44.2116 152.904C44.0942 152.435 44.0356 151.917 44.0356 151.352V146.68H45.5236V151.032C45.5236 152.045 45.6836 152.771 46.0036 153.208C46.3236 153.645 46.8622 153.864 47.6196 153.864C47.7796 153.864 47.9449 153.859 48.1156 153.848C48.2862 153.837 48.4462 153.827 48.5956 153.816C48.7449 153.795 48.8782 153.779 48.9956 153.768C49.1236 153.747 49.2142 153.725 49.2676 153.704V146.68H50.7556V154.76ZM54.8071 155H53.3191V146.68H54.8071V155ZM54.0551 145.176C53.7884 145.176 53.5591 145.091 53.3671 144.92C53.1857 144.739 53.0951 144.499 53.0951 144.2C53.0951 143.901 53.1857 143.667 53.3671 143.496C53.5591 143.315 53.7884 143.224 54.0551 143.224C54.3217 143.224 54.5457 143.315 54.7271 143.496C54.9191 143.667 55.0151 143.901 55.0151 144.2C55.0151 144.499 54.9191 144.739 54.7271 144.92C54.5457 145.091 54.3217 145.176 54.0551 145.176ZM63.1419 150.856C63.1419 149.885 62.9019 149.139 62.4219 148.616C61.9419 148.093 61.3019 147.832 60.5019 147.832C60.0539 147.832 59.7019 147.848 59.4459 147.88C59.2006 147.912 59.0033 147.949 58.8539 147.992V153.24C59.0353 153.389 59.2966 153.533 59.6379 153.672C59.9793 153.811 60.3526 153.88 60.7579 153.88C61.1846 153.88 61.5473 153.805 61.8459 153.656C62.1553 153.496 62.4059 153.283 62.5979 153.016C62.7899 152.739 62.9286 152.419 63.0139 152.056C63.0993 151.683 63.1419 151.283 63.1419 150.856ZM64.6939 150.856C64.6939 151.485 64.6086 152.067 64.4379 152.6C64.2779 153.133 64.0379 153.592 63.7179 153.976C63.3979 154.36 63.0033 154.659 62.5339 154.872C62.0753 155.085 61.5473 155.192 60.9499 155.192C60.4699 155.192 60.0433 155.128 59.6699 155C59.3073 154.872 59.0353 154.749 58.8539 154.632V157.96H57.3659V146.936C57.7179 146.851 58.1553 146.76 58.6779 146.664C59.2113 146.557 59.8246 146.504 60.5179 146.504C61.1579 146.504 61.7339 146.605 62.2459 146.808C62.7579 147.011 63.1953 147.299 63.5579 147.672C63.9206 148.045 64.1979 148.504 64.3899 149.048C64.5926 149.581 64.6939 150.184 64.6939 150.856ZM73.5629 146.504C73.6909 146.504 73.8349 146.515 73.9949 146.536C74.1656 146.547 74.3309 146.568 74.4909 146.6C74.6509 146.621 74.7949 146.648 74.9229 146.68C75.0616 146.701 75.1629 146.723 75.2269 146.744L74.9709 148.04C74.8536 147.997 74.6563 147.949 74.3789 147.896C74.1123 147.832 73.7656 147.8 73.3389 147.8C73.0616 147.8 72.7843 147.832 72.5069 147.896C72.2403 147.949 72.0643 147.987 71.9789 148.008V155H70.4909V147.032C70.8429 146.904 71.2803 146.787 71.8029 146.68C72.3256 146.563 72.9123 146.504 73.5629 146.504ZM76.1988 150.856C76.1988 150.12 76.3055 149.48 76.5188 148.936C76.7321 148.381 77.0148 147.923 77.3668 147.56C77.7188 147.197 78.1241 146.925 78.5828 146.744C79.0415 146.563 79.5108 146.472 79.9908 146.472C81.1108 146.472 81.9695 146.824 82.5668 147.528C83.1641 148.221 83.4628 149.283 83.4628 150.712C83.4628 150.776 83.4628 150.861 83.4628 150.968C83.4628 151.064 83.4575 151.155 83.4468 151.24H77.7508C77.8148 152.104 78.0655 152.76 78.5028 153.208C78.9401 153.656 79.6228 153.88 80.5508 153.88C81.0735 153.88 81.5108 153.837 81.8628 153.752C82.2255 153.656 82.4975 153.565 82.6788 153.48L82.8868 154.728C82.7055 154.824 82.3855 154.925 81.9268 155.032C81.4788 155.139 80.9668 155.192 80.3908 155.192C79.6655 155.192 79.0361 155.085 78.5028 154.872C77.9801 154.648 77.5481 154.344 77.2068 153.96C76.8655 153.576 76.6095 153.123 76.4388 152.6C76.2788 152.067 76.1988 151.485 76.1988 150.856ZM81.9108 150.04C81.9215 149.368 81.7508 148.819 81.3988 148.392C81.0575 147.955 80.5828 147.736 79.9748 147.736C79.6335 147.736 79.3295 147.805 79.0628 147.944C78.8068 148.072 78.5881 148.243 78.4068 148.456C78.2255 148.669 78.0815 148.915 77.9748 149.192C77.8788 149.469 77.8148 149.752 77.7828 150.04H81.9108ZM91.3763 150.856C91.3763 149.885 91.1363 149.139 90.6563 148.616C90.1763 148.093 89.5363 147.832 88.7363 147.832C88.2883 147.832 87.9363 147.848 87.6803 147.88C87.435 147.912 87.2376 147.949 87.0883 147.992V153.24C87.2696 153.389 87.531 153.533 87.8723 153.672C88.2136 153.811 88.587 153.88 88.9923 153.88C89.419 153.88 89.7816 153.805 90.0803 153.656C90.3896 153.496 90.6403 153.283 90.8323 153.016C91.0243 152.739 91.163 152.419 91.2483 152.056C91.3336 151.683 91.3763 151.283 91.3763 150.856ZM92.9283 150.856C92.9283 151.485 92.843 152.067 92.6723 152.6C92.5123 153.133 92.2723 153.592 91.9523 153.976C91.6323 154.36 91.2376 154.659 90.7683 154.872C90.3096 155.085 89.7816 155.192 89.1843 155.192C88.7043 155.192 88.2776 155.128 87.9043 155C87.5416 154.872 87.2696 154.749 87.0883 154.632V157.96H85.6003V146.936C85.9523 146.851 86.3896 146.76 86.9123 146.664C87.4456 146.557 88.059 146.504 88.7523 146.504C89.3923 146.504 89.9683 146.605 90.4803 146.808C90.9923 147.011 91.4296 147.299 91.7923 147.672C92.155 148.045 92.4323 148.504 92.6243 149.048C92.827 149.581 92.9283 150.184 92.9283 150.856ZM98.0942 146.504C98.2222 146.504 98.3662 146.515 98.5262 146.536C98.6969 146.547 98.8622 146.568 99.0222 146.6C99.1822 146.621 99.3262 146.648 99.4542 146.68C99.5929 146.701 99.6942 146.723 99.7582 146.744L99.5022 148.04C99.3849 147.997 99.1875 147.949 98.9102 147.896C98.6435 147.832 98.2969 147.8 97.8702 147.8C97.5929 147.8 97.3155 147.832 97.0382 147.896C96.7715 147.949 96.5955 147.987 96.5102 148.008V155H95.0222V147.032C95.3742 146.904 95.8115 146.787 96.3342 146.68C96.8569 146.563 97.4435 146.504 98.0942 146.504ZM100.73 150.856C100.73 150.12 100.837 149.48 101.05 148.936C101.263 148.381 101.546 147.923 101.898 147.56C102.25 147.197 102.655 146.925 103.114 146.744C103.573 146.563 104.042 146.472 104.522 146.472C105.642 146.472 106.501 146.824 107.098 147.528C107.695 148.221 107.994 149.283 107.994 150.712C107.994 150.776 107.994 150.861 107.994 150.968C107.994 151.064 107.989 151.155 107.978 151.24H102.282C102.346 152.104 102.597 152.76 103.034 153.208C103.471 153.656 104.154 153.88 105.082 153.88C105.605 153.88 106.042 153.837 106.394 153.752C106.757 153.656 107.029 153.565 107.21 153.48L107.418 154.728C107.237 154.824 106.917 154.925 106.458 155.032C106.01 155.139 105.498 155.192 104.922 155.192C104.197 155.192 103.567 155.085 103.034 154.872C102.511 154.648 102.079 154.344 101.738 153.96C101.397 153.576 101.141 153.123 100.97 152.6C100.81 152.067 100.73 151.485 100.73 150.856ZM106.442 150.04C106.453 149.368 106.282 148.819 105.93 148.392C105.589 147.955 105.114 147.736 104.506 147.736C104.165 147.736 103.861 147.805 103.594 147.944C103.338 148.072 103.119 148.243 102.938 148.456C102.757 148.669 102.613 148.915 102.506 149.192C102.41 149.469 102.346 149.752 102.314 150.04H106.442ZM110.132 155V142.84L111.62 142.584V146.84C111.897 146.733 112.19 146.653 112.5 146.6C112.82 146.536 113.134 146.504 113.444 146.504C114.105 146.504 114.654 146.6 115.092 146.792C115.529 146.973 115.876 147.235 116.132 147.576C116.398 147.907 116.585 148.307 116.692 148.776C116.798 149.245 116.852 149.763 116.852 150.328V155H115.364V150.648C115.364 150.136 115.326 149.699 115.252 149.336C115.188 148.973 115.076 148.68 114.916 148.456C114.756 148.232 114.542 148.072 114.276 147.976C114.009 147.869 113.678 147.816 113.284 147.816C113.124 147.816 112.958 147.827 112.788 147.848C112.617 147.869 112.452 147.896 112.292 147.928C112.142 147.949 112.004 147.976 111.876 148.008C111.758 148.04 111.673 148.067 111.62 148.088V155H110.132ZM118.808 150.856C118.808 150.12 118.915 149.48 119.128 148.936C119.342 148.381 119.624 147.923 119.976 147.56C120.328 147.197 120.734 146.925 121.192 146.744C121.651 146.563 122.12 146.472 122.6 146.472C123.72 146.472 124.579 146.824 125.176 147.528C125.774 148.221 126.072 149.283 126.072 150.712C126.072 150.776 126.072 150.861 126.072 150.968C126.072 151.064 126.067 151.155 126.056 151.24H120.36C120.424 152.104 120.675 152.76 121.112 153.208C121.55 153.656 122.232 153.88 123.16 153.88C123.683 153.88 124.12 153.837 124.472 153.752C124.835 153.656 125.107 153.565 125.288 153.48L125.496 154.728C125.315 154.824 124.995 154.925 124.536 155.032C124.088 155.139 123.576 155.192 123 155.192C122.275 155.192 121.646 155.085 121.112 154.872C120.59 154.648 120.158 154.344 119.816 153.96C119.475 153.576 119.219 153.123 119.048 152.6C118.888 152.067 118.808 151.485 118.808 150.856ZM124.52 150.04C124.531 149.368 124.36 148.819 124.008 148.392C123.667 147.955 123.192 147.736 122.584 147.736C122.243 147.736 121.939 147.805 121.672 147.944C121.416 148.072 121.198 148.243 121.016 148.456C120.835 148.669 120.691 148.915 120.584 149.192C120.488 149.469 120.424 149.752 120.392 150.04H124.52ZM128.21 146.92C128.551 146.835 129.004 146.744 129.57 146.648C130.135 146.552 130.786 146.504 131.522 146.504C132.183 146.504 132.732 146.6 133.17 146.792C133.607 146.973 133.954 147.235 134.21 147.576C134.476 147.907 134.663 148.307 134.77 148.776C134.876 149.245 134.93 149.763 134.93 150.328V155H133.442V150.648C133.442 150.136 133.404 149.699 133.33 149.336C133.266 148.973 133.154 148.68 132.994 148.456C132.834 148.232 132.62 148.072 132.354 147.976C132.087 147.869 131.756 147.816 131.362 147.816C131.202 147.816 131.036 147.821 130.866 147.832C130.695 147.843 130.53 147.859 130.37 147.88C130.22 147.891 130.082 147.907 129.954 147.928C129.836 147.949 129.751 147.965 129.698 147.976V155H128.21V146.92ZM142.773 148.44C142.592 148.291 142.331 148.147 141.989 148.008C141.648 147.869 141.275 147.8 140.869 147.8C140.443 147.8 140.075 147.88 139.765 148.04C139.467 148.189 139.221 148.403 139.029 148.68C138.837 148.947 138.699 149.267 138.613 149.64C138.528 150.013 138.485 150.413 138.485 150.84C138.485 151.811 138.725 152.563 139.205 153.096C139.685 153.619 140.325 153.88 141.125 153.88C141.531 153.88 141.867 153.864 142.133 153.832C142.411 153.789 142.624 153.747 142.773 153.704V148.44ZM142.773 142.84L144.261 142.584V154.76C143.92 154.856 143.483 154.952 142.949 155.048C142.416 155.144 141.803 155.192 141.109 155.192C140.469 155.192 139.893 155.091 139.381 154.888C138.869 154.685 138.432 154.397 138.069 154.024C137.707 153.651 137.424 153.197 137.221 152.664C137.029 152.12 136.933 151.512 136.933 150.84C136.933 150.2 137.013 149.613 137.173 149.08C137.344 148.547 137.589 148.088 137.909 147.704C138.229 147.32 138.619 147.021 139.077 146.808C139.547 146.595 140.08 146.488 140.677 146.488C141.157 146.488 141.579 146.552 141.941 146.68C142.315 146.808 142.592 146.931 142.773 147.048V142.84ZM146.355 150.856C146.355 150.12 146.462 149.48 146.675 148.936C146.888 148.381 147.171 147.923 147.523 147.56C147.875 147.197 148.28 146.925 148.739 146.744C149.198 146.563 149.667 146.472 150.147 146.472C151.267 146.472 152.126 146.824 152.723 147.528C153.32 148.221 153.619 149.283 153.619 150.712C153.619 150.776 153.619 150.861 153.619 150.968C153.619 151.064 153.614 151.155 153.603 151.24H147.907C147.971 152.104 148.222 152.76 148.659 153.208C149.096 153.656 149.779 153.88 150.707 153.88C151.23 153.88 151.667 153.837 152.019 153.752C152.382 153.656 152.654 153.565 152.835 153.48L153.043 154.728C152.862 154.824 152.542 154.925 152.083 155.032C151.635 155.139 151.123 155.192 150.547 155.192C149.822 155.192 149.192 155.085 148.659 154.872C148.136 154.648 147.704 154.344 147.363 153.96C147.022 153.576 146.766 153.123 146.595 152.6C146.435 152.067 146.355 151.485 146.355 150.856ZM152.067 150.04C152.078 149.368 151.907 148.819 151.555 148.392C151.214 147.955 150.739 147.736 150.131 147.736C149.79 147.736 149.486 147.805 149.219 147.944C148.963 148.072 148.744 148.243 148.563 148.456C148.382 148.669 148.238 148.915 148.131 149.192C148.035 149.469 147.971 149.752 147.939 150.04H152.067ZM158.829 146.504C158.957 146.504 159.101 146.515 159.261 146.536C159.431 146.547 159.597 146.568 159.757 146.6C159.917 146.621 160.061 146.648 160.189 146.68C160.327 146.701 160.429 146.723 160.493 146.744L160.237 148.04C160.119 147.997 159.922 147.949 159.645 147.896C159.378 147.832 159.031 147.8 158.605 147.8C158.327 147.8 158.05 147.832 157.773 147.896C157.506 147.949 157.33 147.987 157.245 148.008V155H155.757V147.032C156.109 146.904 156.546 146.787 157.069 146.68C157.591 146.563 158.178 146.504 158.829 146.504ZM163.416 155H161.928V146.68H163.416V155ZM162.664 145.176C162.398 145.176 162.168 145.091 161.976 144.92C161.795 144.739 161.704 144.499 161.704 144.2C161.704 143.901 161.795 143.667 161.976 143.496C162.168 143.315 162.398 143.224 162.664 143.224C162.931 143.224 163.155 143.315 163.336 143.496C163.528 143.667 163.624 143.901 163.624 144.2C163.624 144.499 163.528 144.739 163.336 144.92C163.155 145.091 162.931 145.176 162.664 145.176ZM167.367 146.68H170.519V147.928H167.367V151.768C167.367 152.184 167.399 152.531 167.463 152.808C167.527 153.075 167.623 153.288 167.751 153.448C167.879 153.597 168.039 153.704 168.231 153.768C168.423 153.832 168.647 153.864 168.903 153.864C169.351 153.864 169.709 153.816 169.975 153.72C170.253 153.613 170.445 153.539 170.551 153.496L170.839 154.728C170.69 154.803 170.429 154.893 170.055 155C169.682 155.117 169.255 155.176 168.775 155.176C168.21 155.176 167.741 155.107 167.367 154.968C167.005 154.819 166.711 154.6 166.487 154.312C166.263 154.024 166.103 153.672 166.007 153.256C165.922 152.829 165.879 152.339 165.879 151.784V144.36L167.367 144.104V146.68ZM174.345 154.136C174.345 154.424 174.249 154.675 174.057 154.888C173.865 155.101 173.603 155.208 173.273 155.208C172.942 155.208 172.681 155.101 172.489 154.888C172.297 154.675 172.201 154.424 172.201 154.136C172.201 153.848 172.297 153.597 172.489 153.384C172.681 153.171 172.942 153.064 173.273 153.064C173.603 153.064 173.865 153.171 174.057 153.384C174.249 153.597 174.345 153.848 174.345 154.136ZM189.281 143.912C188.876 145.085 188.487 146.173 188.113 147.176C187.751 148.168 187.393 149.112 187.041 150.008C186.689 150.904 186.337 151.763 185.985 152.584C185.644 153.395 185.292 154.2 184.929 155H183.473C183.111 154.2 182.753 153.395 182.401 152.584C182.06 151.763 181.708 150.904 181.345 150.008C180.993 149.112 180.631 148.168 180.257 147.176C179.884 146.173 179.5 145.085 179.105 143.912H180.817C181.393 145.597 181.959 147.219 182.513 148.776C183.068 150.333 183.639 151.795 184.225 153.16C184.812 151.805 185.383 150.349 185.937 148.792C186.492 147.224 187.052 145.597 187.617 143.912H189.281ZM189.543 150.856C189.543 150.12 189.649 149.48 189.863 148.936C190.076 148.381 190.359 147.923 190.711 147.56C191.063 147.197 191.468 146.925 191.927 146.744C192.385 146.563 192.855 146.472 193.335 146.472C194.455 146.472 195.313 146.824 195.911 147.528C196.508 148.221 196.807 149.283 196.807 150.712C196.807 150.776 196.807 150.861 196.807 150.968C196.807 151.064 196.801 151.155 196.791 151.24H191.095C191.159 152.104 191.409 152.76 191.847 153.208C192.284 153.656 192.967 153.88 193.895 153.88C194.417 153.88 194.855 153.837 195.207 153.752C195.569 153.656 195.841 153.565 196.023 153.48L196.231 154.728C196.049 154.824 195.729 154.925 195.271 155.032C194.823 155.139 194.311 155.192 193.735 155.192C193.009 155.192 192.38 155.085 191.847 154.872C191.324 154.648 190.892 154.344 190.551 153.96C190.209 153.576 189.953 153.123 189.783 152.6C189.623 152.067 189.543 151.485 189.543 150.856ZM195.255 150.04C195.265 149.368 195.095 148.819 194.743 148.392C194.401 147.955 193.927 147.736 193.319 147.736C192.977 147.736 192.673 147.805 192.407 147.944C192.151 148.072 191.932 148.243 191.751 148.456C191.569 148.669 191.425 148.915 191.319 149.192C191.223 149.469 191.159 149.752 191.127 150.04H195.255ZM198.944 146.92C199.285 146.835 199.739 146.744 200.304 146.648C200.869 146.552 201.52 146.504 202.256 146.504C202.917 146.504 203.467 146.6 203.904 146.792C204.341 146.973 204.688 147.235 204.944 147.576C205.211 147.907 205.397 148.307 205.504 148.776C205.611 149.245 205.664 149.763 205.664 150.328V155H204.176V150.648C204.176 150.136 204.139 149.699 204.064 149.336C204 148.973 203.888 148.68 203.728 148.456C203.568 148.232 203.355 148.072 203.088 147.976C202.821 147.869 202.491 147.816 202.096 147.816C201.936 147.816 201.771 147.821 201.6 147.832C201.429 147.843 201.264 147.859 201.104 147.88C200.955 147.891 200.816 147.907 200.688 147.928C200.571 147.949 200.485 147.965 200.432 147.976V155H198.944V146.92ZM209.62 155H208.132V146.68H209.62V155ZM208.868 145.176C208.601 145.176 208.372 145.091 208.18 144.92C207.998 144.739 207.908 144.499 207.908 144.2C207.908 143.901 207.998 143.667 208.18 143.496C208.372 143.315 208.601 143.224 208.868 143.224C209.134 143.224 209.358 143.315 209.54 143.496C209.732 143.667 209.828 143.901 209.828 144.2C209.828 144.499 209.732 144.739 209.54 144.92C209.358 145.091 209.134 145.176 208.868 145.176ZM214.994 153.928C215.346 153.928 215.656 153.923 215.922 153.912C216.2 153.891 216.429 153.859 216.61 153.816V151.336C216.504 151.283 216.328 151.24 216.082 151.208C215.848 151.165 215.56 151.144 215.218 151.144C214.994 151.144 214.754 151.16 214.498 151.192C214.253 151.224 214.024 151.293 213.81 151.4C213.608 151.496 213.437 151.635 213.298 151.816C213.16 151.987 213.09 152.216 213.09 152.504C213.09 153.037 213.261 153.411 213.602 153.624C213.944 153.827 214.408 153.928 214.994 153.928ZM214.866 146.472C215.464 146.472 215.965 146.552 216.37 146.712C216.786 146.861 217.117 147.08 217.362 147.368C217.618 147.645 217.8 147.981 217.906 148.376C218.013 148.76 218.066 149.187 218.066 149.656V154.856C217.938 154.877 217.757 154.909 217.522 154.952C217.298 154.984 217.042 155.016 216.754 155.048C216.466 155.08 216.152 155.107 215.81 155.128C215.48 155.16 215.149 155.176 214.818 155.176C214.349 155.176 213.917 155.128 213.522 155.032C213.128 154.936 212.786 154.787 212.498 154.584C212.21 154.371 211.986 154.093 211.826 153.752C211.666 153.411 211.586 153 211.586 152.52C211.586 152.061 211.677 151.667 211.858 151.336C212.05 151.005 212.306 150.739 212.626 150.536C212.946 150.333 213.32 150.184 213.746 150.088C214.173 149.992 214.621 149.944 215.09 149.944C215.24 149.944 215.394 149.955 215.554 149.976C215.714 149.987 215.864 150.008 216.002 150.04C216.152 150.061 216.28 150.083 216.386 150.104C216.493 150.125 216.568 150.141 216.61 150.152V149.736C216.61 149.491 216.584 149.251 216.53 149.016C216.477 148.771 216.381 148.557 216.242 148.376C216.104 148.184 215.912 148.035 215.666 147.928C215.432 147.811 215.122 147.752 214.738 147.752C214.248 147.752 213.816 147.789 213.442 147.864C213.08 147.928 212.808 147.997 212.626 148.072L212.45 146.84C212.642 146.755 212.962 146.675 213.41 146.6C213.858 146.515 214.344 146.472 214.866 146.472ZM220.538 146.92C220.879 146.835 221.327 146.744 221.882 146.648C222.447 146.552 223.098 146.504 223.834 146.504C224.367 146.504 224.815 146.579 225.178 146.728C225.54 146.867 225.844 147.075 226.09 147.352C226.164 147.299 226.282 147.224 226.442 147.128C226.602 147.032 226.799 146.941 227.034 146.856C227.268 146.76 227.53 146.68 227.818 146.616C228.106 146.541 228.415 146.504 228.746 146.504C229.386 146.504 229.908 146.6 230.314 146.792C230.719 146.973 231.034 147.235 231.258 147.576C231.492 147.917 231.647 148.323 231.722 148.792C231.807 149.261 231.85 149.773 231.85 150.328V155H230.362V150.648C230.362 150.157 230.335 149.736 230.282 149.384C230.239 149.032 230.148 148.739 230.01 148.504C229.882 148.269 229.7 148.099 229.466 147.992C229.242 147.875 228.948 147.816 228.586 147.816C228.084 147.816 227.668 147.885 227.338 148.024C227.018 148.152 226.799 148.269 226.682 148.376C226.767 148.653 226.831 148.957 226.874 149.288C226.916 149.619 226.938 149.965 226.938 150.328V155H225.45V150.648C225.45 150.157 225.423 149.736 225.37 149.384C225.316 149.032 225.22 148.739 225.082 148.504C224.954 148.269 224.772 148.099 224.538 147.992C224.314 147.875 224.026 147.816 223.674 147.816C223.524 147.816 223.364 147.821 223.194 147.832C223.023 147.843 222.858 147.859 222.698 147.88C222.548 147.891 222.41 147.907 222.282 147.928C222.154 147.949 222.068 147.965 222.026 147.976V155H220.538V146.92ZM244.518 146.68C244.102 148.237 243.612 149.731 243.046 151.16C242.492 152.589 241.953 153.869 241.43 155H240.086C239.564 153.869 239.02 152.589 238.454 151.16C237.9 149.731 237.414 148.237 236.998 146.68H238.598C238.726 147.203 238.876 147.763 239.046 148.36C239.228 148.947 239.414 149.533 239.606 150.12C239.809 150.696 240.012 151.256 240.214 151.8C240.417 152.344 240.609 152.829 240.79 153.256C240.972 152.829 241.164 152.344 241.366 151.8C241.569 151.256 241.766 150.696 241.958 150.12C242.161 149.533 242.348 148.947 242.518 148.36C242.7 147.763 242.854 147.203 242.982 146.68H244.518ZM245.371 150.856C245.371 150.12 245.477 149.48 245.691 148.936C245.904 148.381 246.187 147.923 246.539 147.56C246.891 147.197 247.296 146.925 247.755 146.744C248.213 146.563 248.683 146.472 249.163 146.472C250.283 146.472 251.141 146.824 251.739 147.528C252.336 148.221 252.635 149.283 252.635 150.712C252.635 150.776 252.635 150.861 252.635 150.968C252.635 151.064 252.629 151.155 252.619 151.24H246.923C246.987 152.104 247.237 152.76 247.675 153.208C248.112 153.656 248.795 153.88 249.723 153.88C250.245 153.88 250.683 153.837 251.035 153.752C251.397 153.656 251.669 153.565 251.851 153.48L252.059 154.728C251.877 154.824 251.557 154.925 251.099 155.032C250.651 155.139 250.139 155.192 249.563 155.192C248.837 155.192 248.208 155.085 247.675 154.872C247.152 154.648 246.72 154.344 246.379 153.96C246.037 153.576 245.781 153.123 245.611 152.6C245.451 152.067 245.371 151.485 245.371 150.856ZM251.083 150.04C251.093 149.368 250.923 148.819 250.571 148.392C250.229 147.955 249.755 147.736 249.147 147.736C248.805 147.736 248.501 147.805 248.235 147.944C247.979 148.072 247.76 148.243 247.579 148.456C247.397 148.669 247.253 148.915 247.147 149.192C247.051 149.469 246.987 149.752 246.955 150.04H251.083ZM257.268 155.16C256.351 155.139 255.7 154.941 255.316 154.568C254.932 154.195 254.74 153.613 254.74 152.824V142.84L256.228 142.584V152.584C256.228 152.829 256.25 153.032 256.292 153.192C256.335 153.352 256.404 153.48 256.5 153.576C256.596 153.672 256.724 153.747 256.884 153.8C257.044 153.843 257.242 153.88 257.476 153.912L257.268 155.16ZM260.635 155H259.147V146.68H260.635V155ZM259.883 145.176C259.617 145.176 259.387 145.091 259.195 144.92C259.014 144.739 258.923 144.499 258.923 144.2C258.923 143.901 259.014 143.667 259.195 143.496C259.387 143.315 259.617 143.224 259.883 143.224C260.15 143.224 260.374 143.315 260.555 143.496C260.747 143.667 260.843 143.901 260.843 144.2C260.843 144.499 260.747 144.739 260.555 144.92C260.374 145.091 260.15 145.176 259.883 145.176ZM264.586 146.68H267.738V147.928H264.586V151.768C264.586 152.184 264.618 152.531 264.682 152.808C264.746 153.075 264.842 153.288 264.97 153.448C265.098 153.597 265.258 153.704 265.45 153.768C265.642 153.832 265.866 153.864 266.122 153.864C266.57 153.864 266.927 153.816 267.194 153.72C267.471 153.613 267.663 153.539 267.77 153.496L268.058 154.728C267.909 154.803 267.647 154.893 267.274 155C266.901 155.117 266.474 155.176 265.994 155.176C265.429 155.176 264.959 155.107 264.586 154.968C264.223 154.819 263.93 154.6 263.706 154.312C263.482 154.024 263.322 153.672 263.226 153.256C263.141 152.829 263.098 152.339 263.098 151.784V144.36L264.586 144.104V146.68ZM69.1238 172.92C69.4651 172.835 69.9184 172.744 70.4838 172.648C71.0491 172.552 71.6998 172.504 72.4358 172.504C73.0971 172.504 73.6464 172.6 74.0838 172.792C74.5211 172.973 74.8678 173.235 75.1238 173.576C75.3904 173.907 75.5771 174.307 75.6838 174.776C75.7904 175.245 75.8438 175.763 75.8438 176.328V181H74.3558V176.648C74.3558 176.136 74.3184 175.699 74.2438 175.336C74.1798 174.973 74.0678 174.68 73.9078 174.456C73.7478 174.232 73.5344 174.072 73.2678 173.976C73.0011 173.869 72.6704 173.816 72.2758 173.816C72.1158 173.816 71.9504 173.821 71.7798 173.832C71.6091 173.843 71.4438 173.859 71.2838 173.88C71.1344 173.891 70.9958 173.907 70.8678 173.928C70.7504 173.949 70.6651 173.965 70.6118 173.976V181H69.1238V172.92ZM85.6553 176.84C85.6553 177.501 85.5593 178.099 85.3673 178.632C85.1753 179.165 84.9033 179.624 84.5513 180.008C84.2099 180.392 83.7993 180.691 83.3193 180.904C82.8393 181.107 82.3166 181.208 81.7513 181.208C81.1859 181.208 80.6633 181.107 80.1833 180.904C79.7033 180.691 79.2873 180.392 78.9353 180.008C78.5939 179.624 78.3273 179.165 78.1353 178.632C77.9433 178.099 77.8473 177.501 77.8473 176.84C77.8473 176.189 77.9433 175.597 78.1353 175.064C78.3273 174.52 78.5939 174.056 78.9353 173.672C79.2873 173.288 79.7033 172.995 80.1833 172.792C80.6633 172.579 81.1859 172.472 81.7513 172.472C82.3166 172.472 82.8393 172.579 83.3193 172.792C83.7993 172.995 84.2099 173.288 84.5513 173.672C84.9033 174.056 85.1753 174.52 85.3673 175.064C85.5593 175.597 85.6553 176.189 85.6553 176.84ZM84.1033 176.84C84.1033 175.901 83.8899 175.16 83.4633 174.616C83.0473 174.061 82.4766 173.784 81.7513 173.784C81.0259 173.784 80.4499 174.061 80.0233 174.616C79.6073 175.16 79.3993 175.901 79.3993 176.84C79.3993 177.779 79.6073 178.525 80.0233 179.08C80.4499 179.624 81.0259 179.896 81.7513 179.896C82.4766 179.896 83.0473 179.624 83.4633 179.08C83.8899 178.525 84.1033 177.779 84.1033 176.84ZM89.6848 179.928C90.2928 179.928 90.7408 179.848 91.0288 179.688C91.3274 179.528 91.4768 179.272 91.4768 178.92C91.4768 178.557 91.3328 178.269 91.0448 178.056C90.7568 177.843 90.2821 177.603 89.6208 177.336C89.3008 177.208 88.9914 177.08 88.6928 176.952C88.4048 176.813 88.1541 176.653 87.9408 176.472C87.7274 176.291 87.5568 176.072 87.4288 175.816C87.3008 175.56 87.2368 175.245 87.2368 174.872C87.2368 174.136 87.5088 173.555 88.0528 173.128C88.5968 172.691 89.3381 172.472 90.2768 172.472C90.5114 172.472 90.7461 172.488 90.9808 172.52C91.2154 172.541 91.4341 172.573 91.6368 172.616C91.8394 172.648 92.0154 172.685 92.1648 172.728C92.3248 172.771 92.4474 172.808 92.5328 172.84L92.2608 174.12C92.1008 174.035 91.8501 173.949 91.5088 173.864C91.1674 173.768 90.7568 173.72 90.2768 173.72C89.8608 173.72 89.4981 173.805 89.1888 173.976C88.8794 174.136 88.7248 174.392 88.7248 174.744C88.7248 174.925 88.7568 175.085 88.8207 175.224C88.8954 175.363 89.0021 175.491 89.1408 175.608C89.2901 175.715 89.4714 175.816 89.6848 175.912C89.8981 176.008 90.1541 176.109 90.4528 176.216C90.8474 176.365 91.1994 176.515 91.5088 176.664C91.8181 176.803 92.0794 176.968 92.2928 177.16C92.5168 177.352 92.6874 177.587 92.8048 177.864C92.9221 178.131 92.9808 178.461 92.9808 178.856C92.9808 179.624 92.6928 180.205 92.1168 180.6C91.5514 180.995 90.7408 181.192 89.6848 181.192C88.9488 181.192 88.3728 181.128 87.9568 181C87.5408 180.883 87.2581 180.792 87.1088 180.728L87.3808 179.448C87.5514 179.512 87.8234 179.608 88.1968 179.736C88.5701 179.864 89.0661 179.928 89.6848 179.928ZM96.2814 172.68H99.4334V173.928H96.2814V177.768C96.2814 178.184 96.3134 178.531 96.3774 178.808C96.4414 179.075 96.5374 179.288 96.6654 179.448C96.7934 179.597 96.9534 179.704 97.1454 179.768C97.3374 179.832 97.5614 179.864 97.8174 179.864C98.2654 179.864 98.6227 179.816 98.8894 179.72C99.1667 179.613 99.3587 179.539 99.4654 179.496L99.7534 180.728C99.604 180.803 99.3427 180.893 98.9694 181C98.596 181.117 98.1694 181.176 97.6894 181.176C97.124 181.176 96.6547 181.107 96.2814 180.968C95.9187 180.819 95.6254 180.6 95.4014 180.312C95.1774 180.024 95.0174 179.672 94.9214 179.256C94.836 178.829 94.7934 178.339 94.7934 177.784V170.36L96.2814 170.104V172.68ZM104.399 172.504C104.527 172.504 104.671 172.515 104.831 172.536C105.002 172.547 105.167 172.568 105.327 172.6C105.487 172.621 105.631 172.648 105.759 172.68C105.898 172.701 105.999 172.723 106.063 172.744L105.807 174.04C105.69 173.997 105.492 173.949 105.215 173.896C104.948 173.832 104.602 173.8 104.175 173.8C103.898 173.8 103.62 173.832 103.343 173.896C103.076 173.949 102.9 173.987 102.815 174.008V181H101.327V173.032C101.679 172.904 102.116 172.787 102.639 172.68C103.162 172.563 103.748 172.504 104.399 172.504ZM114.123 180.76C113.781 180.845 113.328 180.936 112.763 181.032C112.208 181.128 111.563 181.176 110.827 181.176C110.187 181.176 109.648 181.085 109.211 180.904C108.773 180.712 108.421 180.445 108.155 180.104C107.888 179.763 107.696 179.363 107.579 178.904C107.461 178.435 107.403 177.917 107.403 177.352V172.68H108.891V177.032C108.891 178.045 109.051 178.771 109.371 179.208C109.691 179.645 110.229 179.864 110.987 179.864C111.147 179.864 111.312 179.859 111.483 179.848C111.653 179.837 111.813 179.827 111.963 179.816C112.112 179.795 112.245 179.779 112.363 179.768C112.491 179.747 112.581 179.725 112.635 179.704V172.68H114.123V180.76ZM122.062 174.44C121.881 174.291 121.62 174.147 121.278 174.008C120.937 173.869 120.564 173.8 120.158 173.8C119.732 173.8 119.364 173.88 119.054 174.04C118.756 174.189 118.51 174.403 118.318 174.68C118.126 174.947 117.988 175.267 117.902 175.64C117.817 176.013 117.774 176.413 117.774 176.84C117.774 177.811 118.014 178.563 118.494 179.096C118.974 179.619 119.614 179.88 120.414 179.88C120.82 179.88 121.156 179.864 121.422 179.832C121.7 179.789 121.913 179.747 122.062 179.704V174.44ZM122.062 168.84L123.55 168.584V180.76C123.209 180.856 122.772 180.952 122.238 181.048C121.705 181.144 121.092 181.192 120.398 181.192C119.758 181.192 119.182 181.091 118.67 180.888C118.158 180.685 117.721 180.397 117.358 180.024C116.996 179.651 116.713 179.197 116.51 178.664C116.318 178.12 116.222 177.512 116.222 176.84C116.222 176.2 116.302 175.613 116.462 175.08C116.633 174.547 116.878 174.088 117.198 173.704C117.518 173.32 117.908 173.021 118.366 172.808C118.836 172.595 119.369 172.488 119.966 172.488C120.446 172.488 120.868 172.552 121.23 172.68C121.604 172.808 121.881 172.931 122.062 173.048V168.84ZM132.627 179.928C132.979 179.928 133.289 179.923 133.555 179.912C133.833 179.891 134.062 179.859 134.243 179.816V177.336C134.137 177.283 133.961 177.24 133.715 177.208C133.481 177.165 133.193 177.144 132.851 177.144C132.627 177.144 132.387 177.16 132.131 177.192C131.886 177.224 131.657 177.293 131.443 177.4C131.241 177.496 131.07 177.635 130.931 177.816C130.793 177.987 130.723 178.216 130.723 178.504C130.723 179.037 130.894 179.411 131.235 179.624C131.577 179.827 132.041 179.928 132.627 179.928ZM132.499 172.472C133.097 172.472 133.598 172.552 134.003 172.712C134.419 172.861 134.75 173.08 134.995 173.368C135.251 173.645 135.433 173.981 135.539 174.376C135.646 174.76 135.699 175.187 135.699 175.656V180.856C135.571 180.877 135.39 180.909 135.155 180.952C134.931 180.984 134.675 181.016 134.387 181.048C134.099 181.08 133.785 181.107 133.443 181.128C133.113 181.16 132.782 181.176 132.451 181.176C131.982 181.176 131.55 181.128 131.155 181.032C130.761 180.936 130.419 180.787 130.131 180.584C129.843 180.371 129.619 180.093 129.459 179.752C129.299 179.411 129.219 179 129.219 178.52C129.219 178.061 129.31 177.667 129.491 177.336C129.683 177.005 129.939 176.739 130.259 176.536C130.579 176.333 130.953 176.184 131.379 176.088C131.806 175.992 132.254 175.944 132.723 175.944C132.873 175.944 133.027 175.955 133.187 175.976C133.347 175.987 133.497 176.008 133.635 176.04C133.785 176.061 133.913 176.083 134.019 176.104C134.126 176.125 134.201 176.141 134.243 176.152V175.736C134.243 175.491 134.217 175.251 134.163 175.016C134.11 174.771 134.014 174.557 133.875 174.376C133.737 174.184 133.545 174.035 133.299 173.928C133.065 173.811 132.755 173.752 132.371 173.752C131.881 173.752 131.449 173.789 131.075 173.864C130.713 173.928 130.441 173.997 130.259 174.072L130.083 172.84C130.275 172.755 130.595 172.675 131.043 172.6C131.491 172.515 131.977 172.472 132.499 172.472ZM140.667 181.16C139.749 181.139 139.099 180.941 138.715 180.568C138.331 180.195 138.139 179.613 138.139 178.824V168.84L139.627 168.584V178.584C139.627 178.829 139.648 179.032 139.691 179.192C139.733 179.352 139.803 179.48 139.899 179.576C139.995 179.672 140.123 179.747 140.283 179.8C140.443 179.843 140.64 179.88 140.875 179.912L140.667 181.16ZM144.034 181H142.546V172.68H144.034V181ZM143.282 171.176C143.015 171.176 142.786 171.091 142.594 170.92C142.412 170.739 142.322 170.499 142.322 170.2C142.322 169.901 142.412 169.667 142.594 169.496C142.786 169.315 143.015 169.224 143.282 169.224C143.548 169.224 143.772 169.315 143.954 169.496C144.146 169.667 144.242 169.901 144.242 170.2C144.242 170.499 144.146 170.739 143.954 170.92C143.772 171.091 143.548 171.176 143.282 171.176ZM147.681 176.856C147.681 177.283 147.723 177.683 147.809 178.056C147.894 178.419 148.033 178.739 148.225 179.016C148.417 179.283 148.662 179.496 148.961 179.656C149.27 179.805 149.638 179.88 150.065 179.88C150.47 179.88 150.843 179.811 151.185 179.672C151.526 179.533 151.787 179.389 151.969 179.24V173.992C151.819 173.949 151.617 173.912 151.361 173.88C151.115 173.848 150.769 173.832 150.321 173.832C149.521 173.832 148.881 174.093 148.401 174.616C147.921 175.139 147.681 175.885 147.681 176.856ZM146.129 176.856C146.129 176.184 146.225 175.581 146.417 175.048C146.619 174.504 146.902 174.045 147.265 173.672C147.627 173.299 148.065 173.011 148.577 172.808C149.089 172.605 149.665 172.504 150.305 172.504C150.998 172.504 151.606 172.557 152.129 172.664C152.662 172.76 153.105 172.851 153.457 172.936V183.96H151.969V180.632C151.787 180.749 151.51 180.872 151.137 181C150.774 181.128 150.353 181.192 149.873 181.192C149.275 181.192 148.742 181.085 148.273 180.872C147.814 180.659 147.425 180.36 147.105 179.976C146.785 179.592 146.539 179.133 146.368 178.6C146.209 178.067 146.129 177.485 146.129 176.856ZM162.638 180.76C162.297 180.845 161.844 180.936 161.278 181.032C160.724 181.128 160.078 181.176 159.342 181.176C158.702 181.176 158.164 181.085 157.726 180.904C157.289 180.712 156.937 180.445 156.67 180.104C156.404 179.763 156.212 179.363 156.094 178.904C155.977 178.435 155.918 177.917 155.918 177.352V172.68H157.406V177.032C157.406 178.045 157.566 178.771 157.886 179.208C158.206 179.645 158.745 179.864 159.502 179.864C159.662 179.864 159.828 179.859 159.998 179.848C160.169 179.837 160.329 179.827 160.478 179.816C160.628 179.795 160.761 179.779 160.878 179.768C161.006 179.747 161.097 179.725 161.15 179.704V172.68H162.638V180.76ZM166.69 181H165.202V172.68H166.69V181ZM165.938 171.176C165.671 171.176 165.442 171.091 165.25 170.92C165.069 170.739 164.978 170.499 164.978 170.2C164.978 169.901 165.069 169.667 165.25 169.496C165.442 169.315 165.671 169.224 165.938 169.224C166.205 169.224 166.429 169.315 166.61 169.496C166.802 169.667 166.898 169.901 166.898 170.2C166.898 170.499 166.802 170.739 166.61 170.92C166.429 171.091 166.205 171.176 165.938 171.176ZM175.025 176.856C175.025 175.885 174.785 175.139 174.305 174.616C173.825 174.093 173.185 173.832 172.385 173.832C171.937 173.832 171.585 173.848 171.329 173.88C171.083 173.912 170.886 173.949 170.737 173.992V179.24C170.918 179.389 171.179 179.533 171.521 179.672C171.862 179.811 172.235 179.88 172.641 179.88C173.067 179.88 173.43 179.805 173.729 179.656C174.038 179.496 174.289 179.283 174.481 179.016C174.673 178.739 174.811 178.419 174.897 178.056C174.982 177.683 175.025 177.283 175.025 176.856ZM176.577 176.856C176.577 177.485 176.491 178.067 176.321 178.6C176.161 179.133 175.921 179.592 175.601 179.976C175.281 180.36 174.886 180.659 174.417 180.872C173.958 181.085 173.43 181.192 172.833 181.192C172.353 181.192 171.926 181.128 171.553 181C171.19 180.872 170.918 180.749 170.737 180.632V183.96H169.249V172.936C169.601 172.851 170.038 172.76 170.561 172.664C171.094 172.557 171.707 172.504 172.401 172.504C173.041 172.504 173.617 172.605 174.129 172.808C174.641 173.011 175.078 173.299 175.441 173.672C175.803 174.045 176.081 174.504 176.273 175.048C176.475 175.581 176.577 176.184 176.577 176.856ZM184.31 179.928C184.918 179.928 185.366 179.848 185.654 179.688C185.952 179.528 186.102 179.272 186.102 178.92C186.102 178.557 185.958 178.269 185.67 178.056C185.382 177.843 184.907 177.603 184.246 177.336C183.926 177.208 183.616 177.08 183.318 176.952C183.03 176.813 182.779 176.653 182.566 176.472C182.352 176.291 182.182 176.072 182.054 175.816C181.926 175.56 181.862 175.245 181.862 174.872C181.862 174.136 182.134 173.555 182.678 173.128C183.222 172.691 183.963 172.472 184.902 172.472C185.136 172.472 185.371 172.488 185.606 172.52C185.84 172.541 186.059 172.573 186.262 172.616C186.464 172.648 186.64 172.685 186.79 172.728C186.95 172.771 187.072 172.808 187.158 172.84L186.886 174.12C186.726 174.035 186.475 173.949 186.134 173.864C185.792 173.768 185.382 173.72 184.902 173.72C184.486 173.72 184.123 173.805 183.814 173.976C183.504 174.136 183.35 174.392 183.35 174.744C183.35 174.925 183.382 175.085 183.446 175.224C183.52 175.363 183.627 175.491 183.766 175.608C183.915 175.715 184.096 175.816 184.31 175.912C184.523 176.008 184.779 176.109 185.078 176.216C185.472 176.365 185.824 176.515 186.134 176.664C186.443 176.803 186.704 176.968 186.918 177.16C187.142 177.352 187.312 177.587 187.43 177.864C187.547 178.131 187.606 178.461 187.606 178.856C187.606 179.624 187.318 180.205 186.742 180.6C186.176 180.995 185.366 181.192 184.31 181.192C183.574 181.192 182.998 181.128 182.582 181C182.166 180.883 181.883 180.792 181.734 180.728L182.006 179.448C182.176 179.512 182.448 179.608 182.822 179.736C183.195 179.864 183.691 179.928 184.31 179.928ZM196.138 180.76C195.797 180.845 195.344 180.936 194.778 181.032C194.224 181.128 193.578 181.176 192.842 181.176C192.202 181.176 191.664 181.085 191.226 180.904C190.789 180.712 190.437 180.445 190.17 180.104C189.904 179.763 189.712 179.363 189.594 178.904C189.477 178.435 189.418 177.917 189.418 177.352V172.68H190.906V177.032C190.906 178.045 191.066 178.771 191.386 179.208C191.706 179.645 192.245 179.864 193.002 179.864C193.162 179.864 193.328 179.859 193.498 179.848C193.669 179.837 193.829 179.827 193.978 179.816C194.128 179.795 194.261 179.779 194.378 179.768C194.506 179.747 194.597 179.725 194.65 179.704V172.68H196.138V180.76ZM198.702 172.92C199.043 172.835 199.497 172.744 200.062 172.648C200.627 172.552 201.278 172.504 202.014 172.504C202.675 172.504 203.225 172.6 203.662 172.792C204.099 172.973 204.446 173.235 204.702 173.576C204.969 173.907 205.155 174.307 205.262 174.776C205.369 175.245 205.422 175.763 205.422 176.328V181H203.934V176.648C203.934 176.136 203.897 175.699 203.822 175.336C203.758 174.973 203.646 174.68 203.486 174.456C203.326 174.232 203.113 174.072 202.846 173.976C202.579 173.869 202.249 173.816 201.854 173.816C201.694 173.816 201.529 173.821 201.358 173.832C201.187 173.843 201.022 173.859 200.862 173.88C200.713 173.891 200.574 173.907 200.446 173.928C200.329 173.949 200.243 173.965 200.19 173.976V181H198.702V172.92ZM209.281 172.68H212.433V173.928H209.281V177.768C209.281 178.184 209.313 178.531 209.377 178.808C209.441 179.075 209.537 179.288 209.665 179.448C209.793 179.597 209.953 179.704 210.145 179.768C210.337 179.832 210.561 179.864 210.817 179.864C211.265 179.864 211.623 179.816 211.889 179.72C212.167 179.613 212.359 179.539 212.465 179.496L212.753 180.728C212.604 180.803 212.343 180.893 211.969 181C211.596 181.117 211.169 181.176 210.689 181.176C210.124 181.176 209.655 181.107 209.281 180.968C208.919 180.819 208.625 180.6 208.401 180.312C208.177 180.024 208.017 179.672 207.921 179.256C207.836 178.829 207.793 178.339 207.793 177.784V170.36L209.281 170.104V172.68ZM216.259 180.136C216.259 180.424 216.163 180.675 215.971 180.888C215.779 181.101 215.517 181.208 215.187 181.208C214.856 181.208 214.595 181.101 214.403 180.888C214.211 180.675 214.115 180.424 214.115 180.136C214.115 179.848 214.211 179.597 214.403 179.384C214.595 179.171 214.856 179.064 215.187 179.064C215.517 179.064 215.779 179.171 215.971 179.384C216.163 179.597 216.259 179.848 216.259 180.136Z" fill="#787A80"/>
<path d="M163.017 29.7188C163.686 28.9716 164.094 27.9853 164.094 26.9062C164.094 24.5803 162.201 22.6875 159.875 22.6875H151.687C152.498 20.2266 152.844 16.9613 152.844 15.5616V14.1562C152.844 11.055 150.32 8.53125 147.219 8.53125H145.812C145.167 8.53125 144.605 8.97 144.448 9.59625L143.682 12.6609C142.609 16.9528 139.201 21.6881 135.674 22.5487C135.057 20.985 133.531 19.875 131.75 19.875H123.312C122.536 19.875 121.906 20.505 121.906 21.2812V46.5938C121.906 47.37 122.536 48 123.312 48H131.75C133.427 48 134.878 47.0166 135.558 45.5953L140.39 47.2059C141.97 47.7328 143.616 48 145.282 48H157.062C159.388 48 161.281 46.1072 161.281 43.7812C161.281 43.2328 161.176 42.7078 160.985 42.2269C162.774 41.7384 164.094 40.0987 164.094 38.1562C164.094 37.0772 163.686 36.0909 163.017 35.3438C163.686 34.5966 164.094 33.6103 164.094 32.5312C164.094 31.4522 163.686 30.4659 163.017 29.7188ZM133.156 43.7812C133.156 44.5566 132.525 45.1875 131.75 45.1875H124.719V22.6875H131.75C132.525 22.6875 133.156 23.3184 133.156 24.0938V43.7812ZM157.062 31.125H159.875C160.65 31.125 161.281 31.7559 161.281 32.5312C161.281 33.3066 160.65 33.9375 159.875 33.9375H157.062C156.286 33.9375 155.656 34.5675 155.656 35.3438C155.656 36.12 156.286 36.75 157.062 36.75H159.875C160.65 36.75 161.281 37.3809 161.281 38.1562C161.281 38.9316 160.65 39.5625 159.875 39.5625H157.062C156.286 39.5625 155.656 40.1925 155.656 40.9688C155.656 41.745 156.286 42.375 157.062 42.375C157.838 42.375 158.469 43.0059 158.469 43.7812C158.469 44.5566 157.838 45.1875 157.062 45.1875H145.282C143.919 45.1875 142.572 44.9691 141.279 44.5378L135.969 42.7678V25.3669C138.175 24.9478 140.334 23.5509 142.283 21.2644C144.186 19.0313 145.729 16.0706 146.411 13.3434L146.91 11.3438H147.219C148.769 11.3438 150.031 12.6056 150.031 14.1562V15.5616C150.031 17.4497 149.441 21.0712 148.685 22.6875H145.812C145.036 22.6875 144.406 23.3175 144.406 24.0938C144.406 24.87 145.036 25.5 145.812 25.5H159.875C160.65 25.5 161.281 26.1309 161.281 26.9062C161.281 27.6816 160.65 28.3125 159.875 28.3125H157.062C156.286 28.3125 155.656 28.9425 155.656 29.7188C155.656 30.495 156.286 31.125 157.062 31.125Z" fill="#FF5A30"/>
<path d="M128.938 42.375C129.714 42.375 130.344 41.7454 130.344 40.9688C130.344 40.1921 129.714 39.5625 128.938 39.5625C128.161 39.5625 127.531 40.1921 127.531 40.9688C127.531 41.7454 128.161 42.375 128.938 42.375Z" fill="#FF5A30"/>
<path d="M148.625 0C147.848 0 147.219 0.629625 147.219 1.40625V4.3125C147.219 5.08913 147.848 5.71875 148.625 5.71875C149.402 5.71875 150.031 5.08913 150.031 4.3125V1.40625C150.031 0.629625 149.402 0 148.625 0Z" fill="#FF5A30"/>
<path d="M142.659 6.20139L140.67 4.21267C140.121 3.66348 139.231 3.66348 138.681 4.21267C138.132 4.76186 138.132 5.6522 138.681 6.20139L140.67 8.19011C141.219 8.7392 142.11 8.7393 142.659 8.19011C143.208 7.64092 143.208 6.75058 142.659 6.20139Z" fill="#FF5A30"/>
<path d="M158.569 4.21267C158.02 3.66348 157.129 3.66348 156.58 4.21267L154.592 6.2013C154.042 6.75049 154.042 7.64083 154.592 8.19002C155.141 8.73921 156.031 8.7393 156.58 8.19011L158.569 6.20139C159.118 5.6522 159.118 4.76186 158.569 4.21267Z" fill="#FF5A30"/>
</svg>
