<svg width="297" height="18" viewBox="0 0 297 18" fill="none" xmlns="http://www.w3.org/2000/svg">
<g clip-path="url(#clip0_48763_2003)">
<path d="M8.988 8.836C8.988 9.516 8.876 10.128 8.652 10.672C8.428 11.208 8.128 11.664 7.752 12.04C7.376 12.408 6.94 12.692 6.444 12.892C5.948 13.084 5.428 13.18 4.884 13.18C4.34 13.18 3.82 13.084 3.324 12.892C2.828 12.692 2.392 12.408 2.016 12.04C1.64 11.664 1.34 11.208 1.116 10.672C0.892 10.128 0.78 9.516 0.78 8.836C0.78 8.156 0.892 7.548 1.116 7.012C1.34 6.468 1.64 6.012 2.016 5.644C2.392 5.268 2.828 4.984 3.324 4.792C3.82 4.592 4.34 4.492 4.884 4.492C5.428 4.492 5.948 4.592 6.444 4.792C6.94 4.984 7.376 5.268 7.752 5.644C8.128 6.012 8.428 6.468 8.652 7.012C8.876 7.548 8.988 8.156 8.988 8.836ZM8.112 8.836C8.112 8.308 8.032 7.828 7.872 7.396C7.712 6.956 7.488 6.58 7.2 6.268C6.92 5.956 6.58 5.716 6.18 5.548C5.788 5.38 5.356 5.296 4.884 5.296C4.412 5.296 3.976 5.38 3.576 5.548C3.184 5.716 2.844 5.956 2.556 6.268C2.276 6.58 2.056 6.956 1.896 7.396C1.736 7.828 1.656 8.308 1.656 8.836C1.656 9.364 1.736 9.848 1.896 10.288C2.056 10.72 2.276 11.092 2.556 11.404C2.844 11.716 3.184 11.956 3.576 12.124C3.976 12.292 4.412 12.376 4.884 12.376C5.356 12.376 5.788 12.292 6.18 12.124C6.58 11.956 6.92 11.716 7.2 11.404C7.488 11.092 7.712 10.72 7.872 10.288C8.032 9.848 8.112 9.364 8.112 8.836ZM5.028 11.32C4.684 11.32 4.372 11.264 4.092 11.152C3.812 11.04 3.568 10.88 3.36 10.672C3.16 10.464 3.004 10.208 2.892 9.904C2.78 9.592 2.724 9.236 2.724 8.836C2.724 8.444 2.784 8.096 2.904 7.792C3.032 7.488 3.2 7.232 3.408 7.024C3.616 6.808 3.86 6.644 4.14 6.532C4.42 6.42 4.716 6.364 5.028 6.364C5.236 6.364 5.424 6.38 5.592 6.412C5.768 6.444 5.92 6.484 6.048 6.532C6.176 6.572 6.28 6.616 6.36 6.664C6.448 6.704 6.508 6.736 6.54 6.76L6.264 7.48C6.168 7.424 6.012 7.36 5.796 7.288C5.588 7.208 5.344 7.168 5.064 7.168C4.656 7.168 4.316 7.312 4.044 7.6C3.772 7.88 3.636 8.292 3.636 8.836C3.636 9.332 3.76 9.74 4.008 10.06C4.256 10.372 4.62 10.528 5.1 10.528C5.412 10.528 5.668 10.496 5.868 10.432C6.076 10.36 6.236 10.296 6.348 10.24L6.576 10.96C6.536 10.984 6.468 11.02 6.372 11.068C6.284 11.108 6.172 11.148 6.036 11.188C5.9 11.22 5.744 11.252 5.568 11.284C5.4 11.308 5.22 11.32 5.028 11.32ZM19.1388 13C19.0028 12.64 18.8748 12.288 18.7548 11.944C18.6348 11.592 18.5108 11.236 18.3828 10.876H14.6148L13.8588 13H12.6468C12.9668 12.12 13.2668 11.308 13.5468 10.564C13.8268 9.812 14.0988 9.1 14.3628 8.428C14.6348 7.756 14.9028 7.116 15.1668 6.508C15.4308 5.892 15.7068 5.284 15.9948 4.684H17.0628C17.3508 5.284 17.6268 5.892 17.8908 6.508C18.1548 7.116 18.4188 7.756 18.6828 8.428C18.9548 9.1 19.2308 9.812 19.5108 10.564C19.7908 11.308 20.0908 12.12 20.4108 13H19.1388ZM18.0468 9.916C17.7908 9.22 17.5348 8.548 17.2788 7.9C17.0308 7.244 16.7708 6.616 16.4988 6.016C16.2188 6.616 15.9508 7.244 15.6948 7.9C15.4468 8.548 15.1988 9.22 14.9508 9.916H18.0468ZM23.3398 13.12C22.6518 13.104 22.1638 12.956 21.8758 12.676C21.5878 12.396 21.4438 11.96 21.4438 11.368V3.88L22.5598 3.688V11.188C22.5598 11.372 22.5758 11.524 22.6078 11.644C22.6398 11.764 22.6918 11.86 22.7638 11.932C22.8358 12.004 22.9318 12.06 23.0518 12.1C23.1718 12.132 23.3198 12.16 23.4958 12.184L23.3398 13.12ZM26.6211 13.12C25.9331 13.104 25.4451 12.956 25.1571 12.676C24.8691 12.396 24.7251 11.96 24.7251 11.368V3.88L25.8411 3.688V11.188C25.8411 11.372 25.8571 11.524 25.8891 11.644C25.9211 11.764 25.9731 11.86 26.0451 11.932C26.1171 12.004 26.2131 12.06 26.3331 12.1C26.4531 12.132 26.6011 12.16 26.7771 12.184L26.6211 13.12ZM33.1117 6.628C33.2077 6.628 33.3157 6.636 33.4357 6.652C33.5637 6.66 33.6877 6.676 33.8077 6.7C33.9277 6.716 34.0357 6.736 34.1317 6.76C34.2357 6.776 34.3117 6.792 34.3597 6.808L34.1677 7.78C34.0797 7.748 33.9317 7.712 33.7237 7.672C33.5237 7.624 33.2637 7.6 32.9437 7.6C32.7357 7.6 32.5277 7.624 32.3197 7.672C32.1197 7.712 31.9877 7.74 31.9237 7.756V13H30.8077V7.024C31.0717 6.928 31.3997 6.84 31.7917 6.76C32.1837 6.672 32.6237 6.628 33.1117 6.628ZM36.5526 13H35.4366V6.76H36.5526V13ZM35.9886 5.632C35.7886 5.632 35.6166 5.568 35.4726 5.44C35.3366 5.304 35.2686 5.124 35.2686 4.9C35.2686 4.676 35.3366 4.5 35.4726 4.372C35.6166 4.236 35.7886 4.168 35.9886 4.168C36.1886 4.168 36.3566 4.236 36.4926 4.372C36.6366 4.5 36.7086 4.676 36.7086 4.9C36.7086 5.124 36.6366 5.304 36.4926 5.44C36.3566 5.568 36.1886 5.632 35.9886 5.632ZM42.3837 12.376C42.2877 12.44 42.0997 12.524 41.8197 12.628C41.5477 12.724 41.2277 12.772 40.8597 12.772C40.4837 12.772 40.1277 12.712 39.7917 12.592C39.4637 12.472 39.1757 12.288 38.9277 12.04C38.6797 11.784 38.4837 11.468 38.3397 11.092C38.1957 10.716 38.1237 10.268 38.1237 9.748C38.1237 9.292 38.1917 8.876 38.3277 8.5C38.4637 8.116 38.6597 7.788 38.9157 7.516C39.1797 7.236 39.4997 7.02 39.8757 6.868C40.2517 6.708 40.6757 6.628 41.1477 6.628C41.6677 6.628 42.1197 6.668 42.5037 6.748C42.8957 6.82 43.2237 6.888 43.4877 6.952V12.52C43.4877 13.48 43.2397 14.176 42.7437 14.608C42.2477 15.04 41.4957 15.256 40.4877 15.256C40.0957 15.256 39.7237 15.224 39.3717 15.16C39.0277 15.096 38.7277 15.02 38.4717 14.932L38.6757 13.96C38.8997 14.048 39.1717 14.124 39.4917 14.188C39.8197 14.26 40.1597 14.296 40.5117 14.296C41.1757 14.296 41.6517 14.164 41.9397 13.9C42.2357 13.636 42.3837 13.216 42.3837 12.64V12.376ZM42.3717 7.744C42.2597 7.712 42.1077 7.684 41.9157 7.66C41.7317 7.628 41.4797 7.612 41.1597 7.612C40.5597 7.612 40.0957 7.808 39.7677 8.2C39.4477 8.592 39.2877 9.112 39.2877 9.76C39.2877 10.12 39.3317 10.428 39.4197 10.684C39.5157 10.94 39.6397 11.152 39.7917 11.32C39.9517 11.488 40.1317 11.612 40.3317 11.692C40.5397 11.772 40.7517 11.812 40.9677 11.812C41.2637 11.812 41.5357 11.772 41.7837 11.692C42.0317 11.604 42.2277 11.504 42.3717 11.392V7.744ZM45.4092 13V3.88L46.5252 3.688V6.88C46.7332 6.8 46.9532 6.74 47.1852 6.7C47.4252 6.652 47.6612 6.628 47.8932 6.628C48.3892 6.628 48.8012 6.7 49.1292 6.844C49.4572 6.98 49.7172 7.176 49.9092 7.432C50.1092 7.68 50.2492 7.98 50.3292 8.332C50.4092 8.684 50.4492 9.072 50.4492 9.496V13H49.3332V9.736C49.3332 9.352 49.3052 9.024 49.2492 8.752C49.2012 8.48 49.1172 8.26 48.9972 8.092C48.8772 7.924 48.7172 7.804 48.5172 7.732C48.3172 7.652 48.0692 7.612 47.7732 7.612C47.6532 7.612 47.5292 7.62 47.4012 7.636C47.2732 7.652 47.1492 7.672 47.0292 7.696C46.9172 7.712 46.8132 7.732 46.7172 7.756C46.6292 7.78 46.5652 7.8 46.5252 7.816V13H45.4092ZM53.3087 6.76H55.6727V7.696H53.3087V10.576C53.3087 10.888 53.3327 11.148 53.3807 11.356C53.4287 11.556 53.5007 11.716 53.5967 11.836C53.6927 11.948 53.8127 12.028 53.9567 12.076C54.1007 12.124 54.2687 12.148 54.4607 12.148C54.7967 12.148 55.0647 12.112 55.2647 12.04C55.4727 11.96 55.6167 11.904 55.6967 11.872L55.9127 12.796C55.8007 12.852 55.6047 12.92 55.3247 13C55.0447 13.088 54.7247 13.132 54.3647 13.132C53.9407 13.132 53.5887 13.08 53.3087 12.976C53.0367 12.864 52.8167 12.7 52.6487 12.484C52.4807 12.268 52.3607 12.004 52.2887 11.692C52.2247 11.372 52.1927 11.004 52.1927 10.588V5.02L53.3087 4.828V6.76ZM58.5448 12.196C59.0008 12.196 59.3368 12.136 59.5528 12.016C59.7768 11.896 59.8888 11.704 59.8888 11.44C59.8888 11.168 59.7808 10.952 59.5648 10.792C59.3488 10.632 58.9928 10.452 58.4968 10.252C58.2568 10.156 58.0248 10.06 57.8008 9.964C57.5848 9.86 57.3968 9.74 57.2368 9.604C57.0768 9.468 56.9488 9.304 56.8528 9.112C56.7568 8.92 56.7088 8.684 56.7088 8.404C56.7088 7.852 56.9128 7.416 57.3208 7.096C57.7288 6.768 58.2848 6.604 58.9888 6.604C59.1648 6.604 59.3408 6.616 59.5168 6.64C59.6928 6.656 59.8568 6.68 60.0088 6.712C60.1608 6.736 60.2928 6.764 60.4048 6.796C60.5248 6.828 60.6168 6.856 60.6808 6.88L60.4768 7.84C60.3568 7.776 60.1688 7.712 59.9128 7.648C59.6568 7.576 59.3488 7.54 58.9888 7.54C58.6768 7.54 58.4048 7.604 58.1728 7.732C57.9408 7.852 57.8248 8.044 57.8248 8.308C57.8248 8.444 57.8488 8.564 57.8968 8.668C57.9528 8.772 58.0328 8.868 58.1368 8.956C58.2488 9.036 58.3848 9.112 58.5448 9.184C58.7048 9.256 58.8968 9.332 59.1208 9.412C59.4168 9.524 59.6808 9.636 59.9128 9.748C60.1448 9.852 60.3408 9.976 60.5008 10.12C60.6688 10.264 60.7968 10.44 60.8848 10.648C60.9728 10.848 61.0168 11.096 61.0168 11.392C61.0168 11.968 60.8008 12.404 60.3688 12.7C59.9448 12.996 59.3368 13.144 58.5448 13.144C57.9928 13.144 57.5608 13.096 57.2488 13C56.9368 12.912 56.7248 12.844 56.6128 12.796L56.8168 11.836C56.9448 11.884 57.1488 11.956 57.4288 12.052C57.7088 12.148 58.0808 12.196 58.5448 12.196ZM67.5296 6.628C67.6256 6.628 67.7336 6.636 67.8536 6.652C67.9816 6.66 68.1056 6.676 68.2256 6.7C68.3456 6.716 68.4536 6.736 68.5496 6.76C68.6536 6.776 68.7296 6.792 68.7776 6.808L68.5856 7.78C68.4976 7.748 68.3496 7.712 68.1416 7.672C67.9416 7.624 67.6816 7.6 67.3616 7.6C67.1536 7.6 66.9456 7.624 66.7376 7.672C66.5376 7.712 66.4056 7.74 66.3416 7.756V13H65.2256V7.024C65.4896 6.928 65.8176 6.84 66.2096 6.76C66.6016 6.672 67.0416 6.628 67.5296 6.628ZM69.5065 9.892C69.5065 9.34 69.5865 8.86 69.7465 8.452C69.9065 8.036 70.1185 7.692 70.3825 7.42C70.6465 7.148 70.9505 6.944 71.2945 6.808C71.6385 6.672 71.9905 6.604 72.3505 6.604C73.1905 6.604 73.8345 6.868 74.2825 7.396C74.7305 7.916 74.9545 8.712 74.9545 9.784C74.9545 9.832 74.9545 9.896 74.9545 9.976C74.9545 10.048 74.9505 10.116 74.9425 10.18H70.6705C70.7185 10.828 70.9065 11.32 71.2345 11.656C71.5625 11.992 72.0745 12.16 72.7705 12.16C73.1625 12.16 73.4905 12.128 73.7545 12.064C74.0265 11.992 74.2305 11.924 74.3665 11.86L74.5225 12.796C74.3865 12.868 74.1465 12.944 73.8025 13.024C73.4665 13.104 73.0825 13.144 72.6505 13.144C72.1065 13.144 71.6345 13.064 71.2345 12.904C70.8425 12.736 70.5185 12.508 70.2625 12.22C70.0065 11.932 69.8145 11.592 69.6865 11.2C69.5665 10.8 69.5065 10.364 69.5065 9.892ZM73.7905 9.28C73.7985 8.776 73.6705 8.364 73.4065 8.044C73.1505 7.716 72.7945 7.552 72.3385 7.552C72.0825 7.552 71.8545 7.604 71.6545 7.708C71.4625 7.804 71.2985 7.932 71.1625 8.092C71.0265 8.252 70.9185 8.436 70.8385 8.644C70.7665 8.852 70.7185 9.064 70.6945 9.28H73.7905ZM78.0097 12.196C78.4657 12.196 78.8017 12.136 79.0177 12.016C79.2417 11.896 79.3537 11.704 79.3537 11.44C79.3537 11.168 79.2457 10.952 79.0297 10.792C78.8137 10.632 78.4577 10.452 77.9617 10.252C77.7217 10.156 77.4897 10.06 77.2657 9.964C77.0497 9.86 76.8617 9.74 76.7017 9.604C76.5417 9.468 76.4137 9.304 76.3177 9.112C76.2217 8.92 76.1737 8.684 76.1737 8.404C76.1737 7.852 76.3777 7.416 76.7857 7.096C77.1937 6.768 77.7497 6.604 78.4537 6.604C78.6297 6.604 78.8057 6.616 78.9817 6.64C79.1577 6.656 79.3217 6.68 79.4737 6.712C79.6257 6.736 79.7577 6.764 79.8697 6.796C79.9897 6.828 80.0817 6.856 80.1457 6.88L79.9417 7.84C79.8217 7.776 79.6337 7.712 79.3777 7.648C79.1217 7.576 78.8137 7.54 78.4537 7.54C78.1417 7.54 77.8697 7.604 77.6377 7.732C77.4057 7.852 77.2897 8.044 77.2897 8.308C77.2897 8.444 77.3137 8.564 77.3617 8.668C77.4177 8.772 77.4977 8.868 77.6017 8.956C77.7137 9.036 77.8497 9.112 78.0097 9.184C78.1697 9.256 78.3617 9.332 78.5857 9.412C78.8817 9.524 79.1457 9.636 79.3777 9.748C79.6097 9.852 79.8057 9.976 79.9657 10.12C80.1337 10.264 80.2617 10.44 80.3497 10.648C80.4377 10.848 80.4817 11.096 80.4817 11.392C80.4817 11.968 80.2657 12.404 79.8337 12.7C79.4097 12.996 78.8017 13.144 78.0097 13.144C77.4577 13.144 77.0257 13.096 76.7137 13C76.4017 12.912 76.1897 12.844 76.0777 12.796L76.2817 11.836C76.4097 11.884 76.6137 11.956 76.8937 12.052C77.1737 12.148 77.5457 12.196 78.0097 12.196ZM81.5651 9.892C81.5651 9.34 81.6451 8.86 81.8051 8.452C81.9651 8.036 82.1771 7.692 82.4411 7.42C82.7051 7.148 83.0091 6.944 83.3531 6.808C83.6971 6.672 84.0491 6.604 84.4091 6.604C85.2491 6.604 85.8931 6.868 86.3411 7.396C86.7891 7.916 87.0131 8.712 87.0131 9.784C87.0131 9.832 87.0131 9.896 87.0131 9.976C87.0131 10.048 87.0091 10.116 87.0011 10.18H82.7291C82.7771 10.828 82.9651 11.32 83.2931 11.656C83.6211 11.992 84.1331 12.16 84.8291 12.16C85.2211 12.16 85.5491 12.128 85.8131 12.064C86.0851 11.992 86.2891 11.924 86.4251 11.86L86.5811 12.796C86.4451 12.868 86.2051 12.944 85.8611 13.024C85.5251 13.104 85.1411 13.144 84.7091 13.144C84.1651 13.144 83.6931 13.064 83.2931 12.904C82.9011 12.736 82.5771 12.508 82.3211 12.22C82.0651 11.932 81.8731 11.592 81.7451 11.2C81.6251 10.8 81.5651 10.364 81.5651 9.892ZM85.8491 9.28C85.8571 8.776 85.7291 8.364 85.4651 8.044C85.2091 7.716 84.8531 7.552 84.3971 7.552C84.1411 7.552 83.9131 7.604 83.7131 7.708C83.5211 7.804 83.3571 7.932 83.2211 8.092C83.0851 8.252 82.9771 8.436 82.8971 8.644C82.8251 8.852 82.7771 9.064 82.7531 9.28H85.8491ZM90.9203 6.628C91.0163 6.628 91.1243 6.636 91.2443 6.652C91.3723 6.66 91.4963 6.676 91.6163 6.7C91.7363 6.716 91.8443 6.736 91.9403 6.76C92.0443 6.776 92.1203 6.792 92.1683 6.808L91.9763 7.78C91.8883 7.748 91.7403 7.712 91.5323 7.672C91.3323 7.624 91.0723 7.6 90.7523 7.6C90.5443 7.6 90.3363 7.624 90.1283 7.672C89.9283 7.712 89.7963 7.74 89.7323 7.756V13H88.6163V7.024C88.8803 6.928 89.2083 6.84 89.6003 6.76C89.9923 6.672 90.4323 6.628 90.9203 6.628ZM98.375 6.76C98.063 7.928 97.695 9.048 97.271 10.12C96.855 11.192 96.451 12.152 96.059 13H95.051C94.659 12.152 94.251 11.192 93.827 10.12C93.411 9.048 93.047 7.928 92.735 6.76H93.935C94.031 7.152 94.143 7.572 94.271 8.02C94.407 8.46 94.547 8.9 94.691 9.34C94.843 9.772 94.995 10.192 95.147 10.6C95.299 11.008 95.443 11.372 95.579 11.692C95.715 11.372 95.859 11.008 96.011 10.6C96.163 10.192 96.311 9.772 96.455 9.34C96.607 8.9 96.747 8.46 96.875 8.02C97.011 7.572 97.127 7.152 97.223 6.76H98.375ZM99.0143 9.892C99.0143 9.34 99.0943 8.86 99.2543 8.452C99.4143 8.036 99.6263 7.692 99.8903 7.42C100.154 7.148 100.458 6.944 100.802 6.808C101.146 6.672 101.498 6.604 101.858 6.604C102.698 6.604 103.342 6.868 103.79 7.396C104.238 7.916 104.462 8.712 104.462 9.784C104.462 9.832 104.462 9.896 104.462 9.976C104.462 10.048 104.458 10.116 104.45 10.18H100.178C100.226 10.828 100.414 11.32 100.742 11.656C101.07 11.992 101.582 12.16 102.278 12.16C102.67 12.16 102.998 12.128 103.262 12.064C103.534 11.992 103.738 11.924 103.874 11.86L104.03 12.796C103.894 12.868 103.654 12.944 103.31 13.024C102.974 13.104 102.59 13.144 102.158 13.144C101.614 13.144 101.142 13.064 100.742 12.904C100.35 12.736 100.026 12.508 99.7703 12.22C99.5143 11.932 99.3223 11.592 99.1943 11.2C99.0743 10.8 99.0143 10.364 99.0143 9.892ZM103.298 9.28C103.306 8.776 103.178 8.364 102.914 8.044C102.658 7.716 102.302 7.552 101.846 7.552C101.59 7.552 101.362 7.604 101.162 7.708C100.97 7.804 100.806 7.932 100.67 8.092C100.534 8.252 100.426 8.436 100.346 8.644C100.274 8.852 100.226 9.064 100.202 9.28H103.298ZM110.097 8.08C109.961 7.968 109.765 7.86 109.509 7.756C109.253 7.652 108.973 7.6 108.669 7.6C108.349 7.6 108.073 7.66 107.841 7.78C107.617 7.892 107.433 8.052 107.289 8.26C107.145 8.46 107.041 8.7 106.977 8.98C106.913 9.26 106.881 9.56 106.881 9.88C106.881 10.608 107.061 11.172 107.421 11.572C107.781 11.964 108.261 12.16 108.861 12.16C109.165 12.16 109.417 12.148 109.617 12.124C109.825 12.092 109.985 12.06 110.097 12.028V8.08ZM110.097 3.88L111.213 3.688V12.82C110.957 12.892 110.629 12.964 110.229 13.036C109.829 13.108 109.369 13.144 108.849 13.144C108.369 13.144 107.937 13.068 107.553 12.916C107.169 12.764 106.841 12.548 106.569 12.268C106.297 11.988 106.085 11.648 105.933 11.248C105.789 10.84 105.717 10.384 105.717 9.88C105.717 9.4 105.777 8.96 105.897 8.56C106.025 8.16 106.209 7.816 106.449 7.528C106.689 7.24 106.981 7.016 107.325 6.856C107.677 6.696 108.077 6.616 108.525 6.616C108.885 6.616 109.201 6.664 109.473 6.76C109.753 6.856 109.961 6.948 110.097 7.036V3.88ZM114.452 12.352C114.452 12.568 114.38 12.756 114.236 12.916C114.092 13.076 113.896 13.156 113.648 13.156C113.4 13.156 113.204 13.076 113.06 12.916C112.916 12.756 112.844 12.568 112.844 12.352C112.844 12.136 112.916 11.948 113.06 11.788C113.204 11.628 113.4 11.548 113.648 11.548C113.896 11.548 114.092 11.628 114.236 11.788C114.38 11.948 114.452 12.136 114.452 12.352ZM122.666 11.848C122.586 11.656 122.478 11.412 122.342 11.116C122.214 10.82 122.074 10.5 121.922 10.156C121.77 9.812 121.606 9.46 121.43 9.1C121.262 8.732 121.102 8.388 120.95 8.068C120.798 7.74 120.654 7.448 120.518 7.192C120.39 6.936 120.286 6.74 120.206 6.604C120.118 7.548 120.046 8.572 119.99 9.676C119.934 10.772 119.886 11.88 119.846 13H118.706C118.738 12.28 118.774 11.556 118.814 10.828C118.854 10.092 118.898 9.372 118.946 8.668C119.002 7.956 119.058 7.264 119.114 6.592C119.178 5.92 119.246 5.284 119.318 4.684H120.338C120.554 5.036 120.786 5.452 121.034 5.932C121.282 6.412 121.53 6.916 121.778 7.444C122.026 7.964 122.266 8.488 122.498 9.016C122.73 9.536 122.942 10.012 123.134 10.444C123.326 10.012 123.538 9.536 123.77 9.016C124.002 8.488 124.242 7.964 124.49 7.444C124.738 6.916 124.986 6.412 125.234 5.932C125.482 5.452 125.714 5.036 125.93 4.684H126.95C127.222 7.364 127.426 10.136 127.562 13H126.422C126.382 11.88 126.334 10.772 126.278 9.676C126.222 8.572 126.15 7.548 126.062 6.604C125.982 6.74 125.874 6.936 125.738 7.192C125.61 7.448 125.47 7.74 125.318 8.068C125.166 8.388 125.002 8.732 124.826 9.1C124.658 9.46 124.498 9.812 124.346 10.156C124.194 10.5 124.05 10.82 123.914 11.116C123.786 11.412 123.682 11.656 123.602 11.848H122.666ZM131.427 12.196C131.691 12.196 131.923 12.192 132.123 12.184C132.331 12.168 132.503 12.144 132.639 12.112V10.252C132.559 10.212 132.427 10.18 132.243 10.156C132.067 10.124 131.851 10.108 131.595 10.108C131.427 10.108 131.247 10.12 131.055 10.144C130.871 10.168 130.699 10.22 130.539 10.3C130.387 10.372 130.259 10.476 130.155 10.612C130.051 10.74 129.999 10.912 129.999 11.128C129.999 11.528 130.127 11.808 130.383 11.968C130.639 12.12 130.987 12.196 131.427 12.196ZM131.331 6.604C131.779 6.604 132.155 6.664 132.459 6.784C132.771 6.896 133.019 7.06 133.203 7.276C133.395 7.484 133.531 7.736 133.611 8.032C133.691 8.32 133.731 8.64 133.731 8.992V12.892C133.635 12.908 133.499 12.932 133.323 12.964C133.155 12.988 132.963 13.012 132.747 13.036C132.531 13.06 132.295 13.08 132.039 13.096C131.791 13.12 131.543 13.132 131.295 13.132C130.943 13.132 130.619 13.096 130.323 13.024C130.027 12.952 129.771 12.84 129.555 12.688C129.339 12.528 129.171 12.32 129.051 12.064C128.931 11.808 128.871 11.5 128.871 11.14C128.871 10.796 128.939 10.5 129.075 10.252C129.219 10.004 129.411 9.804 129.651 9.652C129.891 9.5 130.171 9.388 130.491 9.316C130.811 9.244 131.147 9.208 131.499 9.208C131.611 9.208 131.727 9.216 131.847 9.232C131.967 9.24 132.079 9.256 132.183 9.28C132.295 9.296 132.391 9.312 132.471 9.328C132.551 9.344 132.607 9.356 132.639 9.364V9.052C132.639 8.868 132.619 8.688 132.579 8.512C132.539 8.328 132.467 8.168 132.363 8.032C132.259 7.888 132.115 7.776 131.931 7.696C131.755 7.608 131.523 7.564 131.235 7.564C130.867 7.564 130.543 7.592 130.263 7.648C129.991 7.696 129.787 7.748 129.651 7.804L129.519 6.88C129.663 6.816 129.903 6.756 130.239 6.7C130.575 6.636 130.939 6.604 131.331 6.604ZM139.617 8.08C139.481 7.968 139.285 7.86 139.029 7.756C138.773 7.652 138.493 7.6 138.189 7.6C137.869 7.6 137.593 7.66 137.361 7.78C137.137 7.892 136.953 8.052 136.809 8.26C136.665 8.46 136.561 8.7 136.497 8.98C136.433 9.26 136.401 9.56 136.401 9.88C136.401 10.608 136.581 11.172 136.941 11.572C137.301 11.964 137.781 12.16 138.381 12.16C138.685 12.16 138.937 12.148 139.137 12.124C139.345 12.092 139.505 12.06 139.617 12.028V8.08ZM139.617 3.88L140.733 3.688V12.82C140.477 12.892 140.149 12.964 139.749 13.036C139.349 13.108 138.889 13.144 138.369 13.144C137.889 13.144 137.457 13.068 137.073 12.916C136.689 12.764 136.361 12.548 136.089 12.268C135.817 11.988 135.605 11.648 135.453 11.248C135.309 10.84 135.237 10.384 135.237 9.88C135.237 9.4 135.297 8.96 135.417 8.56C135.545 8.16 135.729 7.816 135.969 7.528C136.209 7.24 136.501 7.016 136.845 6.856C137.197 6.696 137.597 6.616 138.045 6.616C138.405 6.616 138.721 6.664 138.993 6.76C139.273 6.856 139.481 6.948 139.617 7.036V3.88ZM142.303 9.892C142.303 9.34 142.383 8.86 142.543 8.452C142.703 8.036 142.915 7.692 143.179 7.42C143.443 7.148 143.747 6.944 144.091 6.808C144.435 6.672 144.787 6.604 145.147 6.604C145.987 6.604 146.631 6.868 147.079 7.396C147.527 7.916 147.751 8.712 147.751 9.784C147.751 9.832 147.751 9.896 147.751 9.976C147.751 10.048 147.747 10.116 147.739 10.18H143.467C143.515 10.828 143.703 11.32 144.031 11.656C144.359 11.992 144.871 12.16 145.567 12.16C145.959 12.16 146.287 12.128 146.551 12.064C146.823 11.992 147.027 11.924 147.163 11.86L147.319 12.796C147.183 12.868 146.943 12.944 146.599 13.024C146.263 13.104 145.879 13.144 145.447 13.144C144.903 13.144 144.431 13.064 144.031 12.904C143.639 12.736 143.315 12.508 143.059 12.22C142.803 11.932 142.611 11.592 142.483 11.2C142.363 10.8 142.303 10.364 142.303 9.892ZM146.587 9.28C146.595 8.776 146.467 8.364 146.203 8.044C145.947 7.716 145.591 7.552 145.135 7.552C144.879 7.552 144.651 7.604 144.451 7.708C144.259 7.804 144.095 7.932 143.959 8.092C143.823 8.252 143.715 8.436 143.635 8.644C143.563 8.852 143.515 9.064 143.491 9.28H146.587ZM157.232 13C157.008 12.424 156.768 11.768 156.512 11.032C156.264 10.288 156.036 9.516 155.828 8.716C155.62 9.516 155.392 10.288 155.144 11.032C154.896 11.768 154.66 12.424 154.436 13H153.464C153.096 12.176 152.736 11.236 152.384 10.18C152.032 9.124 151.7 7.984 151.388 6.76H152.588C152.668 7.136 152.764 7.544 152.876 7.984C152.988 8.424 153.104 8.864 153.224 9.304C153.352 9.744 153.484 10.168 153.62 10.576C153.756 10.984 153.884 11.34 154.004 11.644C154.14 11.268 154.272 10.872 154.4 10.456C154.536 10.032 154.664 9.608 154.784 9.184C154.904 8.752 155.016 8.332 155.12 7.924C155.232 7.508 155.328 7.12 155.408 6.76H156.332C156.404 7.12 156.492 7.508 156.596 7.924C156.7 8.332 156.812 8.752 156.932 9.184C157.052 9.608 157.176 10.032 157.304 10.456C157.44 10.872 157.576 11.268 157.712 11.644C157.832 11.34 157.956 10.984 158.084 10.576C158.22 10.168 158.352 9.744 158.48 9.304C158.608 8.864 158.728 8.424 158.84 7.984C158.952 7.544 159.048 7.136 159.128 6.76H160.28C159.968 7.984 159.636 9.124 159.284 10.18C158.932 11.236 158.572 12.176 158.204 13H157.232ZM162.576 13H161.46V6.76H162.576V13ZM162.012 5.632C161.812 5.632 161.64 5.568 161.496 5.44C161.36 5.304 161.292 5.124 161.292 4.9C161.292 4.676 161.36 4.5 161.496 4.372C161.64 4.236 161.812 4.168 162.012 4.168C162.212 4.168 162.38 4.236 162.516 4.372C162.66 4.5 162.732 4.676 162.732 4.9C162.732 5.124 162.66 5.304 162.516 5.44C162.38 5.568 162.212 5.632 162.012 5.632ZM165.539 6.76H167.903V7.696H165.539V10.576C165.539 10.888 165.563 11.148 165.611 11.356C165.659 11.556 165.731 11.716 165.827 11.836C165.923 11.948 166.043 12.028 166.187 12.076C166.331 12.124 166.499 12.148 166.691 12.148C167.027 12.148 167.295 12.112 167.495 12.04C167.703 11.96 167.847 11.904 167.927 11.872L168.143 12.796C168.031 12.852 167.835 12.92 167.555 13C167.275 13.088 166.955 13.132 166.595 13.132C166.171 13.132 165.819 13.08 165.539 12.976C165.267 12.864 165.047 12.7 164.879 12.484C164.711 12.268 164.591 12.004 164.519 11.692C164.455 11.372 164.423 11.004 164.423 10.588V5.02L165.539 4.828V6.76ZM169.323 13V3.88L170.439 3.688V6.88C170.647 6.8 170.867 6.74 171.099 6.7C171.339 6.652 171.575 6.628 171.807 6.628C172.303 6.628 172.715 6.7 173.043 6.844C173.371 6.98 173.631 7.176 173.823 7.432C174.023 7.68 174.163 7.98 174.243 8.332C174.323 8.684 174.363 9.072 174.363 9.496V13H173.247V9.736C173.247 9.352 173.219 9.024 173.163 8.752C173.115 8.48 173.031 8.26 172.911 8.092C172.791 7.924 172.631 7.804 172.431 7.732C172.231 7.652 171.983 7.612 171.687 7.612C171.567 7.612 171.443 7.62 171.315 7.636C171.187 7.652 171.063 7.672 170.943 7.696C170.831 7.712 170.727 7.732 170.631 7.756C170.543 7.78 170.479 7.8 170.439 7.816V13H169.323Z" fill="white"/>
<path fill-rule="evenodd" clip-rule="evenodd" d="M187.999 14.2715C184.933 12.5252 183.223 10.7896 182.396 9.28361C181.55 7.74228 181.624 6.4441 182.093 5.52273C183.059 3.62892 185.804 3.02333 187.476 5.13865L187.999 5.80001L188.522 5.13868C190.195 3.02327 192.94 3.62896 193.905 5.52273C194.375 6.44408 194.449 7.74226 193.603 9.28359C192.776 10.7895 191.065 12.5252 187.999 14.2715ZM187.999 3.73726C185.646 1.50152 182.176 2.42555 180.905 4.91723C180.208 6.2847 180.199 8.05212 181.228 9.92536C182.247 11.782 184.28 13.7417 187.677 15.6194L187.999 15.7976L188.322 15.6194C191.719 13.7417 193.752 11.782 194.771 9.92537C195.8 8.05214 195.79 6.28472 195.093 4.91723C193.823 2.4255 190.352 1.50155 187.999 3.73726Z" fill="#FF5A30"/>
<path d="M202.076 7.036C202.212 6.948 202.416 6.856 202.688 6.76C202.968 6.664 203.288 6.616 203.648 6.616C204.096 6.616 204.492 6.696 204.836 6.856C205.188 7.016 205.484 7.24 205.724 7.528C205.964 7.816 206.144 8.16 206.264 8.56C206.392 8.96 206.456 9.4 206.456 9.88C206.456 10.384 206.38 10.84 206.228 11.248C206.084 11.648 205.876 11.988 205.604 12.268C205.332 12.548 205.004 12.764 204.62 12.916C204.236 13.068 203.804 13.144 203.324 13.144C202.804 13.144 202.344 13.108 201.944 13.036C201.544 12.964 201.216 12.892 200.96 12.82V3.88L202.076 3.688V7.036ZM202.076 12.028C202.188 12.06 202.344 12.092 202.544 12.124C202.752 12.148 203.008 12.16 203.312 12.16C203.912 12.16 204.392 11.964 204.752 11.572C205.112 11.172 205.292 10.608 205.292 9.88C205.292 9.56 205.26 9.26 205.196 8.98C205.132 8.7 205.028 8.46 204.884 8.26C204.74 8.052 204.552 7.892 204.32 7.78C204.096 7.66 203.824 7.6 203.504 7.6C203.2 7.6 202.92 7.652 202.664 7.756C202.408 7.86 202.212 7.968 202.076 8.08V12.028ZM207.142 14.164C207.23 14.204 207.342 14.24 207.478 14.272C207.622 14.312 207.762 14.332 207.898 14.332C208.338 14.332 208.682 14.232 208.93 14.032C209.178 13.84 209.402 13.524 209.602 13.084C209.098 12.124 208.626 11.108 208.186 10.036C207.754 8.956 207.394 7.864 207.106 6.76H208.306C208.394 7.12 208.498 7.508 208.618 7.924C208.746 8.34 208.886 8.768 209.038 9.208C209.19 9.648 209.354 10.088 209.53 10.528C209.706 10.968 209.89 11.392 210.082 11.8C210.386 10.96 210.65 10.128 210.874 9.304C211.098 8.48 211.31 7.632 211.51 6.76H212.662C212.374 7.936 212.054 9.068 211.702 10.156C211.35 11.236 210.97 12.248 210.562 13.192C210.402 13.552 210.234 13.86 210.058 14.116C209.89 14.38 209.702 14.596 209.494 14.764C209.286 14.932 209.05 15.056 208.786 15.136C208.53 15.216 208.238 15.256 207.91 15.256C207.822 15.256 207.73 15.248 207.634 15.232C207.538 15.224 207.442 15.208 207.346 15.184C207.258 15.168 207.174 15.148 207.094 15.124C207.022 15.1 206.97 15.08 206.938 15.064L207.142 14.164ZM220.264 13.18C219.68 13.18 219.148 13.084 218.668 12.892C218.188 12.7 217.776 12.42 217.432 12.052C217.088 11.684 216.82 11.232 216.628 10.696C216.444 10.152 216.352 9.532 216.352 8.836C216.352 8.14 216.456 7.524 216.664 6.988C216.88 6.444 217.168 5.988 217.528 5.62C217.888 5.252 218.308 4.972 218.788 4.78C219.268 4.588 219.78 4.492 220.324 4.492C220.668 4.492 220.976 4.516 221.248 4.564C221.528 4.612 221.768 4.668 221.968 4.732C222.176 4.796 222.344 4.86 222.472 4.924C222.6 4.988 222.688 5.036 222.736 5.068L222.4 6.028C222.328 5.98 222.224 5.928 222.088 5.872C221.952 5.816 221.796 5.76 221.62 5.704C221.452 5.648 221.264 5.604 221.056 5.572C220.856 5.532 220.652 5.512 220.444 5.512C220.004 5.512 219.608 5.588 219.256 5.74C218.904 5.892 218.604 6.112 218.356 6.4C218.108 6.688 217.916 7.04 217.78 7.456C217.652 7.864 217.588 8.324 217.588 8.836C217.588 9.332 217.644 9.784 217.756 10.192C217.876 10.6 218.052 10.952 218.284 11.248C218.516 11.536 218.804 11.76 219.148 11.92C219.5 12.08 219.908 12.16 220.372 12.16C220.908 12.16 221.352 12.104 221.704 11.992C222.056 11.88 222.32 11.78 222.496 11.692L222.796 12.652C222.74 12.692 222.64 12.744 222.496 12.808C222.352 12.864 222.172 12.92 221.956 12.976C221.74 13.032 221.488 13.08 221.2 13.12C220.912 13.16 220.6 13.18 220.264 13.18ZM226.362 6.628C226.458 6.628 226.566 6.636 226.686 6.652C226.814 6.66 226.938 6.676 227.058 6.7C227.178 6.716 227.286 6.736 227.382 6.76C227.486 6.776 227.562 6.792 227.61 6.808L227.418 7.78C227.33 7.748 227.182 7.712 226.974 7.672C226.774 7.624 226.514 7.6 226.194 7.6C225.986 7.6 225.778 7.624 225.57 7.672C225.37 7.712 225.238 7.74 225.174 7.756V13H224.058V7.024C224.322 6.928 224.65 6.84 225.042 6.76C225.434 6.672 225.874 6.628 226.362 6.628ZM228.339 9.892C228.339 9.34 228.419 8.86 228.579 8.452C228.739 8.036 228.951 7.692 229.215 7.42C229.479 7.148 229.783 6.944 230.127 6.808C230.471 6.672 230.823 6.604 231.183 6.604C232.023 6.604 232.667 6.868 233.115 7.396C233.563 7.916 233.787 8.712 233.787 9.784C233.787 9.832 233.787 9.896 233.787 9.976C233.787 10.048 233.783 10.116 233.775 10.18H229.503C229.551 10.828 229.739 11.32 230.067 11.656C230.395 11.992 230.907 12.16 231.603 12.16C231.995 12.16 232.323 12.128 232.587 12.064C232.859 11.992 233.063 11.924 233.199 11.86L233.355 12.796C233.219 12.868 232.979 12.944 232.635 13.024C232.299 13.104 231.915 13.144 231.483 13.144C230.939 13.144 230.467 13.064 230.067 12.904C229.675 12.736 229.351 12.508 229.095 12.22C228.839 11.932 228.647 11.592 228.519 11.2C228.399 10.8 228.339 10.364 228.339 9.892ZM232.623 9.28C232.631 8.776 232.503 8.364 232.239 8.044C231.983 7.716 231.627 7.552 231.171 7.552C230.915 7.552 230.687 7.604 230.487 7.708C230.295 7.804 230.131 7.932 229.995 8.092C229.859 8.252 229.751 8.436 229.671 8.644C229.599 8.852 229.551 9.064 229.527 9.28H232.623ZM237.502 12.196C237.766 12.196 237.998 12.192 238.198 12.184C238.406 12.168 238.578 12.144 238.714 12.112V10.252C238.634 10.212 238.502 10.18 238.318 10.156C238.142 10.124 237.926 10.108 237.67 10.108C237.502 10.108 237.322 10.12 237.13 10.144C236.946 10.168 236.774 10.22 236.614 10.3C236.462 10.372 236.334 10.476 236.23 10.612C236.126 10.74 236.074 10.912 236.074 11.128C236.074 11.528 236.202 11.808 236.458 11.968C236.714 12.12 237.062 12.196 237.502 12.196ZM237.406 6.604C237.854 6.604 238.23 6.664 238.534 6.784C238.846 6.896 239.094 7.06 239.278 7.276C239.47 7.484 239.606 7.736 239.686 8.032C239.766 8.32 239.806 8.64 239.806 8.992V12.892C239.71 12.908 239.574 12.932 239.398 12.964C239.23 12.988 239.038 13.012 238.822 13.036C238.606 13.06 238.37 13.08 238.114 13.096C237.866 13.12 237.618 13.132 237.37 13.132C237.018 13.132 236.694 13.096 236.398 13.024C236.102 12.952 235.846 12.84 235.63 12.688C235.414 12.528 235.246 12.32 235.126 12.064C235.006 11.808 234.946 11.5 234.946 11.14C234.946 10.796 235.014 10.5 235.15 10.252C235.294 10.004 235.486 9.804 235.726 9.652C235.966 9.5 236.246 9.388 236.566 9.316C236.886 9.244 237.222 9.208 237.574 9.208C237.686 9.208 237.802 9.216 237.922 9.232C238.042 9.24 238.154 9.256 238.258 9.28C238.37 9.296 238.466 9.312 238.546 9.328C238.626 9.344 238.682 9.356 238.714 9.364V9.052C238.714 8.868 238.694 8.688 238.654 8.512C238.614 8.328 238.542 8.168 238.438 8.032C238.334 7.888 238.19 7.776 238.006 7.696C237.83 7.608 237.598 7.564 237.31 7.564C236.942 7.564 236.618 7.592 236.338 7.648C236.066 7.696 235.862 7.748 235.726 7.804L235.594 6.88C235.738 6.816 235.978 6.756 236.314 6.7C236.65 6.636 237.014 6.604 237.406 6.604ZM242.703 6.76H245.067V7.696H242.703V10.576C242.703 10.888 242.727 11.148 242.775 11.356C242.823 11.556 242.895 11.716 242.991 11.836C243.087 11.948 243.207 12.028 243.351 12.076C243.495 12.124 243.663 12.148 243.855 12.148C244.191 12.148 244.459 12.112 244.659 12.04C244.867 11.96 245.011 11.904 245.091 11.872L245.307 12.796C245.195 12.852 244.999 12.92 244.719 13C244.439 13.088 244.119 13.132 243.759 13.132C243.335 13.132 242.983 13.08 242.703 12.976C242.431 12.864 242.211 12.7 242.043 12.484C241.875 12.268 241.755 12.004 241.683 11.692C241.619 11.372 241.587 11.004 241.587 10.588V5.02L242.703 4.828V6.76ZM246.022 9.892C246.022 9.34 246.102 8.86 246.262 8.452C246.422 8.036 246.634 7.692 246.898 7.42C247.162 7.148 247.466 6.944 247.81 6.808C248.154 6.672 248.506 6.604 248.866 6.604C249.706 6.604 250.35 6.868 250.798 7.396C251.246 7.916 251.47 8.712 251.47 9.784C251.47 9.832 251.47 9.896 251.47 9.976C251.47 10.048 251.466 10.116 251.458 10.18H247.186C247.234 10.828 247.422 11.32 247.75 11.656C248.078 11.992 248.59 12.16 249.286 12.16C249.678 12.16 250.006 12.128 250.27 12.064C250.542 11.992 250.746 11.924 250.882 11.86L251.038 12.796C250.902 12.868 250.662 12.944 250.318 13.024C249.982 13.104 249.598 13.144 249.166 13.144C248.622 13.144 248.15 13.064 247.75 12.904C247.358 12.736 247.034 12.508 246.778 12.22C246.522 11.932 246.33 11.592 246.202 11.2C246.082 10.8 246.022 10.364 246.022 9.892ZM250.306 9.28C250.314 8.776 250.186 8.364 249.922 8.044C249.666 7.716 249.31 7.552 248.854 7.552C248.598 7.552 248.37 7.604 248.17 7.708C247.978 7.804 247.814 7.932 247.678 8.092C247.542 8.252 247.434 8.436 247.354 8.644C247.282 8.852 247.234 9.064 247.21 9.28H250.306ZM256.805 13C256.717 12.824 256.609 12.628 256.481 12.412C256.353 12.196 256.213 11.976 256.061 11.752C255.909 11.52 255.753 11.292 255.593 11.068C255.433 10.844 255.277 10.632 255.125 10.432C254.973 10.632 254.817 10.848 254.657 11.08C254.497 11.304 254.341 11.532 254.189 11.764C254.045 11.988 253.909 12.208 253.781 12.424C253.653 12.64 253.545 12.832 253.457 13H252.305C252.585 12.456 252.917 11.904 253.301 11.344C253.693 10.776 254.081 10.236 254.465 9.724L252.401 6.76H253.661L255.149 8.944L256.649 6.76H257.837L255.821 9.652C256.205 10.172 256.597 10.724 256.997 11.308C257.405 11.884 257.749 12.448 258.029 13H256.805ZM263.984 12.172C265.2 12.172 265.808 11.756 265.808 10.924C265.808 10.668 265.752 10.452 265.64 10.276C265.536 10.092 265.392 9.936 265.208 9.808C265.024 9.672 264.812 9.556 264.572 9.46C264.34 9.364 264.092 9.268 263.828 9.172C263.524 9.068 263.236 8.952 262.964 8.824C262.692 8.688 262.456 8.532 262.256 8.356C262.056 8.172 261.896 7.956 261.776 7.708C261.664 7.46 261.608 7.16 261.608 6.808C261.608 6.08 261.856 5.512 262.352 5.104C262.848 4.696 263.532 4.492 264.404 4.492C264.908 4.492 265.364 4.548 265.772 4.66C266.188 4.764 266.492 4.88 266.684 5.008L266.312 5.956C266.144 5.852 265.892 5.752 265.556 5.656C265.228 5.552 264.844 5.5 264.404 5.5C264.18 5.5 263.972 5.524 263.78 5.572C263.588 5.62 263.42 5.692 263.276 5.788C263.132 5.884 263.016 6.008 262.928 6.16C262.848 6.304 262.808 6.476 262.808 6.676C262.808 6.9 262.852 7.088 262.94 7.24C263.028 7.392 263.152 7.528 263.312 7.648C263.472 7.76 263.656 7.864 263.864 7.96C264.08 8.056 264.316 8.152 264.572 8.248C264.932 8.392 265.26 8.536 265.556 8.68C265.86 8.824 266.12 8.996 266.336 9.196C266.56 9.396 266.732 9.636 266.852 9.916C266.972 10.188 267.032 10.52 267.032 10.912C267.032 11.64 266.764 12.2 266.228 12.592C265.7 12.984 264.952 13.18 263.984 13.18C263.656 13.18 263.352 13.156 263.072 13.108C262.8 13.068 262.556 13.02 262.34 12.964C262.124 12.9 261.936 12.836 261.776 12.772C261.624 12.7 261.504 12.64 261.416 12.592L261.764 11.632C261.948 11.736 262.228 11.852 262.604 11.98C262.98 12.108 263.44 12.172 263.984 12.172ZM269.41 6.76H271.774V7.696H269.41V10.576C269.41 10.888 269.434 11.148 269.482 11.356C269.53 11.556 269.602 11.716 269.698 11.836C269.794 11.948 269.914 12.028 270.058 12.076C270.202 12.124 270.37 12.148 270.562 12.148C270.898 12.148 271.166 12.112 271.366 12.04C271.574 11.96 271.718 11.904 271.798 11.872L272.014 12.796C271.902 12.852 271.706 12.92 271.426 13C271.146 13.088 270.826 13.132 270.466 13.132C270.042 13.132 269.69 13.08 269.41 12.976C269.138 12.864 268.918 12.7 268.75 12.484C268.582 12.268 268.462 12.004 268.39 11.692C268.326 11.372 268.294 11.004 268.294 10.588V5.02L269.41 4.828V6.76ZM278.162 12.82C277.906 12.884 277.566 12.952 277.142 13.024C276.726 13.096 276.242 13.132 275.69 13.132C275.21 13.132 274.806 13.064 274.478 12.928C274.15 12.784 273.886 12.584 273.686 12.328C273.486 12.072 273.342 11.772 273.254 11.428C273.166 11.076 273.122 10.688 273.122 10.264V6.76H274.238V10.024C274.238 10.784 274.358 11.328 274.598 11.656C274.838 11.984 275.242 12.148 275.81 12.148C275.93 12.148 276.054 12.144 276.182 12.136C276.31 12.128 276.43 12.12 276.542 12.112C276.654 12.096 276.754 12.084 276.842 12.076C276.938 12.06 277.006 12.044 277.046 12.028V6.76H278.162V12.82ZM284.117 8.08C283.981 7.968 283.785 7.86 283.529 7.756C283.273 7.652 282.993 7.6 282.689 7.6C282.369 7.6 282.093 7.66 281.861 7.78C281.637 7.892 281.453 8.052 281.309 8.26C281.165 8.46 281.061 8.7 280.997 8.98C280.933 9.26 280.901 9.56 280.901 9.88C280.901 10.608 281.081 11.172 281.441 11.572C281.801 11.964 282.281 12.16 282.881 12.16C283.185 12.16 283.437 12.148 283.637 12.124C283.845 12.092 284.005 12.06 284.117 12.028V8.08ZM284.117 3.88L285.233 3.688V12.82C284.977 12.892 284.649 12.964 284.249 13.036C283.849 13.108 283.389 13.144 282.869 13.144C282.389 13.144 281.957 13.068 281.573 12.916C281.189 12.764 280.861 12.548 280.589 12.268C280.317 11.988 280.105 11.648 279.953 11.248C279.809 10.84 279.737 10.384 279.737 9.88C279.737 9.4 279.797 8.96 279.917 8.56C280.045 8.16 280.229 7.816 280.469 7.528C280.709 7.24 281.001 7.016 281.345 6.856C281.697 6.696 282.097 6.616 282.545 6.616C282.905 6.616 283.221 6.664 283.493 6.76C283.773 6.856 283.981 6.948 284.117 7.036V3.88ZM288.267 13H287.151V6.76H288.267V13ZM287.703 5.632C287.503 5.632 287.331 5.568 287.187 5.44C287.051 5.304 286.983 5.124 286.983 4.9C286.983 4.676 287.051 4.5 287.187 4.372C287.331 4.236 287.503 4.168 287.703 4.168C287.903 4.168 288.071 4.236 288.207 4.372C288.351 4.5 288.423 4.676 288.423 4.9C288.423 5.124 288.351 5.304 288.207 5.44C288.071 5.568 287.903 5.632 287.703 5.632ZM295.695 9.88C295.695 10.376 295.623 10.824 295.479 11.224C295.335 11.624 295.131 11.968 294.867 12.256C294.611 12.544 294.303 12.768 293.943 12.928C293.583 13.08 293.191 13.156 292.767 13.156C292.343 13.156 291.951 13.08 291.591 12.928C291.231 12.768 290.919 12.544 290.655 12.256C290.399 11.968 290.199 11.624 290.055 11.224C289.911 10.824 289.839 10.376 289.839 9.88C289.839 9.392 289.911 8.948 290.055 8.548C290.199 8.14 290.399 7.792 290.655 7.504C290.919 7.216 291.231 6.996 291.591 6.844C291.951 6.684 292.343 6.604 292.767 6.604C293.191 6.604 293.583 6.684 293.943 6.844C294.303 6.996 294.611 7.216 294.867 7.504C295.131 7.792 295.335 8.14 295.479 8.548C295.623 8.948 295.695 9.392 295.695 9.88ZM294.531 9.88C294.531 9.176 294.371 8.62 294.051 8.212C293.739 7.796 293.311 7.588 292.767 7.588C292.223 7.588 291.791 7.796 291.471 8.212C291.159 8.62 291.003 9.176 291.003 9.88C291.003 10.584 291.159 11.144 291.471 11.56C291.791 11.968 292.223 12.172 292.767 12.172C293.311 12.172 293.739 11.968 294.051 11.56C294.371 11.144 294.531 10.584 294.531 9.88Z" fill="white"/>
</g>
<defs>
<clipPath id="clip0_48763_2003">
<rect width="297" height="18" fill="white"/>
</clipPath>
</defs>
</svg>
