<svg width="405" height="425" viewBox="0 0 405 425" fill="none" xmlns="http://www.w3.org/2000/svg">
<g filter="url(#filter0_dddd_2111_1840)">
<rect x="60" width="285" height="285" rx="4" fill="white"/>
<rect x="60.5" y="0.5" width="284" height="284" rx="3.5" stroke="#E5E8ED"/>
<g clip-path="url(#clip0_2111_1840)">
<g clip-path="url(#clip1_2111_1840)">
<path d="M222.406 92.1484C220.155 92.1484 218.185 93.3752 217.13 95.1953H178.023C177.182 95.1953 176.5 95.8774 176.5 96.7188V136.328C176.5 137.169 177.182 137.852 178.023 137.852H222.406C225.766 137.852 228.5 135.118 228.5 131.758V98.2422C228.5 94.8821 225.766 92.1484 222.406 92.1484ZM222.406 134.805C221.81 134.805 180.101 134.805 179.547 134.805V98.2422H216.312V131.758C216.312 132.599 216.995 133.281 217.836 133.281C218.677 133.281 219.359 132.599 219.359 131.758C219.359 130.078 220.726 128.711 222.406 128.711C224.086 128.711 225.453 130.078 225.453 131.758C225.453 133.438 224.086 134.805 222.406 134.805ZM225.453 126.482C224.556 125.962 223.515 125.664 222.406 125.664C221.297 125.664 220.256 125.962 219.359 126.482V98.2422C219.359 96.5621 220.726 95.1953 222.406 95.1953C224.086 95.1953 225.453 96.5621 225.453 98.2422V126.482Z" fill="#FF5A30"/>
<path d="M211.641 101.289H184.219C183.377 101.289 182.695 101.971 182.695 102.812V130.234C182.695 131.076 183.377 131.758 184.219 131.758H199.453C199.857 131.758 200.245 131.597 200.53 131.312C200.816 131.026 200.977 130.638 200.977 130.234V127.188C200.977 125.201 202.25 123.507 204.023 122.878V130.234C204.023 131.076 204.706 131.758 205.547 131.758H211.641C212.482 131.758 213.164 131.076 213.164 130.234V102.812C213.164 101.971 212.482 101.289 211.641 101.289ZM210.117 128.711H207.07V121.094C207.07 120.252 206.388 119.57 205.547 119.57C201.347 119.57 197.93 122.987 197.93 127.188V128.711H185.742V119.57H191.836V124.141C191.836 124.982 192.518 125.664 193.359 125.664C194.201 125.664 194.883 124.982 194.883 124.141V118.047C194.883 117.206 194.201 116.523 193.359 116.523H185.742V104.336H194.883V110.43H190.312C189.471 110.43 188.789 111.112 188.789 111.953C188.789 112.794 189.471 113.477 190.312 113.477H196.406H202.5C203.341 113.477 204.023 112.794 204.023 111.953C204.023 111.112 203.341 110.43 202.5 110.43H197.93V104.336H210.117V128.711Z" fill="#FF5A30"/>
</g>
<path d="M106.571 172.98C108.637 172.98 110.224 173.347 111.331 174.08C112.437 174.8 112.991 175.987 112.991 177.64C112.991 179.307 112.431 180.513 111.311 181.26C110.191 181.993 108.591 182.36 106.511 182.36H105.531V187H102.411V173.34C103.091 173.207 103.811 173.113 104.571 173.06C105.331 173.007 105.997 172.98 106.571 172.98ZM106.771 175.64C106.544 175.64 106.317 175.647 106.091 175.66C105.877 175.673 105.691 175.687 105.531 175.7V179.7H106.511C107.591 179.7 108.404 179.553 108.951 179.26C109.497 178.967 109.771 178.42 109.771 177.62C109.771 177.233 109.697 176.913 109.551 176.66C109.417 176.407 109.217 176.207 108.951 176.06C108.697 175.9 108.384 175.793 108.011 175.74C107.637 175.673 107.224 175.64 106.771 175.64ZM121.422 179.12C121.155 179.053 120.842 178.987 120.482 178.92C120.122 178.84 119.735 178.8 119.322 178.8C119.135 178.8 118.908 178.82 118.642 178.86C118.388 178.887 118.195 178.92 118.062 178.96V187H115.082V177.04C115.615 176.853 116.242 176.68 116.962 176.52C117.695 176.347 118.508 176.26 119.402 176.26C119.562 176.26 119.755 176.273 119.982 176.3C120.208 176.313 120.435 176.34 120.662 176.38C120.888 176.407 121.115 176.447 121.342 176.5C121.568 176.54 121.762 176.593 121.922 176.66L121.422 179.12ZM133.164 181.72C133.164 182.547 133.044 183.307 132.804 184C132.564 184.68 132.217 185.267 131.764 185.76C131.31 186.24 130.764 186.613 130.124 186.88C129.497 187.147 128.79 187.28 128.004 187.28C127.23 187.28 126.524 187.147 125.884 186.88C125.257 186.613 124.717 186.24 124.264 185.76C123.81 185.267 123.457 184.68 123.204 184C122.95 183.307 122.824 182.547 122.824 181.72C122.824 180.893 122.95 180.14 123.204 179.46C123.47 178.78 123.83 178.2 124.284 177.72C124.75 177.24 125.297 176.867 125.924 176.6C126.564 176.333 127.257 176.2 128.004 176.2C128.764 176.2 129.457 176.333 130.084 176.6C130.724 176.867 131.27 177.24 131.724 177.72C132.177 178.2 132.53 178.78 132.784 179.46C133.037 180.14 133.164 180.893 133.164 181.72ZM130.124 181.72C130.124 180.8 129.937 180.08 129.564 179.56C129.204 179.027 128.684 178.76 128.004 178.76C127.324 178.76 126.797 179.027 126.424 179.56C126.05 180.08 125.864 180.8 125.864 181.72C125.864 182.64 126.05 183.373 126.424 183.92C126.797 184.453 127.324 184.72 128.004 184.72C128.684 184.72 129.204 184.453 129.564 183.92C129.937 183.373 130.124 182.64 130.124 181.72ZM134.492 190.7C134.306 190.7 134.032 190.68 133.672 190.64C133.299 190.6 132.952 190.527 132.632 190.42L133.032 188C133.232 188.067 133.419 188.113 133.592 188.14C133.752 188.167 133.959 188.18 134.212 188.18C134.679 188.18 135.006 188.04 135.192 187.76C135.379 187.48 135.472 187.073 135.472 186.54V176.48H138.452V186.62C138.452 188.007 138.112 189.033 137.432 189.7C136.752 190.367 135.772 190.7 134.492 190.7ZM138.732 173.44C138.732 173.987 138.552 174.42 138.192 174.74C137.846 175.047 137.432 175.2 136.952 175.2C136.472 175.2 136.052 175.047 135.692 174.74C135.346 174.42 135.172 173.987 135.172 173.44C135.172 172.893 135.346 172.467 135.692 172.16C136.052 171.84 136.472 171.68 136.952 171.68C137.432 171.68 137.846 171.84 138.192 172.16C138.552 172.467 138.732 172.893 138.732 173.44ZM140.754 181.82C140.754 180.887 140.894 180.073 141.174 179.38C141.467 178.673 141.847 178.087 142.314 177.62C142.78 177.153 143.314 176.8 143.914 176.56C144.527 176.32 145.154 176.2 145.794 176.2C147.287 176.2 148.467 176.66 149.334 177.58C150.2 178.487 150.634 179.827 150.634 181.6C150.634 181.773 150.627 181.967 150.614 182.18C150.6 182.38 150.587 182.56 150.574 182.72H143.814C143.88 183.333 144.167 183.82 144.674 184.18C145.18 184.54 145.86 184.72 146.714 184.72C147.26 184.72 147.794 184.673 148.314 184.58C148.847 184.473 149.28 184.347 149.614 184.2L150.014 186.62C149.854 186.7 149.64 186.78 149.374 186.86C149.107 186.94 148.807 187.007 148.474 187.06C148.154 187.127 147.807 187.18 147.434 187.22C147.06 187.26 146.687 187.28 146.314 187.28C145.367 187.28 144.54 187.14 143.834 186.86C143.14 186.58 142.56 186.2 142.094 185.72C141.64 185.227 141.3 184.647 141.074 183.98C140.86 183.313 140.754 182.593 140.754 181.82ZM147.754 180.68C147.74 180.427 147.694 180.18 147.614 179.94C147.547 179.7 147.434 179.487 147.274 179.3C147.127 179.113 146.934 178.96 146.694 178.84C146.467 178.72 146.18 178.66 145.834 178.66C145.5 178.66 145.214 178.72 144.974 178.84C144.734 178.947 144.534 179.093 144.374 179.28C144.214 179.467 144.087 179.687 143.994 179.94C143.914 180.18 143.854 180.427 143.814 180.68H147.754ZM152.433 181.74C152.433 180.98 152.553 180.267 152.793 179.6C153.047 178.92 153.407 178.333 153.873 177.84C154.34 177.333 154.907 176.933 155.573 176.64C156.24 176.347 157 176.2 157.853 176.2C158.413 176.2 158.927 176.253 159.393 176.36C159.86 176.453 160.313 176.593 160.753 176.78L160.133 179.16C159.853 179.053 159.547 178.96 159.213 178.88C158.88 178.8 158.507 178.76 158.093 178.76C157.213 178.76 156.553 179.033 156.113 179.58C155.687 180.127 155.473 180.847 155.473 181.74C155.473 182.687 155.673 183.42 156.073 183.94C156.487 184.46 157.2 184.72 158.213 184.72C158.573 184.72 158.96 184.687 159.373 184.62C159.787 184.553 160.167 184.447 160.513 184.3L160.933 186.74C160.587 186.887 160.153 187.013 159.633 187.12C159.113 187.227 158.54 187.28 157.913 187.28C156.953 187.28 156.127 187.14 155.433 186.86C154.74 186.567 154.167 186.173 153.713 185.68C153.273 185.187 152.947 184.607 152.733 183.94C152.533 183.26 152.433 182.527 152.433 181.74ZM162.833 173.86L165.813 173.38V176.48H169.393V178.96H165.813V182.66C165.813 183.287 165.92 183.787 166.133 184.16C166.36 184.533 166.807 184.72 167.473 184.72C167.793 184.72 168.12 184.693 168.453 184.64C168.8 184.573 169.113 184.487 169.393 184.38L169.813 186.7C169.453 186.847 169.053 186.973 168.613 187.08C168.173 187.187 167.633 187.24 166.993 187.24C166.18 187.24 165.507 187.133 164.973 186.92C164.44 186.693 164.013 186.387 163.693 186C163.373 185.6 163.147 185.12 163.013 184.56C162.893 184 162.833 183.38 162.833 182.7V173.86ZM179.945 184.46C180.091 184.473 180.258 184.487 180.445 184.5C180.645 184.5 180.878 184.5 181.145 184.5C182.705 184.5 183.858 184.107 184.605 183.32C185.365 182.533 185.745 181.447 185.745 180.06C185.745 178.607 185.385 177.507 184.665 176.76C183.945 176.013 182.805 175.64 181.245 175.64C181.031 175.64 180.811 175.647 180.585 175.66C180.358 175.66 180.145 175.673 179.945 175.7V184.46ZM188.965 180.06C188.965 181.26 188.778 182.307 188.405 183.2C188.031 184.093 187.498 184.833 186.805 185.42C186.125 186.007 185.291 186.447 184.305 186.74C183.318 187.033 182.211 187.18 180.985 187.18C180.425 187.18 179.771 187.153 179.025 187.1C178.278 187.06 177.545 186.967 176.825 186.82V173.32C177.545 173.187 178.291 173.1 179.065 173.06C179.851 173.007 180.525 172.98 181.085 172.98C182.271 172.98 183.345 173.113 184.305 173.38C185.278 173.647 186.111 174.067 186.805 174.64C187.498 175.213 188.031 175.947 188.405 176.84C188.778 177.733 188.965 178.807 188.965 180.06ZM190.871 181.82C190.871 180.887 191.011 180.073 191.291 179.38C191.584 178.673 191.964 178.087 192.431 177.62C192.897 177.153 193.431 176.8 194.031 176.56C194.644 176.32 195.271 176.2 195.911 176.2C197.404 176.2 198.584 176.66 199.451 177.58C200.317 178.487 200.751 179.827 200.751 181.6C200.751 181.773 200.744 181.967 200.731 182.18C200.717 182.38 200.704 182.56 200.691 182.72H193.931C193.997 183.333 194.284 183.82 194.791 184.18C195.297 184.54 195.977 184.72 196.831 184.72C197.377 184.72 197.911 184.673 198.431 184.58C198.964 184.473 199.397 184.347 199.731 184.2L200.131 186.62C199.971 186.7 199.757 186.78 199.491 186.86C199.224 186.94 198.924 187.007 198.591 187.06C198.271 187.127 197.924 187.18 197.551 187.22C197.177 187.26 196.804 187.28 196.431 187.28C195.484 187.28 194.657 187.14 193.951 186.86C193.257 186.58 192.677 186.2 192.211 185.72C191.757 185.227 191.417 184.647 191.191 183.98C190.977 183.313 190.871 182.593 190.871 181.82ZM197.871 180.68C197.857 180.427 197.811 180.18 197.731 179.94C197.664 179.7 197.551 179.487 197.391 179.3C197.244 179.113 197.051 178.96 196.811 178.84C196.584 178.72 196.297 178.66 195.951 178.66C195.617 178.66 195.331 178.72 195.091 178.84C194.851 178.947 194.651 179.093 194.491 179.28C194.331 179.467 194.204 179.687 194.111 179.94C194.031 180.18 193.971 180.427 193.931 180.68H197.871ZM205.91 187C205.23 185.667 204.537 184.107 203.83 182.32C203.137 180.533 202.477 178.587 201.85 176.48H205.01C205.144 177 205.297 177.567 205.47 178.18C205.657 178.78 205.844 179.393 206.03 180.02C206.23 180.633 206.424 181.233 206.61 181.82C206.81 182.407 207.004 182.94 207.19 183.42C207.364 182.94 207.55 182.407 207.75 181.82C207.95 181.233 208.144 180.633 208.33 180.02C208.53 179.393 208.717 178.78 208.89 178.18C209.077 177.567 209.237 177 209.37 176.48H212.45C211.824 178.587 211.157 180.533 210.45 182.32C209.757 184.107 209.07 185.667 208.39 187H205.91ZM213.273 181.82C213.273 180.887 213.413 180.073 213.693 179.38C213.986 178.673 214.366 178.087 214.833 177.62C215.3 177.153 215.833 176.8 216.433 176.56C217.046 176.32 217.673 176.2 218.313 176.2C219.806 176.2 220.986 176.66 221.853 177.58C222.72 178.487 223.153 179.827 223.153 181.6C223.153 181.773 223.146 181.967 223.133 182.18C223.12 182.38 223.106 182.56 223.093 182.72H216.333C216.4 183.333 216.686 183.82 217.193 184.18C217.7 184.54 218.38 184.72 219.233 184.72C219.78 184.72 220.313 184.673 220.833 184.58C221.366 184.473 221.8 184.347 222.133 184.2L222.533 186.62C222.373 186.7 222.16 186.78 221.893 186.86C221.626 186.94 221.326 187.007 220.993 187.06C220.673 187.127 220.326 187.18 219.953 187.22C219.58 187.26 219.206 187.28 218.833 187.28C217.886 187.28 217.06 187.14 216.353 186.86C215.66 186.58 215.08 186.2 214.613 185.72C214.16 185.227 213.82 184.647 213.593 183.98C213.38 183.313 213.273 182.593 213.273 181.82ZM220.273 180.68C220.26 180.427 220.213 180.18 220.133 179.94C220.066 179.7 219.953 179.487 219.793 179.3C219.646 179.113 219.453 178.96 219.213 178.84C218.986 178.72 218.7 178.66 218.353 178.66C218.02 178.66 217.733 178.72 217.493 178.84C217.253 178.947 217.053 179.093 216.893 179.28C216.733 179.467 216.606 179.687 216.513 179.94C216.433 180.18 216.373 180.427 216.333 180.68H220.273ZM229.653 187.2C228.786 187.187 228.079 187.093 227.533 186.92C226.999 186.747 226.573 186.507 226.253 186.2C225.946 185.88 225.733 185.5 225.613 185.06C225.506 184.607 225.453 184.1 225.453 183.54V171.96L228.433 171.48V182.94C228.433 183.207 228.453 183.447 228.493 183.66C228.533 183.873 228.606 184.053 228.713 184.2C228.833 184.347 228.999 184.467 229.213 184.56C229.426 184.653 229.713 184.713 230.073 184.74L229.653 187.2ZM241.621 181.72C241.621 182.547 241.501 183.307 241.261 184C241.021 184.68 240.674 185.267 240.221 185.76C239.768 186.24 239.221 186.613 238.581 186.88C237.954 187.147 237.248 187.28 236.461 187.28C235.688 187.28 234.981 187.147 234.341 186.88C233.714 186.613 233.174 186.24 232.721 185.76C232.268 185.267 231.914 184.68 231.661 184C231.408 183.307 231.281 182.547 231.281 181.72C231.281 180.893 231.408 180.14 231.661 179.46C231.928 178.78 232.288 178.2 232.741 177.72C233.208 177.24 233.754 176.867 234.381 176.6C235.021 176.333 235.714 176.2 236.461 176.2C237.221 176.2 237.914 176.333 238.541 176.6C239.181 176.867 239.728 177.24 240.181 177.72C240.634 178.2 240.988 178.78 241.241 179.46C241.494 180.14 241.621 180.893 241.621 181.72ZM238.581 181.72C238.581 180.8 238.394 180.08 238.021 179.56C237.661 179.027 237.141 178.76 236.461 178.76C235.781 178.76 235.254 179.027 234.881 179.56C234.508 180.08 234.321 180.8 234.321 181.72C234.321 182.64 234.508 183.373 234.881 183.92C235.254 184.453 235.781 184.72 236.461 184.72C237.141 184.72 237.661 184.453 238.021 183.92C238.394 183.373 238.581 182.64 238.581 181.72ZM250.669 181.82C250.669 180.9 250.463 180.167 250.049 179.62C249.636 179.06 249.023 178.78 248.209 178.78C247.943 178.78 247.696 178.793 247.469 178.82C247.243 178.833 247.056 178.853 246.909 178.88V184.26C247.096 184.38 247.336 184.48 247.629 184.56C247.936 184.64 248.243 184.68 248.549 184.68C249.963 184.68 250.669 183.727 250.669 181.82ZM253.709 181.74C253.709 182.553 253.609 183.293 253.409 183.96C253.209 184.627 252.916 185.2 252.529 185.68C252.143 186.16 251.663 186.533 251.089 186.8C250.516 187.067 249.856 187.2 249.109 187.2C248.696 187.2 248.309 187.16 247.949 187.08C247.589 187 247.243 186.887 246.909 186.74V190.7H243.929V176.84C244.196 176.76 244.503 176.687 244.849 176.62C245.196 176.54 245.556 176.473 245.929 176.42C246.316 176.367 246.703 176.327 247.089 176.3C247.489 176.26 247.869 176.24 248.229 176.24C249.096 176.24 249.869 176.373 250.549 176.64C251.229 176.893 251.803 177.26 252.269 177.74C252.736 178.207 253.089 178.78 253.329 179.46C253.583 180.14 253.709 180.9 253.709 181.74ZM261.78 181.42C261.78 180.46 261.653 179.78 261.4 179.38C261.16 178.98 260.74 178.78 260.14 178.78C259.953 178.78 259.76 178.793 259.56 178.82C259.36 178.833 259.166 178.853 258.98 178.88V187H256V176.84C256.253 176.773 256.546 176.707 256.88 176.64C257.226 176.56 257.586 176.493 257.96 176.44C258.346 176.373 258.74 176.327 259.14 176.3C259.54 176.26 259.933 176.24 260.32 176.24C261.08 176.24 261.693 176.34 262.16 176.54C262.64 176.727 263.033 176.953 263.34 177.22C263.766 176.913 264.253 176.673 264.8 176.5C265.36 176.327 265.873 176.24 266.34 176.24C267.18 176.24 267.866 176.36 268.4 176.6C268.946 176.827 269.38 177.153 269.7 177.58C270.02 178.007 270.24 178.513 270.36 179.1C270.48 179.687 270.54 180.34 270.54 181.06V187H267.56V181.42C267.56 180.46 267.433 179.78 267.18 179.38C266.94 178.98 266.52 178.78 265.92 178.78C265.76 178.78 265.533 178.82 265.24 178.9C264.96 178.98 264.726 179.08 264.54 179.2C264.633 179.507 264.693 179.833 264.72 180.18C264.746 180.513 264.76 180.873 264.76 181.26V187H261.78V181.42ZM272.746 181.82C272.746 180.887 272.886 180.073 273.166 179.38C273.459 178.673 273.839 178.087 274.306 177.62C274.772 177.153 275.306 176.8 275.906 176.56C276.519 176.32 277.146 176.2 277.786 176.2C279.279 176.2 280.459 176.66 281.326 177.58C282.192 178.487 282.626 179.827 282.626 181.6C282.626 181.773 282.619 181.967 282.606 182.18C282.592 182.38 282.579 182.56 282.566 182.72H275.806C275.872 183.333 276.159 183.82 276.666 184.18C277.172 184.54 277.852 184.72 278.706 184.72C279.252 184.72 279.786 184.673 280.306 184.58C280.839 184.473 281.272 184.347 281.606 184.2L282.006 186.62C281.846 186.7 281.632 186.78 281.366 186.86C281.099 186.94 280.799 187.007 280.466 187.06C280.146 187.127 279.799 187.18 279.426 187.22C279.052 187.26 278.679 187.28 278.306 187.28C277.359 187.28 276.532 187.14 275.826 186.86C275.132 186.58 274.552 186.2 274.086 185.72C273.632 185.227 273.292 184.647 273.066 183.98C272.852 183.313 272.746 182.593 272.746 181.82ZM279.746 180.68C279.732 180.427 279.686 180.18 279.606 179.94C279.539 179.7 279.426 179.487 279.266 179.3C279.119 179.113 278.926 178.96 278.686 178.84C278.459 178.72 278.172 178.66 277.826 178.66C277.492 178.66 277.206 178.72 276.966 178.84C276.726 178.947 276.526 179.093 276.366 179.28C276.206 179.467 276.079 179.687 275.986 179.94C275.906 180.18 275.846 180.427 275.806 180.68H279.746ZM284.925 176.84C285.432 176.693 286.085 176.56 286.885 176.44C287.685 176.307 288.525 176.24 289.405 176.24C290.299 176.24 291.039 176.36 291.625 176.6C292.225 176.827 292.699 177.153 293.045 177.58C293.392 178.007 293.639 178.513 293.785 179.1C293.932 179.687 294.005 180.34 294.005 181.06V187H291.025V181.42C291.025 180.46 290.899 179.78 290.645 179.38C290.392 178.98 289.919 178.78 289.225 178.78C289.012 178.78 288.785 178.793 288.545 178.82C288.305 178.833 288.092 178.853 287.905 178.88V187H284.925V176.84ZM296.603 173.86L299.583 173.38V176.48H303.163V178.96H299.583V182.66C299.583 183.287 299.689 183.787 299.903 184.16C300.129 184.533 300.576 184.72 301.243 184.72C301.563 184.72 301.889 184.693 302.223 184.64C302.569 184.573 302.883 184.487 303.163 184.38L303.583 186.7C303.223 186.847 302.823 186.973 302.383 187.08C301.943 187.187 301.403 187.24 300.763 187.24C299.949 187.24 299.276 187.133 298.743 186.92C298.209 186.693 297.783 186.387 297.463 186C297.143 185.6 296.916 185.12 296.783 184.56C296.663 184 296.603 183.38 296.603 182.7V173.86Z" fill="#1E212C"/>
</g>
</g>
<defs>
<filter id="filter0_dddd_2111_1840" x="0" y="0" width="405" height="425" filterUnits="userSpaceOnUse" color-interpolation-filters="sRGB">
<feFlood flood-opacity="0" result="BackgroundImageFix"/>
<feColorMatrix in="SourceAlpha" type="matrix" values="0 0 0 0 0 0 0 0 0 0 0 0 0 0 0 0 0 0 127 0" result="hardAlpha"/>
<feMorphology radius="4" operator="erode" in="SourceAlpha" result="effect1_dropShadow_2111_1840"/>
<feOffset dy="4"/>
<feGaussianBlur stdDeviation="2"/>
<feColorMatrix type="matrix" values="0 0 0 0 0.117647 0 0 0 0 0.129412 0 0 0 0 0.172549 0 0 0 0.03 0"/>
<feBlend mode="normal" in2="BackgroundImageFix" result="effect1_dropShadow_2111_1840"/>
<feColorMatrix in="SourceAlpha" type="matrix" values="0 0 0 0 0 0 0 0 0 0 0 0 0 0 0 0 0 0 127 0" result="hardAlpha"/>
<feMorphology radius="6" operator="erode" in="SourceAlpha" result="effect2_dropShadow_2111_1840"/>
<feOffset dy="12"/>
<feGaussianBlur stdDeviation="5"/>
<feColorMatrix type="matrix" values="0 0 0 0 0.603922 0 0 0 0 0.611765 0 0 0 0 0.647059 0 0 0 0.04 0"/>
<feBlend mode="normal" in2="effect1_dropShadow_2111_1840" result="effect2_dropShadow_2111_1840"/>
<feColorMatrix in="SourceAlpha" type="matrix" values="0 0 0 0 0 0 0 0 0 0 0 0 0 0 0 0 0 0 127 0" result="hardAlpha"/>
<feMorphology radius="10" operator="erode" in="SourceAlpha" result="effect3_dropShadow_2111_1840"/>
<feOffset dy="30"/>
<feGaussianBlur stdDeviation="12"/>
<feColorMatrix type="matrix" values="0 0 0 0 0.603922 0 0 0 0 0.611765 0 0 0 0 0.647059 0 0 0 0.05 0"/>
<feBlend mode="normal" in2="effect2_dropShadow_2111_1840" result="effect3_dropShadow_2111_1840"/>
<feColorMatrix in="SourceAlpha" type="matrix" values="0 0 0 0 0 0 0 0 0 0 0 0 0 0 0 0 0 0 127 0" result="hardAlpha"/>
<feMorphology radius="20" operator="erode" in="SourceAlpha" result="effect4_dropShadow_2111_1840"/>
<feOffset dy="80"/>
<feGaussianBlur stdDeviation="40"/>
<feColorMatrix type="matrix" values="0 0 0 0 0.603922 0 0 0 0 0.611765 0 0 0 0 0.647059 0 0 0 0.08 0"/>
<feBlend mode="normal" in2="effect3_dropShadow_2111_1840" result="effect4_dropShadow_2111_1840"/>
<feBlend mode="normal" in="SourceGraphic" in2="effect4_dropShadow_2111_1840" result="shape"/>
</filter>
<clipPath id="clip0_2111_1840">
<rect width="204" height="106" fill="white" transform="translate(100.5 89)"/>
</clipPath>
<clipPath id="clip1_2111_1840">
<rect width="52" height="52" fill="white" transform="translate(176.5 89)"/>
</clipPath>
</defs>
</svg>
