<svg width="405" height="425" viewBox="0 0 405 425" fill="none" xmlns="http://www.w3.org/2000/svg">
<g filter="url(#filter0_dddd_2111_1841)">
<rect x="60" width="285" height="285" rx="4" fill="white"/>
<rect x="60.5" y="0.5" width="284" height="284" rx="3.5" stroke="#E5E8ED"/>
<g clip-path="url(#clip0_2111_1841)">
<g clip-path="url(#clip1_2111_1841)">
<path d="M226.977 116.523C227.818 116.523 228.5 115.841 228.5 115V103.625C228.5 102.784 227.818 102.102 226.977 102.102C225.915 102.102 205.168 102.102 204.023 102.102V92.25C204.023 91.4087 203.341 90.7266 202.5 90.7266H186.25C185.409 90.7266 184.727 91.4087 184.727 92.25V102.102H178.023C177.182 102.102 176.5 102.784 176.5 103.625V115C176.5 115.841 177.182 116.523 178.023 116.523H184.727V124.852H178.023C177.182 124.852 176.5 125.534 176.5 126.375V137.75C176.5 138.591 177.182 139.273 178.023 139.273H226.977C227.818 139.273 228.5 138.591 228.5 137.75V126.375C228.5 125.534 227.818 124.852 226.977 124.852H220.273V116.523H226.977ZM225.453 113.477C223.823 113.477 213.76 113.477 212.148 113.477V105.148H225.453V113.477ZM209.102 113.477C207.506 113.477 197.505 113.477 195.898 113.477V105.148H209.102V113.477ZM187.773 93.7734H200.977V102.102C199.381 102.102 189.38 102.102 187.773 102.102V93.7734ZM179.547 113.477V105.148H192.852V113.477C191.24 113.477 181.176 113.477 179.547 113.477ZM187.773 116.523H200.977V124.852C199.381 124.852 189.38 124.852 187.773 124.852V116.523ZM179.547 127.898H192.852V136.227H179.547V127.898ZM195.898 127.898H209.102V136.227H195.898V127.898ZM225.453 127.898V136.227H212.148V127.898H225.453ZM217.227 124.852C215.631 124.852 205.63 124.852 204.023 124.852V116.523H217.227V124.852Z" fill="#FF5A30"/>
</g>
<path d="M148.389 187.28C146.135 187.28 144.415 186.653 143.229 185.4C142.055 184.147 141.469 182.367 141.469 180.06C141.469 178.913 141.649 177.893 142.009 177C142.369 176.093 142.862 175.333 143.489 174.72C144.115 174.093 144.862 173.62 145.729 173.3C146.595 172.98 147.535 172.82 148.549 172.82C149.135 172.82 149.669 172.867 150.149 172.96C150.629 173.04 151.049 173.14 151.409 173.26C151.769 173.367 152.069 173.48 152.309 173.6C152.549 173.72 152.722 173.813 152.829 173.88L151.929 176.4C151.502 176.173 151.002 175.98 150.429 175.82C149.869 175.66 149.229 175.58 148.509 175.58C148.029 175.58 147.555 175.66 147.089 175.82C146.635 175.98 146.229 176.24 145.869 176.6C145.522 176.947 145.242 177.4 145.029 177.96C144.815 178.52 144.709 179.2 144.709 180C144.709 180.64 144.775 181.24 144.909 181.8C145.055 182.347 145.282 182.82 145.589 183.22C145.909 183.62 146.322 183.94 146.829 184.18C147.335 184.407 147.949 184.52 148.669 184.52C149.122 184.52 149.529 184.493 149.889 184.44C150.249 184.387 150.569 184.327 150.849 184.26C151.129 184.18 151.375 184.093 151.589 184C151.802 183.907 151.995 183.82 152.169 183.74L153.029 186.24C152.589 186.507 151.969 186.747 151.169 186.96C150.369 187.173 149.442 187.28 148.389 187.28ZM164.443 181.72C164.443 182.547 164.323 183.307 164.083 184C163.843 184.68 163.496 185.267 163.043 185.76C162.59 186.24 162.043 186.613 161.403 186.88C160.776 187.147 160.07 187.28 159.283 187.28C158.51 187.28 157.803 187.147 157.163 186.88C156.536 186.613 155.996 186.24 155.543 185.76C155.09 185.267 154.736 184.68 154.483 184C154.23 183.307 154.103 182.547 154.103 181.72C154.103 180.893 154.23 180.14 154.483 179.46C154.75 178.78 155.11 178.2 155.563 177.72C156.03 177.24 156.576 176.867 157.203 176.6C157.843 176.333 158.536 176.2 159.283 176.2C160.043 176.2 160.736 176.333 161.363 176.6C162.003 176.867 162.55 177.24 163.003 177.72C163.456 178.2 163.81 178.78 164.063 179.46C164.316 180.14 164.443 180.893 164.443 181.72ZM161.403 181.72C161.403 180.8 161.216 180.08 160.843 179.56C160.483 179.027 159.963 178.76 159.283 178.76C158.603 178.76 158.076 179.027 157.703 179.56C157.33 180.08 157.143 180.8 157.143 181.72C157.143 182.64 157.33 183.373 157.703 183.92C158.076 184.453 158.603 184.72 159.283 184.72C159.963 184.72 160.483 184.453 160.843 183.92C161.216 183.373 161.403 182.64 161.403 181.72ZM166.752 176.84C167.258 176.693 167.912 176.56 168.712 176.44C169.512 176.307 170.352 176.24 171.232 176.24C172.125 176.24 172.865 176.36 173.452 176.6C174.052 176.827 174.525 177.153 174.872 177.58C175.218 178.007 175.465 178.513 175.612 179.1C175.758 179.687 175.832 180.34 175.832 181.06V187H172.852V181.42C172.852 180.46 172.725 179.78 172.472 179.38C172.218 178.98 171.745 178.78 171.052 178.78C170.838 178.78 170.612 178.793 170.372 178.82C170.132 178.833 169.918 178.853 169.732 178.88V187H166.752V176.84ZM181.549 184.86C182.096 184.86 182.482 184.807 182.709 184.7C182.936 184.593 183.049 184.387 183.049 184.08C183.049 183.84 182.902 183.633 182.609 183.46C182.316 183.273 181.869 183.067 181.269 182.84C180.802 182.667 180.376 182.487 179.989 182.3C179.616 182.113 179.296 181.893 179.029 181.64C178.762 181.373 178.556 181.06 178.409 180.7C178.262 180.34 178.189 179.907 178.189 179.4C178.189 178.413 178.556 177.633 179.289 177.06C180.022 176.487 181.029 176.2 182.309 176.2C182.949 176.2 183.562 176.26 184.149 176.38C184.736 176.487 185.202 176.607 185.549 176.74L185.029 179.06C184.682 178.94 184.302 178.833 183.889 178.74C183.489 178.647 183.036 178.6 182.529 178.6C181.596 178.6 181.129 178.86 181.129 179.38C181.129 179.5 181.149 179.607 181.189 179.7C181.229 179.793 181.309 179.887 181.429 179.98C181.549 180.06 181.709 180.153 181.909 180.26C182.122 180.353 182.389 180.46 182.709 180.58C183.362 180.82 183.902 181.06 184.329 181.3C184.756 181.527 185.089 181.78 185.329 182.06C185.582 182.327 185.756 182.627 185.849 182.96C185.956 183.293 186.009 183.68 186.009 184.12C186.009 185.16 185.616 185.947 184.829 186.48C184.056 187.013 182.956 187.28 181.529 187.28C180.596 187.28 179.816 187.2 179.189 187.04C178.576 186.88 178.149 186.747 177.909 186.64L178.409 184.22C178.916 184.42 179.436 184.58 179.969 184.7C180.502 184.807 181.029 184.86 181.549 184.86ZM188.136 173.86L191.116 173.38V176.48H194.696V178.96H191.116V182.66C191.116 183.287 191.223 183.787 191.436 184.16C191.663 184.533 192.109 184.72 192.776 184.72C193.096 184.72 193.423 184.693 193.756 184.64C194.103 184.573 194.416 184.487 194.696 184.38L195.116 186.7C194.756 186.847 194.356 186.973 193.916 187.08C193.476 187.187 192.936 187.24 192.296 187.24C191.483 187.24 190.809 187.133 190.276 186.92C189.743 186.693 189.316 186.387 188.996 186C188.676 185.6 188.449 185.12 188.316 184.56C188.196 184 188.136 183.38 188.136 182.7V173.86ZM203.463 179.12C203.196 179.053 202.883 178.987 202.523 178.92C202.163 178.84 201.776 178.8 201.363 178.8C201.176 178.8 200.949 178.82 200.683 178.86C200.429 178.887 200.236 178.92 200.103 178.96V187H197.123V177.04C197.656 176.853 198.283 176.68 199.003 176.52C199.736 176.347 200.549 176.26 201.443 176.26C201.603 176.26 201.796 176.273 202.023 176.3C202.249 176.313 202.476 176.34 202.703 176.38C202.929 176.407 203.156 176.447 203.383 176.5C203.609 176.54 203.803 176.593 203.963 176.66L203.463 179.12ZM214.54 186.64C214.033 186.787 213.38 186.92 212.58 187.04C211.78 187.173 210.94 187.24 210.06 187.24C209.167 187.24 208.42 187.12 207.82 186.88C207.233 186.64 206.767 186.307 206.42 185.88C206.073 185.44 205.827 184.92 205.68 184.32C205.533 183.72 205.46 183.06 205.46 182.34V176.48H208.44V181.98C208.44 182.94 208.567 183.633 208.82 184.06C209.073 184.487 209.547 184.7 210.24 184.7C210.453 184.7 210.68 184.693 210.92 184.68C211.16 184.653 211.373 184.627 211.56 184.6V176.48H214.54V186.64ZM216.838 181.74C216.838 180.98 216.958 180.267 217.198 179.6C217.451 178.92 217.811 178.333 218.278 177.84C218.744 177.333 219.311 176.933 219.978 176.64C220.644 176.347 221.404 176.2 222.258 176.2C222.818 176.2 223.331 176.253 223.798 176.36C224.264 176.453 224.718 176.593 225.158 176.78L224.538 179.16C224.258 179.053 223.951 178.96 223.618 178.88C223.284 178.8 222.911 178.76 222.498 178.76C221.618 178.76 220.958 179.033 220.518 179.58C220.091 180.127 219.878 180.847 219.878 181.74C219.878 182.687 220.078 183.42 220.478 183.94C220.891 184.46 221.604 184.72 222.618 184.72C222.978 184.72 223.364 184.687 223.778 184.62C224.191 184.553 224.571 184.447 224.918 184.3L225.338 186.74C224.991 186.887 224.558 187.013 224.038 187.12C223.518 187.227 222.944 187.28 222.318 187.28C221.358 187.28 220.531 187.14 219.838 186.86C219.144 186.567 218.571 186.173 218.118 185.68C217.678 185.187 217.351 184.607 217.138 183.94C216.938 183.26 216.838 182.527 216.838 181.74ZM227.238 173.86L230.218 173.38V176.48H233.798V178.96H230.218V182.66C230.218 183.287 230.324 183.787 230.538 184.16C230.764 184.533 231.211 184.72 231.878 184.72C232.198 184.72 232.524 184.693 232.858 184.64C233.204 184.573 233.518 184.487 233.798 184.38L234.218 186.7C233.858 186.847 233.458 186.973 233.018 187.08C232.578 187.187 232.038 187.24 231.398 187.24C230.584 187.24 229.911 187.133 229.378 186.92C228.844 186.693 228.418 186.387 228.098 186C227.778 185.6 227.551 185.12 227.418 184.56C227.298 184 227.238 183.38 227.238 182.7V173.86ZM239.204 187H236.224V176.48H239.204V187ZM239.484 173.44C239.484 173.987 239.304 174.42 238.944 174.74C238.598 175.047 238.184 175.2 237.704 175.2C237.224 175.2 236.804 175.047 236.444 174.74C236.098 174.42 235.924 173.987 235.924 173.44C235.924 172.893 236.098 172.467 236.444 172.16C236.804 171.84 237.224 171.68 237.704 171.68C238.184 171.68 238.598 171.84 238.944 172.16C239.304 172.467 239.484 172.893 239.484 173.44ZM251.845 181.72C251.845 182.547 251.725 183.307 251.485 184C251.245 184.68 250.899 185.267 250.445 185.76C249.992 186.24 249.445 186.613 248.805 186.88C248.179 187.147 247.472 187.28 246.685 187.28C245.912 187.28 245.205 187.147 244.565 186.88C243.939 186.613 243.399 186.24 242.945 185.76C242.492 185.267 242.139 184.68 241.885 184C241.632 183.307 241.505 182.547 241.505 181.72C241.505 180.893 241.632 180.14 241.885 179.46C242.152 178.78 242.512 178.2 242.965 177.72C243.432 177.24 243.979 176.867 244.605 176.6C245.245 176.333 245.939 176.2 246.685 176.2C247.445 176.2 248.139 176.333 248.765 176.6C249.405 176.867 249.952 177.24 250.405 177.72C250.859 178.2 251.212 178.78 251.465 179.46C251.719 180.14 251.845 180.893 251.845 181.72ZM248.805 181.72C248.805 180.8 248.619 180.08 248.245 179.56C247.885 179.027 247.365 178.76 246.685 178.76C246.005 178.76 245.479 179.027 245.105 179.56C244.732 180.08 244.545 180.8 244.545 181.72C244.545 182.64 244.732 183.373 245.105 183.92C245.479 184.453 246.005 184.72 246.685 184.72C247.365 184.72 247.885 184.453 248.245 183.92C248.619 183.373 248.805 182.64 248.805 181.72ZM254.154 176.84C254.661 176.693 255.314 176.56 256.114 176.44C256.914 176.307 257.754 176.24 258.634 176.24C259.527 176.24 260.267 176.36 260.854 176.6C261.454 176.827 261.927 177.153 262.274 177.58C262.621 178.007 262.867 178.513 263.014 179.1C263.161 179.687 263.234 180.34 263.234 181.06V187H260.254V181.42C260.254 180.46 260.127 179.78 259.874 179.38C259.621 178.98 259.147 178.78 258.454 178.78C258.241 178.78 258.014 178.793 257.774 178.82C257.534 178.833 257.321 178.853 257.134 178.88V187H254.154V176.84Z" fill="#1E212C"/>
</g>
</g>
<defs>
<filter id="filter0_dddd_2111_1841" x="0" y="0" width="405" height="425" filterUnits="userSpaceOnUse" color-interpolation-filters="sRGB">
<feFlood flood-opacity="0" result="BackgroundImageFix"/>
<feColorMatrix in="SourceAlpha" type="matrix" values="0 0 0 0 0 0 0 0 0 0 0 0 0 0 0 0 0 0 127 0" result="hardAlpha"/>
<feMorphology radius="4" operator="erode" in="SourceAlpha" result="effect1_dropShadow_2111_1841"/>
<feOffset dy="4"/>
<feGaussianBlur stdDeviation="2"/>
<feColorMatrix type="matrix" values="0 0 0 0 0.117647 0 0 0 0 0.129412 0 0 0 0 0.172549 0 0 0 0.03 0"/>
<feBlend mode="normal" in2="BackgroundImageFix" result="effect1_dropShadow_2111_1841"/>
<feColorMatrix in="SourceAlpha" type="matrix" values="0 0 0 0 0 0 0 0 0 0 0 0 0 0 0 0 0 0 127 0" result="hardAlpha"/>
<feMorphology radius="6" operator="erode" in="SourceAlpha" result="effect2_dropShadow_2111_1841"/>
<feOffset dy="12"/>
<feGaussianBlur stdDeviation="5"/>
<feColorMatrix type="matrix" values="0 0 0 0 0.603922 0 0 0 0 0.611765 0 0 0 0 0.647059 0 0 0 0.04 0"/>
<feBlend mode="normal" in2="effect1_dropShadow_2111_1841" result="effect2_dropShadow_2111_1841"/>
<feColorMatrix in="SourceAlpha" type="matrix" values="0 0 0 0 0 0 0 0 0 0 0 0 0 0 0 0 0 0 127 0" result="hardAlpha"/>
<feMorphology radius="10" operator="erode" in="SourceAlpha" result="effect3_dropShadow_2111_1841"/>
<feOffset dy="30"/>
<feGaussianBlur stdDeviation="12"/>
<feColorMatrix type="matrix" values="0 0 0 0 0.603922 0 0 0 0 0.611765 0 0 0 0 0.647059 0 0 0 0.05 0"/>
<feBlend mode="normal" in2="effect2_dropShadow_2111_1841" result="effect3_dropShadow_2111_1841"/>
<feColorMatrix in="SourceAlpha" type="matrix" values="0 0 0 0 0 0 0 0 0 0 0 0 0 0 0 0 0 0 127 0" result="hardAlpha"/>
<feMorphology radius="20" operator="erode" in="SourceAlpha" result="effect4_dropShadow_2111_1841"/>
<feOffset dy="80"/>
<feGaussianBlur stdDeviation="40"/>
<feColorMatrix type="matrix" values="0 0 0 0 0.603922 0 0 0 0 0.611765 0 0 0 0 0.647059 0 0 0 0.08 0"/>
<feBlend mode="normal" in2="effect3_dropShadow_2111_1841" result="effect4_dropShadow_2111_1841"/>
<feBlend mode="normal" in="SourceGraphic" in2="effect4_dropShadow_2111_1841" result="shape"/>
</filter>
<clipPath id="clip0_2111_1841">
<rect width="125" height="106" fill="white" transform="translate(140 89)"/>
</clipPath>
<clipPath id="clip1_2111_1841">
<rect width="52" height="52" fill="white" transform="translate(176.5 89)"/>
</clipPath>
</defs>
</svg>
