<svg width="390" height="52" viewBox="0 0 390 52" fill="none" xmlns="http://www.w3.org/2000/svg">
<rect width="390" height="52" rx="4" fill="#FF5A30"/>
<path d="M116.089 29.968C116.206 29.9787 116.339 29.9893 116.489 30C116.649 30 116.835 30 117.049 30C118.297 30 119.219 29.6853 119.817 29.056C120.425 28.4267 120.729 27.5573 120.729 26.448C120.729 25.2853 120.441 24.4053 119.865 23.808C119.289 23.2107 118.377 22.912 117.129 22.912C116.958 22.912 116.782 22.9173 116.601 22.928C116.419 22.928 116.249 22.9387 116.089 22.96V29.968ZM123.305 26.448C123.305 27.408 123.155 28.2453 122.857 28.96C122.558 29.6747 122.131 30.2667 121.577 30.736C121.033 31.2053 120.366 31.5573 119.577 31.792C118.787 32.0267 117.902 32.144 116.921 32.144C116.473 32.144 115.95 32.1227 115.353 32.08C114.755 32.048 114.169 31.9733 113.593 31.856V21.056C114.169 20.9493 114.766 20.88 115.385 20.848C116.014 20.8053 116.553 20.784 117.001 20.784C117.95 20.784 118.809 20.8907 119.577 21.104C120.355 21.3173 121.022 21.6533 121.577 22.112C122.131 22.5707 122.558 23.1573 122.857 23.872C123.155 24.5867 123.305 25.4453 123.305 26.448ZM125.889 20.912H128.385V32H125.889V20.912ZM134.476 30.096C134.828 30.096 135.116 30.0693 135.34 30.016C135.575 29.952 135.761 29.872 135.9 29.776C136.039 29.6693 136.135 29.5467 136.188 29.408C136.241 29.2693 136.268 29.1147 136.268 28.944C136.268 28.5813 136.097 28.2827 135.756 28.048C135.415 27.8027 134.828 27.5413 133.996 27.264C133.633 27.136 133.271 26.992 132.908 26.832C132.545 26.6613 132.22 26.4533 131.932 26.208C131.644 25.952 131.409 25.648 131.228 25.296C131.047 24.9333 130.956 24.496 130.956 23.984C130.956 23.472 131.052 23.0133 131.244 22.608C131.436 22.192 131.708 21.84 132.06 21.552C132.412 21.264 132.839 21.0453 133.34 20.896C133.841 20.736 134.407 20.656 135.036 20.656C135.783 20.656 136.428 20.736 136.972 20.896C137.516 21.056 137.964 21.232 138.316 21.424L137.596 23.392C137.287 23.232 136.94 23.0933 136.556 22.976C136.183 22.848 135.729 22.784 135.196 22.784C134.599 22.784 134.167 22.8693 133.9 23.04C133.644 23.2 133.516 23.4507 133.516 23.792C133.516 23.9947 133.564 24.1653 133.66 24.304C133.756 24.4427 133.889 24.5707 134.06 24.688C134.241 24.7947 134.444 24.896 134.668 24.992C134.903 25.0773 135.159 25.168 135.436 25.264C136.012 25.4773 136.513 25.6907 136.94 25.904C137.367 26.1067 137.719 26.3467 137.996 26.624C138.284 26.9013 138.497 27.2267 138.636 27.6C138.775 27.9733 138.844 28.4267 138.844 28.96C138.844 29.9947 138.481 30.8 137.756 31.376C137.031 31.9413 135.937 32.224 134.476 32.224C133.985 32.224 133.543 32.192 133.148 32.128C132.753 32.0747 132.401 32.0053 132.092 31.92C131.793 31.8347 131.532 31.744 131.308 31.648C131.095 31.552 130.913 31.4613 130.764 31.376L131.468 29.392C131.799 29.5733 132.204 29.7387 132.684 29.888C133.175 30.0267 133.772 30.096 134.476 30.096ZM146.32 32.224C144.518 32.224 143.142 31.7227 142.192 30.72C141.254 29.7173 140.784 28.2933 140.784 26.448C140.784 25.5307 140.928 24.7147 141.216 24C141.504 23.2747 141.899 22.6667 142.4 22.176C142.902 21.6747 143.499 21.296 144.192 21.04C144.886 20.784 145.638 20.656 146.448 20.656C146.918 20.656 147.344 20.6933 147.728 20.768C148.112 20.832 148.448 20.912 148.736 21.008C149.024 21.0933 149.264 21.184 149.456 21.28C149.648 21.376 149.787 21.4507 149.872 21.504L149.152 23.52C148.811 23.3387 148.411 23.184 147.952 23.056C147.504 22.928 146.992 22.864 146.416 22.864C146.032 22.864 145.654 22.928 145.28 23.056C144.918 23.184 144.592 23.392 144.304 23.68C144.027 23.9573 143.803 24.32 143.632 24.768C143.462 25.216 143.376 25.76 143.376 26.4C143.376 26.912 143.43 27.392 143.536 27.84C143.654 28.2773 143.835 28.656 144.08 28.976C144.336 29.296 144.667 29.552 145.072 29.744C145.478 29.9253 145.968 30.016 146.544 30.016C146.907 30.016 147.232 29.9947 147.52 29.952C147.808 29.9093 148.064 29.8613 148.288 29.808C148.512 29.744 148.71 29.6747 148.88 29.6C149.051 29.5253 149.206 29.456 149.344 29.392L150.032 31.392C149.68 31.6053 149.184 31.7973 148.544 31.968C147.904 32.1387 147.163 32.224 146.32 32.224ZM156.475 32.224C155.697 32.224 155.025 32.1173 154.459 31.904C153.894 31.68 153.425 31.376 153.051 30.992C152.689 30.5973 152.417 30.1333 152.235 29.6C152.065 29.056 151.979 28.4587 151.979 27.808V20.912H154.475V27.6C154.475 28.048 154.523 28.432 154.619 28.752C154.726 29.0613 154.865 29.3173 155.035 29.52C155.217 29.712 155.43 29.8507 155.675 29.936C155.931 30.0213 156.209 30.064 156.507 30.064C157.115 30.064 157.606 29.8773 157.979 29.504C158.363 29.1307 158.555 28.496 158.555 27.6V20.912H161.051V27.808C161.051 28.4587 160.961 29.056 160.779 29.6C160.598 30.144 160.321 30.6133 159.947 31.008C159.574 31.392 159.099 31.6907 158.523 31.904C157.947 32.1173 157.265 32.224 156.475 32.224ZM166.976 30.096C167.328 30.096 167.616 30.0693 167.84 30.016C168.075 29.952 168.261 29.872 168.4 29.776C168.539 29.6693 168.635 29.5467 168.688 29.408C168.741 29.2693 168.768 29.1147 168.768 28.944C168.768 28.5813 168.597 28.2827 168.256 28.048C167.915 27.8027 167.328 27.5413 166.496 27.264C166.133 27.136 165.771 26.992 165.408 26.832C165.045 26.6613 164.72 26.4533 164.432 26.208C164.144 25.952 163.909 25.648 163.728 25.296C163.547 24.9333 163.456 24.496 163.456 23.984C163.456 23.472 163.552 23.0133 163.744 22.608C163.936 22.192 164.208 21.84 164.56 21.552C164.912 21.264 165.339 21.0453 165.84 20.896C166.341 20.736 166.907 20.656 167.536 20.656C168.283 20.656 168.928 20.736 169.472 20.896C170.016 21.056 170.464 21.232 170.816 21.424L170.096 23.392C169.787 23.232 169.44 23.0933 169.056 22.976C168.683 22.848 168.229 22.784 167.696 22.784C167.099 22.784 166.667 22.8693 166.4 23.04C166.144 23.2 166.016 23.4507 166.016 23.792C166.016 23.9947 166.064 24.1653 166.16 24.304C166.256 24.4427 166.389 24.5707 166.56 24.688C166.741 24.7947 166.944 24.896 167.168 24.992C167.403 25.0773 167.659 25.168 167.936 25.264C168.512 25.4773 169.013 25.6907 169.44 25.904C169.867 26.1067 170.219 26.3467 170.496 26.624C170.784 26.9013 170.997 27.2267 171.136 27.6C171.275 27.9733 171.344 28.4267 171.344 28.96C171.344 29.9947 170.981 30.8 170.256 31.376C169.531 31.9413 168.437 32.224 166.976 32.224C166.485 32.224 166.043 32.192 165.648 32.128C165.253 32.0747 164.901 32.0053 164.592 31.92C164.293 31.8347 164.032 31.744 163.808 31.648C163.595 31.552 163.413 31.4613 163.264 31.376L163.968 29.392C164.299 29.5733 164.704 29.7387 165.184 29.888C165.675 30.0267 166.272 30.096 166.976 30.096ZM176.788 30.096C177.14 30.096 177.428 30.0693 177.652 30.016C177.887 29.952 178.074 29.872 178.212 29.776C178.351 29.6693 178.447 29.5467 178.5 29.408C178.554 29.2693 178.58 29.1147 178.58 28.944C178.58 28.5813 178.41 28.2827 178.068 28.048C177.727 27.8027 177.14 27.5413 176.308 27.264C175.946 27.136 175.583 26.992 175.22 26.832C174.858 26.6613 174.532 26.4533 174.244 26.208C173.956 25.952 173.722 25.648 173.54 25.296C173.359 24.9333 173.268 24.496 173.268 23.984C173.268 23.472 173.364 23.0133 173.556 22.608C173.748 22.192 174.02 21.84 174.372 21.552C174.724 21.264 175.151 21.0453 175.652 20.896C176.154 20.736 176.719 20.656 177.348 20.656C178.095 20.656 178.74 20.736 179.284 20.896C179.828 21.056 180.276 21.232 180.628 21.424L179.908 23.392C179.599 23.232 179.252 23.0933 178.868 22.976C178.495 22.848 178.042 22.784 177.508 22.784C176.911 22.784 176.479 22.8693 176.212 23.04C175.956 23.2 175.828 23.4507 175.828 23.792C175.828 23.9947 175.876 24.1653 175.972 24.304C176.068 24.4427 176.202 24.5707 176.372 24.688C176.554 24.7947 176.756 24.896 176.98 24.992C177.215 25.0773 177.471 25.168 177.748 25.264C178.324 25.4773 178.826 25.6907 179.252 25.904C179.679 26.1067 180.031 26.3467 180.308 26.624C180.596 26.9013 180.81 27.2267 180.948 27.6C181.087 27.9733 181.156 28.4267 181.156 28.96C181.156 29.9947 180.794 30.8 180.068 31.376C179.343 31.9413 178.25 32.224 176.788 32.224C176.298 32.224 175.855 32.192 175.46 32.128C175.066 32.0747 174.714 32.0053 174.404 31.92C174.106 31.8347 173.844 31.744 173.62 31.648C173.407 31.552 173.226 31.4613 173.076 31.376L173.78 29.392C174.111 29.5733 174.516 29.7387 174.996 29.888C175.487 30.0267 176.084 30.096 176.788 30.096ZM195.345 32C195.227 31.616 195.094 31.2213 194.945 30.816C194.806 30.4107 194.667 30.0053 194.529 29.6H190.209C190.07 30.0053 189.926 30.4107 189.777 30.816C189.638 31.2213 189.51 31.616 189.393 32H186.801C187.217 30.8053 187.611 29.7013 187.985 28.688C188.358 27.6747 188.721 26.72 189.073 25.824C189.435 24.928 189.787 24.08 190.129 23.28C190.481 22.4693 190.843 21.68 191.217 20.912H193.601C193.963 21.68 194.321 22.4693 194.673 23.28C195.025 24.08 195.377 24.928 195.729 25.824C196.091 26.72 196.459 27.6747 196.833 28.688C197.206 29.7013 197.601 30.8053 198.017 32H195.345ZM192.353 23.424C192.299 23.584 192.219 23.8027 192.113 24.08C192.006 24.3573 191.883 24.6773 191.745 25.04C191.606 25.4027 191.451 25.8027 191.281 26.24C191.121 26.6773 190.955 27.136 190.785 27.616H193.937C193.766 27.136 193.601 26.6773 193.441 26.24C193.281 25.8027 193.126 25.4027 192.977 25.04C192.838 24.6773 192.715 24.3573 192.609 24.08C192.502 23.8027 192.417 23.584 192.353 23.424ZM207.624 20.784C209.277 20.784 210.546 21.0773 211.432 21.664C212.317 22.24 212.76 23.1893 212.76 24.512C212.76 25.8453 212.312 26.8107 211.416 27.408C210.52 27.9947 209.24 28.288 207.576 28.288H206.792V32H204.296V21.072C204.84 20.9653 205.416 20.8907 206.024 20.848C206.632 20.8053 207.165 20.784 207.624 20.784ZM207.784 22.912C207.602 22.912 207.421 22.9173 207.24 22.928C207.069 22.9387 206.92 22.9493 206.792 22.96V26.16H207.576C208.44 26.16 209.09 26.0427 209.528 25.808C209.965 25.5733 210.184 25.136 210.184 24.496C210.184 24.1867 210.125 23.9307 210.008 23.728C209.901 23.5253 209.741 23.3653 209.528 23.248C209.325 23.12 209.074 23.0347 208.776 22.992C208.477 22.9387 208.146 22.912 207.784 22.912ZM218.341 20.784C220.005 20.784 221.279 21.0827 222.165 21.68C223.05 22.2667 223.493 23.184 223.493 24.432C223.493 25.2107 223.311 25.8453 222.949 26.336C222.597 26.816 222.085 27.1947 221.413 27.472C221.637 27.7493 221.871 28.0693 222.117 28.432C222.362 28.784 222.602 29.1573 222.837 29.552C223.082 29.936 223.317 30.3413 223.541 30.768C223.765 31.184 223.973 31.5947 224.165 32H221.365C221.162 31.6373 220.954 31.2693 220.741 30.896C220.538 30.5227 220.325 30.16 220.101 29.808C219.887 29.456 219.674 29.1253 219.461 28.816C219.247 28.496 219.034 28.208 218.821 27.952H217.589V32H215.093V21.072C215.637 20.9653 216.197 20.8907 216.773 20.848C217.359 20.8053 217.882 20.784 218.341 20.784ZM218.485 22.912C218.303 22.912 218.138 22.9173 217.989 22.928C217.85 22.9387 217.717 22.9493 217.589 22.96V25.968H218.293C219.231 25.968 219.903 25.8507 220.309 25.616C220.714 25.3813 220.917 24.9813 220.917 24.416C220.917 23.872 220.709 23.488 220.293 23.264C219.887 23.0293 219.285 22.912 218.485 22.912ZM228.079 26.448C228.079 26.992 228.143 27.4827 228.271 27.92C228.41 28.3573 228.602 28.736 228.847 29.056C229.103 29.3653 229.412 29.6053 229.775 29.776C230.138 29.9467 230.554 30.032 231.023 30.032C231.482 30.032 231.892 29.9467 232.255 29.776C232.628 29.6053 232.938 29.3653 233.183 29.056C233.439 28.736 233.631 28.3573 233.759 27.92C233.898 27.4827 233.967 26.992 233.967 26.448C233.967 25.904 233.898 25.4133 233.759 24.976C233.631 24.528 233.439 24.1493 233.183 23.84C232.938 23.52 232.628 23.2747 232.255 23.104C231.892 22.9333 231.482 22.848 231.023 22.848C230.554 22.848 230.138 22.9387 229.775 23.12C229.412 23.2907 229.103 23.536 228.847 23.856C228.602 24.1653 228.41 24.544 228.271 24.992C228.143 25.4293 228.079 25.9147 228.079 26.448ZM236.543 26.448C236.543 27.3973 236.399 28.2347 236.111 28.96C235.834 29.6747 235.45 30.2773 234.959 30.768C234.468 31.248 233.882 31.6107 233.199 31.856C232.527 32.1013 231.802 32.224 231.023 32.224C230.266 32.224 229.551 32.1013 228.879 31.856C228.207 31.6107 227.62 31.248 227.119 30.768C226.618 30.2773 226.223 29.6747 225.935 28.96C225.647 28.2347 225.503 27.3973 225.503 26.448C225.503 25.4987 225.652 24.6667 225.951 23.952C226.25 23.2267 226.65 22.6187 227.151 22.128C227.663 21.6373 228.25 21.2693 228.911 21.024C229.583 20.7787 230.287 20.656 231.023 20.656C231.78 20.656 232.495 20.7787 233.167 21.024C233.839 21.2693 234.426 21.6373 234.927 22.128C235.428 22.6187 235.823 23.2267 236.111 23.952C236.399 24.6667 236.543 25.4987 236.543 26.448ZM244.813 28.272C244.813 28.816 244.749 29.328 244.621 29.808C244.503 30.288 244.29 30.7093 243.981 31.072C243.682 31.424 243.271 31.7067 242.749 31.92C242.237 32.1227 241.586 32.224 240.797 32.224C240.071 32.224 239.447 32.1387 238.925 31.968C238.402 31.7867 237.97 31.5787 237.629 31.344L238.461 29.408C238.77 29.5893 239.101 29.7493 239.453 29.888C239.805 30.0267 240.189 30.096 240.605 30.096C241.213 30.096 241.65 29.9467 241.917 29.648C242.183 29.3493 242.317 28.848 242.317 28.144V20.912H244.813V28.272ZM247.718 32V20.912H255.206V23.008H250.214V25.184H254.646V27.232H250.214V29.904H255.574V32H247.718ZM262.977 32.224C261.174 32.224 259.798 31.7227 258.849 30.72C257.91 29.7173 257.441 28.2933 257.441 26.448C257.441 25.5307 257.585 24.7147 257.873 24C258.161 23.2747 258.555 22.6667 259.057 22.176C259.558 21.6747 260.155 21.296 260.849 21.04C261.542 20.784 262.294 20.656 263.105 20.656C263.574 20.656 264.001 20.6933 264.385 20.768C264.769 20.832 265.105 20.912 265.393 21.008C265.681 21.0933 265.921 21.184 266.113 21.28C266.305 21.376 266.443 21.4507 266.529 21.504L265.809 23.52C265.467 23.3387 265.067 23.184 264.609 23.056C264.161 22.928 263.649 22.864 263.073 22.864C262.689 22.864 262.31 22.928 261.937 23.056C261.574 23.184 261.249 23.392 260.961 23.68C260.683 23.9573 260.459 24.32 260.289 24.768C260.118 25.216 260.033 25.76 260.033 26.4C260.033 26.912 260.086 27.392 260.193 27.84C260.31 28.2773 260.491 28.656 260.737 28.976C260.993 29.296 261.323 29.552 261.729 29.744C262.134 29.9253 262.625 30.016 263.201 30.016C263.563 30.016 263.889 29.9947 264.177 29.952C264.465 29.9093 264.721 29.8613 264.945 29.808C265.169 29.744 265.366 29.6747 265.537 29.6C265.707 29.5253 265.862 29.456 266.001 29.392L266.689 31.392C266.337 31.6053 265.841 31.7973 265.201 31.968C264.561 32.1387 263.819 32.224 262.977 32.224ZM277.363 20.912V23.04H274.019V32H271.523V23.04H268.179V20.912H277.363Z" fill="white"/>
</svg>
